<svg xmlns="http://www.w3.org/2000/svg" width="26" height="20" viewBox="0 0 26 20">
    <g fill="#FFF" fill-rule="evenodd" opacity=".6">
        <circle cx="1" cy="19" r="1"/>
        <circle cx="19" cy="19" r="1"/>
        <circle cx="7" cy="19" r="1"/>
        <circle cx="25" cy="19" r="1"/>
        <circle cx="13" cy="19" r="1"/>
        <circle cx="1" cy="1" r="1"/>
        <circle cx="19" cy="1" r="1"/>
        <circle cx="7" cy="1" r="1"/>
        <circle cx="25" cy="1" r="1"/>
        <circle cx="13" cy="1" r="1"/>
        <circle cx="1" cy="7" r="1"/>
        <circle cx="19" cy="7" r="1"/>
        <circle cx="7" cy="7" r="1"/>
        <circle cx="25" cy="7" r="1"/>
        <circle cx="13" cy="7" r="1"/>
        <circle cx="1" cy="13" r="1"/>
        <circle cx="19" cy="13" r="1"/>
        <circle cx="7" cy="13" r="1"/>
        <circle cx="25" cy="13" r="1"/>
        <circle cx="13" cy="13" r="1"/>
    </g>
</svg>
