<svg xmlns="http://www.w3.org/2000/svg" width="80" height="48" viewBox="0 0 80 48">
    <g fill="#8C8C8C" fill-rule="evenodd">
        <path d="M22.716 17.44c0 .987.106 1.787.291 2.373.212.587.477 1.227.848 1.92.132.214.185.427.185.614 0 .266-.159.533-.503.8l-1.669 1.12c-.238.16-.477.24-.689.24-.265 0-.53-.134-.794-.374-.371-.4-.689-.826-.954-1.253-.265-.453-.53-.96-.821-1.573-2.067 2.453-4.662 3.68-7.788 3.68-2.225 0-4-.64-5.298-1.92-1.298-1.28-1.96-2.987-1.96-5.12 0-2.267.794-4.107 2.41-5.494 1.616-1.386 3.762-2.08 6.49-2.08.9 0 1.828.08 2.808.214.98.133 1.987.346 3.046.586V9.227c0-2.027-.423-3.44-1.245-4.267-.847-.827-2.278-1.227-4.317-1.227-.928 0-1.881.107-2.861.347-.98.24-1.934.533-2.861.907a7.569 7.569 0 0 1-.927.346c-.186.054-.318.08-.425.08-.37 0-.556-.266-.556-.826V3.28c0-.427.053-.747.186-.933.132-.187.37-.374.742-.56.926-.48 2.04-.88 3.337-1.2C10.69.24 12.067.08 13.524.08c3.152 0 5.457.72 6.94 2.16 1.457 1.44 2.199 3.627 2.199 6.56v8.64h.053zM11.96 21.493c.874 0 1.774-.16 2.728-.48.954-.32 1.802-.906 2.517-1.706.424-.507.741-1.067.9-1.707.16-.64.265-1.413.265-2.32v-1.12a21.99 21.99 0 0 0-2.437-.453 19.83 19.83 0 0 0-2.49-.16c-1.775 0-3.073.346-3.947 1.066-.874.72-1.298 1.734-1.298 3.067 0 1.253.318 2.187.98 2.827.636.666 1.563.986 2.782.986zm21.271 2.88c-.476 0-.794-.08-1.006-.266-.212-.16-.398-.534-.557-1.04L25.444 2.453c-.159-.533-.238-.88-.238-1.066 0-.427.212-.667.636-.667h2.596c.503 0 .847.08 1.033.267.212.16.37.533.53 1.04l4.45 17.653 4.132-17.653c.133-.534.291-.88.504-1.04.212-.16.582-.267 1.06-.267h2.118c.504 0 .848.08 1.06.267.212.16.397.533.503 1.04l4.186 17.866 4.583-17.866c.159-.534.344-.88.53-1.04.211-.16.556-.267 1.033-.267h2.463c.424 0 .662.213.662.667 0 .133-.026.266-.053.426-.026.16-.08.374-.185.667l-6.384 20.613c-.16.534-.345.88-.557 1.04-.211.16-.556.267-1.006.267h-2.278c-.504 0-.848-.08-1.06-.267-.212-.186-.397-.533-.503-1.066l-4.106-17.2-4.08 17.173c-.132.533-.291.88-.503 1.067-.212.186-.583.266-1.06.266h-2.278zm34.04.72a17.42 17.42 0 0 1-4.08-.48c-1.324-.32-2.357-.666-3.046-1.066-.424-.24-.715-.507-.82-.747a1.893 1.893 0 0 1-.16-.747v-1.36c0-.56.212-.826.61-.826.158 0 .317.026.476.08.16.053.397.16.662.266.9.4 1.881.72 2.914.934 1.06.213 2.093.32 3.153.32 1.669 0 2.967-.294 3.867-.88.9-.587 1.378-1.44 1.378-2.534 0-.746-.239-1.36-.716-1.866-.476-.507-1.377-.96-2.675-1.387l-3.841-1.2c-1.934-.613-3.364-1.52-4.238-2.72-.875-1.173-1.325-2.48-1.325-3.867 0-1.12.238-2.106.715-2.96a6.84 6.84 0 0 1 1.908-2.186C62.848 1.253 63.749.8 64.809.48c1.06-.32 2.172-.453 3.337-.453.583 0 1.192.026 1.775.106.61.08 1.165.187 1.722.294.53.133 1.033.266 1.51.426.476.16.848.32 1.112.48.371.214.636.427.795.667.16.213.239.507.239.88v1.253c0 .56-.212.854-.61.854-.212 0-.556-.107-1.006-.32-1.51-.694-3.206-1.04-5.086-1.04-1.51 0-2.702.24-3.524.746-.82.507-1.245 1.28-1.245 2.374 0 .746.265 1.386.795 1.893.53.507 1.51 1.013 2.914 1.467l3.762 1.2c1.907.613 3.284 1.466 4.106 2.56.82 1.093 1.218 2.346 1.218 3.733 0 1.147-.238 2.187-.689 3.093a7.161 7.161 0 0 1-1.933 2.347c-.822.667-1.802 1.147-2.94 1.493a12.52 12.52 0 0 1-3.789.56zM72.278 38.053c-8.715 6.48-21.377 9.92-32.264 9.92-15.258 0-29.007-5.68-39.39-15.12-.822-.746-.08-1.76.9-1.173C12.756 38.24 26.61 42.213 40.94 42.213c9.669 0 20.291-2.026 30.066-6.186 1.457-.667 2.702.96 1.271 2.026zm3.63-4.16c-1.113-1.44-7.364-.693-10.199-.346-.848.106-.98-.64-.212-1.2 4.98-3.52 13.166-2.507 14.12-1.334.953 1.2-.265 9.44-4.928 13.387-.715.613-1.404.293-1.086-.507 1.06-2.64 3.417-8.586 2.305-10z"/>
    </g>
</svg>
