<svg xmlns="http://www.w3.org/2000/svg" width="166" height="48" viewBox="0 0 166 48">
    <g fill="#8C8C8C" fill-rule="evenodd">
        <path d="M38.236 7.228l-9.11 18.31 16.04 18.55-29.769 3.373 46.192.482zM36.44 0L15.526 17.467 0 43.607l13.216-1.325z"/>
        <path fill-rule="nonzero" d="M79.048 18.487L69.045 42.966h3.4l2.602-6.863h11.058l2.764 6.863h3.383l-10.04-24.48h-3.164zm1.491 2.97h.073c.133.75.267 1.297.4 1.639l4.092 10.43h-9.039l4.056-10.43c.158-.399.297-.945.418-1.64zm77.348 3.619c-2.438 0-4.48.859-6.13 2.577-1.636 1.707-2.455 3.921-2.455 6.641 0 2.88.752 5.115 2.256 6.709 1.503 1.581 3.57 2.372 6.201 2.372 2.692 0 4.856-.557 6.493-1.672v-2.63c-1.758 1.298-3.685 1.947-5.783 1.947-1.867 0-3.334-.53-4.401-1.588-1.067-1.058-1.625-2.56-1.674-4.507h13.15v-1.468c0-2.628-.667-4.682-2-6.162-1.335-1.48-3.22-2.22-5.657-2.22zm-13.326.102c-1.08 0-2.055.348-2.928 1.042-.873.683-1.522 1.638-1.946 2.867h-.073v-3.601h-2.983v17.48h2.983v-8.91c0-1.947.425-3.483 1.273-4.61.861-1.127 1.928-1.69 3.201-1.69.982 0 1.734.188 2.256.563v-2.902c-.413-.16-1.007-.239-1.783-.239zm-49.277.308v2.39h9.985l-11.022 14.22v.87h15.296v-2.39H98.63l11.022-14.288v-.802H95.284zm18.855 0v10.447c0 4.962 2.219 7.442 6.657 7.442 2.594 0 4.51-1.058 5.747-3.175h.072v2.766h2.983v-17.48h-2.983v10.071c0 1.628-.472 2.948-1.418 3.96-.934 1.002-2.128 1.503-3.583 1.503-3.007 0-4.51-1.844-4.51-5.53V25.485h-2.965zm43.693 1.946c1.455 0 2.59.45 3.402 1.348.824.9 1.242 2.157 1.254 3.773H152.43c.23-1.525.837-2.76 1.82-3.705.981-.944 2.176-1.416 3.582-1.416z"/>
    </g>
</svg>
