<svg xmlns="http://www.w3.org/2000/svg" width="42" height="21" viewBox="0 0 42 21">
    <path fill="#9B9B9B" fill-rule="nonzero" d="M10.97 10.807c0 3.232-2.17 5.71-5.545 5.71-1.688 0-3.231-.708-4.171-2.313v2.077H0V0h1.254v7.433c1.085-1.652 2.604-2.29 4.219-2.29 3.327 0 5.497 2.408 5.497 5.664zm-1.326 0c0-2.549-1.519-4.601-4.22-4.601-2.724 0-4.218 2.052-4.218 4.6 0 2.525 1.494 4.602 4.219 4.602 2.7 0 4.22-2.077 4.22-4.601zM14.997 0v16.28h-1.254V0h1.254zm14.225 10.854c0 3.303-2.532 5.663-5.739 5.663-3.182 0-5.714-2.36-5.714-5.663 0-3.303 2.532-5.71 5.714-5.71 3.207 0 5.739 2.407 5.739 5.71zm-1.326-.047c0-2.549-1.688-4.601-4.413-4.601-2.7 0-4.388 2.052-4.388 4.6 0 2.525 1.688 4.602 4.388 4.602 2.725 0 4.413-2.077 4.413-4.601zM42 5.333v8.588c0 2.478-.313 3.776-.916 4.72-.603.943-1.929 2.359-4.822 2.359s-4.702-1.652-4.702-1.652l.724-.944c.602.59 2.29 1.487 4.098 1.487 1.809 0 2.894-.779 3.376-1.416.482-.66.964-1.84.964-3.728v-.802c-.82 1.416-2.218 2.336-4.22 2.336-2.94 0-5.472-2.147-5.472-5.569 0-3.421 2.531-5.568 5.473-5.568 2.001 0 3.472.967 4.22 2.265V5.333H42zm-1.206 5.356c0-2.478-1.446-4.46-4.219-4.46-2.772 0-4.22 1.982-4.22 4.46 0 2.477 1.448 4.483 4.22 4.483 2.773 0 4.22-2.006 4.22-4.483z"/>
</svg>
