<svg xmlns="http://www.w3.org/2000/svg" width="207" height="27" viewBox="0 0 207 27">
    <g fill="none" fill-rule="evenodd">
        <path fill="#FD5750" d="M0 20.976h5.705l-1.767 5.342H0v-5.342zm0-10.154h9.066l-1.768 5.34H0v-5.34zM0 .667h12.426L10.66 6.008H0V.667zm18.05 0h14.184v5.341H16.282L18.05.667zm-5.128 15.496l1.767-5.341h17.545v5.34H12.922zm-1.593 4.813h20.905v5.342H9.56l1.768-5.342z"/>
        <path fill="#FFF" d="M81.516 16.516l2.786-8.426c.82 0 1.598.008 2.354.008l-3.711 10.748h-2.93l-3.5-10.756h2.445l2.556 8.426zM113.978 2.69v14.066h3.25v2.09h-5.553V4.634h-2.294V2.69h4.597zm-11.021 7.39c.047-.182.532-2.088 2.417-2.088h3.234v2.33h-3.583c-.886 0-1.925.742-1.925 1.958l-.01 6.567h-2.37V8.063c.733 0 1.402-.003 2.191-.003l.046 2.02zm33.248 2.215c1.73.204 4.344.513 4.484 3.182.067 1.255-.431 2.039-.86 2.476-1.105 1.127-2.86 1.2-4.084 1.158-2.389-.084-4.442-1.082-4.528-1.124l.995-2.026c.015.008 1.61.866 3.498 1.008 2.828.213 2.85-.901 2.825-1.373-.034-.626-.598-.824-2.594-1.06-1.775-.209-4.458-.525-4.522-3.333-.02-.867.284-1.638.882-2.229.8-.79 2.105-1.214 3.584-1.162 2.261.079 4.206.678 4.288.704l-.67 2.155a16.05 16.05 0 0 0-3.696-.604c-.823-.028-1.577.173-1.92.512-.154.152-.219.328-.214.572.016.657.35.887 2.532 1.144zm16.015 3.182c.067 1.255-.431 2.04-.86 2.477-1.105 1.126-2.86 1.2-4.083 1.157-2.39-.084-4.443-1.082-4.529-1.124l.919-1.87c.015.007 1.686.71 3.574.852 2.828.213 2.85-.901 2.825-1.373-.034-.626-.598-.824-2.593-1.06-1.776-.208-4.459-.525-4.523-3.333-.02-.867.284-1.638.882-2.229.8-.79 2.105-1.214 3.585-1.162 2.26.079 4.205.678 4.286.704l-.67 2.155c-.018-.005-1.747-.603-3.695-.603-1.718 0-2.134.548-2.134 1.083 0 .657.35.887 2.532 1.144 1.73.204 4.344.512 4.484 3.182zM47.468 12.295c1.731.204 4.345.513 4.485 3.182.067 1.255-.431 2.039-.86 2.476-1.106 1.127-2.86 1.2-4.084 1.158-2.389-.084-4.442-1.082-4.528-1.124l.995-2.026c.015.008 1.61.866 3.498 1.008 2.828.213 2.85-.901 2.825-1.373-.034-.626-.598-.824-2.594-1.06-1.775-.209-4.458-.525-4.522-3.333-.021-.867.284-1.638.882-2.229.8-.79 2.105-1.214 3.584-1.162 2.26.079 4.206.678 4.287.704l-.67 2.155c-.018-.006-1.748-.536-3.695-.604-.823-.028-1.577.173-1.92.512-.154.152-.219.328-.214.572.015.657.35.887 2.531 1.144zm76.596-4.499c5.079 0 5.079 5.172 5.079 5.172v1.384h-8.07c0 1.315 1.148 2.729 3.275 2.729 1.776 0 3.62-.719 3.62-.719l.587 1.85s-2.264.906-4.397.906c-5.08 0-5.459-4.52-5.459-5.743 0-1.224.858-5.579 5.365-5.579zm2.886 4.606s.104-2.555-2.886-2.555c-2.703 0-3.018 2.555-3.018 2.555h5.904zM93.201 7.796c5.079 0 5.079 5.172 5.079 5.172v1.384h-8.07c0 1.315 1.148 2.729 3.275 2.729 1.776 0 3.62-.719 3.62-.719l.587 1.85s-2.264.906-4.397.906c-5.08 0-5.459-4.52-5.459-5.743 0-1.224.858-5.579 5.365-5.579zm2.886 4.606s.104-2.555-2.885-2.555c-2.704 0-3.019 2.555-3.019 2.555h5.904zM59.113 7.796c5.079 0 5.079 5.172 5.079 5.172v1.384h-8.07c0 1.315 1.148 2.729 3.274 2.729 1.777 0 3.62-.719 3.62-.719l.588 1.85s-2.265.906-4.397.906c-5.08 0-5.46-4.52-5.46-5.743 0-1.224.859-5.579 5.366-5.579zm2.886 4.606s.104-2.555-2.886-2.555c-2.703 0-3.018 2.555-3.018 2.555H62zm6.783-2.322c.047-.182.532-2.088 2.417-2.088h3.234v2.33h-3.584c-.885 0-1.924.742-1.924 1.958l-.01 6.567h-2.37V8.063c.732 0 1.402-.003 2.191-.003l.046 2.02z"/>
        <text fill="#9B9B9B" font-family="Gibson-Light, Gibson" font-size="23.86" font-weight="300" letter-spacing="-.119" transform="translate(0 -5)">
            <tspan x="160.757" y="24">docs</tspan>
        </text>
    </g>
</svg>
