<svg xmlns="http://www.w3.org/2000/svg" width="45" height="17" viewBox="0 0 45 17">
    <path fill="#9B9B9B" fill-rule="nonzero" d="M0 11.123C0 7.77 2.13 5.294 5.394 5.294c1.585 0 3.052.656 4.117 2.307V0h1.254v16.757H9.511V14.67C8.588 16.27 7.098 17 5.441 17 2.13 17 0 14.45 0 11.123zm1.301 0c0 2.598 1.49 4.736 4.14 4.736 2.674 0 4.141-2.138 4.141-4.736 0-2.623-1.467-4.736-4.14-4.736-2.65 0-4.14 2.113-4.14 4.736zm23.423.048c0 3.4-2.484 5.829-5.63 5.829-3.124 0-5.608-2.429-5.608-5.829s2.484-5.877 5.607-5.877c3.147 0 5.631 2.477 5.631 5.877zm-1.301-.048c0-2.623-1.656-4.736-4.33-4.736-2.65 0-4.306 2.113-4.306 4.736 0 2.598 1.656 4.736 4.306 4.736 2.674 0 4.33-2.138 4.33-4.736zm12.232 3.084l.71.85c-.403.486-1.539 1.943-4.496 1.943-2.957 0-5.37-2.429-5.37-5.877 0-3.473 2.602-5.829 5.488-5.829 2.91 0 4.093 1.627 4.33 1.943l-.78.85c-.474-.558-1.42-1.651-3.597-1.651-2.2 0-4.14 1.821-4.14 4.614s1.703 4.809 4.187 4.809c2.485 0 3.668-1.652 3.668-1.652zM45 13.673C45 15.786 43.178 17 41.144 17c-2.035 0-3.313-1.02-3.999-2.186l.876-.728c.71 1.068 1.798 1.773 3.17 1.773 1.372 0 2.579-.68 2.579-2.138 0-1.457-1.964-1.967-2.91-2.307-.947-.34-3.005-1.068-3.005-3.108s1.727-3.012 3.336-3.012c1.609 0 2.602.583 3.454 1.579l-.757.777c-.757-.85-1.514-1.287-2.744-1.287-1.23 0-2.106.631-2.106 1.797s1.183 1.676 2.531 2.161c1.373.486 3.431 1.215 3.431 3.352z"/>
</svg>
