<svg xmlns="http://www.w3.org/2000/svg" width="609" height="400" viewBox="0 0 609 400">
    <g fill="none" fill-rule="evenodd" stroke="#000" stroke-width="2">
        <path d="M131.555 415.976l31.716-31.717a133.028 133.028 0 0 1 94.064-38.963h269.079c5.412 0 9.8-4.387 9.8-9.8v-133.74M571.585 415.976V38.944M-25 244.389h71.325c5.412 0 9.8-4.388 9.8-9.8V61.319c0-5.412 4.388-9.8 9.8-9.8H236.5c5.413 0 9.801-4.388 9.801-9.8v-63.286"/>
        <path stroke-dasharray="4,6" stroke-linejoin="round" d="M229.074-22.294l-73.812 73.812c-54.75 0-99.137 44.385-99.137 99.137l-78.792 78.793"/>
        <path stroke-dasharray="4,6" stroke-linejoin="round" d="M26.196 180.585V26.71h79.497"/>
        <path d="M26.196 345.296V185.75M591.577 289.991h7.654M591.577 278.338h7.654M591.577 266.684h7.654M591.577 255.03h7.654M591.577 243.376h7.654M591.577 231.723h7.654M591.577 220.069h7.654M591.577 208.415h7.654M591.577 196.761h7.654M591.577 185.107h7.654M591.577 173.453h7.654M591.577 161.8h7.654M591.577 150.146h7.654M591.577 138.492h7.654M591.577 126.838h7.654M591.577 115.184h7.654"/>
        <path stroke-dasharray="4,6" stroke-linejoin="round" d="M654.009 415.976c0 45.52-36.902 82.423-82.424 82.423-45.521 0-82.424-36.902-82.424-82.423s36.903-82.424 82.424-82.424c45.522 0 82.424 36.903 82.424 82.424z"/>
        <path d="M31.56 350.661a5.364 5.364 0 1 1-10.73 0 5.364 5.364 0 0 1 10.73 0zM116.015 26.71a5.365 5.365 0 1 1-10.73 0 5.365 5.365 0 0 1 10.73 0zM541.58 196.39a5.365 5.365 0 1 1-10.73 0 5.365 5.365 0 0 1 10.73 0zM576.95 34.593a5.364 5.364 0 1 1-10.73 0 5.364 5.364 0 0 1 10.73 0zM616.774 415.976c0 24.956-20.231 45.188-45.188 45.188-24.958 0-45.19-20.232-45.19-45.188 0-24.957 20.232-45.188 45.19-45.188 24.957 0 45.188 20.23 45.188 45.188zM226.302 348.976v67.009M238.442 415.99v-25.41M250.592 415.99v-29.1M262.733 415.99v-32.78M274.872 415.99v-36.47M287.012 415.99v-40.13M299.162 415.99v-41.91M311.302 415.99v-37.73M323.442 415.99v-33.14M335.592 415.99v-30.35M347.733 415.99v-28.12M359.872 415.99v-27.11M372.023 415.99v-28.77M384.162 415.99v-33.73M396.302 415.99v-40.95M408.452 415.99v-41.93M420.592 415.99v-40.12M432.733 415.99v-44.23M444.872 415.99v-48.68M457.023 415.99v-51.45M469.162 344.902l.001 71.085M226.302 380.445h-59.045M496.756 380.445h-27.594"/>
    </g>
</svg>
