<svg xmlns="http://www.w3.org/2000/svg" xmlns:xlink="http://www.w3.org/1999/xlink" width="615" height="581" viewBox="0 0 615 581">
    <defs>
        <path id="a" d="M0 574h614.966V.873H0z"/>
    </defs>
    <g fill="none" fill-rule="evenodd">
        <path fill="#F1F1F1" d="M98.132 104.85h22.851V81.999H98.132zM98.132 511.702h22.851V488.85H98.132zM11 367.504h22.851v-22.851H11zM592.115 367.504h22.85v-22.85h-22.85zM504.983 104.85h22.851V81.999h-22.851zM504.983 511.702h22.851V488.85h-22.851zM150.566 459.269h59.661v-59.661h-59.661zM415.74 459.269h59.661v-59.661H415.74zM415.74 194.094h59.661v-59.661H415.74zM150.566 194.094h59.661v-59.661h-59.661z"/>
        <path stroke="#FD5750" stroke-linejoin="round" stroke-width="2" d="M435.57 417.438v2h-2"/>
        <path stroke="#FD5750" stroke-dasharray="3.927,5.891" stroke-linejoin="round" stroke-width="2" d="M427.68 419.438H175.34"/>
        <path stroke="#FD5750" stroke-linejoin="round" stroke-width="2" d="M172.395 419.438h-2v-2"/>
        <path stroke="#FD5750" stroke-dasharray="3.927,5.891" stroke-linejoin="round" stroke-width="2" d="M170.395 411.547V159.209"/>
        <path stroke="#FD5750" stroke-linejoin="round" stroke-width="2" d="M170.395 156.263v-2h2"/>
        <path stroke="#FD5750" stroke-dasharray="3.927,5.891" stroke-linejoin="round" stroke-width="2" d="M178.286 154.263h252.34"/>
        <path stroke="#FD5750" stroke-linejoin="round" stroke-width="2" d="M433.57 154.263h2v2"/>
        <path stroke="#FD5750" stroke-dasharray="3.927,5.891" stroke-linejoin="round" stroke-width="2" d="M435.57 162.154v252.34"/>
        <path stroke="#FD5750" stroke-linejoin="round" stroke-width="2" d="M494.983 478.851l-1.415-1.415"/>
        <path stroke="#FD5750" stroke-dasharray="4.023,6.034" stroke-linejoin="round" stroke-width="2" d="M489.303 473.17L114.532 98.399"/>
        <path stroke="#FD5750" stroke-linejoin="round" stroke-width="2" d="M112.397 96.265l-1.414-1.415M494.983 94.85l-1.415 1.415"/>
        <path stroke="#FD5750" stroke-dasharray="4.023,6.034" stroke-linejoin="round" stroke-width="2" d="M489.303 100.532L114.532 475.303"/>
        <path stroke="#FD5750" stroke-linejoin="round" stroke-width="2" d="M112.397 477.436l-1.414 1.415"/>
        <path fill="#FFF" d="M243.322 346.512h119.322V227.189H243.322z"/>
        <path stroke="#FD5750" stroke-linejoin="round" stroke-width="2" d="M362.644 344.512v2h-2"/>
        <path stroke="#FD5750" stroke-dasharray="3.977,5.965" stroke-linejoin="round" stroke-width="2" d="M354.68 346.512H248.305"/>
        <path stroke="#FD5750" stroke-linejoin="round" stroke-width="2" d="M245.322 346.512h-2v-2"/>
        <path stroke="#FD5750" stroke-dasharray="3.977,5.965" stroke-linejoin="round" stroke-width="2" d="M243.322 338.547V232.172"/>
        <path stroke="#FD5750" stroke-linejoin="round" stroke-width="2" d="M243.322 229.19v-2h2"/>
        <path stroke="#FD5750" stroke-dasharray="3.977,5.965" stroke-linejoin="round" stroke-width="2" d="M251.287 227.19h106.375"/>
        <path stroke="#FD5750" stroke-linejoin="round" stroke-width="2" d="M360.644 227.19h2v2"/>
        <path stroke="#FD5750" stroke-dasharray="3.977,5.965" stroke-linejoin="round" stroke-width="2" d="M362.644 235.154V341.53"/>
        <g transform="translate(0 4.127)">
            <path stroke="#FD5750" stroke-dasharray="3.988,5.982" stroke-linejoin="round" stroke-width="2" d="M494.983 282.723c0 106.04-85.962 192.001-192 192.001-106.039 0-192-85.962-192-192 0-106.039 85.961-192 192-192 106.038 0 192 85.961 192 192z"/>
            <mask id="b" fill="#fff">
                <use xlink:href="#a"/>
            </mask>
            <path fill="#FFF" d="M88.132 90.723h22.851V67.872H88.132z" mask="url(#b)"/>
            <path stroke="#FD5750" stroke-linejoin="round" stroke-width="2" d="M88.132 90.723h22.851V67.872H88.132z" mask="url(#b)"/>
            <path fill="#FFF" d="M88.132 497.575h22.851v-22.852H88.132z" mask="url(#b)"/>
            <path stroke="#FD5750" stroke-linejoin="round" stroke-width="2" d="M88.132 497.575h22.851v-22.852H88.132z" mask="url(#b)"/>
            <path fill="#FFF" d="M1 353.377h22.851v-22.851H1z" mask="url(#b)"/>
            <path stroke="#FD5750" stroke-linejoin="round" stroke-width="2" d="M1 353.377h22.851v-22.851H1z" mask="url(#b)"/>
            <path fill="#F1F1F1" d="M11 245.817h22.851v-22.851H11z" mask="url(#b)"/>
            <path fill="#FFF" d="M1 235.817h22.851v-22.851H1z" mask="url(#b)"/>
            <path stroke="#FD5750" stroke-linejoin="round" stroke-width="2" d="M1 235.817h22.851v-22.851H1z" mask="url(#b)"/>
            <path fill="#F1F1F1" d="M301.557 574h22.851v-22.851h-22.851z" mask="url(#b)"/>
            <path fill="#FFF" d="M291.557 564h22.851v-22.851h-22.851z" mask="url(#b)"/>
            <path stroke="#FD5750" stroke-linejoin="round" stroke-width="2" d="M291.557 564h22.851v-22.851h-22.851z" mask="url(#b)"/>
            <path fill="#F1F1F1" d="M301.557 34.723h22.851V11.872h-22.851z" mask="url(#b)"/>
            <path fill="#FFF" d="M291.557 24.723h22.851V1.872h-22.851z" mask="url(#b)"/>
            <path stroke="#FD5750" stroke-linejoin="round" stroke-width="2" d="M291.557 24.723h22.851V1.872h-22.851z" mask="url(#b)"/>
            <path fill="#FFF" d="M582.115 353.377h22.851v-22.851h-22.851z" mask="url(#b)"/>
            <path stroke="#FD5750" stroke-linejoin="round" stroke-width="2" d="M582.115 353.377h22.851v-22.851h-22.851z" mask="url(#b)"/>
            <path fill="#F1F1F1" d="M592.115 246.488h22.851v-22.851h-22.851z" mask="url(#b)"/>
            <path fill="#FFF" d="M582.115 236.488h22.851v-22.851h-22.851z" mask="url(#b)"/>
            <path stroke="#FD5750" stroke-linejoin="round" stroke-width="2" d="M582.115 236.488h22.851v-22.851h-22.851z" mask="url(#b)"/>
            <path fill="#FFF" d="M494.983 90.723h22.851V67.872h-22.851z" mask="url(#b)"/>
            <path stroke="#FD5750" stroke-linejoin="round" stroke-width="2" d="M494.983 90.723h22.851V67.872h-22.851z" mask="url(#b)"/>
            <path fill="#FFF" d="M494.983 497.575h22.851v-22.852h-22.851z" mask="url(#b)"/>
            <path stroke="#FD5750" stroke-linejoin="round" stroke-width="2" d="M494.983 497.575h22.851v-22.852h-22.851z" mask="url(#b)"/>
            <path fill="#FFF" d="M140.566 445.142h59.661v-59.661h-59.661z" mask="url(#b)"/>
            <path stroke="#FD5750" stroke-linejoin="round" stroke-width="2" d="M140.566 445.142h59.661v-59.661h-59.661z" mask="url(#b)"/>
            <g mask="url(#b)">
                <path fill="#FFF" d="M170.395 341.952H23.85"/>
                <path stroke="#FD5750" stroke-linejoin="round" stroke-width="2" d="M170.395 341.952H23.85"/>
            </g>
            <g mask="url(#b)">
                <path fill="#FFF" d="M435.57 341.952h146.545"/>
                <path stroke="#FD5750" stroke-linejoin="round" stroke-width="2" d="M435.57 341.952h146.545"/>
            </g>
            <path fill="#FFF" d="M116.763 282.723a5.78 5.78 0 1 1-11.559 0 5.78 5.78 0 0 1 11.559 0" mask="url(#b)"/>
            <path stroke="#FD5750" stroke-linejoin="round" stroke-width="2" d="M116.763 282.723a5.78 5.78 0 1 1-11.559 0 5.78 5.78 0 0 1 11.559 0z" mask="url(#b)"/>
            <path fill="#FFF" d="M500.763 282.723a5.78 5.78 0 1 1-11.559 0 5.78 5.78 0 0 1 11.559 0" mask="url(#b)"/>
            <path stroke="#FD5750" stroke-linejoin="round" stroke-width="2" d="M500.763 282.723a5.78 5.78 0 1 1-11.559 0 5.78 5.78 0 0 1 11.559 0z" mask="url(#b)"/>
            <path fill="#FFF" d="M302.983 96.503a5.78 5.78 0 1 1 0-11.56 5.78 5.78 0 0 1 0 11.56" mask="url(#b)"/>
            <path stroke="#FD5750" stroke-linejoin="round" stroke-width="2" d="M302.983 96.503a5.78 5.78 0 1 1 0-11.56 5.78 5.78 0 0 1 0 11.56z" mask="url(#b)"/>
            <path fill="#FFF" d="M302.983 480.503a5.78 5.78 0 1 1 0-11.56 5.78 5.78 0 0 1 0 11.56" mask="url(#b)"/>
            <path stroke="#FD5750" stroke-linejoin="round" stroke-width="2" d="M302.983 480.503a5.78 5.78 0 1 1 0-11.56 5.78 5.78 0 0 1 0 11.56z" mask="url(#b)"/>
            <path fill="#F1F1F1" d="M152.67 409.403h35.451v-11.817H152.67zM152.67 433.036h35.451v-11.817H152.67zM151.622 421.219h37.547v-11.816h-37.547z" mask="url(#b)"/>
            <path stroke="#FFF" stroke-width="2" d="M151.622 421.219h37.547v-11.816h-37.547z" mask="url(#b)"/>
            <path stroke="#FFF" stroke-linejoin="round" stroke-width="2" d="M175.231 427.129h7.97" mask="url(#b)"/>
            <path fill="#FFF" d="M405.74 445.142h59.661v-59.661H405.74z" mask="url(#b)"/>
            <path stroke="#FD5750" stroke-linejoin="round" stroke-width="2" d="M405.74 445.142h59.661v-59.661H405.74z" mask="url(#b)"/>
            <path stroke="#FD5750" stroke-linejoin="round" stroke-width="2" d="M449.503 429.243c-7.694 7.694-20.17 7.694-27.864 0-7.695-7.694-7.695-20.17 0-27.863 7.694-7.695 20.17-7.695 27.864 0" mask="url(#b)"/>
            <path stroke="#FD5750" stroke-linejoin="round" stroke-width="2" d="M444.392 424.134c-4.871 4.871-12.77 4.871-17.644 0-4.873-4.873-4.873-12.773 0-17.646 4.874-4.872 12.773-4.872 17.644 0M439.283 419.024a5.25 5.25 0 1 1 0-7.425" mask="url(#b)"/>
            <path fill="#FFF" d="M405.74 179.967h59.661v-59.661H405.74z" mask="url(#b)"/>
            <path stroke="#FD5750" stroke-linejoin="round" stroke-width="2" d="M405.74 179.967h59.661v-59.661H405.74z" mask="url(#b)"/>
            <path fill="#F1F1F1" d="M435.57 132.046l-19.02 13.82 7.265 22.36h23.511l7.265-22.36z" mask="url(#b)"/>
            <path fill="#FFF" d="M140.566 179.967h59.661v-59.661h-59.661z" mask="url(#b)"/>
            <path stroke="#FD5750" stroke-linejoin="round" stroke-width="2" d="M140.566 179.967h59.661v-59.661h-59.661z" mask="url(#b)"/>
            <path stroke="#FD5750" stroke-linejoin="round" stroke-width="2" d="M188.485 150.136c0 9.99-8.099 18.09-18.09 18.09-9.99 0-18.09-8.1-18.09-18.09s8.1-18.09 18.09-18.09c9.991 0 18.09 8.1 18.09 18.09zM175.71 144.82l-10.63 10.632M175.71 155.452l-10.63-10.632" mask="url(#b)"/>
        </g>
    </g>
</svg>
