<svg xmlns="http://www.w3.org/2000/svg" xmlns:xlink="http://www.w3.org/1999/xlink" width="650" height="456" viewBox="0 0 650 456">
    <defs>
        <path id="a" d="M.916.865h237.511v1H.917z"/>
        <path id="c" d="M0 455h649.427V.731H0z"/>
    </defs>
    <g fill="none" fill-rule="evenodd">
        <path fill="#F1F1F1" d="M302.594 293.48h119.322V174.158H302.594zM507.609 263.841h60.045v-60.045h-60.045zM579.543 263.839h60.046v-60.045h-60.046zM10.999 105.394h22.852V82.543H10.999zM65.2 322.008h22.851v-22.851H65.2zM58.837 455.269h22.85v-22.851h-22.85zM199.029 437.06h22.852v-22.851h-22.852zM199.029 53.06h22.852V30.209h-22.852zM68.836 34.851h22.851V12H68.836zM435.675 263.841h60.045v-60.045h-60.045z"/>
        <g transform="translate(0 .269)">
            <path stroke="#FD5750" stroke-linejoin="round" stroke-width="2" d="M216.017 31.365c.668 0 1.335.004 2 .011"/>
            <path stroke="#FD5750" stroke-dasharray="4.022,6.032" stroke-linejoin="round" stroke-width="2" d="M224.05 31.53c102.312 4.21 183.967 88.487 183.967 191.835 0 104.361-83.263 189.275-186.983 191.936"/>
            <path stroke="#FD5750" stroke-linejoin="round" stroke-width="2" d="M218.017 415.355c-.665.007-1.332.011-2 .011"/>
            <g transform="translate(411 222)">
                <mask id="b" fill="#fff">
                    <use xlink:href="#a"/>
                </mask>
                <path stroke="#FD5750" stroke-linejoin="round" stroke-width="2" d="M.916 1.365h237.511" mask="url(#b)"/>
            </g>
            <path stroke="#FD5750" stroke-linejoin="round" stroke-width="2" d="M352.347 223.415L252.254 123.322a9.799 9.799 0 0 0-6.929-2.871h-63.807a9.799 9.799 0 0 1-6.93-2.87l-92.9-92.9"/>
            <path stroke="#FD5750" stroke-dasharray="4,6" stroke-linejoin="round" stroke-width="2" d="M352.347 223.415L252.254 323.508a9.798 9.798 0 0 1-6.929 2.87h-73.807a9.8 9.8 0 0 0-6.93 2.871l-92.9 92.9"/>
            <mask id="d" fill="#fff">
                <use xlink:href="#c"/>
            </mask>
            <path fill="#FFF" d="M292.594 283.211h119.322V163.889H292.594z" mask="url(#d)"/>
            <path stroke="#FD5750" stroke-linejoin="round" stroke-width="2" d="M292.594 283.211h119.322V163.889H292.594z" mask="url(#d)"/>
            <path fill="#FFF" d="M497.609 253.572h60.045v-60.045h-60.045z" mask="url(#d)"/>
            <path stroke="#FD5750" stroke-linejoin="round" stroke-width="2" d="M497.609 253.572h60.045v-60.045h-60.045z" mask="url(#d)"/>
            <path fill="#FFF" d="M515.788 208.906a3.876 3.876 0 1 1-7.751.001 3.876 3.876 0 0 1 7.75 0" mask="url(#d)"/>
            <path stroke="#FD5750" stroke-linejoin="round" stroke-width="2" d="M515.788 208.906a3.876 3.876 0 1 1-7.751.001 3.876 3.876 0 0 1 7.75 0z" mask="url(#d)"/>
            <g mask="url(#d)">
                <path fill="#FFF" d="M520.74 208.906h26.487"/>
                <path stroke="#FD5750" stroke-linejoin="round" stroke-width="2" d="M520.74 208.906h26.487"/>
            </g>
            <path fill="#FFF" d="M515.788 223.55a3.876 3.876 0 1 1-7.751 0 3.876 3.876 0 0 1 7.75 0" mask="url(#d)"/>
            <path stroke="#FD5750" stroke-linejoin="round" stroke-width="2" d="M515.788 223.55a3.876 3.876 0 1 1-7.751 0 3.876 3.876 0 0 1 7.75 0z" mask="url(#d)"/>
            <g mask="url(#d)">
                <path fill="#FFF" d="M520.74 223.55h26.487"/>
                <path stroke="#FD5750" stroke-linejoin="round" stroke-width="2" d="M520.74 223.55h26.487"/>
            </g>
            <path fill="#FFF" d="M515.788 238.192a3.876 3.876 0 1 1-7.753.002 3.876 3.876 0 0 1 7.753-.002" mask="url(#d)"/>
            <path stroke="#FD5750" stroke-linejoin="round" stroke-width="2" d="M515.788 238.192a3.876 3.876 0 1 1-7.753.002 3.876 3.876 0 0 1 7.753-.002z" mask="url(#d)"/>
            <g mask="url(#d)">
                <path fill="#FFF" d="M520.74 238.192h26.487"/>
                <path stroke="#FD5750" stroke-linejoin="round" stroke-width="2" d="M520.74 238.192h26.487"/>
            </g>
            <path fill="#FFF" d="M569.543 253.57h60.046v-60.045h-60.046z" mask="url(#d)"/>
            <path stroke="#FD5750" stroke-linejoin="round" stroke-width="2" d="M569.543 253.57h60.046v-60.045h-60.046z" mask="url(#d)"/>
            <path stroke="#FD5750" stroke-linejoin="round" stroke-width="2" d="M618.086 223.548c0 10.23-8.29 18.52-18.522 18.52-10.228 0-18.519-8.29-18.519-18.52 0-10.22 8.29-18.52 18.52-18.52s18.52 8.3 18.52 18.52z" mask="url(#d)"/>
            <path stroke="#FD5750" stroke-linejoin="round" stroke-width="2" d="M618.086 223.548h-18.522v-18.52c10.231 0 18.522 8.3 18.522 18.52z" mask="url(#d)"/>
            <path fill="#F1F1F1" d="M352.255 187.37l-38.042 27.64 14.531 44.72h47.023l14.53-44.72z" mask="url(#d)"/>
            <path stroke="#FD5750" stroke-linejoin="round" stroke-width="2" d="M292.594 253.189H173.49c-5.413 0-9.8 4.388-9.8 9.8v27.525c0 5.411-4.388 9.8-9.8 9.8H78.238" mask="url(#d)"/>
            <path stroke="#FD5750" stroke-dasharray="4,6" stroke-linejoin="round" stroke-width="2" d="M292.594 193.527H91.488a9.8 9.8 0 0 1-9.8-9.8V157.02a9.802 9.802 0 0 0-2.87-6.93L23.85 95.125" mask="url(#d)"/>
            <path fill="#FFF" d="M.999 95.125h22.852V72.274H.999z" mask="url(#d)"/>
            <path stroke="#FD5750" stroke-linejoin="round" stroke-width="2" d="M.999 95.125h22.852V72.274H.999z" mask="url(#d)"/>
            <path fill="#FFF" d="M55.2 311.739h22.851v-22.851H55.2z" mask="url(#d)"/>
            <path stroke="#FD5750" stroke-linejoin="round" stroke-width="2" d="M55.2 311.739h22.851v-22.851H55.2z" mask="url(#d)"/>
            <path fill="#FFF" d="M48.836 445h22.851v-22.851H48.836z" mask="url(#d)"/>
            <path stroke="#FD5750" stroke-linejoin="round" stroke-width="2" d="M48.836 445h22.851v-22.851H48.836z" mask="url(#d)"/>
            <path fill="#FFF" d="M189.029 426.791h22.852V403.94h-22.852z" mask="url(#d)"/>
            <path stroke="#FD5750" stroke-linejoin="round" stroke-width="2" d="M189.029 426.791h22.852V403.94h-22.852z" mask="url(#d)"/>
            <path fill="#FFF" d="M189.029 42.791h22.852V19.94h-22.852z" mask="url(#d)"/>
            <path stroke="#FD5750" stroke-linejoin="round" stroke-width="2" d="M189.029 42.791h22.852V19.94h-22.852z" mask="url(#d)"/>
            <path fill="#FFF" d="M58.836 24.582h22.851V1.731H58.836z" mask="url(#d)"/>
            <path stroke="#FD5750" stroke-linejoin="round" stroke-width="2" d="M58.836 24.582h22.851V1.731H58.836z" mask="url(#d)"/>
            <path fill="#FFF" d="M425.675 253.572h60.045v-60.045h-60.045z" mask="url(#d)"/>
            <path stroke="#FD5750" stroke-linejoin="round" stroke-width="2" d="M425.675 253.572h60.045v-60.045h-60.045zM438.435 241.23v-16.148M447.066 241.23v-26.19M455.698 241.23v-16.148M464.33 241.23v-35.36M472.96 241.23v-19.624" mask="url(#d)"/>
            <path fill="#FFF" d="M187.109 124.793a5.779 5.779 0 1 1 8.172-8.173 5.779 5.779 0 0 1-8.172 8.173" mask="url(#d)"/>
            <path stroke="#FD5750" stroke-linejoin="round" stroke-width="2" d="M187.109 124.793a5.779 5.779 0 1 1 8.172-8.173 5.779 5.779 0 0 1-8.172 8.173z" mask="url(#d)"/>
            <path fill="#FFF" d="M98.826 304.4a5.779 5.779 0 0 1 0-8.173 5.779 5.779 0 1 1 0 8.173" mask="url(#d)"/>
            <path stroke="#FD5750" stroke-linejoin="round" stroke-width="2" d="M98.826 304.4a5.779 5.779 0 0 1 0-8.173 5.779 5.779 0 1 1 0 8.173z" mask="url(#d)"/>
            <path fill="#FFF" d="M129.683 304.4a5.779 5.779 0 0 1 0-8.173 5.779 5.779 0 1 1 0 8.173" mask="url(#d)"/>
            <path stroke="#FD5750" stroke-linejoin="round" stroke-width="2" d="M129.683 304.4a5.779 5.779 0 0 1 0-8.173 5.779 5.779 0 1 1 0 8.173z" mask="url(#d)"/>
            <path fill="#FFF" d="M115.743 377.62a5.779 5.779 0 1 1 8.174-8.173 5.779 5.779 0 0 1 0 8.173 5.778 5.778 0 0 1-8.174 0" mask="url(#d)"/>
            <path stroke="#FD5750" stroke-linejoin="round" stroke-width="2" d="M115.743 377.62a5.779 5.779 0 1 1 8.174-8.173 5.779 5.779 0 0 1 0 8.173 5.778 5.778 0 0 1-8.174 0z" mask="url(#d)"/>
            <path fill="#FFF" d="M187.109 330.233a5.779 5.779 0 1 1 8.172-8.173 5.779 5.779 0 0 1-8.172 8.173" mask="url(#d)"/>
            <path stroke="#FD5750" stroke-linejoin="round" stroke-width="2" d="M187.109 330.233a5.779 5.779 0 1 1 8.172-8.173 5.779 5.779 0 0 1-8.172 8.173z" mask="url(#d)"/>
            <path fill="#FFF" d="M276.577 408.026a5.779 5.779 0 1 1 8.174-8.173 5.779 5.779 0 0 1 0 8.173 5.778 5.778 0 0 1-8.174 0" mask="url(#d)"/>
            <path stroke="#FD5750" stroke-linejoin="round" stroke-width="2" d="M276.577 408.026a5.779 5.779 0 1 1 8.174-8.173 5.779 5.779 0 0 1 0 8.173 5.778 5.778 0 0 1-8.174 0z" mask="url(#d)"/>
            <path fill="#FFF" d="M336.513 373.611a5.779 5.779 0 1 1 8.173-8.173 5.779 5.779 0 0 1-8.173 8.173" mask="url(#d)"/>
            <path stroke="#FD5750" stroke-linejoin="round" stroke-width="2" d="M336.513 373.611a5.779 5.779 0 1 1 8.173-8.173 5.779 5.779 0 0 1-8.173 8.173z" mask="url(#d)"/>
            <path fill="#FFF" d="M353.948 357.344a5.78 5.78 0 1 1 8.175-8.174 5.78 5.78 0 0 1-8.175 8.174" mask="url(#d)"/>
            <path stroke="#FD5750" stroke-linejoin="round" stroke-width="2" d="M353.948 357.344a5.78 5.78 0 1 1 8.175-8.174 5.78 5.78 0 0 1-8.175 8.174z" mask="url(#d)"/>
            <path fill="#FFF" d="M353.948 99.21a5.779 5.779 0 1 1 8.174-8.172 5.779 5.779 0 1 1-8.174 8.173" mask="url(#d)"/>
            <path stroke="#FD5750" stroke-linejoin="round" stroke-width="2" d="M353.948 99.21a5.779 5.779 0 1 1 8.174-8.172 5.779 5.779 0 1 1-8.174 8.173z" mask="url(#d)"/>
            <path fill="#FFF" d="M258.399 41.231a5.779 5.779 0 1 1 8.173-8.173 5.779 5.779 0 0 1-8.173 8.173" mask="url(#d)"/>
            <path stroke="#FD5750" stroke-linejoin="round" stroke-width="2" d="M258.399 41.231a5.779 5.779 0 1 1 8.173-8.173 5.779 5.779 0 0 1-8.173 8.173z" mask="url(#d)"/>
            <path fill="#FFF" d="M290.714 52.657a5.778 5.778 0 0 1 0-8.174 5.779 5.779 0 1 1 8.173 8.174 5.779 5.779 0 0 1-8.173 0" mask="url(#d)"/>
            <path stroke="#FD5750" stroke-linejoin="round" stroke-width="2" d="M290.714 52.657a5.778 5.778 0 0 1 0-8.174 5.779 5.779 0 1 1 8.173 8.174 5.779 5.779 0 0 1-8.173 0z" mask="url(#d)"/>
            <path fill="#FFF" d="M187.109 197.613a5.779 5.779 0 1 1 8.172-8.173 5.779 5.779 0 0 1-8.172 8.173" mask="url(#d)"/>
            <path stroke="#FD5750" stroke-linejoin="round" stroke-width="2" d="M187.109 197.613a5.779 5.779 0 1 1 8.172-8.173 5.779 5.779 0 0 1-8.172 8.173z" mask="url(#d)"/>
            <path fill="#FFF" d="M127.301 197.613a5.779 5.779 0 1 1 8.174-8.173 5.779 5.779 0 1 1-8.174 8.173" mask="url(#d)"/>
            <path stroke="#FD5750" stroke-linejoin="round" stroke-width="2" d="M127.301 197.613a5.779 5.779 0 1 1 8.174-8.173 5.779 5.779 0 1 1-8.174 8.173z" mask="url(#d)"/>
            <path fill="#FFF" d="M45.334 124.793a5.779 5.779 0 1 1 8.174-8.173 5.779 5.779 0 1 1-8.174 8.173" mask="url(#d)"/>
            <path stroke="#FD5750" stroke-linejoin="round" stroke-width="2" d="M45.334 124.793a5.779 5.779 0 1 1 8.174-8.173 5.779 5.779 0 1 1-8.174 8.173z" mask="url(#d)"/>
            <path fill="#FFF" d="M117.293 69.263a5.779 5.779 0 1 1 8.172-8.173 5.779 5.779 0 0 1-8.172 8.173" mask="url(#d)"/>
            <path stroke="#FD5750" stroke-linejoin="round" stroke-width="2" d="M117.293 69.263a5.779 5.779 0 1 1 8.172-8.173 5.779 5.779 0 0 1-8.172 8.173z" mask="url(#d)"/>
            <path fill="#FFF" d="M215.34 124.793a5.779 5.779 0 0 1 0-8.173 5.779 5.779 0 1 1 0 8.173" mask="url(#d)"/>
            <path stroke="#FD5750" stroke-linejoin="round" stroke-width="2" d="M215.34 124.793a5.779 5.779 0 0 1 0-8.173 5.779 5.779 0 1 1 0 8.173z" mask="url(#d)"/>
            <path fill="#FFF" d="M215.34 257.275a5.78 5.78 0 1 1 8.175-8.174 5.78 5.78 0 0 1-8.175 8.174" mask="url(#d)"/>
            <path stroke="#FD5750" stroke-linejoin="round" stroke-width="2" d="M215.34 257.275a5.78 5.78 0 1 1 8.175-8.174 5.78 5.78 0 0 1-8.175 8.174z" mask="url(#d)"/>
        </g>
    </g>
</svg>
