<svg xmlns="http://www.w3.org/2000/svg" width="588" height="621" viewBox="0 0 588 621">
    <g fill="none" fill-rule="evenodd" stroke="#FD5750" stroke-linejoin="round" stroke-width="2">
        <path d="M577.2 245H352.8c-5.412 0-9.8-4.388-9.8-9.8V10.8c0-5.412 4.388-9.8 9.8-9.8h224.4c5.412 0 9.8 4.388 9.8 9.8v224.4c0 5.412-4.388 9.8-9.8 9.8z"/>
        <path stroke-dasharray="4,6" d="M343 57.044H207M569 123c0 57.438-46.563 104-104 104s-104-46.562-104-104S407.563 19 465 19s104 46.562 104 104z"/>
        <path d="M519.2 565H352.8c-5.412 0-9.8-4.388-9.8-9.8V388.8c0-5.412 4.388-9.8 9.8-9.8h166.4c5.412 0 9.8 4.388 9.8 9.8v166.4c0 5.412-4.388 9.8-9.8 9.8z"/>
        <path stroke-dasharray="4,6" d="M476.377 401.864h-81.248l-40.623 70.362 40.623 70.363h81.248L517 472.226l-40.623-70.362z"/>
        <path d="M177.2 506H10.8c-5.412 0-9.8-4.388-9.8-9.8v-91.4c0-5.412 4.388-9.8 9.8-9.8h166.4c5.412 0 9.8 4.388 9.8 9.8v91.4c0 5.412-4.388 9.8-9.8 9.8zM63 395v111M125 395v111"/>
        <path stroke-dasharray="4,6" d="M46 602.271V549.8c0-5.412 4.388-9.8 9.8-9.8h156.4c5.412 0 9.8-4.388 9.8-9.8V284M517 245v70.44c0 2.6-1.03 5.09-2.87 6.93L457.5 379M343 493.5L233.5 603"/>
        <path d="M54.942 611.24a8.5 8.5 0 1 1-17-.002 8.5 8.5 0 0 1 17 .001zM236.808 608.326a8.413 8.413 0 1 1-16.827 0 8.413 8.413 0 0 1 16.827 0zM207.808 57.327a8.412 8.412 0 0 1-8.412 8.412 8.413 8.413 0 1 1 8.412-8.412zM230.808 280.327a8.412 8.412 0 0 1-8.412 8.412 8.413 8.413 0 1 1 8.412-8.412z"/>
    </g>
</svg>
