<?xml version="1.0" encoding="UTF-8"?>
<svg width="331px" height="521px" viewBox="0 0 331 521" version="1.1" xmlns="http://www.w3.org/2000/svg" xmlns:xlink="http://www.w3.org/1999/xlink">
    <!-- Generator: Sketch 51.3 (57544) - http://www.bohemiancoding.com/sketch -->
    <title>logo</title>
    <desc>Created with Sketch.</desc>
    <defs></defs>
    <g id="Page-1" stroke="none" stroke-width="1" fill="none" fill-rule="evenodd">
        <g id="artwork" transform="translate(-281.000000, -1802.000000)" stroke="#F15953" stroke-width="22">
            <g id="logo" transform="translate(301.000000, 1817.000000)">
                <g id="bolt">
                    <path d="M233.214529,173.37224 L291.186059,76.1766911 L291.989626,0.788281707 C291.463455,0.33125266 291.607748,0.457029046 291.081577,0 C199.634792,77.9576985 91.5396713,171.379622 0.09288678,249.336076 C0.22805759,249.63246 0.19709533,264.627245 0,294.320433 L108.089674,276.645717 C70.7638718,337.882628 31.6463987,404.809204 31.6463987,404.809204 L31.885614,481 L299,240.171741 L298.179288,166.08585 C298.179288,166.08585 250.010953,171.405895 233.214529,173.37224 Z" id="Stroke-1"></path>
                    <path d="M179.27424,183.392117 C215.95447,179.099094 290.991071,169.72651 290.991071,170.317966 C290.991071,170.903209 119.186356,326.094453 33.8098107,403.505556 C33.3392489,403.116636 33.4733404,403.227224 33.0040202,402.837062 C70.2603461,341.736963 107.51543,280.636864 144.771756,219.536765 C144.416662,219.001225 144.36824,218.930399 144.013146,218.394858 C101.347222,224.888445 58.6825396,231.380788 16.0178571,237.874374 C106.908294,159.241841 286.826876,8.01666667 286.826876,8.01666667 C287.009389,8.48759456 213.602902,126.039561 178.334358,181.897325 C178.772639,182.593155 178.83596,182.695045 179.27424,183.392117 Z" id="Stroke-3"></path>
                </g>
            </g>
        </g>
    </g>
</svg>