<svg xmlns="http://www.w3.org/2000/svg" width="186" height="42" viewBox="0 0 186 42">
    <g fill="none" fill-rule="evenodd">
        <g stroke="#FFF">
            <path fill="#8C8C8C" d="M21.097 1.004a2.77 2.77 0 0 0-1.053.265L5.68 8.117a2.724 2.724 0 0 0-1.487 1.844L.648 25.343a2.694 2.694 0 0 0 .53 2.3l9.943 12.334A2.758 2.758 0 0 0 13.268 41l15.946-.004c.836 0 1.626-.375 2.148-1.02l9.94-12.336a2.696 2.696 0 0 0 .531-2.3l-3.55-15.383a2.724 2.724 0 0 0-1.486-1.844L22.429 1.27a2.772 2.772 0 0 0-1.332-.265z"/>
            <path fill="#FFF" fill-rule="nonzero" stroke-width=".25" d="M21.24 6.297c-.476 0-.862.428-.862.955l.002.024c0 .072-.004.158-.002.22.011.305.078.538.118.818.072.6.133 1.097.096 1.56-.037.174-.166.333-.28.444l-.02.364c-.517.042-1.038.12-1.558.239a11.088 11.088 0 0 0-5.63 3.209 14.442 14.442 0 0 1-.31-.22c-.154.02-.31.067-.512-.05-.385-.26-.737-.617-1.162-1.047-.194-.206-.335-.402-.566-.601-.053-.045-.133-.106-.192-.153a1.026 1.026 0 0 0-.6-.225.83.83 0 0 0-.687.303c-.296.37-.201.938.212 1.267l.013.01c.057.045.126.104.178.143.246.18.47.273.715.417.515.317.942.58 1.28.898.133.14.156.389.174.496l.276.246a11.107 11.107 0 0 0-1.758 7.756l-.36.105c-.096.122-.23.315-.37.373-.444.139-.943.19-1.545.253-.283.023-.527.01-.827.066-.066.013-.158.037-.23.053l-.007.002-.013.004c-.508.122-.834.588-.729 1.047.105.459.601.738 1.112.628.004 0 .009 0 .013-.002.005 0 .01-.004.016-.005.071-.016.16-.033.223-.05.295-.078.508-.194.773-.295.57-.204 1.042-.375 1.502-.441.192-.015.395.118.495.174l.376-.064a11.193 11.193 0 0 0 4.968 6.19l-.156.375c.056.146.119.343.077.486-.168.433-.454.89-.78 1.4-.158.234-.32.417-.462.686-.034.065-.078.164-.11.232-.222.472-.06 1.017.366 1.221.428.206.959-.011 1.189-.485l.002-.002v-.001c.032-.068.079-.156.106-.219.122-.28.163-.518.249-.788.228-.571.353-1.171.667-1.545.086-.102.226-.141.371-.18l.195-.353a11.153 11.153 0 0 0 7.95.02c.056.098.158.284.185.331.147.048.309.073.44.266.235.4.395.874.59 1.446.087.27.129.51.251.788.028.064.074.153.107.22.23.476.762.694 1.19.488.426-.205.589-.75.367-1.222-.033-.068-.078-.167-.112-.232-.143-.269-.304-.45-.462-.685-.326-.509-.597-.932-.764-1.365-.07-.223.012-.362.066-.507-.032-.037-.102-.248-.143-.347a11.192 11.192 0 0 0 4.966-6.235c.112.018.305.052.368.065.13-.086.25-.197.483-.179.46.067.932.237 1.502.441.265.102.478.22.773.298.062.017.151.032.223.048l.016.005.013.002c.511.11 1.007-.17 1.112-.628.105-.46-.221-.925-.729-1.047-.074-.017-.179-.046-.25-.06-.3-.056-.544-.042-.827-.065-.602-.063-1.101-.114-1.544-.254-.181-.07-.31-.284-.372-.373l-.348-.1a11.08 11.08 0 0 0-.18-4.014 11.117 11.117 0 0 0-1.615-3.724l.306-.274c.014-.154.002-.316.162-.487.338-.317.766-.58 1.28-.898.245-.143.472-.236.717-.417.055-.04.131-.106.19-.152.413-.33.508-.897.211-1.268-.296-.371-.871-.406-1.285-.077-.058.046-.138.107-.191.152-.231.199-.374.395-.569.601-.425.43-.776.79-1.161 1.049-.168.097-.412.064-.523.057l-.328.233a11.3 11.3 0 0 0-7.152-3.448 20.726 20.726 0 0 1-.02-.384c-.112-.107-.247-.198-.281-.43-.038-.462.025-.96.097-1.56.04-.28.107-.512.118-.817.002-.069-.002-.17-.002-.244 0-.527-.386-.955-.861-.955zm-1.08 6.668l-.255 4.51-.018.01a.759.759 0 0 1-1.206.58l-.008.003-3.705-2.621a8.88 8.88 0 0 1 5.193-2.482zm2.16 0a8.957 8.957 0 0 1 5.162 2.484L23.8 18.054l-.013-.006a.761.761 0 0 1-1.207-.579l-.004-.001-.256-4.503zm-8.696 4.166l3.383 3.02-.003.019a.756.756 0 0 1-.298 1.302l-.004.015-4.337 1.25a8.84 8.84 0 0 1 1.259-5.606zm15.207.002a8.955 8.955 0 0 1 1.11 2.706c.224.973.28 1.944.188 2.882l-4.36-1.252-.003-.019a.758.758 0 0 1-.298-1.302l-.002-.01 3.365-3.005zm-8.285 3.252h1.386l.861 1.074-.309 1.341-1.244.597-1.249-.598-.309-1.341.864-1.073zm4.443 3.677a.757.757 0 0 1 .175.013l.008-.009 4.486.757a8.87 8.87 0 0 1-3.592 4.502l-1.741-4.197.005-.007a.758.758 0 0 1 .66-1.059zm-7.534.019a.76.76 0 0 1 .686 1.056l.013.017-1.723 4.155a8.906 8.906 0 0 1-3.58-4.471l4.447-.754.008.01a.77.77 0 0 1 .149-.013zm3.757 1.82c.12-.004.24.02.355.076.151.072.267.186.34.323h.017l2.193 3.953a9.102 9.102 0 0 1-.876.244 8.926 8.926 0 0 1-4.862-.25l2.187-3.945h.003a.76.76 0 0 1 .643-.4z"/>
        </g>
        <g fill="#8C8C8C">
            <path d="M58.91 22.098c.36-.394.727-.805 1.104-1.233.392-.427.769-.846 1.129-1.257.36-.427.695-.83 1.006-1.208.327-.378.605-.707.834-.986h4.344a165.079 165.079 0 0 1-2.552 2.884 69.818 69.818 0 0 1-2.7 2.81c.491.445.998.979 1.522 1.603.523.608 1.03 1.241 1.522 1.898a28.219 28.219 0 0 1 2.38 3.772h-4.197a38.632 38.632 0 0 0-.908-1.405 23.6 23.6 0 0 0-1.055-1.553 17.895 17.895 0 0 0-1.203-1.504 9.378 9.378 0 0 0-1.227-1.208v5.67h-3.657V11.842l3.657-.591v10.847M80.111 30.01c-.622.181-1.424.345-2.406.493-.983.164-2.014.246-3.095.246-1.097 0-2.014-.147-2.75-.443-.721-.295-1.294-.706-1.72-1.23a4.966 4.966 0 0 1-.908-1.92c-.18-.74-.27-1.552-.27-2.438v-7.213h3.659v6.77c0 1.181.155 2.035.466 2.56.311.525.893.788 1.744.788.262 0 .54-.008.835-.025.295-.033.557-.065.786-.098v-9.995h3.66v12.506"/>
            <path fill-rule="nonzero" d="M91.898 23.83c0-2.373-.871-3.559-2.615-3.559-.378 0-.756.05-1.135.148a3.204 3.204 0 0 0-.888.37v6.698c.181.033.411.066.691.099.28.017.584.025.913.025 1.003 0 1.76-.346 2.27-1.038.51-.692.764-1.607.764-2.743m3.75.098c0 1.038-.156 1.978-.469 2.818a5.814 5.814 0 0 1-1.307 2.15c-.576.593-1.283 1.054-2.122 1.384-.839.313-1.792.47-2.862.47-.444 0-.912-.025-1.406-.075a21.052 21.052 0 0 1-1.43-.148 28.06 28.06 0 0 1-1.333-.223 18.317 18.317 0 0 1-1.135-.296V11.844l3.676-.593v6.475a6.579 6.579 0 0 1 2.714-.568c.921 0 1.735.164 2.442.493a4.67 4.67 0 0 1 1.777 1.36c.477.593.838 1.31 1.085 2.15.247.823.37 1.746.37 2.767M97.842 24.041c0-1.146.17-2.145.512-2.997.359-.868.823-1.59 1.392-2.162a5.767 5.767 0 0 1 1.954-1.303 6.217 6.217 0 0 1 2.296-.442c1.823 0 3.264.565 4.322 1.695 1.058 1.114 1.588 2.76 1.588 4.94 0 .212-.009.45-.025.712-.016.245-.032.467-.049.663h-8.254a2.436 2.436 0 0 0 1.05 1.794c.619.442 1.45.663 2.491.663.668 0 1.319-.057 1.954-.172.65-.13 1.18-.286 1.587-.467l.488 2.973a5.007 5.007 0 0 1-.781.295 8.49 8.49 0 0 1-1.099.246c-.39.082-.814.147-1.27.197-.456.049-.912.073-1.367.073-1.156 0-2.166-.172-3.029-.516-.846-.344-1.554-.81-2.124-1.4a5.955 5.955 0 0 1-1.246-2.138 8.71 8.71 0 0 1-.39-2.654m8.547-1.4a3.452 3.452 0 0 0-.171-.91 2.03 2.03 0 0 0-.415-.785 2.05 2.05 0 0 0-.708-.566c-.277-.147-.627-.22-1.05-.22-.407 0-.758.073-1.05.22a2.041 2.041 0 0 0-.733.541c-.196.23-.35.5-.464.81a5.69 5.69 0 0 0-.22.91h4.81"/>
            <path d="M120.44 20.664a19.354 19.354 0 0 0-1.155-.247 6.547 6.547 0 0 0-1.426-.148c-.23 0-.508.025-.836.074-.31.033-.549.074-.712.124v9.914h-3.664V18.1a20.54 20.54 0 0 1 2.311-.641c.902-.214 1.902-.32 3-.32.196 0 .434.016.713.048.278.017.557.05.836.1.278.032.557.081.835.147.28.05.517.115.713.197l-.614 3.034M123.066 17.876c.622-.18 1.425-.345 2.407-.493a18.768 18.768 0 0 1 3.094-.246c1.097 0 2.006.148 2.727.443.736.28 1.318.681 1.743 1.206.426.526.729 1.15.909 1.871.18.723.27 1.527.27 2.413v7.311h-3.66v-6.868c0-1.182-.155-2.019-.466-2.51-.311-.493-.892-.74-1.744-.74-.262 0-.54.017-.835.05a9.218 9.218 0 0 0-.786.074v9.994h-3.659V17.876"/>
            <path fill-rule="nonzero" d="M136.958 24.041c0-1.146.17-2.145.513-2.997.358-.868.822-1.59 1.392-2.162a5.767 5.767 0 0 1 1.953-1.303 6.217 6.217 0 0 1 2.296-.442c1.823 0 3.264.565 4.322 1.695 1.059 1.114 1.588 2.76 1.588 4.94 0 .212-.008.45-.025.712-.016.245-.032.467-.049.663h-8.254a2.436 2.436 0 0 0 1.05 1.794c.619.442 1.45.663 2.491.663.668 0 1.319-.057 1.954-.172.651-.13 1.18-.286 1.587-.467l.489 2.973a5.007 5.007 0 0 1-.782.295 8.49 8.49 0 0 1-1.099.246c-.39.082-.814.147-1.27.197-.455.049-.911.073-1.367.073-1.156 0-2.165-.172-3.028-.516-.847-.344-1.555-.81-2.125-1.4a5.955 5.955 0 0 1-1.245-2.138 8.71 8.71 0 0 1-.391-2.654m8.547-1.4a3.452 3.452 0 0 0-.17-.91 2.03 2.03 0 0 0-.416-.785 2.05 2.05 0 0 0-.708-.566c-.277-.147-.627-.22-1.05-.22-.407 0-.757.073-1.05.22a2.041 2.041 0 0 0-.733.541c-.195.23-.35.5-.464.81a5.69 5.69 0 0 0-.22.91h4.811"/>
            <path d="M151.764 14.235l3.667-.593v3.826h4.407v3.061h-4.407v4.567c0 .774.132 1.39.394 1.852.28.46.829.69 1.65.69.393 0 .795-.032 1.206-.098.426-.082.812-.19 1.157-.32l.516 2.863c-.443.18-.935.337-1.476.469-.542.131-1.207.197-1.994.197-1.001 0-1.83-.131-2.487-.395-.656-.28-1.181-.658-1.575-1.135-.394-.494-.673-1.086-.837-1.778a11.007 11.007 0 0 1-.221-2.295V14.235"/>
            <path fill-rule="nonzero" d="M161.634 24.041c0-1.146.17-2.145.513-2.997.358-.868.822-1.59 1.392-2.162a5.767 5.767 0 0 1 1.953-1.303 6.217 6.217 0 0 1 2.296-.442c1.823 0 3.264.565 4.323 1.695 1.058 1.114 1.587 2.76 1.587 4.94 0 .212-.008.45-.025.712-.016.245-.032.467-.048.663h-8.255a2.436 2.436 0 0 0 1.05 1.794c.62.442 1.45.663 2.491.663.668 0 1.32-.057 1.954-.172.651-.13 1.18-.286 1.587-.467l.489 2.973a5.007 5.007 0 0 1-.782.295 8.49 8.49 0 0 1-1.099.246c-.39.082-.814.147-1.27.197-.455.049-.911.073-1.367.073-1.156 0-2.165-.172-3.028-.516-.847-.344-1.555-.81-2.125-1.4a5.955 5.955 0 0 1-1.245-2.138 8.71 8.71 0 0 1-.391-2.654m8.547-1.4a3.452 3.452 0 0 0-.17-.91 2.03 2.03 0 0 0-.416-.785 2.05 2.05 0 0 0-.708-.566c-.277-.147-.627-.22-1.05-.22-.407 0-.757.073-1.05.22a2.041 2.041 0 0 0-.733.541c-.195.23-.35.5-.464.81a5.69 5.69 0 0 0-.22.91h4.811"/>
            <path d="M180.144 27.776c.666 0 1.137-.065 1.414-.196.276-.131.414-.385.414-.762 0-.295-.179-.549-.536-.762-.358-.23-.902-.483-1.633-.761a17.973 17.973 0 0 1-1.56-.664c-.455-.23-.845-.5-1.17-.81a3.463 3.463 0 0 1-.755-1.155c-.179-.443-.268-.975-.268-1.598 0-1.212.447-2.17 1.34-2.874.894-.705 2.12-1.057 3.68-1.057.78 0 1.527.074 2.242.221.715.131 1.284.279 1.706.442l-.633 2.85a12.95 12.95 0 0 0-1.39-.392 7.265 7.265 0 0 0-1.657-.172c-1.137 0-1.706.319-1.706.958 0 .147.025.278.073.393.05.115.147.23.293.344.146.098.341.213.585.344.26.115.585.246.975.393.796.295 1.454.59 1.974.885.52.278.926.59 1.218.933.309.328.52.696.634 1.106.13.41.195.885.195 1.425 0 1.278-.48 2.244-1.438 2.9-.942.655-2.283.982-4.021.982-1.138 0-2.088-.098-2.852-.295-.747-.196-1.267-.36-1.56-.491l.61-2.973c.617.246 1.25.442 1.9.59.65.13 1.292.196 1.926.196"/>
        </g>
    </g>
</svg>
