<svg xmlns="http://www.w3.org/2000/svg" width="525" height="472" viewBox="0 0 525 472">
    <g fill="none" fill-rule="evenodd" stroke="#FD5750" stroke-width="2">
        <path d="M1 387.748l31.716-31.717a133.032 133.032 0 0 1 94.065-38.963h269.078c5.413 0 9.801-4.386 9.801-9.8v-133.74M441.03 387.748V10.716M461.023 261.764h7.653M461.023 250.11h7.653M461.023 238.456h7.653M461.023 226.803h7.653M461.023 215.148h7.653M461.023 203.495h7.653M461.023 191.84h7.653M461.023 180.187h7.653M461.023 168.533h7.653M461.023 156.88h7.653M461.023 145.225h7.653M461.023 133.571h7.653M461.023 121.918h7.653M461.023 110.263h7.653M461.023 98.61h7.653M461.023 86.956h7.653"/>
        <path stroke-dasharray="4,6" stroke-linejoin="round" d="M523.454 387.748c0 45.52-36.902 82.423-82.424 82.423-45.52 0-82.423-36.902-82.423-82.423s36.903-82.424 82.423-82.424c45.522 0 82.424 36.903 82.424 82.424z"/>
        <path d="M411.024 168.163a5.364 5.364 0 1 1-10.728.002 5.364 5.364 0 0 1 10.728-.002zM446.396 6.365a5.364 5.364 0 1 1-10.729 0 5.364 5.364 0 0 1 10.729 0zM486.219 387.748c0 24.956-20.231 45.188-45.188 45.188s-45.188-20.232-45.188-45.188c0-24.957 20.23-45.188 45.188-45.188 24.957 0 45.188 20.23 45.188 45.188zM95.747 320.748v67.009M107.888 387.762v-25.41M120.038 387.762v-29.1M132.178 387.762v-32.78M144.317 387.762v-36.47M156.458 387.762v-40.13M168.607 387.762v-41.91M180.748 387.762v-37.73M192.888 387.762v-33.14M205.038 387.762v-30.35M217.178 387.762v-28.12M229.317 387.762v-27.11M241.468 387.762v-28.77M253.607 387.762v-33.73M265.748 387.762v-40.95M277.897 387.762v-41.93M290.038 387.762v-40.12M302.178 387.762v-44.23M314.317 387.762v-48.68M326.468 387.762v-51.45M338.608 316.674v71.086M95.747 352.217H36.702M366.201 352.217h-27.593"/>
    </g>
</svg>
