<svg xmlns="http://www.w3.org/2000/svg" width="545" height="51" viewBox="0 0 545 51">
    <g fill="none" fill-rule="evenodd">
        <path fill="#FD5750" d="M0 40.33h11.054L7.63 50.677H0V40.329zm0-19.676h17.565l-3.424 10.349H0V20.654zM0 .98h24.076l-3.424 10.35H0V.978zm34.971 0h27.482v10.35H31.547L34.97.978zm-9.935 30.024l3.424-10.349h33.993v10.349H25.036zm-3.087 9.326h40.504v10.349H18.524l3.425-10.349z"/>
        <path fill="#FFF" d="M157.938 31.687l5.397-16.324c1.589 0 3.096.015 4.56.015l-7.19 20.825h-5.674l-6.782-20.84h4.736l4.953 16.324zM220.832 4.9v27.254h6.299v4.05H216.37V8.665h-4.445V4.9h8.907zM199.48 19.217c.09-.353 1.031-4.044 4.683-4.044h6.266v4.512h-6.943c-1.715 0-3.728 1.44-3.728 3.795l-.02 12.723h-4.593V15.309c1.42 0 2.718-.005 4.247-.005l.088 3.913zm64.417 4.293c3.354.395 8.418.992 8.689 6.165.13 2.43-.835 3.95-1.666 4.797-2.141 2.182-5.542 2.325-7.912 2.243-4.629-.162-8.607-2.096-8.774-2.178l1.928-3.924c.029.014 3.119 1.676 6.778 1.952 5.478.413 5.52-1.746 5.472-2.66-.065-1.213-1.158-1.597-5.025-2.053-3.439-.405-8.638-1.018-8.762-6.46-.04-1.679.55-3.172 1.71-4.317 1.548-1.53 4.078-2.352 6.943-2.252 4.38.153 8.15 1.315 8.307 1.363l-1.299 4.176c-.033-.01-3.387-1.038-7.16-1.169-1.593-.055-3.054.334-3.72.992-.297.293-.423.634-.414 1.107.031 1.274.677 1.72 4.905 2.218zm31.03 6.165c.13 2.43-.835 3.95-1.665 4.797-2.143 2.183-5.543 2.325-7.913 2.242-4.628-.161-8.607-2.096-8.773-2.177l1.78-3.624c.03.014 3.266 1.376 6.925 1.651 5.478.413 5.52-1.745 5.472-2.659-.064-1.213-1.157-1.597-5.024-2.052-3.44-.406-8.638-1.019-8.763-6.46-.04-1.68.551-3.173 1.71-4.318 1.548-1.531 4.078-2.352 6.944-2.252 4.38.153 8.149 1.315 8.306 1.364l-1.298 4.175c-.035-.01-3.385-1.169-7.16-1.169-3.328 0-4.134 1.062-4.134 2.099 0 1.274.676 1.72 4.905 2.218 3.353.395 8.417.992 8.688 6.165zM91.97 23.51c3.353.395 8.418.992 8.689 6.165.13 2.43-.836 3.95-1.666 4.797-2.142 2.182-5.542 2.325-7.912 2.243-4.63-.162-8.608-2.096-8.774-2.178l1.927-3.924c.03.014 3.119 1.676 6.779 1.952 5.477.413 5.52-1.746 5.472-2.66-.065-1.213-1.158-1.597-5.025-2.053-3.439-.405-8.638-1.018-8.762-6.46-.04-1.679.55-3.172 1.71-4.317 1.547-1.53 4.077-2.352 6.943-2.252 4.38.153 8.15 1.315 8.307 1.363l-1.299 4.176c-.034-.01-3.387-1.038-7.16-1.169-1.594-.055-3.055.334-3.72.992-.297.293-.423.634-.414 1.107.03 1.274.677 1.72 4.905 2.218zm148.404-8.717c9.84 0 9.84 10.02 9.84 10.02v2.681H234.58c0 2.548 2.223 5.287 6.343 5.287 3.443 0 7.013-1.392 7.013-1.392l1.14 3.583s-4.388 1.756-8.52 1.756c-9.843 0-10.577-8.757-10.577-11.126 0-2.371 1.662-10.81 10.395-10.81zm5.592 8.924s.2-4.95-5.591-4.95c-5.238 0-5.848 4.95-5.848 4.95h11.439zm-65.39-8.924c9.841 0 9.841 10.02 9.841 10.02v2.681h-15.634c0 2.548 2.223 5.287 6.344 5.287 3.442 0 7.012-1.392 7.012-1.392l1.14 3.583s-4.388 1.756-8.52 1.756c-9.843 0-10.577-8.757-10.577-11.126 0-2.371 1.662-10.81 10.395-10.81zm5.593 8.924s.2-4.95-5.591-4.95c-5.238 0-5.848 4.95-5.848 4.95h11.439zm-71.638-8.924c9.84 0 9.84 10.02 9.84 10.02v2.681h-15.634c0 2.548 2.223 5.287 6.344 5.287 3.442 0 7.012-1.392 7.012-1.392l1.139 3.583s-4.387 1.756-8.518 1.756c-9.844 0-10.578-8.757-10.578-11.126 0-2.371 1.662-10.81 10.395-10.81zm5.592 8.924s.2-4.95-5.59-4.95c-5.238 0-5.849 4.95-5.849 4.95h11.44zm13.141-4.5c.091-.353 1.032-4.044 4.684-4.044h6.266v4.512h-6.943c-1.715 0-3.729 1.44-3.729 3.795l-.02 12.723h-4.592V15.309c1.42 0 2.718-.005 4.246-.005l.088 3.913z"/>
        <path fill="#9B9B9B" d="M327.97 30.129c0 4.022-3.56 6.333-7.536 6.333-3.976 0-6.472-1.941-7.812-4.16l1.71-1.387c1.387 2.034 3.513 3.375 6.195 3.375 2.68 0 5.039-1.295 5.039-4.069 0-2.773-3.837-3.744-5.687-4.391-1.849-.648-5.87-2.034-5.87-5.918 0-3.883 3.374-5.732 6.518-5.732 3.143 0 5.085 1.11 6.749 3.005l-1.48 1.48c-1.479-1.619-2.958-2.45-5.362-2.45s-4.114 1.201-4.114 3.42 2.311 3.19 4.946 4.114c2.682.925 6.703 2.312 6.703 6.38zm19.554-6.842V36h-2.45v-3.005c-.786.925-3.097 3.467-7.258 3.467-4.16 0-7.165-2.773-7.165-6.472 0-3.698 2.773-6.24 8.552-6.472l5.871-.23V22.13c0-3.929-2.635-5.87-6.01-5.87-3.328 0-5.87 1.479-6.333 1.848l-.925-1.756c1.387-.925 3.93-2.173 7.166-2.173s5.177 1.017 6.472 2.404c1.248 1.387 2.08 3.005 2.08 6.703zm-2.45 7.166v-5.317l-6.102.37c-4.484.231-5.917 2.173-5.917 4.484 0 2.312 1.756 4.392 5.223 4.392 3.468 0 5.779-2.311 6.796-3.93zm25.61-7.258V36h-2.45V23.287c0-3.467-.6-7.027-5.223-7.027s-6.842 4.022-6.842 9.107V36h-2.404V14.55h2.404v3.976c1.063-2.543 3.837-4.346 6.934-4.346 6.149 0 7.582 3.93 7.582 9.015zm24.964-19.093l-.23 2.08s-1.157-.462-2.312-.462c-3.467 0-3.837 2.774-3.837 5.779v3.143h5.455v2.173h-5.455V36h-2.404V16.815h-3.236v-2.173h3.236V11.73c0-3.005.555-4.623 1.248-5.64.693-1.063 2.219-2.45 4.53-2.45 2.312 0 3.005.462 3.005.462zm11.557 10.402l-.23 2.357c-.51-.185-1.156-.37-2.312-.37-2.08 0-3.329 1.434-3.698 1.942-.37.509-1.526 2.312-1.526 6.01V36h-2.404V14.55h2.404v4.022c.786-2.913 3.144-4.392 5.455-4.392 1.387 0 2.311.324 2.311.324zm17.336 8.783V36h-2.45v-3.005c-.786.925-3.097 3.467-7.258 3.467-4.16 0-7.165-2.773-7.165-6.472 0-3.698 2.773-6.24 8.552-6.472l5.871-.23V22.13c0-3.929-2.635-5.87-6.01-5.87-3.328 0-5.87 1.479-6.333 1.848l-.925-1.756c1.387-.925 3.93-2.173 7.166-2.173s5.177 1.017 6.472 2.404c1.248 1.387 2.08 3.005 2.08 6.703zm-2.45 7.166v-5.317l-6.102.37c-4.484.231-5.917 2.173-5.917 4.484 0 2.312 1.756 4.392 5.223 4.392 3.468 0 5.779-2.311 6.796-3.93zm25.61-7.258V36h-2.45V23.287c0-3.467-.6-7.027-5.223-7.027s-6.842 4.022-6.842 9.107V36h-2.404V14.55h2.404v3.976c1.063-2.543 3.837-4.346 6.934-4.346 6.149 0 7.582 3.93 7.582 9.015zm22.745 7.951l1.387 1.618c-.786.925-3.005 3.698-8.783 3.698-5.779 0-10.494-4.623-10.494-11.187 0-6.61 5.085-11.095 10.725-11.095 5.686 0 7.997 3.097 8.46 3.698l-1.526 1.618c-.924-1.063-2.774-3.143-7.027-3.143-4.299 0-8.09 3.467-8.09 8.783 0 5.317 3.329 9.154 8.183 9.154 4.854 0 7.165-3.144 7.165-3.144zm8.645-24.224c0 1.11-.878 1.988-1.988 1.988a1.973 1.973 0 0 1-1.988-1.988c0-1.11.879-1.988 1.988-1.988 1.11 0 1.988.879 1.988 1.988zm-.786 7.628V36h-2.404V14.55h2.404zm19.97 15.579c0 4.022-3.559 6.333-7.534 6.333-3.976 0-6.472-1.941-7.813-4.16l1.71-1.387c1.387 2.034 3.514 3.375 6.195 3.375 2.681 0 5.039-1.295 5.039-4.069 0-2.773-3.837-3.744-5.686-4.391-1.85-.648-5.871-2.034-5.871-5.918 0-3.883 3.375-5.732 6.518-5.732 3.144 0 5.085 1.11 6.75 3.005l-1.48 1.48c-1.48-1.619-2.958-2.45-5.362-2.45s-4.115 1.201-4.115 3.42 2.312 3.19 4.947 4.114c2.681.925 6.703 2.312 6.703 6.38zm21.035 1.017l1.387 1.618c-.786.925-3.005 3.698-8.784 3.698-5.778 0-10.494-4.623-10.494-11.187 0-6.61 5.086-11.095 10.726-11.095 5.686 0 7.997 3.097 8.46 3.698l-1.526 1.618c-.925-1.063-2.774-3.143-7.027-3.143-4.3 0-8.09 3.467-8.09 8.783 0 5.317 3.329 9.154 8.183 9.154 4.854 0 7.165-3.144 7.165-3.144zm25.564-5.779c0 6.472-4.854 11.095-11.002 11.095-6.102 0-10.956-4.623-10.956-11.095s4.854-11.187 10.956-11.187c6.148 0 11.002 4.715 11.002 11.187zm-2.542-.092c0-4.993-3.236-9.015-8.46-9.015-5.178 0-8.414 4.022-8.414 9.015 0 4.946 3.236 9.015 8.414 9.015 5.224 0 8.46-4.069 8.46-9.015z"/>
    </g>
</svg>
