<svg xmlns="http://www.w3.org/2000/svg" width="280" height="45" viewBox="0 0 280 45">
    <g fill="none" fill-rule="evenodd">
        <g fill="#FFF" fill-rule="nonzero">
            <path d="M6.76 24.521c1.75.22 4.374.528 4.506 3.23.065 1.253-.438 2.066-.875 2.483C9.275 31.377 7.525 31.443 6.3 31.4c-2.406-.066-4.463-1.077-4.572-1.12l.94-1.978c.023.022 1.707.879 3.588 1.032 2.844.22 2.866-1.01 2.844-1.472-.044-.615-.59-.835-2.603-1.076-1.772-.198-4.484-.506-4.528-3.362-.066-2.373 2.1-3.472 4.462-3.406 2.275.066 4.244.681 4.331.703l-.7 2.176s-1.75-.66-3.696-.726c-1.028-.044-2.166.374-2.166 1.209.022.66.372.9 2.56 1.142zm11.492-4.504c5.14 0 4.966 5.252 4.966 5.252v1.274h-8.094c0 1.34 1.115 2.747 3.325 2.747 1.728 0 3.61-.748 3.61-.748l.568 1.956s-2.122.879-4.266.879c-5.009 0-5.578-4.24-5.578-5.713 0-1.56.831-5.647 5.469-5.647zm2.756 4.57s.153-2.395-2.756-2.395c-2.844 0-3.106 2.395-3.106 2.395h5.862zm6.833-2.24c0-.33.504-2.132 2.472-2.132h3.478v2.307h-3.806c-.984 0-1.969 1.033-1.969 1.802V31.2h-2.45V20.215h2.144l.131 2.131zM40.45 29.07l2.887-8.855h2.34L42.2 31.2H38.72l-3.325-10.986h2.472l2.582 8.855zm11.777-9.053c5.14 0 4.965 5.252 4.965 5.252v1.274h-8.094c0 1.34 1.116 2.747 3.325 2.747 1.729 0 3.61-.748 3.61-.748l.569 1.956s-2.122.879-4.266.879c-5.01 0-5.578-4.24-5.578-5.713 0-1.56.831-5.647 5.469-5.647zm2.756 4.57s.153-2.395-2.756-2.395c-2.844 0-3.107 2.395-3.107 2.395h5.863zm6.833-2.24c0-.33.503-2.132 2.472-2.132h3.478v2.307H63.96c-.985 0-1.969 1.033-1.969 1.802V31.2h-2.45V20.215h2.144l.131 2.131zm11.602-6.527v13.074h4.506v2.307h-6.847v-13.36h-3.5v-2.02h5.841zm11.252 4.197c5.14 0 4.966 5.252 4.966 5.252v1.274h-8.094c0 1.34 1.115 2.747 3.325 2.747 1.728 0 3.61-.748 3.61-.748l.568 1.956s-2.122.879-4.266.879c-5.01 0-5.578-4.24-5.578-5.713 0-1.56.831-5.647 5.469-5.647zm2.756 4.57s.153-2.395-2.756-2.395c-2.844 0-3.106 2.395-3.106 2.395h5.862zm8.693-.066c1.75.22 4.375.528 4.506 3.23.066 1.253-.438 2.066-.875 2.483-1.116 1.143-2.866 1.209-4.09 1.165-2.407-.066-4.463-1.077-4.572-1.12l.94-1.978c.022.022 1.706.879 3.588 1.032 2.843.22 2.865-1.01 2.843-1.472-.043-.615-.59-.835-2.603-1.076-1.772-.198-4.484-.506-4.528-3.362-.066-2.373 2.1-3.472 4.463-3.406 2.275.066 4.243.681 4.33.703l-.7 2.176s-1.75-.66-3.696-.726c-1.028-.044-2.166.374-2.166 1.209.022.66.372.9 2.56 1.142zm11.033 0c1.75.22 4.375.528 4.506 3.23.066 1.253-.437 2.066-.875 2.483-1.115 1.143-2.865 1.209-4.09 1.165-2.407-.066-4.463-1.077-4.572-1.12l.94-1.978c.022.022 1.707.879 3.588 1.032 2.844.22 2.865-1.01 2.844-1.472-.044-.615-.591-.835-2.604-1.076-1.771-.198-4.484-.506-4.528-3.362-.065-2.373 2.1-3.472 4.463-3.406 2.275.066 4.244.681 4.331.703l-.7 2.176s-1.75-.66-3.697-.726c-1.028-.044-2.165.374-2.165 1.209.021.66.371.9 2.559 1.142zM171.96 20.435h1.968V19.16c0-1.362.678-3.34 3.216-3.34h2.69v2.307h-2.515c-1.138 0-1.05.857-1.05 1.648v.66h3.128v2.175h-3.128V31.2h-2.34V22.61h-1.97v-2.175zm12.63 1.911c0-.33.503-2.131 2.471-2.131h3.478v2.307h-3.806c-.984 0-1.969 1.033-1.969 1.802V31.2h-2.45V20.215h2.144l.131 2.131zm17.114 8.855h-2.1l-.153-1.516s-1.094 1.648-3.566 1.648c-2.997 0-4.287-2.065-4.287-3.713 0-1.626 1.422-3.318 3.98-3.318 1.97 0 3.523-.022 3.873-.022 0 0 .219-2.088-2.231-2.088-2.057 0-3.916.616-3.916.616l-.656-2.132s2.69-.68 4.287-.68c2.91 0 4.769 1.515 4.769 4.855v6.35zm-5.534-1.933c2.187 0 3.346-1.385 3.346-1.385V26.28s-1.4-.022-3.5-.022c-1.487 0-2.034.55-2.034 1.363 0 .9.7 1.648 2.188 1.648zm15.43-7.405c0-.003.417-1.736 2.778-1.736 1.925 0 2.865 1.604 2.865 2.307v8.767h-2.34v-7.273c0-.967-.285-1.56-1.4-1.56-.897 0-1.444.55-1.444 1.692v7.141h-2.253v-7.36c0-.967-.613-1.473-1.4-1.473-.831 0-1.488.506-1.575 1.45v7.383h-2.385V20.215h2.21l.087 1.34s.766-1.45 2.341-1.45c2.076 0 2.515 1.755 2.516 1.758zm13.002-1.846c5.14 0 4.965 5.252 4.965 5.252v1.274h-8.094c0 1.34 1.116 2.747 3.325 2.747 1.729 0 3.61-.748 3.61-.748l.569 1.956s-2.122.879-4.266.879c-5.01 0-5.578-4.24-5.578-5.713 0-1.56.831-5.647 5.469-5.647zm2.756 4.57s.153-2.395-2.756-2.395c-2.844 0-3.107 2.395-3.107 2.395h5.863zm14.292-4.372h2.32L242.153 31.2H239.2l-1.618-8.262-.022-.022-.022.022-1.619 8.262h-2.953l-1.816-10.986h2.32l1.05 8.306 1.684-8.262-.022-.044h2.756l-.022.044 1.684 8.262 1.05-8.306zm9.437-.198c3.412 0 5.556 2.11 5.556 5.647 0 3.362-2.144 5.735-5.556 5.735-3.61 0-5.797-2.373-5.797-5.735 0-3.538 2.187-5.647 5.797-5.647zm0 9.119c2.362 0 3.281-1.472 3.281-3.472 0-1.736-.919-3.56-3.281-3.56-2.582 0-3.413 1.824-3.413 3.56 0 2 .831 3.472 3.413 3.472zm9.895-6.79c0-.33.504-2.131 2.472-2.131h3.478v2.307h-3.806c-.984 0-1.969 1.033-1.969 1.802V31.2h-2.45V20.215h2.144l.131 2.131zm18.974 8.855h-3.369l-4.768-5.515v5.515h-2.34v-13.36h-2.188v-2.02h4.528v8.415l4.178-4.021h3.106l-4.966 4.68 5.82 6.306z"/>
        </g>
        <g stroke="#F15953" stroke-width="2.528">
            <path d="M149.18 16.049l5.513-8.997.076-6.979-.086-.073c-8.697 7.216-18.977 15.864-27.674 23.08.013.028.01 1.416-.009 4.165l10.28-1.637c-3.55 5.669-7.27 11.864-7.27 11.864l.022 7.053 25.404-22.293-.078-6.858s-4.581.493-6.179.675z"/>
            <path d="M155.27 15.43l-25.32 22.103a.013.013 0 0 1-.02-.016l10.118-16.492-12.948 1.867a.013.013 0 0 1-.01-.022L154.576.19a.013.013 0 0 1 .019.017l-10.926 16.495 11.591-1.294a.013.013 0 0 1 .01.022z"/>
        </g>
    </g>
</svg>
