<svg xmlns="http://www.w3.org/2000/svg" xmlns:xlink="http://www.w3.org/1999/xlink" width="1543" height="603" viewBox="0 0 1543 603">
    <defs>
        <path id="a" d="M0 207c0 2.008.036 4.006.092 6h79.053c-.092-1.99-.145-3.988-.145-6 0-70.689 57.31-128 128-128 1.676 0 3.34.043 5 .107V.063C210.338.023 208.672 0 207 0 92.68 0 0 92.679 0 207"/>
        <path id="c" d="M0 207c0 2.008.036 4.006.092 6h79.053c-.092-1.99-.145-3.988-.145-6 0-70.689 57.31-128 128-128 1.676 0 3.34.043 5 .107V.063C210.338.023 208.672 0 207 0 92.68 0 0 92.679 0 207"/>
        <path id="e" d="M0 207c0 2.008.036 4.006.092 6h79.053c-.092-1.99-.145-3.988-.145-6 0-70.689 57.31-128 128-128 1.676 0 3.34.043 5 .107V.063C210.338.023 208.672 0 207 0 92.68 0 0 92.679 0 207"/>
        <path id="g" d="M0 207c0 2.008.036 4.006.092 6h79.053c-.092-1.99-.145-3.988-.145-6 0-70.689 57.31-128 128-128 1.676 0 3.34.043 5 .107V.063C210.338.023 208.672 0 207 0 92.68 0 0 92.679 0 207"/>
        <path id="i" d="M0 207c0 2.008.036 4.006.092 6h79.053c-.092-1.99-.145-3.988-.145-6 0-70.689 57.31-128 128-128 1.676 0 3.34.043 5 .107V.063C210.338.023 208.672 0 207 0 92.68 0 0 92.679 0 207"/>
        <path id="k" d="M0 207c0 2.008.036 4.006.092 6h79.053c-.092-1.99-.145-3.988-.145-6 0-70.689 57.31-128 128-128 1.676 0 3.34.043 5 .107V.063C210.338.023 208.672 0 207 0 92.68 0 0 92.679 0 207"/>
        <path id="m" d="M0 207c0 2.008.036 4.006.092 6h79.053c-.092-1.99-.145-3.988-.145-6 0-70.689 57.31-128 128-128 1.676 0 3.34.043 5 .107V.063C210.338.023 208.672 0 207 0 92.68 0 0 92.679 0 207"/>
        <path id="o" d="M0 207c0 2.008.036 4.006.092 6h79.053c-.092-1.99-.145-3.988-.145-6 0-70.689 57.31-128 128-128 1.676 0 3.34.043 5 .107V.063C210.338.023 208.672 0 207 0 92.68 0 0 92.679 0 207"/>
        <path id="q" d="M0 207c0 2.008.036 4.006.092 6h79.053c-.092-1.99-.145-3.988-.145-6 0-70.689 57.31-128 128-128 1.676 0 3.34.043 5 .107V.063C210.338.023 208.672 0 207 0 92.68 0 0 92.679 0 207"/>
        <path id="s" d="M0 207c0 2.008.036 4.006.092 6h79.053c-.092-1.99-.145-3.988-.145-6 0-70.689 57.31-128 128-128 1.676 0 3.34.043 5 .107V.063C210.338.023 208.672 0 207 0 92.68 0 0 92.679 0 207"/>
        <path id="u" d="M0 207c0 2.008.036 4.006.092 6h79.053c-.092-1.99-.145-3.988-.145-6 0-70.689 57.31-128 128-128 1.676 0 3.34.043 5 .107V.063C210.338.023 208.672 0 207 0 92.68 0 0 92.679 0 207"/>
        <path id="w" d="M0 207c0 2.008.036 4.006.092 6h79.053c-.092-1.99-.145-3.988-.145-6 0-70.689 57.31-128 128-128 1.676 0 3.34.043 5 .107V.063C210.338.023 208.672 0 207 0 92.68 0 0 92.679 0 207"/>
        <path id="y" d="M0 207c0 2.008.036 4.006.092 6h79.053c-.092-1.99-.145-3.988-.145-6 0-70.689 57.31-128 128-128 1.676 0 3.34.043 5 .107V.063C210.338.023 208.672 0 207 0 92.68 0 0 92.679 0 207"/>
        <path id="A" d="M0 207c0 2.008.036 4.006.092 6h79.053c-.092-1.99-.145-3.988-.145-6 0-70.689 57.31-128 128-128 1.676 0 3.34.043 5 .107V.063C210.338.023 208.672 0 207 0 92.68 0 0 92.679 0 207"/>
        <path id="C" d="M0 207c0 2.008.036 4.006.092 6h79.053c-.092-1.99-.145-3.988-.145-6 0-70.689 57.31-128 128-128 1.676 0 3.34.043 5 .107V.063C210.338.023 208.672 0 207 0 92.68 0 0 92.679 0 207"/>
        <path id="E" d="M0 207c0 2.008.036 4.006.092 6h79.053c-.092-1.99-.145-3.988-.145-6 0-70.689 57.31-128 128-128 1.676 0 3.34.043 5 .107V.063C210.338.023 208.672 0 207 0 92.68 0 0 92.679 0 207"/>
        <path id="G" d="M0 207c0 2.008.036 4.006.092 6h79.053c-.092-1.99-.145-3.988-.145-6 0-70.689 57.31-128 128-128 1.676 0 3.34.043 5 .107V.063C210.338.023 208.672 0 207 0 92.68 0 0 92.679 0 207"/>
        <path id="I" d="M0 207c0 2.008.036 4.006.092 6h79.053c-.092-1.99-.145-3.988-.145-6 0-70.689 57.31-128 128-128 1.676 0 3.34.043 5 .107V.063C210.338.023 208.672 0 207 0 92.68 0 0 92.679 0 207"/>
        <path id="K" d="M0 207c0 2.008.036 4.006.092 6h79.053c-.092-1.99-.145-3.988-.145-6 0-70.689 57.31-128 128-128 1.676 0 3.34.043 5 .107V.063C210.338.023 208.672 0 207 0 92.68 0 0 92.679 0 207"/>
        <path id="M" d="M0 207c0 2.008.036 4.006.092 6h79.053c-.092-1.99-.145-3.988-.145-6 0-70.689 57.31-128 128-128 1.676 0 3.34.043 5 .107V.063C210.338.023 208.672 0 207 0 92.68 0 0 92.679 0 207"/>
    </defs>
    <g fill="none" fill-rule="evenodd">
        <g stroke="#000" stroke-linejoin="round" stroke-width="2">
            <path d="M415 215c0 114.323-92.677 207-207 207S1 329.323 1 215 93.677 8 208 8s207 92.677 207 207z"/>
            <path stroke-dasharray="4,6" d="M208 47.5c92.508 0 167.5 74.992 167.5 167.5S300.508 382.5 208 382.5 40.5 307.508 40.5 215"/>
            <path d="M336 215c0 70.692-57.308 128-128 128-70.692 0-128-57.308-128-128 0-70.692 57.308-128 128-128 70.692 0 128 57.308 128 128zM1128 380c0-114.323 92.677-207 207-207s207 92.677 207 207-92.677 207-207 207-207-92.677-207-207z"/>
            <path d="M163.317 259.683L25.37 397.63a9.799 9.799 0 0 0-2.87 6.93V561.2c0 5.413 4.387 9.8 9.8 9.8H427M1342 380h120.2c5.412 0 9.8-4.388 9.8-9.8V141.06c0-2.6-1.032-5.092-2.87-6.93L1367.37 32.37a9.799 9.799 0 0 0-6.93-2.87H724"/>
            <path d="M336 571l60.63-60.63a9.796 9.796 0 0 1 6.929-2.87H810M967.813 29.5v47.7c0 5.412-4.389 9.8-9.8 9.8H484"/>
            <path stroke-dasharray="4,6" d="M1064 507h349.2c5.412 0 9.8-4.388 9.8-9.8V297"/>
            <path d="M208 87V8M1335 507v80M968 380v191"/>
            <path stroke-dasharray="4,6" d="M1128 87v293l207-207v200.5"/>
        </g>
        <g transform="translate(1 8)">
            <mask id="b" fill="#fff">
                <use xlink:href="#a"/>
            </mask>
            <path stroke="#000" stroke-linejoin="round" stroke-width="2" d="M207 207h-318" mask="url(#b)"/>
        </g>
        <g transform="translate(1 8)">
            <mask id="d" fill="#fff">
                <use xlink:href="#c"/>
            </mask>
            <path stroke="#000" stroke-linejoin="round" stroke-width="2" d="M207 207l-301.263-16.737" mask="url(#d)"/>
        </g>
        <g transform="translate(1 8)">
            <mask id="f" fill="#fff">
                <use xlink:href="#e"/>
            </mask>
            <path stroke="#000" stroke-linejoin="round" stroke-width="2" d="M207 207l-284.526-33.474" mask="url(#f)"/>
        </g>
        <g transform="translate(1 8)">
            <mask id="h" fill="#fff">
                <use xlink:href="#g"/>
            </mask>
            <path stroke="#000" stroke-linejoin="round" stroke-width="2" d="M207 207l-267.79-50.211" mask="url(#h)"/>
        </g>
        <g transform="translate(1 8)">
            <mask id="j" fill="#fff">
                <use xlink:href="#i"/>
            </mask>
            <path stroke="#000" stroke-linejoin="round" stroke-width="2" d="M207 207l-251.053-66.947" mask="url(#j)"/>
        </g>
        <g transform="translate(1 8)">
            <mask id="l" fill="#fff">
                <use xlink:href="#k"/>
            </mask>
            <path stroke="#000" stroke-linejoin="round" stroke-width="2" d="M207 207l-234.316-83.685" mask="url(#l)"/>
        </g>
        <g transform="translate(1 8)">
            <mask id="n" fill="#fff">
                <use xlink:href="#m"/>
            </mask>
            <path stroke="#000" stroke-linejoin="round" stroke-width="2" d="M207 207L-10.579 106.579" mask="url(#n)"/>
        </g>
        <g transform="translate(1 8)">
            <mask id="p" fill="#fff">
                <use xlink:href="#o"/>
            </mask>
            <path stroke="#000" stroke-linejoin="round" stroke-width="2" d="M207 207L6.158 89.842" mask="url(#p)"/>
        </g>
        <g transform="translate(1 8)">
            <mask id="r" fill="#fff">
                <use xlink:href="#q"/>
            </mask>
            <path stroke="#000" stroke-linejoin="round" stroke-width="2" d="M207 207L22.895 73.105" mask="url(#r)"/>
        </g>
        <g transform="translate(1 8)">
            <mask id="t" fill="#fff">
                <use xlink:href="#s"/>
            </mask>
            <path stroke="#000" stroke-linejoin="round" stroke-width="2" d="M207 207L39.631 56.368" mask="url(#t)"/>
        </g>
        <g transform="translate(1 8)">
            <mask id="v" fill="#fff">
                <use xlink:href="#u"/>
            </mask>
            <path stroke="#000" stroke-linejoin="round" stroke-width="2" d="M207 207L56.369 39.632" mask="url(#v)"/>
        </g>
        <g transform="translate(1 8)">
            <mask id="x" fill="#fff">
                <use xlink:href="#w"/>
            </mask>
            <path stroke="#000" stroke-linejoin="round" stroke-width="2" d="M207 207L73.105 22.895" mask="url(#x)"/>
        </g>
        <g transform="translate(1 8)">
            <mask id="z" fill="#fff">
                <use xlink:href="#y"/>
            </mask>
            <path stroke="#000" stroke-linejoin="round" stroke-width="2" d="M207 207L89.842 6.158" mask="url(#z)"/>
        </g>
        <g transform="translate(1 8)">
            <mask id="B" fill="#fff">
                <use xlink:href="#A"/>
            </mask>
            <path stroke="#000" stroke-linejoin="round" stroke-width="2" d="M207 207L106.579-10.579" mask="url(#B)"/>
        </g>
        <g transform="translate(1 8)">
            <mask id="D" fill="#fff">
                <use xlink:href="#C"/>
            </mask>
            <path stroke="#000" stroke-linejoin="round" stroke-width="2" d="M207 207L123.316-27.315" mask="url(#D)"/>
        </g>
        <g transform="translate(1 8)">
            <mask id="F" fill="#fff">
                <use xlink:href="#E"/>
            </mask>
            <path stroke="#000" stroke-linejoin="round" stroke-width="2" d="M207 207L140.053-44.053" mask="url(#F)"/>
        </g>
        <g transform="translate(1 8)">
            <mask id="H" fill="#fff">
                <use xlink:href="#G"/>
            </mask>
            <path stroke="#000" stroke-linejoin="round" stroke-width="2" d="M207 207L156.79-60.789" mask="url(#H)"/>
        </g>
        <g transform="translate(1 8)">
            <mask id="J" fill="#fff">
                <use xlink:href="#I"/>
            </mask>
            <path stroke="#000" stroke-linejoin="round" stroke-width="2" d="M207 207L173.526-77.526" mask="url(#J)"/>
        </g>
        <g transform="translate(1 8)">
            <mask id="L" fill="#fff">
                <use xlink:href="#K"/>
            </mask>
            <path stroke="#000" stroke-linejoin="round" stroke-width="2" d="M207 207L190.263-94.263" mask="url(#L)"/>
        </g>
        <g transform="translate(1 8)">
            <mask id="N" fill="#fff">
                <use xlink:href="#M"/>
            </mask>
            <path stroke="#000" stroke-linejoin="round" stroke-width="2" d="M207 207v-318" mask="url(#N)"/>
        </g>
        <g stroke="#000" stroke-linejoin="round" stroke-width="2">
            <path d="M161 571c0 17.121-13.879 31-31 31-17.121 0-31-13.879-31-31 0-17.121 13.879-31 31-31 17.121 0 31 13.879 31 31z"/>
            <path d="M208 571c0 17.121-13.879 31-31 31-17.121 0-31-13.879-31-31 0-17.121 13.879-31 31-31 17.121 0 31 13.879 31 31z"/>
            <path d="M255 571c0 17.121-13.879 31-31 31-17.121 0-31-13.879-31-31 0-17.121 13.879-31 31-31 17.121 0 31 13.879 31 31z"/>
            <path d="M302 571c0 17.121-13.879 31-31 31-17.121 0-31-13.879-31-31 0-17.121 13.879-31 31-31 17.121 0 31 13.879 31 31zM440 571a6.5 6.5 0 1 1-13 0 6.5 6.5 0 0 1 13 0zM823 507.5a6.5 6.5 0 1 1-13 0 6.5 6.5 0 0 1 13 0zM1064 507.5a6.5 6.5 0 1 1-13 0 6.5 6.5 0 0 1 13 0zM1430 290.5a6.5 6.5 0 1 1-13 0 6.5 6.5 0 0 1 13 0zM1341.5 380a6.5 6.5 0 1 1-13 0 6.5 6.5 0 0 1 13 0zM975 577.5a6.5 6.5 0 1 1-13 0 6.5 6.5 0 0 1 13 0zM724 29.5a6.5 6.5 0 1 1-13 0 6.5 6.5 0 0 1 13 0zM484 87a6.5 6.5 0 1 1-13 0 6.5 6.5 0 0 1 13 0zM1134.5 80.7a6.5 6.5 0 1 1-13 0 6.5 6.5 0 0 1 13 0zM975 373.5a6.5 6.5 0 1 1-13 0 6.5 6.5 0 0 1 13 0zM1326.51 570.676h16.98M1326.51 561.206h16.98M1326.51 551.735h16.98M1326.51 542.265h16.98M1326.51 532.794h16.98M1326.51 523.324h16.98M514.401 78.51v16.98M523.872 78.51v16.98M533.342 78.51v16.98M542.813 78.51v16.98M552.283 78.51v16.98M561.753 78.51v16.98M636.583 78.51v16.98M646.054 78.51v16.98M655.524 78.51v16.98M664.995 78.51v16.98M674.465 78.51v16.98M683.936 78.51v16.98M758.766 78.51v16.98M768.236 78.51v16.98M777.706 78.51v16.98M787.177 78.51v16.98M796.648 78.51v16.98M806.117 78.51v16.98M880.947 78.51v16.98M890.418 78.51v16.98M899.889 78.51v16.98M909.36 78.51v16.98M918.83 78.51v16.98M928.3 78.51v16.98M989.8 7.09l9.189 5.306V1.784zM1022.679 12.396l-9.19-5.307 9.19-5.304zM1046.368 12.396l-9.188-5.307 9.188-5.304zM1070.059 12.396l-9.19-5.307 9.19-5.304zM1093.748 12.396l-9.188-5.307 9.188-5.304zM1117.438 12.396l-9.189-5.307 9.19-5.304zM1141.128 12.396l-9.19-5.307 9.19-5.304zM1164.818 12.396l-9.189-5.307 9.19-5.304zM1188.508 12.396l-9.19-5.307 9.19-5.304zM1212.198 12.396l-9.189-5.307 9.19-5.304zM1235.888 12.396l-9.19-5.307 9.19-5.304zM1259.577 12.396l-9.188-5.307 9.188-5.304zM1283.268 12.396l-9.19-5.307 9.19-5.304zM1306.957 12.396l-9.188-5.307 9.188-5.304zM1330.648 12.396l-9.19-5.307 9.19-5.304zM1345.148 7.09l9.188-5.306v10.612zM1007 475.5c0 21.263-17.237 38.5-38.5 38.5S930 496.763 930 475.5s17.237-38.5 38.5-38.5 38.5 17.237 38.5 38.5zM271.19 215c0 34.899-28.291 63.191-63.19 63.191-34.9 0-63.191-28.292-63.191-63.191s28.292-63.191 63.19-63.191c34.9 0 63.192 28.292 63.192 63.191zM144.81 215H271.19M208 151.809v126.383"/>
            <path stroke-dasharray="4,6" d="M1146.792 466.272l274.941-274.942"/>
            <path d="M1519.67 289.27L1472 336.94M1301.94 507l-57.21 57.21"/>
        </g>
    </g>
</svg>
