<?xml version="1.0" encoding="UTF-8"?>
<svg width="46px" height="52px" viewBox="0 0 46 52" version="1.1" xmlns="http://www.w3.org/2000/svg" xmlns:xlink="http://www.w3.org/1999/xlink">
    <!-- Generator: Sketch 53.2 (72643) - https://sketchapp.com -->
    <title>aws-dynamodb</title>
    <desc>Created with Sketch.</desc>
    <g id="WIP-Pages" stroke="none" stroke-width="1" fill="none" fill-rule="evenodd">
        <g id="Artboard" transform="translate(-385.000000, -2232.000000)" fill-rule="nonzero">
            <g id="aws-dynamodb" transform="translate(385.000000, 2232.000000)">
                <polyline id="Path" fill="#5294CF" points="30.0076581 52 30.6324132 52 40.830276 46.8389503 41 46.5961643 41 5.40077157 40.830276 5.15672389 30.6324132 0 30 0 30.0076581 52"></polyline>
                <polyline id="Path" fill="#1F5B98" points="15.9922638 52 15.3668622 52 5.30768985 46.8389503 5.10355961 46.479007 5 5.61057327 5.30768985 5.15672389 15.3668622 0 16 0 15.9922638 52"></polyline>
                <polygon id="Path" fill="#2D72B8" points="15 0 30 0 30 52 15 52"></polygon>
                <polyline id="Path" fill="#1A476F" points="46 24.8250345 45.6523047 24.7471212 40.6878984 24.279278 40.6142266 24.3163277 30.3159766 23.9000636 15.6840234 23.9000636 5.38559375 24.3163277 5.38559375 16.3789766 5.3748125 16.3847884 5.38559375 16.3615415 15.6840234 13.9496794 30.3159766 13.9496794 40.6142266 16.3615415 44.4000625 18.3954605 44.4000625 17.0878244 46 16.9109303 45.8343281 16.5843845 40.7685781 12.923185 40.6142266 12.9738559 30.3159766 9.74853518 15.6840234 9.74853518 5.38559375 12.9738559 5.38559375 5 1.1969592e-16 11.377087 1.1969592e-16 16.946527 0.0416875 16.9160155 1.5999375 17.0878244 1.5999375 18.4223396 1.1969592e-16 19.2877405 1.1969592e-16 24.8293933 0.0416875 24.8250345 1.5999375 24.8482813 1.5999375 27.1742391 0.255515625 27.1945801 1.1969592e-16 27.1698803 1.1969592e-16 32.7137124 1.5999375 33.5832905 1.5999375 34.9332431 0.0670234375 35.1043255 0 35.053473 0 40.622005 5.38559375 47 5.38559375 39.0268705 15.6840234 42.2521913 30.3159766 42.2521913 40.6445937 39.0174265 40.781875 39.0782679 45.7809609 35.4710084 46 35.1115901 44.4000625 34.9332431 44.4000625 33.6103513 44.1903672 33.5257181 40.7685781 35.3900077 40.6445937 35.6515349 30.3159766 38.0494126 30.3159766 38.0523184 15.6840234 38.0523184 15.6840234 38.0494126 5.38559375 35.6413644 5.38559375 27.6749547 15.6840234 28.0897659 15.6840234 28.0999364 30.3159766 28.0999364 40.6142266 27.6749547 40.8487187 27.7839244 45.6605703 27.3651176 46 27.1974859 44.4000625 27.1742391 44.4000625 24.8482813 46 24.8250345"></polyline>
                <path d="M41,39.0268705 L41,47 L46,40.622005 L46,35.0897962 L41.0288593,39.0174265 L41,39.0268705 M41,35.6587995 L41.0288593,35.6515349 L46,32.7405916 L46,27.1742391 L41,27.6749547 L41,35.6587995 M41.0288593,16.3688061 L41,16.3615415 L41,24.3163277 L46,24.8250345 L46,19.2614061 L41.0288593,16.3688061 M41.0288593,13.0050939 L46,16.9109303 L46,11.3785399 L41,5 L41,12.9738559 L41.0288593,12.9847529 L41.0288593,13.0050939" id="Shape" fill="#2D72B8"></path>
            </g>
        </g>
    </g>
</svg>