<?xml version="1.0" encoding="UTF-8"?>
<svg width="46px" height="56px" viewBox="0 0 46 56" version="1.1" xmlns="http://www.w3.org/2000/svg" xmlns:xlink="http://www.w3.org/1999/xlink">
    <!-- Generator: Sketch 53.2 (72643) - https://sketchapp.com -->
    <title>aws-lambda</title>
    <desc>Created with Sketch.</desc>
    <g id="WIP-Pages" stroke="none" stroke-width="1" fill="none" fill-rule="evenodd">
        <g id="Artboard" transform="translate(-827.000000, -2228.000000)" fill-rule="nonzero">
            <g id="aws-lambda" transform="translate(827.000000, 2228.000000)">
                <polyline id="Path" fill="#9D5025" points="0 44.3053935 2.93285937 45.7796387 3.4140625 44.920671 3.4140625 10.7182194 2.93285937 10.0870452 0 11.5612903 0 44.3053935"></polyline>
                <polyline id="Path" fill="#F68536" points="8.56714063 11.4836129 2.93285938 10.0870452 2.93285938 45.7796387 8.56714063 44.4605677 8.56714063 11.4836129"></polyline>
                <polyline id="Path" fill="#6B3A19" points="25.8557734 14.1994323 29.8690938 12.1044903 43.2214922 17.3030968 39.6712266 17.7686194 25.8557734 14.1994323"></polyline>
                <polyline id="Path" fill="#FBBF93" points="26.010125 41.6672516 29.9463594 43.7621935 43.2985781 38.5635871 39.7483125 38.0978839 26.010125 41.6672516"></polyline>
                <path d="M27.0135,35.9252645 L34.0369453,36.8564903 L34.4401641,36.1290323 L34.4401641,19.8709677 L34.0369453,19.0101935 L27.0135,19.9412387 L27.0135,35.9252645 M6.40603906,8.30245161 L10.7282422,6.12983226 L11.2004609,7.04516129 L11.2004609,48.7741935 L10.7282422,49.7368516 L6.40603906,47.5642323 L6.40603906,8.30245161" id="Shape" fill="#9D5025"></path>
                <polyline id="Path" fill="#F68536" points="19.5268203 46.7883613 10.7282422 49.6591742 10.7282422 6.12983226 19.5268203 9.00082581 19.5268203 46.7883613"></polyline>
                <path d="M16.1309062,52.3749935 L23,55.8666839 L23.71875,55.0366194 L23.71875,1.02371613 L23,0 L16.1309062,3.49169032 L16.1309062,52.3749935 M39.5166953,17.7686194 L43.0671406,17.3030968 L43.3720703,17.7483871 L43.3720703,38.116129 L43.0671406,38.6410839 L39.5166953,38.1755613 L39.5166953,17.7686194" id="Shape" fill="#9D5025"></path>
                <polyline id="Path" fill="#F68536" points="34.0369453 19.0101935 34.0369453 36.9339871 41.3690938 27.9333419 34.0369453 19.0101935"></polyline>
                <path d="M43.0671406,10.0870452 L23,0 L23,55.8666839 L46,44.3053935 L46,11.5612903 L43.0671406,10.0870452 Z M43.0671406,38.6681806 L29.8690938,42.6308129 L29.8690938,13.235871 L43.0671406,17.1985032 L43.0671406,38.6681806 Z" id="Shape" fill="#F68536"></path>
            </g>
        </g>
    </g>
</svg>