<svg xmlns="http://www.w3.org/2000/svg" width="85" height="52" viewBox="0 0 85 52">
    <g fill="#8C8C8C" fill-rule="evenodd">
        <path d="M24.136 19.116c0 1.03.111 1.867.306 2.48.222.613.5 1.281.89 2.006.138.223.194.446.194.64 0 .28-.167.558-.528.837l-1.751 1.17c-.25.167-.5.25-.723.25-.278 0-.556-.139-.834-.39a8.618 8.618 0 0 1-1-1.309 21.59 21.59 0 0 1-.862-1.644c-2.168 2.564-4.892 3.845-8.172 3.845-2.335 0-4.197-.668-5.559-2.006-1.362-1.337-2.057-3.12-2.057-5.35 0-2.368.834-4.291 2.53-5.74 1.695-1.45 3.947-2.174 6.81-2.174.944 0 1.917.084 2.946.223 1.028.14 2.084.363 3.196.613v-2.034c0-2.117-.444-3.594-1.306-4.458-.89-.864-2.39-1.282-4.53-1.282-.974 0-1.974.112-3.003.362-1.028.251-2.029.558-3.001.948a7.963 7.963 0 0 1-.973.362 1.7 1.7 0 0 1-.445.084c-.39 0-.584-.28-.584-.864V4.319c0-.445.056-.78.195-.975.139-.195.389-.39.778-.585.973-.502 2.14-.92 3.502-1.254 1.362-.362 2.808-.53 4.336-.53 3.308 0 5.726.753 7.283 2.258 1.528 1.504 2.307 3.79 2.307 6.854v9.029h.055zM12.851 23.35c.918 0 1.862-.167 2.863-.501 1-.335 1.89-.948 2.64-1.784.446-.53.779-1.114.946-1.783.167-.669.278-1.477.278-2.424v-1.17a23.16 23.16 0 0 0-2.557-.474 20.892 20.892 0 0 0-2.613-.168c-1.862 0-3.224.363-4.142 1.115-.917.752-1.362 1.811-1.362 3.204 0 1.31.334 2.285 1.029 2.954.667.697 1.64 1.031 2.918 1.031zm22.32 3.01c-.5 0-.834-.084-1.056-.28-.223-.166-.417-.556-.584-1.086l-6.532-21.54c-.167-.557-.25-.919-.25-1.114 0-.446.222-.697.667-.697h2.724c.528 0 .89.084 1.084.279.222.167.39.557.556 1.087l4.67 18.446L40.785 3.01c.14-.558.306-.92.529-1.087.222-.167.61-.279 1.111-.279h2.224c.528 0 .89.084 1.112.279.222.167.417.557.528 1.087l4.391 18.67 4.81-18.67c.166-.558.36-.92.555-1.087.222-.167.584-.279 1.084-.279h2.585c.445 0 .695.223.695.697 0 .14-.028.279-.056.446-.028.167-.083.39-.194.696l-6.699 21.54c-.167.557-.361.92-.584 1.087-.222.167-.583.278-1.056.278h-2.39c-.528 0-.89-.083-1.112-.278-.223-.195-.417-.558-.528-1.115L43.482 7.022l-4.28 17.945c-.14.558-.307.92-.529 1.115-.222.195-.611.278-1.112.278h-2.39zm35.717.752a18.35 18.35 0 0 1-4.28-.502c-1.39-.334-2.474-.696-3.197-1.114-.445-.251-.75-.53-.862-.78a1.971 1.971 0 0 1-.167-.78v-1.422c0-.585.223-.864.64-.864.166 0 .333.028.5.084.167.056.417.167.695.279.945.418 1.973.752 3.057.975 1.112.223 2.196.334 3.308.334 1.751 0 3.113-.306 4.058-.92.945-.612 1.445-1.504 1.445-2.646 0-.78-.25-1.422-.75-1.951-.5-.53-1.445-1.003-2.808-1.449l-4.03-1.254c-2.029-.64-3.53-1.588-4.447-2.842-.917-1.226-1.39-2.592-1.39-4.04 0-1.17.25-2.202.75-3.094a7.156 7.156 0 0 1 2.002-2.284c.834-.641 1.779-1.115 2.89-1.45 1.113-.334 2.28-.473 3.503-.473.611 0 1.25.028 1.862.111.64.084 1.223.195 1.807.307.556.14 1.084.279 1.584.446.5.167.89.334 1.168.501.389.223.667.446.834.697.166.223.25.53.25.92v1.31c0 .584-.223.89-.64.89-.222 0-.583-.11-1.056-.334-1.584-.724-3.363-1.086-5.336-1.086-1.585 0-2.836.25-3.697.78-.862.53-1.307 1.337-1.307 2.48 0 .78.278 1.449.834 1.978.556.53 1.585 1.06 3.058 1.533l3.947 1.254c2 .64 3.446 1.532 4.308 2.675.862 1.142 1.278 2.452 1.278 3.9 0 1.199-.25 2.286-.722 3.233a7.49 7.49 0 0 1-2.03 2.452c-.86.697-1.89 1.198-3.085 1.56-1.25.39-2.557.586-3.974.586zM76.14 40.655c-9.144 6.771-22.43 10.366-33.853 10.366-16.01 0-30.436-5.935-41.332-15.8-.862-.78-.083-1.839.945-1.226 11.785 6.855 26.322 11.007 41.36 11.007 10.145 0 21.29-2.118 31.547-6.465 1.529-.696 2.835 1.004 1.334 2.118zm3.809-4.347c-1.168-1.504-7.727-.724-10.701-.362-.89.111-1.029-.669-.223-1.254 5.226-3.678 13.814-2.62 14.815-1.393 1 1.254-.278 9.864-5.17 13.988-.75.64-1.473.307-1.14-.53 1.112-2.758 3.586-8.972 2.419-10.449z"/>
    </g>
</svg>
