<svg xmlns="http://www.w3.org/2000/svg" width="126" height="37" viewBox="0 0 126 37">
    <g fill="#8C8C8C" fill-rule="evenodd">
        <path d="M28.92 5.381l-6.925 14.073L34.186 33.71 11.56 36.303l35.11.37zM27.554-.174L11.658 13.251l-11.8 20.09 10.044-1.019z"/>
        <path fill-rule="nonzero" d="M59.94 14.034l-7.604 18.814h2.585l1.977-5.274h8.405l2.101 5.274h2.571l-7.63-18.814h-2.406zm1.133 2.283h.055c.101.577.203.997.304 1.26l3.11 8.016h-6.87l3.083-8.016c.12-.306.226-.726.318-1.26zm58.79 2.782c-1.853 0-3.406.66-4.66 1.98-1.243 1.313-1.865 3.014-1.865 5.105 0 2.212.571 3.93 1.714 5.155 1.143 1.216 2.714 1.824 4.714 1.824 2.046 0 3.69-.428 4.935-1.285v-2.02c-1.337.996-2.802 1.494-4.396 1.494-1.42 0-2.534-.406-3.345-1.22-.811-.813-1.235-1.968-1.272-3.463h9.994V25.54c0-2.02-.506-3.599-1.52-4.736-1.014-1.137-2.447-1.705-4.3-1.705zm-10.13.079c-.82 0-1.561.266-2.225.8-.663.525-1.156 1.26-1.479 2.204h-.055v-2.768h-2.267v13.434h2.267V26c0-1.496.323-2.677.968-3.543.654-.866 1.465-1.299 2.433-1.299.746 0 1.318.145 1.714.433v-2.23c-.314-.123-.765-.183-1.355-.183zm-37.453.236v1.836h7.59l-8.378 10.93v.668h11.626v-1.837h-8.295l8.378-10.98v-.617H72.28zm14.33 0v8.029c0 3.813 1.688 5.72 5.06 5.72 1.973 0 3.429-.813 4.369-2.44h.055v2.125h2.267V19.414h-2.267v7.74c0 1.251-.36 2.266-1.078 3.044-.71.77-1.617 1.154-2.723 1.154-2.286 0-3.429-1.416-3.429-4.25v-7.688h-2.253zm33.211 1.495c1.106 0 1.968.346 2.585 1.037.627.69.945 1.657.954 2.899h-7.645c.175-1.172.636-2.121 1.383-2.847.746-.726 1.654-1.089 2.723-1.089z"/>
    </g>
</svg>
