<svg xmlns="http://www.w3.org/2000/svg" xmlns:xlink="http://www.w3.org/1999/xlink" width="996" height="332" viewBox="0 0 996 332">
    <defs>
        <path id="a" d="M.115.371H364.68v213.99H.115z"/>
        <path id="c" d="M0 .19h82.845V81H0z"/>
    </defs>
    <g fill="none" fill-rule="evenodd">
        <g transform="translate(501 .629)">
            <mask id="b" fill="#fff">
                <use xlink:href="#a"/>
            </mask>
            <path fill="#8C8C8C" d="M325.58 202.979c2.886-9.949 1.77-19.172-3.027-25.916-4.461-6.249-11.878-9.913-20.888-10.338l-170.613-2.16a3.431 3.431 0 0 1-2.691-1.434 3.538 3.538 0 0 1-.371-3.08 4.549 4.549 0 0 1 3.965-3.027l172.205-2.194c20.429-.939 42.485-17.508 50.292-37.724l9.824-25.65a5.85 5.85 0 0 0 .266-3.399c-13.53-60.449-73.501-98.484-133.95-84.954a112.16 112.16 0 0 0-81.697 73.359c-22.33-16.699-53.967-12.133-70.666 10.196a50.484 50.484 0 0 0-8.48 42.751C30.186 130.537-.975 163.521.146 203.084c.074 2.81.316 5.612.726 8.392a3.346 3.346 0 0 0 3.293 2.885H319.26a4.159 4.159 0 0 0 3.982-2.991l2.337-8.391z" mask="url(#b)"/>
        </g>
        <path fill="#8C8C8C" d="M881.03 93.962c-1.568 0-3.144.034-4.726.105a2.748 2.748 0 0 0-2.46 1.984l-6.71 23.171c-2.884 9.949-1.77 19.153 3.028 25.916 4.46 6.23 11.878 9.894 20.889 10.32l36.36 2.195a3.31 3.31 0 0 1 2.6 1.399c.599.92.736 2.063.374 3.097a4.479 4.479 0 0 1-3.948 3.028l-37.794 2.178c-20.516.956-42.627 17.524-50.38 37.74l-2.726 7.08a2.017 2.017 0 0 0 1.133 2.602c.237.092.489.14.744.143h130.039a3.542 3.542 0 0 0 3.363-2.496c13.863-49.663-15.158-101.162-64.821-115.025a93.34 93.34 0 0 0-24.964-3.438M988.288 261.21a1.293 1.293 0 0 0 1.43-1.137l.005-.031v-.23c0-1.062-.568-1.416-1.435-1.416h-2.814v2.815h2.814zm3.187 4.833h-1.983l-1.77-3.222h-2.248v3.204h-1.771v-9.24h4.426a3.01 3.01 0 0 1 1.257 5.824l2.089 3.434zm-4.231-11.258a6.851 6.851 0 1 0 6.727 6.975v-.142a6.798 6.798 0 0 0-6.727-6.833zm0 15.24a8.408 8.408 0 1 1 0-16.816 8.408 8.408 0 0 1 8.408 8.409 8.408 8.408 0 0 1-8.408 8.408zM106.832 252.359h21.526v58.842h37.653v18.87h-59.18zM250.094 291.445v-.23c0-11.206-8.09-20.977-19.968-20.977s-19.649 9.542-19.649 20.765v.213c0 11.222 8.09 20.994 19.862 20.994 11.772 0 19.755-9.56 19.755-20.765m-61.78 0v-.23c0-22.304 17.985-40.414 41.954-40.414 23.97 0 41.812 17.879 41.812 40.202v.213c0 22.322-17.985 40.413-41.954 40.413s-41.74-17.88-41.74-40.184M298.368 295.995v-43.636h21.88v43.194c0 11.205 5.665 16.533 14.32 16.533 8.657 0 14.304-5.098 14.304-15.932v-43.795h21.88v43.087c0 25.084-14.321 36.06-36.413 36.06s-35.971-11.19-35.971-35.511M434.02 310.989c12.886 0 21.418-7.081 21.418-19.667v-.195c0-12.392-8.55-19.65-21.419-19.65h-8.852v39.512h8.852zm-30.307-58.612h29.97c27.756 0 43.848 15.932 43.848 38.396v.23c0 22.428-16.322 39.068-44.256 39.068h-29.562v-77.694zM508.828 252.359h62.17v18.889h-40.626v13.205h36.749v17.861h-36.75v27.757h-21.543zM600.967 252.359h21.614v58.842h37.634v18.87h-59.248zM735.255 299.43l-8.657-22.094-8.762 22.093h17.418zm-18.853-47.62h20.747l33.102 78.261H747.24l-5.682-13.878h-30.094l-5.487 13.878h-22.66l33.086-78.26zM833.749 289.658c7.312 0 11.542-3.541 11.542-9.205v-.231c0-6.107-4.443-9.205-11.666-9.205h-14.161v18.64h14.285zm-35.758-37.3h36.749c11.879 0 20.093 3.117 25.315 8.446 4.549 4.443 6.885 10.444 6.885 18.09v.23c0 11.879-6.337 19.757-15.931 23.863l18.48 27.084h-24.871l-15.648-23.525h-9.436v23.525H797.99v-77.712zM898.007 252.359h62.506v18.322H919.32v11.772h37.316v16.976H919.32v12.391h41.742v18.251h-63.055z"/>
        <g transform="translate(0 250.629)">
            <mask id="d" fill="#fff">
                <use xlink:href="#c"/>
            </mask>
            <path fill="#8C8C8C" d="M59.656 49.916a19.012 19.012 0 0 1-17.702 11.647c-11.772 0-19.88-9.754-19.88-20.977v-.212c0-11.224 7.895-20.766 19.668-20.766a19.473 19.473 0 0 1 18.48 12.888h22.623C79.129 13.944 62.967.19 41.954.19 17.968.19 0 18.28 0 40.587v.228C0 63.121 17.702 81 41.742 81c20.499 0 36.537-13.275 40.715-31.065H59.656v-.018z" mask="url(#d)"/>
        </g>
    </g>
</svg>
