<svg xmlns="http://www.w3.org/2000/svg" xmlns:xlink="http://www.w3.org/1999/xlink" width="1142" height="263" viewBox="0 0 1142 263">
    <defs>
        <path id="a" d="M0 .838h237.353V262H0z"/>
        <path id="c" d="M0 262.162h1141.097V1H0z"/>
    </defs>
    <g fill="none" fill-rule="evenodd">
        <g transform="translate(0 .162)">
            <mask id="b" fill="#fff">
                <use xlink:href="#a"/>
            </mask>
            <path fill="#8C8C8C" d="M145.086 118.915c-5.155 0-10.315.146-15.463-.048-3.958-.148-5.833 1.232-5.775 5.418.142 10.142.09 20.287.023 30.43-.023 3.484 1.293 5.207 4.994 5.169 10.474-.105 20.95-.085 31.427-.012 3.449.023 4.752-1.645 4.74-4.898-.038-10.31-.08-20.621.023-30.929.04-3.924-1.761-5.299-5.504-5.17-4.817.166-9.643.041-14.465.04zM123.57 87.551c0 5.164.126 10.333-.04 15.492-.128 3.952 1.29 5.84 5.479 5.783 10.328-.141 20.659-.118 30.988-.01 3.82.04 5.422-1.529 5.382-5.364-.107-10.328-.107-20.659 0-30.987.04-3.724-1.292-5.559-5.224-5.521-10.495.104-20.992.083-31.488.01-3.576-.025-5.188 1.504-5.12 5.103.099 5.163.025 10.329.023 15.494zm53.862 85.165c-1.41.093-2.217.191-3.025.191-14.998.012-29.998.113-44.994-.052-4.318-.047-6.128 1.51-5.885 5.842.205 3.655.025 7.33.046 10.996.033 5.981.657 6.663 6.545 6.671 21.164.027 42.328.017 63.492.008 6.813-.004 7.097-.28 7.098-6.978.008-32.496.004-64.992.004-97.488 0-6.832-.12-13.667.04-20.496.097-4.101-1.6-5.747-5.671-5.541-3.99.202-8.01.243-11.994-.011-4.46-.284-5.764 1.677-5.722 5.914.162 16.331.066 32.663.066 48.995v51.949zm-117.18.203v-6.571c0-30.813.003-61.626-.003-92.439-.001-7.116-.42-7.514-7.715-7.533-3.165-.008-6.341.176-9.491-.04-4.742-.324-6.528 1.639-6.452 6.416.208 12.988.072 25.981.072 38.974 0 26.149.027 52.298-.033 78.448-.008 3.55.345 6.253 4.932 6.236 22.485-.08 44.97-.048 67.456-.027 3.305.003 4.926-1.512 4.897-4.845-.034-3.831.018-7.662.004-11.492-.025-6.708-.427-7.12-7.03-7.124-15.3-.009-30.6-.003-46.637-.003zM.08 131.078c-.001-14.327-.117-28.655.028-42.98.17-16.875 7.582-29.678 22.225-38.166C46.672 35.823 71.072 21.817 95.377 7.648c15.496-9.034 30.845-9.098 46.357-.084 24.469 14.219 49.039 28.265 73.484 42.525 14.408 8.404 21.883 21.161 21.993 37.818.19 28.986.188 57.975 0 86.96-.107 16.455-7.42 29.201-21.618 37.534-24.837 14.578-49.815 28.915-74.79 43.259-14.651 8.415-29.5 8.467-44.15.074-25.278-14.48-50.543-28.988-75.631-43.792C7.344 203.871.438 191.386.14 175.557c-.277-14.822-.06-29.653-.061-44.479z" mask="url(#b)"/>
        </g>
        <path fill="#FFF" d="M60.252 173.08c16.038 0 31.338-.005 46.637.004 6.603.004 7.006.416 7.03 7.124.014 3.83-.037 7.66-.003 11.492.03 3.333-1.592 4.848-4.898 4.845-22.485-.021-44.97-.053-67.455.027-4.587.017-4.94-2.686-4.933-6.236.06-26.15.033-52.3.033-78.448 0-12.993.136-25.986-.07-38.974-.077-4.777 1.708-6.74 6.451-6.416 3.15.216 6.326.032 9.49.04 7.296.02 7.714.417 7.716 7.533.005 30.813.002 61.626.002 92.439v6.57zM177.432 172.878v-51.95c0-16.331.097-32.663-.065-48.993-.042-4.238 1.263-6.2 5.722-5.914 3.983.253 8.004.212 11.993.01 4.071-.206 5.768 1.44 5.672 5.54-.16 6.83-.04 13.665-.04 20.497 0 32.497.004 64.993-.005 97.489 0 6.697-.285 6.973-7.098 6.977-21.164.009-42.328.019-63.492-.008-5.888-.007-6.51-.69-6.545-6.67-.02-3.666.16-7.341-.045-10.997-.243-4.332 1.567-5.89 5.884-5.841 14.997.165 29.996.063 44.994.05.808 0 1.616-.097 3.025-.19"/>
        <path fill="#FFF" d="M123.572 87.713c.001-5.165.074-10.331-.024-15.494-.069-3.6 1.544-5.128 5.12-5.103 10.495.074 20.992.094 31.487-.01 3.933-.038 5.265 1.797 5.226 5.52a1481.822 1481.822 0 0 0 0 30.988c.04 3.835-1.562 5.405-5.384 5.365-10.328-.11-20.659-.132-30.987.009-4.188.057-5.607-1.831-5.48-5.783.167-5.16.041-10.328.042-15.492"/>
        <path fill="#DEDEDE" d="M145.086 119.077c4.822.001 9.648.126 14.465-.04 3.743-.129 5.544 1.246 5.504 5.17-.103 10.308-.061 20.619-.023 30.929.012 3.253-1.291 4.921-4.74 4.898-10.476-.073-20.953-.093-31.427.012-3.701.038-5.017-1.685-4.994-5.169.068-10.143.119-20.288-.023-30.43-.058-4.186 1.817-5.566 5.775-5.418 5.148.194 10.308.048 15.463.048M72.112 87.713c.001-5.165.074-10.331-.024-15.494-.069-3.6 1.544-5.128 5.12-5.103 10.495.074 20.992.094 31.487-.01 3.933-.038 5.265 1.797 5.226 5.52a1481.822 1481.822 0 0 0 0 30.988c.04 3.835-1.562 5.405-5.384 5.365-10.328-.11-20.659-.132-30.987.009-4.188.057-5.607-1.831-5.48-5.783.167-5.16.041-10.328.042-15.492"/>
        <path fill="#B1B0B1" d="M93.626 119.077c4.822.001 9.648.126 14.465-.04 3.743-.129 5.544 1.246 5.504 5.17-.103 10.308-.061 20.619-.023 30.929.012 3.253-1.291 4.921-4.74 4.898-10.476-.073-20.953-.093-31.427.012-3.701.038-5.017-1.685-4.994-5.169.068-10.143.119-20.288-.023-30.43-.058-4.186 1.817-5.566 5.775-5.418 5.148.194 10.308.048 15.463.048"/>
        <path fill="#8C8C8C" d="M337.688 145.951l-17.125 18.162v47.119h-26.257V60.119h26.257v70.887l14.531-17.955 44.213-52.932h31.758l-56.148 66.941 59.365 84.172h-31.136zM491.5 200.23c-7.405 8.72-17.922 13.078-31.552 13.078-12.178 0-21.398-3.564-27.659-10.69-6.263-7.126-9.393-17.437-9.393-30.929V98.935h25.221v72.443c0 14.254 5.915 21.38 17.747 21.38 12.247 0 20.514-4.393 24.805-13.18V98.935h25.22v112.297h-23.767l-.623-11.002zM614.901 154.045c0-12.176-2.146-21.31-6.435-27.398-4.29-6.088-10.518-9.133-18.68-9.133-10.934 0-18.614 4.773-23.042 14.322v46.289c4.497 9.756 12.247 14.633 23.25 14.633 7.886 0 13.974-2.94 18.264-8.822 4.29-5.88 6.503-14.772 6.643-26.672v-3.22zm25.22 2.18c0 17.437-3.892 31.31-11.676 41.619-7.783 10.31-18.49 15.465-32.12 15.465-13.149 0-23.389-4.741-30.722-14.22l-1.245 12.144h-22.833V51.816h25.22v57.913c7.264-8.58 17.054-12.87 29.371-12.87 13.7 0 24.458 5.086 32.277 15.258 7.82 10.17 11.728 24.389 11.728 42.655v1.453zM707.685 117.097c-6.919 0-12.506 2.425-16.76 7.267-4.257 4.843-6.972 11.588-8.148 20.237h48.053v-1.869c-.555-8.44-2.802-14.822-6.747-19.148-3.943-4.323-9.41-6.487-16.398-6.487m3.01 96.212c-15.983 0-28.94-5.035-38.867-15.102-9.93-10.069-14.894-23.472-14.894-40.216v-3.115c0-11.209 2.162-21.224 6.486-30.047 4.324-8.822 10.396-15.686 18.215-20.6 7.82-4.912 16.536-7.37 26.154-7.37 15.291 0 27.105 4.88 35.443 14.635 8.337 9.755 12.507 23.559 12.507 41.41v10.173h-73.377c.761 9.27 3.856 16.605 9.29 22 5.43 5.398 12.262 8.096 20.496 8.096 11.555 0 20.965-4.672 28.23-14.012l13.596 12.974c-4.499 6.713-10.5 11.92-18.007 15.62-7.509 3.7-15.93 5.554-25.272 5.554"/>
        <mask id="d" fill="#fff">
            <use xlink:href="#c"/>
        </mask>
        <path fill="#8C8C8C" d="M776.912 211.232h25.22V51.816h-25.22zM876.026 117.097c-6.919 0-12.506 2.425-16.76 7.267-4.257 4.843-6.972 11.588-8.148 20.237h48.053v-1.869c-.555-8.44-2.802-14.822-6.747-19.148-3.943-4.323-9.41-6.487-16.398-6.487m3.01 96.212c-15.983 0-28.94-5.035-38.867-15.102-9.93-10.069-14.894-23.472-14.894-40.216v-3.115c0-11.209 2.162-21.224 6.486-30.047 4.324-8.822 10.396-15.686 18.215-20.6 7.82-4.912 16.536-7.37 26.154-7.37 15.291 0 27.105 4.88 35.443 14.635 8.337 9.755 12.507 23.559 12.507 41.41v10.173h-73.377c.761 9.27 3.856 16.605 9.29 22 5.43 5.398 12.262 8.096 20.496 8.096 11.555 0 20.965-4.672 28.23-14.012l13.596 12.974c-4.499 6.713-10.5 11.92-18.007 15.62-7.509 3.7-15.93 5.554-25.272 5.554M1006.59 180.719c0-4.496-1.852-7.922-5.552-10.275-3.702-2.352-9.844-4.426-18.423-6.227-8.58-1.8-15.741-4.082-21.483-6.85-12.594-6.087-18.89-14.91-18.89-26.464 0-9.688 4.082-17.784 12.247-24.288 8.164-6.501 18.542-9.755 31.136-9.755 13.423 0 24.269 3.322 32.537 9.963 8.268 6.642 12.403 15.257 12.403 25.843h-25.22c0-4.842-1.8-8.873-5.397-12.092-3.598-3.216-8.373-4.826-14.323-4.826-5.536 0-10.051 1.282-13.544 3.84-3.494 2.563-5.241 5.986-5.241 10.276 0 3.876 1.625 6.886 4.878 9.029 3.252 2.146 9.824 4.306 19.72 6.486 9.893 2.18 17.66 4.776 23.299 7.785 5.639 3.01 9.825 6.625 12.559 10.846 2.733 4.22 4.1 9.34 4.1 15.359 0 10.104-4.188 18.286-12.56 24.545-8.371 6.264-19.34 9.395-32.9 9.395-9.201 0-17.401-1.662-24.596-4.983-7.197-3.322-12.802-7.888-16.813-13.7-4.014-5.811-6.02-12.073-6.02-18.784H963c.346 5.95 2.595 10.533 6.746 13.75 4.152 3.219 9.653 4.826 16.502 4.826 6.643 0 11.693-1.261 15.154-3.787 3.459-2.525 5.188-5.828 5.188-9.912M1116.29 180.719c0-4.496-1.851-7.922-5.551-10.275-3.702-2.352-9.844-4.426-18.423-6.227-8.58-1.8-15.741-4.082-21.483-6.85-12.594-6.087-18.89-14.91-18.89-26.464 0-9.688 4.082-17.784 12.247-24.288 8.164-6.501 18.542-9.755 31.136-9.755 13.423 0 24.269 3.322 32.537 9.963 8.268 6.642 12.403 15.257 12.403 25.843h-25.22c0-4.842-1.8-8.873-5.397-12.092-3.598-3.216-8.373-4.826-14.323-4.826-5.536 0-10.051 1.282-13.544 3.84-3.494 2.563-5.241 5.986-5.241 10.276 0 3.876 1.625 6.886 4.878 9.029 3.252 2.146 9.824 4.306 19.72 6.486 9.893 2.18 17.66 4.776 23.299 7.785 5.639 3.01 9.825 6.625 12.559 10.846 2.732 4.22 4.1 9.34 4.1 15.359 0 10.104-4.188 18.286-12.56 24.545-8.371 6.264-19.34 9.395-32.9 9.395-9.201 0-17.401-1.662-24.596-4.983-7.197-3.322-12.802-7.888-16.813-13.7-4.014-5.811-6.02-12.073-6.02-18.784h24.493c.346 5.95 2.595 10.533 6.746 13.75 4.152 3.219 9.653 4.826 16.502 4.826 6.643 0 11.693-1.261 15.154-3.787 3.459-2.525 5.188-5.828 5.188-9.912" mask="url(#d)"/>
    </g>
</svg>
