<svg xmlns="http://www.w3.org/2000/svg" xmlns:xlink="http://www.w3.org/1999/xlink" width="154" height="31" viewBox="0 0 154 31">
    <defs>
        <path id="a" d="M0 30.09h152.84V0H0z"/>
    </defs>
    <g fill="none" fill-rule="evenodd" transform="translate(.486 .793)">
        <path fill="#8C8C8C" d="M54.79 18.007c0-1.649-.32-2.913-.96-3.792-.64-.88-1.548-1.319-2.724-1.319-1.147 0-2.044.438-2.691 1.314-.647.876-.978 2.114-.992 3.716v.858c0 1.636.327 2.9.982 3.793.653.893 1.561 1.339 2.722 1.339 1.175 0 2.08-.436 2.713-1.309.633-.872.95-2.146.95-3.823v-.777zm2.654.777c0 1.459-.26 2.738-.777 3.839-.517 1.1-1.257 1.946-2.219 2.535-.962.59-2.069.884-3.32.884-1.239 0-2.342-.294-3.311-.884-.969-.59-1.717-1.43-2.245-2.52-.529-1.09-.796-2.347-.803-3.772v-.838c0-1.452.264-2.733.792-3.844.528-1.11 1.273-1.96 2.235-2.55.962-.59 2.065-.885 3.31-.885s2.349.292 3.31.875c.962.582 1.706 1.42 2.23 2.514.525 1.094.79 2.367.798 3.818v.828zM67.244 20.205c0-1.104-.226-1.98-.677-2.627-.451-.647-1.097-.971-1.936-.971-1.042 0-1.79.42-2.245 1.257v4.907c.461.859 1.217 1.288 2.266 1.288.811 0 1.446-.318 1.904-.956.458-.637.688-1.603.688-2.898zm2.539.215c0 1.71-.399 3.075-1.196 4.094-.798 1.019-1.868 1.528-3.21 1.528-1.246 0-2.243-.398-2.991-1.196v5.244h-2.55V14.777h2.35l.105 1.125c.749-.886 1.766-1.33 3.054-1.33 1.385 0 2.47.503 3.258 1.508.786 1.006 1.18 2.401 1.18 4.187v.153zM76.634 16.566c-.7 0-1.264.239-1.694.716-.43.477-.705 1.141-.824 1.993h4.858v-.184c-.056-.831-.283-1.46-.682-1.886-.398-.426-.951-.639-1.658-.639m.305 9.476c-1.616 0-2.926-.496-3.93-1.487-1.004-.992-1.505-2.312-1.505-3.961v-.307c0-1.104.218-2.09.655-2.96.437-.868 1.051-1.545 1.842-2.029.79-.483 1.672-.725 2.644-.725 1.546 0 2.74.48 3.583 1.441.843.961 1.264 2.32 1.264 4.079v1.002h-7.418c.077.913.39 1.635.94 2.167.548.531 1.239.797 2.072.797 1.168 0 2.12-.46 2.854-1.38l1.374 1.278a4.553 4.553 0 0 1-1.82 1.538c-.76.365-1.61.547-2.555.547M85.836 14.777l.074 1.278c.84-.988 1.94-1.482 3.305-1.482 2.364 0 3.567 1.318 3.61 3.956v7.309h-2.55v-7.166c0-.702-.156-1.222-.467-1.56-.312-.336-.82-.505-1.527-.505-1.028 0-1.794.453-2.298 1.36v7.87h-2.55v-11.06h2.403zM107.65 22.158L110 10.954h2.634l-3.526 14.884h-2.539l-2.906-10.867-2.97 10.867h-2.55l-3.525-14.884h2.634l2.371 11.183 2.917-11.183h2.225zM116.841 15.983c.833-.94 1.886-1.41 3.159-1.41 2.42 0 3.647 1.346 3.683 4.037v7.228h-2.55v-7.135c0-.764-.17-1.304-.509-1.62-.34-.318-.838-.476-1.495-.476-1.022 0-1.784.443-2.288 1.329v7.902h-2.55V10.136h2.55v5.847z"/>
        <mask id="b" fill="#fff">
            <use xlink:href="#a"/>
        </mask>
        <path fill="#8C8C8C" d="M126.421 25.838h2.55v-11.06h-2.55v11.06zm-.157-13.933a1.3 1.3 0 0 1 .372-.951c.248-.252.603-.378 1.065-.378.462 0 .819.126 1.07.378.252.252.378.569.378.95 0 .375-.126.687-.378.936-.251.249-.608.373-1.07.373-.462 0-.817-.124-1.065-.373a1.27 1.27 0 0 1-.372-.935zM138.11 22.832c0-.443-.188-.78-.562-1.012-.374-.231-.995-.436-1.862-.613-.868-.177-1.592-.402-2.172-.675-1.273-.6-1.91-1.468-1.91-2.606 0-.954.413-1.752 1.238-2.392.826-.64 1.875-.961 3.148-.961 1.357 0 2.453.327 3.29.981.835.654 1.253 1.503 1.253 2.545h-2.55c0-.476-.181-.873-.545-1.19-.364-.317-.847-.476-1.448-.476-.56 0-1.016.126-1.37.378-.352.253-.53.59-.53 1.012 0 .382.165.679.494.89.329.211.993.424 1.994.639 1 .214 1.785.47 2.355.766.57.297.993.653 1.27 1.069.276.415.414.92.414 1.512 0 .996-.423 1.801-1.27 2.418-.846.617-1.955.925-3.326.925-.93 0-1.759-.163-2.486-.49-.728-.328-1.294-.777-1.7-1.35-.406-.572-.608-1.189-.608-1.85h2.476c.035.586.262 1.037.682 1.354.42.317.976.476 1.668.476.672 0 1.182-.125 1.532-.373.35-.249.525-.574.525-.977M146.524 21.095l-1.133 1.134v3.609h-2.55V10.136h2.55v9.057l.798-.971 3.137-3.445h3.064l-4.218 4.61 4.669 6.45h-2.948zM47.097 5.976h2.276l-1.14-3.05-1.136 3.05zm2.538.703H46.83l-.63 1.707h-.91l2.556-6.52h.772l2.56 6.52h-.905l-.64-1.707zM52.963 5.13h1.586c.472 0 .833-.108 1.084-.325.252-.217.377-.53.377-.94 0-.39-.125-.7-.377-.933-.251-.234-.596-.355-1.034-.364h-1.636V5.13zm0 .703v2.553h-.883v-6.52h2.469c.732 0 1.306.181 1.721.546.415.364.623.846.623 1.446 0 .633-.203 1.12-.61 1.462-.405.342-.987.513-1.744.513h-1.576zM58.543 5.976h2.275l-1.14-3.05-1.135 3.05zm2.537.703h-2.804l-.63 1.707h-.91l2.556-6.52h.773l2.56 6.52h-.906l-.639-1.707zM68.398 6.317c-.082.69-.344 1.221-.784 1.596-.44.375-1.024.562-1.753.562-.79 0-1.424-.276-1.9-.828-.477-.553-.716-1.291-.716-2.217v-.627c0-.606.111-1.139.334-1.599.222-.46.537-.813.944-1.059.408-.246.88-.37 1.416-.37.711 0 1.281.194 1.71.58.429.387.679.922.75 1.606h-.888c-.077-.521-.243-.898-.499-1.132-.256-.234-.613-.35-1.073-.35-.564 0-1.006.203-1.326.61-.32.406-.48.984-.48 1.734v.632c0 .708.151 1.271.455 1.69.303.418.727.627 1.273.627.49 0 .866-.108 1.128-.325.262-.216.436-.593.522-1.13h.887zM74.746 8.386h-.887V5.372h-3.374v3.014h-.882v-6.52h.882v2.803h3.374V1.865h.887zM80.097 5.372h-2.9v2.31h3.369v.704h-4.252v-6.52h4.206v.702h-3.324v2.1h2.9z" mask="url(#b)"/>
        <path fill="#B1B0B1" d="M23.546 15.765L17.678 27.77H5.871l5.853-12.005z" mask="url(#b)"/>
        <path fill="#8C8C8C" d="M5.87 27.77L0 15.76 5.87 3.557 17.679 27.77z" mask="url(#b)"/>
        <path fill="#DEDEDE" d="M13.405 12.044L19.272.04H31.08l-5.852 12.005z" mask="url(#b)"/>
        <path fill="#BDBDBD" d="M31.08.04l5.87 12.01-5.87 12.203L19.273.039z" mask="url(#b)"/>
    </g>
</svg>
