<svg xmlns="http://www.w3.org/2000/svg" width="383" height="169" viewBox="0 0 383 169"><g fill="none" fill-rule="evenodd"><g fill="#333E48"><path d="M122.473 124.051c-.603 0-.941-.54-1.479-1.286L101.628 95.84l-14.39 14.682v11.16c0 1.286-.2 2.368-1.277 2.368-1.074 0-1.21-1.082-1.21-2.368V79.398c0-1.28.136-2.364 1.21-2.364 1.077 0 1.278 1.083 1.278 2.364v27.47l28.108-28.688c.471-.469 1.075-1.146 1.678-1.146.742 0 1.144.471 1.144 1.012 0 .748-.607 1.556-1.144 2.101l-13.647 14.067 19.634 27.401c.338.475.672.88.672 1.556 0 .474-.47.88-1.211.88zm45.649-.339h-31.735c-.672 0-1.007-.337-1.007-1.014v-44.31c0-.677.335-1.014 1.007-1.014h30.192c1.614 0 2.017.607 2.017 1.213 0 .613-.403 1.288-2.017 1.288h-28.713v18.333h15.667c1.614 0 2.02.61 2.02 1.219 0 .608-.406 1.285-2.02 1.285h-15.667v20.499h30.256c1.684 0 2.016.608 2.016 1.217 0 .61-.402 1.284-2.016 1.284zm53.519.339c-.94 0-1.074-.204-1.747-1.082l-31.67-41.944v40.59c0 1.354 0 2.436-1.276 2.436-1.21 0-1.21-1.15-1.21-2.502V80.147c0-2.706 0-3.113 1.477-3.113 1.276 0 1.48.54 2.354 1.692l30.661 40.86V79.74c0-2.168 0-3.048 1.28-3.048 1.21 0 1.21.947 1.21 3.048v41.605c0 1.487 0 2.705-1.079 2.705zm46.93-.339h-30.596c-1.813 0-2.759 0-2.759-1.216 0-.406.68-1.556 1.216-2.302l31.803-40.319h-27.3c-3.563 0-4.572 0-4.572-1.288 0-1.213 1.01-1.213 4.573-1.213h27.905c1.01 0 2.486.067 2.486 1.082 0 .942-.738 2.025-1.41 2.909l-31.269 39.846h29.923c1.615 0 3.023 0 3.023 1.285 0 1.216-1.408 1.216-3.023 1.216z"/><path fill-rule="nonzero" d="M321.553 124.051c-1.008 0-1.41-1.082-1.813-1.895l-5.72-12.513h-27.03l-6.518 13.19c-.27.474-.54 1.218-1.28 1.218-.675 0-1.348-.34-1.348-1.15 0-.473.475-1.218.745-1.76l21.039-42.888c.544-1.088.88-1.56 1.552-1.56.67 0 1.006.472 1.48 1.56l19.496 43.226c.138.408.54 1.151.54 1.56.002.336-.136 1.012-1.142 1.012zm-20.441-43.43l-12.912 26.52h24.816l-11.904-26.52z"/><path d="M370.431 124.051c-.943 0-1.078-.204-1.75-1.082l-31.667-41.944v40.59c0 1.354 0 2.436-1.28 2.436-1.206 0-1.206-1.15-1.206-2.502V80.147c0-2.706 0-3.113 1.477-3.113 1.276 0 1.477.54 2.354 1.692l30.661 40.86V79.74c0-2.168 0-3.048 1.273-3.048 1.213 0 1.213.947 1.213 3.048v41.605c0 1.487 0 2.705-1.075 2.705z"/></g><path fill="#333E48" d="M40.76.5S35 32.227 35 63.566C35 94.9 40.043 127.5 40.043 127.5S45.005 90.1 45 67.465C45 44.831 40.76.5 40.76.5z"/><path fill="#B3B3B3" d="M22.186 49.5S17 68.58 17 87.218c0 18.639 4.538 40.282 4.538 40.282S26 103.002 26 89.54c-.002-13.465-3.814-40.04-3.814-40.04zm-16.999 21S0 85.826 0 101.038 4.537 127.5 4.537 127.5 9.002 112.068 9 101.08C9 90.094 5.187 70.5 5.187 70.5zm51 3S51 87.986 51 102.438c0 14.45 4.538 25.062 4.538 25.062s4.464-14.583 4.462-25.021C60 92.04 56.187 73.5 56.187 73.5z"/><path d="M80.933 143.908h295.575v25.496H80.933z"/><path fill="#333E48" fill-rule="nonzero" d="M99.344 163.061h-1.098l-2.552-5.758H85.16l-2.552 5.758h-1.07l8.285-18.618h1.235l8.287 18.618zM85.57 156.36h9.7l-4.843-10.907-4.857 10.907z"/><path fill="#333E48" d="M114.408 155.786v7.275h-.947v-7.275c0-2.62-1.646-4.4-4.705-4.4-2.772 0-4.693 1.969-4.693 4.494v7.183h-.96v-12.41h.948v2.38c.905-1.503 2.579-2.526 4.787-2.526 3.445 0 5.57 2.048 5.57 5.28z"/><path fill="#333E48" fill-rule="nonzero" d="M143.164 163.061h-1.097l-2.552-5.758h-10.536l-2.552 5.758h-1.07l8.285-18.618h1.235l8.287 18.618zm-13.773-6.702h9.7l-4.843-10.907-4.857 10.907z"/><path fill="#333E48" d="M168.587 155.786v7.275h-.96v-7.275c0-2.62-1.647-4.4-4.693-4.4-2.771 0-4.705 1.969-4.705 4.494v7.183h-.946v-7.275c0-2.62-1.646-4.4-4.705-4.4-2.772 0-4.693 1.968-4.693 4.494v7.182h-.96v-12.409h.946v2.38c.905-1.503 2.58-2.527 4.787-2.527 2.565 0 4.39 1.144 5.16 3.06.85-1.822 2.701-3.06 5.116-3.06 3.512-.001 5.653 2.047 5.653 5.278z"/><path fill="#333E48" fill-rule="nonzero" d="M185.08 153.566v-9.655h.947v19.15h-.947v-2.9c-1.056 1.822-3.017 3.046-5.46 3.046-3.676 0-6.49-2.701-6.49-6.346 0-3.642 2.812-6.356 6.49-6.356 2.441.002 4.403 1.225 5.46 3.061zm-10.975 3.297c0 3.086 2.331 5.466 5.516 5.466 3.168 0 5.514-2.354 5.514-5.466 0-3.125-2.346-5.478-5.514-5.478-3.198 0-5.516 2.381-5.516 5.478zm29.702 0c0 3.618-2.826 6.345-6.558 6.345-3.703 0-6.516-2.726-6.516-6.345 0-3.63 2.813-6.356 6.516-6.356 3.732 0 6.558 2.726 6.558 6.356zm-12.101 0c0 3.14 2.387 5.466 5.543 5.466 3.17 0 5.585-2.327 5.585-5.466 0-3.152-2.415-5.478-5.585-5.478-3.154 0-5.543 2.328-5.543 5.478z"/><path fill="#333E48" d="M218.596 152.41l-.619.624a5.774 5.774 0 0 0-4.086-1.65c-3.116 0-5.476 2.328-5.476 5.479 0 3.14 2.36 5.466 5.476 5.466 1.633 0 3.071-.637 4.101-1.65l.604.625c-1.153 1.197-2.798 1.903-4.678 1.903-3.745 0-6.476-2.726-6.476-6.346 0-3.63 2.73-6.356 6.476-6.356 1.88.002 3.54.707 4.678 1.905zm12.939.278c-.919-.652-2.62-1.317-4.514-1.317-2.237 0-3.896.945-3.896 2.578 0 1.25.947 2.09 3.307 2.327l1.797.186c2.605.266 4.101 1.29 4.101 3.179 0 2.34-2.263 3.564-5.39 3.564-2.115 0-3.87-.613-5.187-1.57l.48-.732c1.07.798 2.443 1.437 4.719 1.437 2.512 0 4.405-.825 4.405-2.646 0-1.357-1.11-2.155-3.32-2.368l-1.811-.172c-2.935-.294-4.089-1.516-4.089-3.166 0-2.193 2.045-3.47 4.872-3.47 2.058 0 3.882.638 4.98 1.422l-.454.748zm29.62-4.602l-.849.559c-1.384-2.102-3.951-3.405-6.82-3.405-4.827 0-8.669 3.419-8.669 8.51 0 5.093 3.842 8.512 8.67 8.512 2.866 0 5.418-1.29 6.82-3.391l.837.583c-1.564 2.315-4.43 3.751-7.656 3.751-5.473 0-9.74-3.843-9.74-9.456 0-5.613 4.268-9.456 9.74-9.456 3.237.003 6.16 1.454 7.667 3.793z"/><path fill="#333E48" fill-rule="nonzero" d="M277.883 156.863c0 3.618-2.827 6.345-6.559 6.345-3.702 0-6.516-2.726-6.516-6.345 0-3.63 2.814-6.356 6.516-6.356 3.732 0 6.559 2.726 6.559 6.356zm-12.101 0c0 3.14 2.387 5.466 5.542 5.466 3.17 0 5.585-2.327 5.585-5.466 0-3.152-2.414-5.478-5.585-5.478-3.155 0-5.542 2.328-5.542 5.478z"/><path fill="#333E48" d="M304.237 155.786v7.275h-.96v-7.275c0-2.62-1.649-4.4-4.693-4.4-2.772 0-4.705 1.969-4.705 4.494v7.183h-.948v-7.275c0-2.62-1.646-4.4-4.705-4.4-2.771 0-4.69 1.968-4.69 4.494v7.182h-.961v-12.409h.946v2.38c.907-1.503 2.58-2.527 4.787-2.527 2.567 0 4.392 1.144 5.16 3.06.848-1.822 2.701-3.06 5.116-3.06 3.512-.001 5.653 2.047 5.653 5.278z"/><path fill="#333E48" fill-rule="nonzero" d="M322.746 156.863c0 3.644-2.826 6.345-6.502 6.345-2.442 0-4.39-1.223-5.446-3.032v8.206h-.96v-17.728h.96v2.9c1.056-1.822 3.004-3.046 5.446-3.046 3.676-.001 6.502 2.712 6.502 6.355zm-12.019 0c0 3.112 2.347 5.466 5.516 5.466 3.195 0 5.515-2.38 5.515-5.466 0-3.097-2.332-5.478-5.515-5.478-3.169 0-5.516 2.353-5.516 5.478zm28.551 6.198h-.946v-2.9c-1.056 1.822-3.019 3.046-5.46 3.046-3.676 0-6.491-2.701-6.491-6.346 0-3.642 2.813-6.356 6.49-6.356 2.442 0 4.405 1.224 5.46 3.06v-2.913h.947v12.41zm-11.922-6.198c0 3.086 2.332 5.466 5.515 5.466 3.169 0 5.516-2.354 5.516-5.466 0-3.125-2.347-5.478-5.516-5.478-3.196 0-5.515 2.381-5.515 5.478z"/><path fill="#333E48" d="M356.346 155.786v7.275h-.948v-7.275c0-2.62-1.646-4.4-4.705-4.4-2.772 0-4.69 1.969-4.69 4.494v7.183h-.961v-12.41h.946v2.38c.907-1.503 2.58-2.526 4.789-2.526 3.443 0 5.569 2.048 5.569 5.28zm5.242 12.622h-1.068l5.062-8.22-6.187-9.536h1.084l5.639 8.62 5.254-8.62h1.055z"/><path fill="#455560" fill-rule="nonzero" d="M383 121.515c0 2.19-1.784 3.985-3.973 3.985-2.243 0-4.027-1.794-4.027-3.985a4.006 4.006 0 0 1 4.027-4.015c2.19-.002 3.973 1.792 3.973 4.015zm-.549 0c0-1.963-1.514-3.517-3.424-3.517-1.942 0-3.49 1.554-3.49 3.517a3.483 3.483 0 0 0 3.49 3.485c1.899 0 3.424-1.567 3.424-3.485zm-1.718-.872c0 .68-.538 1.145-1.38 1.17l1.393 1.666h-.55l-1.36-1.667h-.74v1.667h-.462v-4.017h1.63c.898-.002 1.469.43 1.469 1.18zm-2.636-.784v1.577h1.166c.618 0 1.01-.284 1.01-.793 0-.512-.392-.783-1.01-.783h-1.166v-.001z"/></g></svg>