<svg xmlns="http://www.w3.org/2000/svg" width="384" height="92" viewBox="0 0 384 92"><g fill="none" fill-rule="evenodd"><path fill="red" d="M0 .499h384v90.764H0z"/><path fill="#FFF" fill-rule="nonzero" d="M48.135 36.067c-.96-1.003-2.282-1.766-3.963-2.287a16.936 16.936 0 0 0-5.044-.783c-2.722 0-5.103.903-7.145 2.71-2.041 1.805-3.282 4.093-3.722 6.862-.08.522-.12 1.044-.12 1.566 0 1.605.42 2.87 1.26 3.792.841.924 2.022 1.726 3.543 2.409.32.16.8.36 1.441.602 1.281.562 2.232 1.063 2.852 1.505.62.441.93 1.063.93 1.866 0 .08-.02.16-.06.24v.242c-.16.923-.61 1.685-1.35 2.287-.74.602-1.571.903-2.492.903a5.465 5.465 0 0 1-3.152-.963c-.94-.642-1.792-1.465-2.552-2.468l-4.623 4.997c1 1.565 2.351 2.78 4.053 3.642 1.7.863 3.552 1.294 5.553 1.294 3.203 0 6.065-.953 8.587-2.86 2.521-1.906 4.022-4.444 4.503-7.615.08-.602.12-1.184.12-1.746 0-1.766-.43-3.16-1.291-4.184-.86-1.024-2.052-1.876-3.573-2.559-.28-.12-.86-.381-1.74-.782-1.242-.522-2.162-.984-2.763-1.385-.6-.401-.9-.943-.9-1.626v-.3c.12-.723.5-1.325 1.14-1.807.64-.481 1.321-.722 2.042-.722.8 0 1.55.19 2.251.572.7.381 1.311.873 1.832 1.475l4.383-4.877zm6.064-2.107h8.406l-2.522 16.014c-.2 1.084-.3 2.027-.3 2.83 0 1.365.29 2.468.87 3.311.581.843 1.592 1.264 3.033 1.264 1 0 1.861-.22 2.582-.662a5.28 5.28 0 0 0 1.74-1.716 9.772 9.772 0 0 0 1.052-2.317c.26-.843.47-1.746.63-2.71l2.522-16.014h8.406l-2.762 17.4c-1.401 8.75-6.485 13.124-15.25 13.124-7.646 0-11.47-3.29-11.47-9.873 0-1.003.101-2.087.301-3.251l2.763-17.4zm40.709 0l-.42 2.71c1.12-1.165 2.461-2.068 4.023-2.71 1.56-.642 3.122-.963 4.683-.963 3.522 0 6.274 1.234 8.256 3.702 1.981 2.469 2.972 5.489 2.972 9.061 0 .963-.08 1.907-.24 2.83a21.654 21.654 0 0 1-1.832 5.93 19.59 19.59 0 0 1-3.482 5.117 16.042 16.042 0 0 1-4.894 3.552 13.696 13.696 0 0 1-5.884 1.294c-1.56 0-3.012-.33-4.353-.993-1.34-.662-2.332-1.575-2.972-2.74h-.12l-2.882 18.544h-8.466l7.205-45.334h8.406zm2.462 23.058c1.04 0 2.031-.24 2.972-.722a8.983 8.983 0 0 0 2.522-1.927 11.143 11.143 0 0 0 1.83-2.679c.481-.983.801-1.977.962-2.98.08-.482.12-.963.12-1.445 0-1.886-.51-3.492-1.531-4.816-1.021-1.325-2.432-1.987-4.233-1.987a6.66 6.66 0 0 0-2.973.693 8.518 8.518 0 0 0-2.521 1.896 11.143 11.143 0 0 0-1.832 2.679c-.48.983-.8 1.977-.96 2.98-.08.482-.12.963-.12 1.445 0 1.886.51 3.502 1.53 4.846 1.021 1.345 2.432 2.017 4.234 2.017zm46.653-6.923h-19.394a13.62 13.62 0 0 0-.18 2.107c0 1.686.38 3.08 1.14 4.184.761 1.104 1.962 1.656 3.603 1.656 1.321 0 2.502-.362 3.543-1.084 1.04-.722 1.961-1.706 2.762-2.95l7.565 1.264c-1.481 2.89-3.542 5.148-6.184 6.773-2.642 1.626-5.524 2.438-8.646 2.438-3.963 0-7.045-1.123-9.247-3.371s-3.302-5.238-3.302-8.97c0-1.004.08-2.047.24-3.13.76-4.697 2.612-8.54 5.554-11.53s6.695-4.485 11.258-4.485c3.963 0 6.915 1.114 8.856 3.341 1.941 2.228 2.912 5.188 2.912 8.88 0 1.244-.1 2.529-.3 3.853l-.18 1.024zm-18.313-5.238h11.228c0-1.686-.4-3.1-1.201-4.244-.8-1.144-1.941-1.716-3.423-1.716-1.6 0-2.982.582-4.142 1.746-1.161 1.164-1.982 2.568-2.462 4.214zm33.203-10.897l-.48 3.07h.12c2.162-2.689 4.803-4.033 7.926-4.033 1.08 0 2.201.24 3.362.722l-2.221 7.827c-.921-.723-2.022-1.084-3.303-1.084-1.4 0-2.582.271-3.542.813a6.317 6.317 0 0 0-2.312 2.227 12.47 12.47 0 0 0-1.35 3.07 28.248 28.248 0 0 0-.781 3.643L154.23 63.52h-8.406l4.683-29.56h8.406zm25.398-21.492l-8.045 51.052h-8.406l8.045-51.052h8.406zm2.402 21.492h8.406l-2.522 16.014c-.2 1.084-.3 2.027-.3 2.83 0 1.365.29 2.468.87 3.311.581.843 1.592 1.264 3.033 1.264 1 0 1.861-.22 2.582-.662a5.28 5.28 0 0 0 1.74-1.716 9.772 9.772 0 0 0 1.052-2.317c.26-.843.47-1.746.63-2.71l2.522-16.014h8.406l-2.762 17.4c-1.401 8.75-6.485 13.124-15.251 13.124-7.645 0-11.468-3.29-11.468-9.873 0-1.003.1-2.087.3-3.251l2.762-17.399zm40.709 0h-8.406l-4.683 29.56h8.406l2.281-14.509.06-.421c.16-1.124.35-2.148.57-3.07.22-.924.541-1.837.961-2.74.42-.903.981-1.635 1.682-2.197.7-.562 1.59-.843 2.671-.843 1.161 0 1.972.381 2.432 1.144.46.762.69 1.766.69 3.01 0 .923-.14 2.267-.42 4.033l-.12.602-2.341 14.991h8.406l2.281-14.509v-.12c.2-1.124.4-2.148.6-3.07.2-.924.52-1.857.961-2.8.44-.943 1.021-1.726 1.741-2.348.721-.622 1.622-.933 2.702-.933 1.121 0 1.922.371 2.402 1.114.48.742.72 1.735.72 2.98 0 .883-.14 2.127-.42 3.732-.04.2-.06.341-.06.422l-2.461 15.532h8.405l2.943-18.422c.2-1.405.3-2.69.3-3.853 0-2.569-.6-4.586-1.801-6.05-1.201-1.466-3.203-2.198-6.005-2.198-1.721 0-3.422.411-5.103 1.234a11.811 11.811 0 0 0-4.203 3.402c-1.401-3.09-3.983-4.636-7.746-4.636-1.36 0-2.752.311-4.173.933a9.499 9.499 0 0 0-3.572 2.68h-.12l.42-2.65zm48.574 0h-8.406l-4.683 29.56h8.406l4.683-29.56zm-1.44-17.399c-1.402 0-2.663.492-3.783 1.475-1.121.984-1.802 2.158-2.042 3.522v.422c-.04.12-.06.24-.06.36 0 1.205.4 2.208 1.201 3.011.8.803 1.821 1.204 3.062 1.204 1.401 0 2.662-.481 3.783-1.445 1.12-.963 1.781-2.147 1.981-3.552 0-.12.02-.24.06-.36v-.422c0-1.204-.39-2.208-1.17-3.01-.781-.803-1.792-1.205-3.033-1.205zm16.21 17.4h-8.405l-4.683 29.56h8.405l2.342-14.63c.16-1.245.36-2.338.6-3.281a14.43 14.43 0 0 1 1.021-2.77 5.914 5.914 0 0 1 1.862-2.227c.8-.582 1.8-.873 3.002-.873 1.36 0 2.321.361 2.882 1.083.56.723.84 1.706.84 2.95 0 .763-.14 1.987-.42 3.673l-.06.421-2.462 15.653h8.406l2.882-18.06c.2-1.366.3-2.61.3-3.734 0-2.729-.67-4.866-2.01-6.411-1.342-1.545-3.533-2.318-6.576-2.318-1.6 0-3.122.301-4.563.903a9.181 9.181 0 0 0-3.662 2.77h-.12l.42-2.71zm51.878 0l-4.684 29.56h-8.286l.42-2.71h-.12a11.195 11.195 0 0 1-3.902 2.71c-1.521.641-3.062.962-4.623.962-3.603 0-6.395-1.234-8.376-3.702-1.982-2.468-2.973-5.509-2.973-9.12 0-1.004.08-2.028.24-3.071.32-1.967.941-3.883 1.862-5.75a20.484 20.484 0 0 1 3.482-5.027 16.153 16.153 0 0 1 4.804-3.522 13.172 13.172 0 0 1 5.764-1.294c1.561 0 3.022.321 4.383.963a8.238 8.238 0 0 1 3.302 2.77l.42-2.77h8.287zM324.51 57.017c1.04 0 2.041-.24 3.002-.722a8.835 8.835 0 0 0 2.552-1.927 11.143 11.143 0 0 0 1.83-2.679c.481-.983.802-1.977.962-2.98.08-.482.12-.963.12-1.445 0-1.846-.52-3.441-1.561-4.786-1.041-1.345-2.462-2.017-4.263-2.017a6.66 6.66 0 0 0-2.973.693 8.518 8.518 0 0 0-2.521 1.896 11.143 11.143 0 0 0-1.832 2.679c-.48.983-.8 1.977-.96 2.98-.08.482-.12.963-.12 1.445 0 1.886.51 3.502 1.53 4.846 1.021 1.345 2.432 2.017 4.234 2.017zm32.603-23.058h-8.406l-4.683 29.56h8.405l2.102-13.305c.2-1.324.46-2.538.78-3.642s.771-2.127 1.351-3.07a6.317 6.317 0 0 1 2.312-2.228c.96-.542 2.142-.813 3.543-.813 1.28 0 2.381.361 3.302 1.084l2.222-7.827c-1.161-.481-2.282-.722-3.363-.722-3.122 0-5.764 1.344-7.925 4.034h-.12l.48-3.07z"/></g></svg>