<svg xmlns="http://www.w3.org/2000/svg" width="384" height="91" viewBox="0 0 384 91"><defs><linearGradient id="a" x1="50%" x2="50%" y1="100%" y2="-3.211%"><stop offset="0%" stop-color="#00BFFF"/><stop offset="49.02%" stop-color="#00BFFF"/><stop offset="100%" stop-color="#FFF"/></linearGradient></defs><g fill="none" fill-rule="evenodd"><path fill="#244D85" fill-rule="nonzero" d="M277.763 28.643v19.648l17.119-19.648h16.912l-19.13 20.453L312 81.99h-16.912l-9.865-18.056c-2.029-3.612-3.765-5.135-5.243-4.604-1.478.53-2.217 1.335-2.217 2.396V81.99H263.67V13h7.253c1.873 0 3.49.667 4.83 2.002 1.34 1.335 2.01 2.876 2.01 4.621v9.02zm-99.38 53.347c-4.434.274-9.23.205-14.403-.205-5.174-.394-7.751-3.68-7.751-9.824V38.467H148V35.66c0-2.002.67-3.645 2.01-4.93 1.342-1.266 2.957-1.9 4.83-1.9h1.389V13h7.253c1.753 0 3.3.667 4.64 2.002 1.34 1.335 2.011 2.944 2.011 4.81v9.019h13.635v2.807c0 2.002-.67 3.645-2.011 4.93-1.34 1.266-2.957 1.9-4.83 1.9h-6.794V68.16c0 2.276 1.34 3.406 4.022 3.406h4.228V81.99zm2.81 0V56.112c0-5.202.774-9.584 2.321-13.127 1.547-3.543 3.66-6.383 6.342-8.523 2.544-2.002 5.534-3.474 8.954-4.416 3.421-.941 6.944-1.403 10.57-1.403h10.833a23.77 23.77 0 0 0-4.715 4.187c-2.581 2.979-4.305 6.408-5.396 10.052h-3.333c-3.9 0-6.79.943-8.662 2.808-1.873 1.865-2.82 4.808-2.82 8.83v27.47h-14.092zm44.721-32.09h20.539c-.258-3.611-1.203-6.282-2.819-8.027-1.736-1.866-4.227-2.807-7.441-2.807-2.957 0-5.38.941-7.253 2.807-1.891 1.882-2.888 4.553-3.026 8.027zm24.166 15.642h10.071c-1.478 5.615-4.296 9.893-8.456 12.837-4.16 3.08-9.401 4.621-15.71 4.621-7.647 0-13.628-2.482-17.925-7.428-4.297-4.81-6.445-11.69-6.445-20.658 0-8.557 2.08-15.249 6.239-20.058 4.296-4.946 10.278-7.428 17.926-7.428 8.061 0 14.3 2.413 18.734 7.222 4.297 4.946 6.445 11.826 6.445 20.658v2.208c0 .668-.069 1.13-.207 1.403h-34.838c.138 4.142 1.135 7.223 3.026 9.225 1.736 2.14 4.365 3.218 7.854 3.218 2.286 0 4.228-.463 5.843-1.404a2.935 2.935 0 0 0 1.1-.702c.344-.342.705-.7 1.117-1.112.12-.394.637-.924 1.496-1.592.877-.667 2.131-1.01 3.73-1.01z"/><path fill="#00BFFF" fill-rule="nonzero" d="M329.796 16.16h-3.268L316 27.5l1.997 2.008 8.275-8.816-.128 62.148h3.652V16.16zM359.972 84c4.806 0 8.746-1.047 11.822-3.14 3.075-2.094 5.527-4.801 7.352-8.119 1.826-3.317 3.092-7.022 3.797-11.113A71.32 71.32 0 0 0 384 49.5c0-3.994-.352-8.038-1.057-12.128-.705-4.091-1.971-7.796-3.797-11.113-1.825-3.318-4.277-6.025-7.352-8.119-3.076-2.093-7.016-3.14-11.822-3.14-4.806 0-8.747 1.047-11.822 3.14-3.076 2.094-5.528 4.8-7.353 8.119-1.825 3.317-3.091 7.022-3.796 11.113a71.33 71.33 0 0 0-1.058 12.128c0 3.995.353 8.037 1.058 12.128.705 4.091 1.97 7.796 3.796 11.113 1.825 3.318 4.277 6.025 7.353 8.118 3.075 2.094 7.016 3.141 11.822 3.141zm0-3.19c-4.165 0-7.56-.999-10.188-2.995-2.627-1.996-4.694-4.542-6.2-7.635-1.505-3.092-2.546-6.475-3.123-10.147-.576-3.672-.865-7.183-.865-10.533 0-3.35.289-6.861.865-10.533.577-3.673 1.617-7.056 3.123-10.148 1.505-3.092 3.573-5.638 6.2-7.634 2.627-1.996 6.023-2.996 10.188-2.996 4.164 0 7.56 1 10.188 2.996 2.627 1.996 4.694 4.542 6.199 7.634 1.506 3.092 2.547 6.475 3.123 10.148.576 3.672.866 7.183.866 10.533 0 3.35-.29 6.861-.866 10.533-.576 3.672-1.617 7.055-3.123 10.147-1.506 3.093-3.572 5.639-6.199 7.635-2.627 1.996-6.024 2.996-10.188 2.996z"/><path fill="#00BFFF" d="M54.143 20.397c-6.645-3.405-14.67-2.793-20.647 1.77-4.556 3.478-7.337 8.805-7.69 14.544l-.21 3.408-3.36.403C9.677 42.03 0 52.822 0 65.68 0 79.662 11.23 91 25.079 91h97.841C136.77 91 148 79.662 148 65.679c0-10.743-6.732-20.33-16.747-23.889l-2.751-.978.043-2.944C128.81 19.663 115.89 3.758 98.089.569c-15.313-2.743-30.88 4.602-38.592 18.21l-1.915 3.38-3.44-1.762z"/><path fill="url(#a)" d="M59.229 31.239c3.28-18.062 20.423-29.904 38.17-26.723 18.49 3.318 30.356 21.594 26.36 39.956C135.01 44.897 144 54.25 144 65.727 144 77.476 134.58 87 122.958 87H25.041C13.42 87 4 77.476 4 65.727c0-14.646 14.275-24.765 27.77-20.16-3.804-6.784-2.041-15.446 4.142-20.173 7.777-5.945 19.137-3.164 23.317 5.845z"/><path fill="#244D85" d="M15 69.05l35.964-28.105 18.545 15.48 28.532-26.66L136 65.93c-2.362 9.449-9.412 16.305-17.743 16.305H31.759C24.377 82.235 18 76.851 15 69.05z"/><path fill="#FFF" d="M22 65.84c13.062-7.663 23.051-9.244 29.976-4.753 2.313-4.008 6.59-5.637 12.357-5.466L50.281 44.064 22.001 65.84H22zm98-11.47L97.99 34 55.72 73c23.55-13.275 31.697-22.63 41.001-14.477 4.349-5.472 11.64-7.416 23.279-4.153z"/></g></svg>