<?xml version="1.0" encoding="UTF-8"?>
<svg width="20px" height="20px" viewBox="0 0 20 20" version="1.1" xmlns="http://www.w3.org/2000/svg" xmlns:xlink="http://www.w3.org/1999/xlink">
    <!-- Generator: Sketch 53.2 (72643) - https://sketchapp.com -->
    <title>Icon/20px/clock [#1315]</title>
    <desc>Created with Sketch.</desc>
    <defs>
        <path d="M18,10 C18,5.589 14.411,2 10,2 C5.589,2 2,5.589 2,10 C2,14.411 5.589,18 10,18 C14.411,18 18,14.411 18,10 M20,10 C20,15.523 15.523,20 10,20 C4.477,20 0,15.523 0,10 C0,4.477 4.477,0 10,0 C15.523,0 20,4.477 20,10 M16,11 C16,11.552 15.552,12 15,12 L11,12 C9.895,12 9,11.105 9,10 L9,5 C9,4.448 9.448,4 10,4 C10.552,4 11,4.448 11,5 L11,9 C11,9.55 11.45,10 12,10 L15,10 C15.552,10 16,10.448 16,11" id="path-1"></path>
    </defs>
    <g id="WIP-Pages" stroke="none" stroke-width="1" fill="none" fill-rule="evenodd">
        <g id="Artboard" transform="translate(-1166.000000, -1084.000000)">
            <g id="Group-2" transform="translate(399.000000, 585.000000)">
                <g id="Widget/Tutorials/Card" transform="translate(532.000000, 150.000000)">
                    <g id="Time" transform="translate(235.000000, 349.000000)">
                        <g id="Icon/20px/clock-[#1315]">
                            <mask id="mask-2" fill="white">
                                <use xlink:href="#path-1"></use>
                            </mask>
                            <use id="clock-[#1315]" fill-opacity="0" fill="#FFFFFF" fill-rule="evenodd" xlink:href="#path-1"></use>
                            <g id="⚙️Atoms/Colour/Grey-Darker/1---100%" mask="url(#mask-2)" fill="#9EA0A5" fill-rule="evenodd">
                                <g transform="translate(-1.000000, -1.000000)" id="Colour">
                                    <rect x="0" y="0" width="22" height="22"></rect>
                                </g>
                            </g>
                        </g>
                    </g>
                </g>
            </g>
        </g>
    </g>
</svg>