<?xml version="1.0" encoding="UTF-8"?>
<svg width="20px" height="19px" viewBox="0 0 20 19" version="1.1" xmlns="http://www.w3.org/2000/svg" xmlns:xlink="http://www.w3.org/1999/xlink">
    <!-- Generator: Sketch 53.2 (72643) - https://sketchapp.com -->
    <title>play-button</title>
    <desc>Created with Sketch.</desc>
    <g id="WIP-Pages" stroke="none" stroke-width="1" fill="none" fill-rule="evenodd">
        <g id="/learn/courses/full-stack-application-development-on-aws/" transform="translate(-1060.000000, -570.000000)" fill="#000000" fill-rule="nonzero">
            <g id="play-button" transform="translate(1060.000000, 570.000000)">
                <path d="M15.1441667,8.85943789 L7.59514706,4.17186286 C7.48980392,4.10686181 7.35392157,4.0996742 7.24137255,4.15373757 C7.12916667,4.20780093 7.05882353,4.31405263 7.05882353,4.42999199 L7.05882353,13.8051421 C7.05882353,13.9210814 7.12916667,14.0273331 7.24171569,14.0813965 C7.29181373,14.1057719 7.34705882,14.1176471 7.40196078,14.1176471 C7.46955882,14.1176471 7.53715686,14.0992093 7.59514706,14.0632712 L15.1441667,9.37569615 C15.2378431,9.31757022 15.2941176,9.22100618 15.2941176,9.11756702 C15.2941176,9.01412787 15.2378431,8.91756382 15.1441667,8.85943789 Z M7.74509804,13.2135701 L7.74509804,5.02156396 L14.3419118,9.11756702 L7.74509804,13.2135701 Z" id="Shape"></path>
                <path d="M10,0 C4.486,0 0,4.09017647 0,9.11764706 C0,14.1451176 4.486,18.2352941 10,18.2352941 C15.514,18.2352941 20,14.1451176 20,9.11764706 C20,4.09017647 15.514,0 10,0 Z M10,17.627451 C4.85366667,17.627451 0.666666667,13.8098922 0.666666667,9.11764706 C0.666666667,4.42540196 4.85366667,0.607843137 10,0.607843137 C15.1463333,0.607843137 19.3333333,4.42540196 19.3333333,9.11764706 C19.3333333,13.8098922 15.1463333,17.627451 10,17.627451 Z" id="Shape"></path>
            </g>
        </g>
    </g>
</svg>