<svg xmlns="http://www.w3.org/2000/svg" xmlns:xlink="http://www.w3.org/1999/xlink" width="382" height="353" viewBox="0 0 382 353"><defs><path id="a" d="M.911.581h73.887v73.16H.911z"/><path id="c" d="M0 .188h12.115v5.287H0z"/><path id="e" d="M0 .6h31.748v53.355H0z"/><path id="g" d="M0 .235h4.335v10.873H0z"/></defs><g fill="none" fill-rule="evenodd"><path stroke="#FD5750" stroke-dasharray="4 6" stroke-linejoin="round" stroke-width="2" d="M237.395 63.97h-92.992l-65.755 65.755v92.992l65.755 65.755h92.992l65.755-65.755v-92.992L237.395 63.97z"/><path fill="#000" d="M230.9 222.22h-80a6 6 0 0 1-6-6v-80a6 6 0 0 1 6-6h80a6 6 0 0 1 6 6v80a6 6 0 0 1-6 6"/><path stroke="#FD5750" stroke-linejoin="round" stroke-width="2" d="M230.9 222.22h-80a6 6 0 0 1-6-6v-80a6 6 0 0 1 6-6h80a6 6 0 0 1 6 6v80a6 6 0 0 1-6 6z"/><path fill="#FD5750" d="M179.713 198.092H218.4v-9.108h-35.67l-3.017 9.108zm5.734-17.317H218.4v-9.108h-29.937l-3.016 9.108zm8.75-26.425l-3.015 9.108H218.4v-9.108h-24.203zm-9.594 0H163.4v9.108h18.187l3.016-9.108zm-5.735 17.317H163.4v9.108h12.453l3.015-9.108zm-8.75 26.425H163.4v-9.108h9.735l-3.017 9.108z"/><path fill="#000" d="M46.747 70.65a6.642 6.642 0 0 1-6.634-6.634V27.33a6.64 6.64 0 0 1 6.634-6.634H76.01a6.64 6.64 0 0 1 6.633 6.634v36.685a6.64 6.64 0 0 1-6.633 6.634H46.747z"/><path fill="#FD5750" d="M76.01 19.697H46.748a7.634 7.634 0 0 0-7.633 7.634v36.684a7.634 7.634 0 0 0 7.633 7.635H76.01a7.634 7.634 0 0 0 7.634-7.635V27.332a7.634 7.634 0 0 0-7.634-7.634m0 2a5.64 5.64 0 0 1 5.634 5.634v36.684a5.64 5.64 0 0 1-5.634 5.635H46.747a5.64 5.64 0 0 1-5.633-5.635V27.332a5.64 5.64 0 0 1 5.633-5.634H76.01"/><path fill="#FD5750" d="M50.313 34.54a2.067 2.067 0 1 1-4.134 0 2.067 2.067 0 0 1 4.134 0"/><path stroke="#FD5750" stroke-linejoin="round" stroke-width="2" d="M53.957 34.54h22.288"/><path fill="#FD5750" d="M50.313 41.962a2.067 2.067 0 1 1-4.134 0 2.067 2.067 0 0 1 4.134 0"/><path stroke="#FD5750" stroke-linejoin="round" stroke-width="2" d="M53.957 41.962h22.288"/><path fill="#FD5750" d="M50.313 49.384a2.067 2.067 0 1 1-4.134 0 2.067 2.067 0 0 1 4.134 0"/><path stroke="#FD5750" stroke-linejoin="round" stroke-width="2" d="M53.957 49.384h22.288"/><path fill="#FD5750" d="M50.313 56.806a2.067 2.067 0 1 1-4.134 0 2.067 2.067 0 0 1 4.134 0"/><path stroke="#FD5750" stroke-linejoin="round" stroke-width="2" d="M53.957 56.806h22.288"/><path fill="#000" d="M87.357 85.493c-9.678 0-17.552-7.874-17.552-17.553 0-9.677 7.874-17.55 17.552-17.55 9.68 0 17.553 7.873 17.553 17.55 0 9.68-7.874 17.553-17.553 17.553"/><path fill="#FD5750" d="M87.357 49.389c-10.246 0-18.552 8.306-18.552 18.552s8.306 18.552 18.552 18.552 18.553-8.306 18.553-18.552-8.307-18.552-18.553-18.552m0 2c9.127 0 16.553 7.425 16.553 16.552 0 9.127-7.426 16.552-16.553 16.552S70.805 77.068 70.805 67.94c0-9.127 7.425-16.552 16.552-16.552"/><path stroke="#FD5750" stroke-linejoin="round" stroke-width="2" d="M96.634 67.94h-9.276V55.605"/><path fill="#000" d="M254.894 43.53a6.642 6.642 0 0 1-6.634-6.634V7.634A6.64 6.64 0 0 1 254.894 1h51.528a6.641 6.641 0 0 1 6.635 6.634v29.262a6.642 6.642 0 0 1-6.635 6.634h-51.528z"/><path fill="#FD5750" d="M306.423 0h-51.528a7.634 7.634 0 0 0-7.634 7.634v29.262a7.634 7.634 0 0 0 7.634 7.634h51.528a7.634 7.634 0 0 0 7.635-7.634V7.634A7.634 7.634 0 0 0 306.423 0m0 2a5.64 5.64 0 0 1 5.635 5.634v29.262a5.64 5.64 0 0 1-5.635 5.634h-51.528a5.64 5.64 0 0 1-5.634-5.634V7.634A5.64 5.64 0 0 1 254.895 2h51.528"/><path fill="#000" d="M254.682 55.663h51.953"/><path stroke="#FD5750" stroke-linejoin="round" stroke-width="2" d="M254.682 55.663h51.953"/><path fill="#000" d="M280.659 54.794V44.53"/><path stroke="#FD5750" stroke-linejoin="round" stroke-width="2" d="M280.659 54.794V44.53"/><path fill="#000" d="M280.66 36.043c-1.749-.679-10.133-4.328-10.133-11.92V11.75l6.657-3.328h6.95l6.658 3.328v12.372c0 7.612-8.382 11.246-10.132 11.921"/><path fill="#FD5750" d="M284.37 7.422h-7.422l-7.422 3.71v12.99c0 9.276 11.133 12.987 11.133 12.987s11.133-3.711 11.133-12.987v-12.99l-7.422-3.71zm-.473 2l5.895 2.945v11.755c0 6.54-6.977 9.947-9.137 10.845-2.168-.893-9.13-4.274-9.13-10.845V12.367l5.895-2.945h6.477z"/><path fill="#000" d="M280.659 21.4a1.704 1.704 0 1 1 1.704-1.704c0 .94-.765 1.705-1.704 1.705"/><path fill="#FD5750" d="M280.659 16.993a2.703 2.703 0 1 0 0 5.406 2.703 2.703 0 0 0 0-5.406m0 2a.704.704 0 1 1 0 1.407.704.704 0 0 1 0-1.407"/><path fill="#000" d="M280.659 20.342v5.634"/><path stroke="#FD5750" stroke-linejoin="round" stroke-width="2" d="M280.659 20.342v5.634"/><path fill="#000" d="M270.035 22.165h-15.353"/><path stroke="#FD5750" stroke-linejoin="round" stroke-width="2" d="M270.035 22.165h-15.353"/><path fill="#000" d="M291.792 22.265h14.844"/><path stroke="#FD5750" stroke-linejoin="round" stroke-width="2" d="M291.792 22.265h14.844"/><path fill="#000" d="M310.4 179.72l9-6v-11l16-9 12 7 8-7 15 10v10l9 6-1 16-8 6v10l-18 11-10-5-6 3-17-10-2-9-7-6z"/><g transform="translate(307 150.442)"><mask id="b" fill="#fff"><use xlink:href="#a"/></mask><path fill="#FD5750" d="M63.1 48.433l-2.095 1.442v9.723L46.46 68.704l-5.948-3.724v-7.857h5.316a3.758 3.758 0 0 0 3.165 1.73 3.766 3.766 0 0 0 0-7.532c-.967 0-1.845.366-2.512.965h-5.969V37.56l-8.323-5.453a2.419 2.419 0 0 0-2.652 4.047l6.137 4.02v6.12c-.049.024-.098.046-.146.074l-3.923 2.208v-6.69l-8.21-5.657v-5.56l8.21-5.658V14.224a2.419 2.419 0 1 0-4.838 0v8.245l-5.79 3.99-6.399-4.407v-8.479l3.507-2.197v8.105a2.419 2.419 0 1 0 4.838 0V8.35l4.363-2.73 8.002 5.008.148.093v18.537l7.966 5.487a3.763 3.763 0 0 0 7.28-1.349 3.767 3.767 0 0 0-5.536-3.324l-4.872-3.356V10.72l.148-.093 8.003-5.009 12.707 7.955v1.147H51.38a3.766 3.766 0 1 0 0 4.838h9.752v4.601l2.094 1.442 6.734 4.64v13.203l-5.737-3.952a3.766 3.766 0 1 0-2.226 4.34l3.891 2.68-2.789 1.921zM29.25 68.704l-3.107-1.945 5.204-2.93a2.417 2.417 0 1 0-2.373-4.215l-7.5 4.222-6.77-4.238v-5.57l7.348-4.137a2.419 2.419 0 0 0-2.373-4.216l-6.093 3.43-.975-.672-6.862-4.726v-3.425l7.773-5.354a2.42 2.42 0 0 0-2.744-3.984L5.75 34.408V30.24l6.094-4.198 6.715 4.625v5.561l-6.744 4.645a2.419 2.419 0 1 0 2.744 3.985l6.418-4.422 5.791 3.991v6.871l-7.679 4.323a2.419 2.419 0 0 0 2.373 4.216l14.213-8.002v12.847l-.386.242-6.038 3.78zm43.933-42.119l-7.213-4.968v-8.656a3.732 3.732 0 0 0-1.753-3.164l-13.81-8.646a3.724 3.724 0 0 0-3.962 0l-8.59 5.377-8.589-5.377a3.723 3.723 0 0 0-3.962 0l-13.81 8.646a3.734 3.734 0 0 0-1.753 3.164v8.656l-7.213 4.968A3.733 3.733 0 0 0 .911 29.66v14.627c0 1.23.605 2.378 1.617 3.075l7.34 5.055v7.792c0 1.287.661 2.483 1.752 3.164l15.65 9.798a3.735 3.735 0 0 0 3.961 0l6.624-4.147 6.624 4.147a3.735 3.735 0 0 0 3.962 0l15.65-9.798a3.73 3.73 0 0 0 1.752-3.164v-7.792l7.34-5.055a3.734 3.734 0 0 0 1.615-3.075V29.66a3.734 3.734 0 0 0-1.615-3.075z" mask="url(#b)"/></g><path fill="#77312A" d="M63.495 172.55l-12.115 1.367 4.28-5.287 6.672 1.196z"/><path fill="#B0493F" d="M59.16 161.677l-9.429 1.918-4.869-3.064-8.056 2.298v10.819l1.533 20.773 22.305-2.057-1.484-15.754-5.695-.091 2.345-4.93 3.35-.221"/><path fill="#FE9A96" d="M59.16 190.875l-21.487-.785v6.872z"/><g transform="translate(0 168.442)"><mask id="d" fill="#fff"><use xlink:href="#c"/></mask><path fill="#77312A" d="M0 4.108l12.115 1.367L7.835.188 1.163 1.384z" mask="url(#d)"/></g><path fill="#FD5750" d="M4.335 161.677l9.429 1.918 4.869-3.064 8.056 2.298v10.819l-1.533 20.773-22.305-2.057 1.484-15.754 5.695-.091-2.345-4.93-3.35-.221"/><path fill="#77312A" d="M22.588 166.006l9.16 2.624 9.159-2.624-7.756-5.476-7.33 2.052z"/><path fill="#FE9A96" d="M4.335 190.875l21.487-.785v6.872z"/><g transform="translate(0 170.442)"><mask id="f" fill="#fff"><use xlink:href="#e"/></mask><path fill="#B0493F" d="M4.335 6.168v14.265l18.177 1.826V2.475L31.748.6v53.356L0 37.925V7.049z" mask="url(#f)"/></g><path fill="#B0493F" d="M6.92 186.078h11.713V160.53L6.92 165.397zm15.668-33.366l9.16-4.654v15.007l-9.16 2.941z"/><g transform="translate(0 161.442)"><mask id="h" fill="#fff"><use xlink:href="#g"/></mask><path fill="#B0493F" d="M0 11.108l4.335-1.182V.235L0 2.417z" mask="url(#h)"/></g><path fill="#FD5750" d="M59.16 176.61v14.266L40.983 192.7v-19.783l-9.235-1.876v53.355l31.747-16.03V177.49z"/><path fill="#FD5750" d="M56.574 186.078H44.862V160.53l11.712 4.867zm-15.667-33.366l-9.159-4.654v15.007l9.16 2.941zm22.588 19.838l-4.335-1.182v-9.691l4.335 2.182z"/><path fill="#000" d="M201.624 343.972c-4.36 0-7.906-3.547-7.906-7.906v-34.141c0-4.36 3.547-7.906 7.906-7.906h34.14c4.36 0 7.906 3.547 7.906 7.906v34.14c0 4.36-3.546 7.907-7.905 7.907h-34.141z"/><path fill="#FD5750" d="M235.764 293.02h-34.14a8.905 8.905 0 0 0-8.906 8.905v34.14a8.906 8.906 0 0 0 8.906 8.907h34.14a8.906 8.906 0 0 0 8.906-8.906v-34.141a8.906 8.906 0 0 0-8.905-8.905m0 2c3.808 0 6.906 3.098 6.906 6.905v34.14a6.913 6.913 0 0 1-6.906 6.907h-34.141a6.913 6.913 0 0 1-6.906-6.906v-34.141a6.913 6.913 0 0 1 6.906-6.905h34.14"/><path fill="#000" d="M207.667 332.839a2.82 2.82 0 0 1-2.816-2.816v-22.054a2.82 2.82 0 0 1 2.816-2.818h22.054a2.82 2.82 0 0 1 2.817 2.818v22.054a2.82 2.82 0 0 1-2.817 2.816h-22.054z"/><path fill="#FD5750" d="M229.72 304.151h-22.053a3.817 3.817 0 0 0-3.816 3.817v22.054a3.817 3.817 0 0 0 3.816 3.817h22.053a3.817 3.817 0 0 0 3.817-3.817V307.97a3.817 3.817 0 0 0-3.817-3.817m0 2c1.002 0 1.817.815 1.817 1.817v22.053a1.819 1.819 0 0 1-1.817 1.817h-22.053a1.818 1.818 0 0 1-1.816-1.817V307.97c0-1.002.814-1.817 1.816-1.817h22.053"/><path stroke="#FD5750" stroke-linejoin="round" stroke-width="2" d="M192.718 307.911h-7.422m7.422 7.422h-7.422m7.422 7.422h-7.422m7.422 7.422h-7.422m66.796-22.266h-7.422m7.422 7.422h-7.422m7.422 7.422h-7.422m7.422 7.422h-7.422m-14.843-37.158v-7.373m-7.422 7.373v-7.373m-7.422 7.373v-7.373m-7.422 7.373v-7.373m22.266 66.796v-7.47m-7.422 7.47v-7.47m-7.422 7.47v-7.47m-7.422 7.47v-7.47"/><path fill="#FD5750" d="M218.694 311.572a18.46 18.46 0 0 0-7.627 1.635l1.278 2.22a16.025 16.025 0 0 1 6.35-1.31c2.251 0 4.395.464 6.342 1.31l1.285-2.22a18.464 18.464 0 0 0-7.628-1.635m0 4.95c-1.812 0-3.55.356-5.134 1.004l1.285 2.234a10.851 10.851 0 0 1 3.85-.694c1.35 0 2.645.241 3.842.694l1.291-2.234a13.542 13.542 0 0 0-5.134-1.005m2.621 5.35L220 324.162a5.872 5.872 0 0 0-2.609 0l-1.323-2.284a8.51 8.51 0 0 1 2.627-.408c.916 0 1.794.14 2.621.401"/></g></svg>