<svg xmlns="http://www.w3.org/2000/svg" xmlns:xlink="http://www.w3.org/1999/xlink" width="1600" height="959" viewBox="0 0 1600 959">
    <defs>
        <path id="a" d="M0 1430.56h1674.71V.003H0z"/>
    </defs>
    <g fill="none" fill-rule="evenodd" transform="translate(-38 -472)">
        <path stroke="#FD5750" stroke-dasharray="4,6" stroke-linejoin="round" stroke-width="2" d="M620.275 1054.373c-119.09-119.09-119.09-315.07 0-434.16 59.545-59.545 138.312-89.318 217.08-89.318M848.355 354.373c120.49 2.68 240.13 49.57 331.24 140.68 187.75 187.75 187.75 496.73 0 684.48"/>
        <path stroke="#FD5750" stroke-dasharray="4,6" stroke-linejoin="round" stroke-width="2" d="M369.955 1304.693c-256.4-256.41-256.4-678.39 0-934.8 125.43-125.43 290.49-189.5 456.4-192.2M848.355 1.003c211.33 2.73 421.8 83.97 581.56 243.73 325.06 325.07 325.06 860.05 0 1185.12"/>
        <path stroke="#FD5750" stroke-linejoin="round" stroke-width="2" d="M837.355 530.895c78.768 0 157.535 29.772 217.08 89.317 119.09 119.09 119.09 315.071 0 434.161M495.115 1179.533c-187.75-187.75-187.75-496.73 0-684.48 91.11-91.11 210.75-138 331.24-140.68"/>
        <path stroke="#FD5750" stroke-linejoin="round" stroke-width="2" d="M848.355 177.693c165.91 2.7 330.97 66.77 456.4 192.2 256.4 256.41 256.4 678.39 0 934.8M244.795 1429.853c-325.06-325.07-325.06-860.05 0-1185.12 159.76-159.76 370.23-241 581.56-243.73"/>
        <path fill="#000" d="M300.355 1096.502v55.172a5.177 5.177 0 0 1-5.172 5.173h-58.164l-12.957 22.44-12.957-22.44h-5.578a5.177 5.177 0 0 1-5.172-5.173v-55.172a5.176 5.176 0 0 1 5.172-5.172h89.656a5.176 5.176 0 0 1 5.172 5.172"/>
        <path stroke="#FD5750" stroke-linejoin="round" stroke-width="2" d="M300.355 1096.502v55.172a5.177 5.177 0 0 1-5.172 5.173h-58.164l-12.957 22.44-12.957-22.44h-5.578a5.177 5.177 0 0 1-5.172-5.173v-55.172a5.176 5.176 0 0 1 5.172-5.172h89.656a5.176 5.176 0 0 1 5.172 5.172zM214.148 1106.847h41.379M214.148 1117.191h52.586M214.148 1127.537h72.414M214.148 1137.881h36.207"/>
        <path fill="#000" d="M1426.355 607.502v55.172a5.177 5.177 0 0 0 5.173 5.173h58.163l12.957 22.44 12.957-22.44h5.577a5.177 5.177 0 0 0 5.173-5.173v-55.172a5.176 5.176 0 0 0-5.173-5.172h-89.654a5.176 5.176 0 0 0-5.173 5.172"/>
        <path stroke="#FD5750" stroke-linejoin="round" stroke-width="2" d="M1426.355 607.502v55.172a5.177 5.177 0 0 0 5.173 5.173h58.163l12.957 22.44 12.957-22.44h5.577a5.177 5.177 0 0 0 5.173-5.173v-55.172a5.176 5.176 0 0 0-5.173-5.172h-89.654a5.176 5.176 0 0 0-5.173 5.172zM1512.562 617.847h-67.241M1512.562 628.191h-70.689M1512.562 638.537h-52.586M1512.562 648.881H1486.7"/>
        <mask id="b" fill="#fff">
            <use xlink:href="#a"/>
        </mask>
        <path fill="#000" d="M162.355 709.293h72v-72h-72z" mask="url(#b)"/>
        <path stroke="#FD5750" stroke-linejoin="round" stroke-width="2" d="M162.355 709.293h72v-72h-72z" mask="url(#b)"/>
        <path stroke="#FD5750" stroke-linejoin="round" stroke-width="2" d="M199.164 651.176l-.809-.588-.809.588" mask="url(#b)"/>
        <path stroke="#FD5750" stroke-dasharray="2.147,3.221" stroke-linejoin="round" stroke-width="2" d="M194.94 653.069l-16.067 11.673" mask="url(#b)"/>
        <path stroke="#FD5750" stroke-linejoin="round" stroke-width="2" d="M177.57 665.689l-.809.588.31.95" mask="url(#b)"/>
        <path stroke="#FD5750" stroke-dasharray="2.147,3.221" stroke-linejoin="round" stroke-width="2" d="M178.065 670.29l6.137 18.89" mask="url(#b)"/>
        <path stroke="#FD5750" stroke-linejoin="round" stroke-width="2" d="M184.7 690.71l.31.952h1" mask="url(#b)"/>
        <path stroke="#FD5750" stroke-dasharray="2.147,3.221" stroke-linejoin="round" stroke-width="2" d="M189.23 691.662h19.86" mask="url(#b)"/>
        <path stroke="#FD5750" stroke-linejoin="round" stroke-width="2" d="M210.7 691.662h1l.31-.951" mask="url(#b)"/>
        <path stroke="#FD5750" stroke-dasharray="2.147,3.221" stroke-linejoin="round" stroke-width="2" d="M213.005 687.648l6.137-18.89" mask="url(#b)"/>
        <path stroke="#FD5750" stroke-linejoin="round" stroke-width="2" d="M219.64 667.227l.309-.95-.81-.589" mask="url(#b)"/>
        <path stroke="#FD5750" stroke-dasharray="2.147,3.221" stroke-linejoin="round" stroke-width="2" d="M216.534 663.796l-16.067-11.674" mask="url(#b)"/>
        <path stroke="#FD5750" stroke-dasharray="2,3" stroke-linejoin="round" stroke-width="2" d="M1330.355 1045.293c0 30.928-25.072 56-56 56s-56-25.072-56-56 25.072-56 56-56 56 25.072 56 56z" mask="url(#b)"/>
        <path fill="#000" d="M1312.5 1045.293c0 21.067-17.079 38.145-38.146 38.145-21.065 0-38.144-17.078-38.144-38.145 0-21.067 17.079-38.145 38.144-38.145 21.067 0 38.145 17.078 38.145 38.145" mask="url(#b)"/>
        <path stroke="#FD5750" stroke-linejoin="round" stroke-width="2" d="M1312.5 1045.293c0 21.067-17.079 38.145-38.146 38.145-21.065 0-38.144-17.078-38.144-38.145 0-21.067 17.079-38.145 38.144-38.145 21.067 0 38.145 17.078 38.145 38.145z" mask="url(#b)"/>
        <path stroke="#FD5750" stroke-linejoin="round" stroke-width="2" d="M1293.427 1012.258l-19.072 33.035h38.144" mask="url(#b)"/>
        <path fill="#000" d="M1467.355 931.293h48v-48h-48z" mask="url(#b)"/>
        <path stroke="#FD5750" stroke-linejoin="round" stroke-width="2" d="M1467.355 931.293h48v-48h-48zM1475.788 923.51v-9.73M1483.57 923.51v-26.596M1491.355 923.51v-16.217M1499.14 923.51v-32.434M1506.922 923.51v-27.893" mask="url(#b)"/>
        <path fill="#000" d="M409.355 574.293c-19.88 0-36 16.12-36 36s16.12 36 36 36 36-16.12 36-36-16.12-36-36-36" mask="url(#b)"/>
        <path stroke="#FD5750" stroke-linejoin="round" stroke-width="2" d="M409.355 574.293c-19.88 0-36 16.12-36 36s16.12 36 36 36 36-16.12 36-36-16.12-36-36-36z" mask="url(#b)"/>
        <path stroke="#FD5750" stroke-dasharray="2,3" stroke-linejoin="round" stroke-width="2" d="M409.355 586.293c-13.253 0-24 10.747-24 24s10.747 24 24 24 24-10.747 24-24-10.747-24-24-24z" mask="url(#b)"/>
        <path fill="#000" d="M409.355 598.293c-6.626 0-12 5.374-12 12s5.374 12 12 12 12-5.374 12-12-5.374-12-12-12" mask="url(#b)"/>
        <path stroke="#FD5750" stroke-linejoin="round" stroke-width="2" d="M409.355 598.293c-6.626 0-12 5.374-12 12s5.374 12 12 12 12-5.374 12-12-5.374-12-12-12z" mask="url(#b)"/>
        <path fill="#000" d="M171.355 1297.293c0 19.882-16.118 36-36 36s-36-16.118-36-36 16.118-36 36-36 36 16.118 36 36" mask="url(#b)"/>
        <path stroke="#FD5750" stroke-linejoin="round" stroke-width="2" d="M171.355 1297.293c0 19.882-16.118 36-36 36s-36-16.118-36-36 16.118-36 36-36 36 16.118 36 36z" mask="url(#b)"/>
        <path fill="#000" d="M1261.355 686.293h48v-48h-48z" mask="url(#b)"/>
        <path stroke="#FD5750" stroke-linejoin="round" stroke-width="2" d="M1261.355 686.293h48v-48h-48z" mask="url(#b)"/>
        <path fill="#000" d="M1526.355 1297.293h48v-48h-48z" mask="url(#b)"/>
        <path stroke="#FD5750" stroke-linejoin="round" stroke-width="2" d="M1526.355 1297.293h48v-48h-48z" mask="url(#b)"/>
        <path fill="#000" d="M330.355 921.293h48v-48h-48z" mask="url(#b)"/>
        <path stroke="#FD5750" stroke-linejoin="round" stroke-width="2" d="M330.355 921.293h48v-48h-48z" mask="url(#b)"/>
        <path fill="#000" d="M188.355 873.293c0 5.523-4.477 10-10 10s-10-4.477-10-10 4.477-10 10-10 10 4.477 10 10" mask="url(#b)"/>
        <path stroke="#FD5750" stroke-linejoin="round" stroke-width="2" d="M188.355 873.293c0 5.523-4.477 10-10 10s-10-4.477-10-10 4.477-10 10-10 10 4.477 10 10z" mask="url(#b)"/>
        <path fill="#000" d="M445.355 1107.293c0 5.523-4.477 10-10 10s-10-4.477-10-10 4.477-10 10-10 10 4.477 10 10" mask="url(#b)"/>
        <path stroke="#FD5750" stroke-linejoin="round" stroke-width="2" d="M445.355 1107.293c0 5.523-4.477 10-10 10s-10-4.477-10-10 4.477-10 10-10 10 4.477 10 10z" mask="url(#b)"/>
        <path fill="#000" d="M1452.355 1107.293c0 5.523-4.478 10-10 10s-10-4.477-10-10 4.478-10 10-10 10 4.477 10 10" mask="url(#b)"/>
        <path stroke="#FD5750" stroke-linejoin="round" stroke-width="2" d="M1452.355 1107.293c0 5.523-4.478 10-10 10s-10-4.477-10-10 4.478-10 10-10 10 4.477 10 10z" mask="url(#b)"/>
        <path fill="#000" d="M1256.355 581.293c0 5.523-4.478 10-10 10s-10-4.477-10-10 4.478-10 10-10 10 4.477 10 10" mask="url(#b)"/>
        <path stroke="#FD5750" stroke-linejoin="round" stroke-width="2" d="M1256.355 581.293c0 5.523-4.478 10-10 10s-10-4.477-10-10 4.478-10 10-10 10 4.477 10 10z" mask="url(#b)"/>
        <path fill="#000" d="M1322.355 931.293c0 5.523-4.478 10-10 10s-10-4.477-10-10 4.478-10 10-10 10 4.477 10 10" mask="url(#b)"/>
        <path stroke="#FD5750" stroke-linejoin="round" stroke-width="2" d="M1322.355 931.293c0 5.523-4.478 10-10 10s-10-4.477-10-10 4.478-10 10-10 10 4.477 10 10z" mask="url(#b)"/>
        <path fill="#000" d="M1505.355 786.293c0 5.523-4.478 10-10 10s-10-4.477-10-10 4.478-10 10-10 10 4.477 10 10" mask="url(#b)"/>
        <path stroke="#FD5750" stroke-linejoin="round" stroke-width="2" d="M1505.355 786.293c0 5.523-4.478 10-10 10s-10-4.477-10-10 4.478-10 10-10 10 4.477 10 10z" mask="url(#b)"/>
        <path fill="#000" d="M579.355 686.293c0 5.523-4.477 10-10 10s-10-4.477-10-10 4.477-10 10-10 10 4.477 10 10" mask="url(#b)"/>
        <path stroke="#FD5750" stroke-linejoin="round" stroke-width="2" d="M579.355 686.293c0 5.523-4.477 10-10 10s-10-4.477-10-10 4.477-10 10-10 10 4.477 10 10z" mask="url(#b)"/>
        <path fill="#000" d="M1115.355 686.293c0 5.523-4.478 10-10 10s-10-4.477-10-10 4.478-10 10-10 10 4.477 10 10" mask="url(#b)"/>
        <path stroke="#FD5750" stroke-linejoin="round" stroke-width="2" d="M1115.355 686.293c0 5.523-4.478 10-10 10s-10-4.477-10-10 4.478-10 10-10 10 4.477 10 10z" mask="url(#b)"/>
        <path fill="#000" d="M579.355 989.293c0 5.523-4.477 10-10 10s-10-4.477-10-10 4.477-10 10-10 10 4.477 10 10" mask="url(#b)"/>
        <path stroke="#FD5750" stroke-linejoin="round" stroke-width="2" d="M579.355 989.293c0 5.523-4.477 10-10 10s-10-4.477-10-10 4.477-10 10-10 10 4.477 10 10z" mask="url(#b)"/>
        <path fill="#000" d="M1115.355 989.293c0 5.523-4.478 10-10 10s-10-4.477-10-10 4.478-10 10-10 10 4.477 10 10" mask="url(#b)"/>
        <path stroke="#FD5750" stroke-linejoin="round" stroke-width="2" d="M1115.355 989.293c0 5.523-4.478 10-10 10s-10-4.477-10-10 4.478-10 10-10 10 4.477 10 10z" mask="url(#b)"/>
        <path fill="#000" d="M67.355 1145.293c0 5.523-4.477 10-10 10s-10-4.477-10-10 4.477-10 10-10 10 4.477 10 10" mask="url(#b)"/>
        <path stroke="#FD5750" stroke-linejoin="round" stroke-width="2" d="M67.355 1145.293c0 5.523-4.477 10-10 10s-10-4.477-10-10 4.477-10 10-10 10 4.477 10 10z" mask="url(#b)"/>
    </g>
</svg>
