<svg xmlns="http://www.w3.org/2000/svg" xmlns:xlink="http://www.w3.org/1999/xlink" width="72" height="72" viewBox="0 0 72 72"><defs><path id="a" d="M0 0h72v72H0z"/><path id="c" d="M0 72h72V0H0z"/></defs><g fill="none" fill-rule="evenodd"><mask id="b" fill="#fff"><use xlink:href="#a"/></mask><path fill="#FD5750" d="M36 0C16.118 0 0 16.118 0 36c0 19.883 16.118 36 36 36s36-16.117 36-36C72 16.118 55.882 0 36 0m0 2c18.748 0 34 15.253 34 34 0 18.748-15.252 34-34 34C17.252 70 2 54.748 2 36 2 17.253 17.252 2 36 2" mask="url(#b)"/><path fill="#FD5750" d="M30.365 18.363a.696.696 0 0 0-.696.695v18.089c0 .384.312.696.696.696h19.647l3.67 6.357 3.672-6.357h2.406a.696.696 0 0 0 .695-.696V19.058a.696.696 0 0 0-.695-.695H30.365zM53.683 48.2l-4.825-8.357H30.365a2.7 2.7 0 0 1-2.696-2.696V19.058a2.699 2.699 0 0 1 2.696-2.695H59.76a2.698 2.698 0 0 1 2.695 2.695v18.089a2.698 2.698 0 0 1-2.695 2.696h-1.252L53.683 48.2z"/><mask id="d" fill="#fff"><use xlink:href="#c"/></mask><path fill="#FD5750" d="M34.887 23.45h22.046v-2H34.887zm-1.131 5.088h23.177v-2H33.756zm6.219 5.087h16.958v-2H39.975zM18.311 62.617l-4.82-8.352h-1.252a2.7 2.7 0 0 1-2.694-2.703V33.478a2.697 2.697 0 0 1 2.694-2.694h16.426v2H12.24a.695.695 0 0 0-.694.694v18.084c0 .388.311.703.694.703h2.406l3.668 6.354 3.675-6.354h19.644a.699.699 0 0 0 .694-.703V38.84h2v12.722a2.702 2.702 0 0 1-2.694 2.703h-18.49l-4.83 8.352z" mask="url(#d)"/><path fill="#FD5750" d="M16.543 38.605V36.86l6.864 3.418v2.357l-6.864 3.15v-1.717l5.566-2.597zm7.718 9.268h7.551v-1.508h-7.551z" mask="url(#d)"/></g></svg>