<svg xmlns="http://www.w3.org/2000/svg" xmlns:xlink="http://www.w3.org/1999/xlink" width="72" height="72" viewBox="0 0 72 72"><defs><path id="a" d="M0 0h72v72H0z"/><path id="c" d="M0 72h72V0H0z"/></defs><g fill="none" fill-rule="evenodd"><mask id="b" fill="#fff"><use xlink:href="#a"/></mask><path fill="#FD5750" d="M36 0C16.118 0 0 16.118 0 36s16.118 36 36 36 36-16.118 36-36S55.882 0 36 0m0 2c18.748 0 34 15.252 34 34 0 18.748-15.252 34-34 34C17.252 70 2 54.748 2 36 2 17.252 17.252 2 36 2" mask="url(#b)"/><path fill="#FD5750" d="M14.985 23.51C15.295 45.685 32.81 57.755 36 59.769c3.187-2.018 20.706-14.113 21.014-36.257L36 12.197 14.985 23.51zM36 62.09l-.493-.28c-.226-.127-22.526-13.074-22.526-38.893v-.597l23.02-12.394L59.019 22.32v.597c0 25.819-22.3 38.766-22.526 38.894L36 62.09z"/><mask id="d" fill="#fff"><use xlink:href="#c"/></mask><path fill="#FD5750" d="M35 60.939h2v-1h-2zm0-44.715h2v-2.082h-2v2.082zm0 4.163h2v-2.082h-2v2.082zm0 4.163h2v-2.081h-2v2.081zm0 4.164h2v-2.082h-2v2.082zm0 4.163h2v-2.082h-2v2.082zm0 4.163h2v-2.081h-2v2.081zm0 4.164h2v-2.082h-2v2.082zm0 4.163h2v-2.082h-2v2.082zm0 4.163h2v-2.081h-2v2.081zm0 4.164h2v-2.082h-2v2.082zm0 4.163h2v-2.082h-2v2.082zm0-45.796h2v-1h-2zM55.955 37h2v-2h-2v2zm4 0h2v-2h-2v2zm4 0h2v-2h-2v2zm4 0h2v-2h-2v2zM.044 37H0v-2l.044 2zm2 0h2v-2h-2v2zm4 0h2v-2h-2v2zm4 0h2v-2h-2v2zm4 0h2v-2h-2v2z" mask="url(#d)"/></g></svg>