<svg xmlns="http://www.w3.org/2000/svg" xmlns:xlink="http://www.w3.org/1999/xlink" width="72" height="72" viewBox="0 0 72 72"><defs><path id="a" d="M0 0h72v72H0z"/></defs><g fill="none" fill-rule="evenodd"><mask id="b" fill="#fff"><use xlink:href="#a"/></mask><path fill="#FD5750" d="M36 0C16.118 0 0 16.118 0 36c0 19.883 16.118 36 36 36s36-16.117 36-36C72 16.118 55.882 0 36 0m0 2c18.748 0 34 15.253 34 34 0 18.748-15.252 34-34 34C17.252 70 2 54.748 2 36 2 17.253 17.252 2 36 2" mask="url(#b)"/><path fill="#FD5750" d="M18.547 56.352c-.47-.564-.47-.564 2.034-4.465l10.188-15.865-15.537 2.365-.301-1.976 19.913-3.032-1.196 1.862c-.133.207-13.283 20.678-13.484 21l-.845-.533-.772.644z"/><path fill="#FD5750" d="M19.302 56.714c-.043 0-.084-.006-.13-.012l.143-.99-.633-.774c.354-.291 34.174-28.567 34.516-28.853l1.283 1.535-29.129 24.35c-5.143 4.3-5.675 4.744-6.05 4.744"/><path fill="#FD5750" d="M18.247 67.276l-.038-11.699 2.055-3.197 1.683 1.083-1.736 2.698.022 6.824 32.708-27.588-.089-7.437-17.417 1.804 16.274-23.29 1.64 1.144L39.58 27.325l15.246-1.58.126 10.572z"/><path fill="#FD5750" d="M14.102 43.601l-.022-6.68L53.545 4.933 53.45 16.98l-7.209 11.296-1.685-1.076 6.899-10.812.057-7.23-35.43 28.715.012 3.401 12.897-1.97.302 1.976z"/></g></svg>