<svg xmlns="http://www.w3.org/2000/svg" width="636" height="107" viewBox="0 0 636 107"><g fill="none" fill-rule="evenodd"><path fill="#FFF" fill-rule="nonzero" d="M11.45 57.8c4 .5 10 1.2 10.3 7.35.15 2.85-1 4.7-2 5.65-2.55 2.6-6.55 2.75-9.35 2.65C4.9 73.3.2 71-.05 70.9l2.15-4.5c.05.05 3.9 2 8.2 2.35 6.5.5 6.55-2.3 6.5-3.35-.1-1.4-1.35-1.9-5.95-2.45C6.8 62.5.6 61.8.5 55.3c-.15-5.4 4.8-7.9 10.2-7.75 5.2.15 9.7 1.55 9.9 1.6L19 54.1s-4-1.5-8.45-1.65c-2.35-.1-4.95.85-4.95 2.75.05 1.5.85 2.05 5.85 2.6zm26.269-10.25c11.75 0 11.35 11.95 11.35 11.95v2.9h-18.5c0 3.05 2.55 6.25 7.6 6.25 3.95 0 8.25-1.7 8.25-1.7l1.3 4.45s-4.85 2-9.75 2c-11.45 0-12.75-9.65-12.75-13 0-3.55 1.9-12.85 12.5-12.85zm6.3 10.4s.35-5.45-6.3-5.45c-6.5 0-7.1 5.45-7.1 5.45h13.4zm15.619-5.1c0-.75 1.15-4.85 5.65-4.85h7.95v5.25h-8.7c-2.25 0-4.5 2.35-4.5 4.1V73h-5.6V48h4.9l.3 4.85zm28.818 15.3l6.6-20.15h5.35l-7.95 25h-7.95l-7.6-25h5.65l5.9 20.15zm26.919-20.6c11.75 0 11.35 11.95 11.35 11.95v2.9h-18.5c0 3.05 2.55 6.25 7.6 6.25 3.95 0 8.25-1.7 8.25-1.7l1.3 4.45s-4.85 2-9.75 2c-11.45 0-12.75-9.65-12.75-13 0-3.55 1.9-12.85 12.5-12.85zm6.3 10.4s.35-5.45-6.3-5.45c-6.5 0-7.1 5.45-7.1 5.45h13.4zm15.619-5.1c0-.75 1.15-4.85 5.65-4.85h7.95v5.25h-8.7c-2.25 0-4.5 2.35-4.5 4.1V73h-5.6V48h4.9l.3 4.85zM163.812 38v29.75h10.3V73h-15.65V42.6h-8V38h13.35zm25.72 9.55c11.75 0 11.35 11.95 11.35 11.95v2.9h-18.5c0 3.05 2.55 6.25 7.6 6.25 3.95 0 8.25-1.7 8.25-1.7l1.3 4.45s-4.85 2-9.75 2c-11.45 0-12.75-9.65-12.75-13 0-3.55 1.9-12.85 12.5-12.85zm6.3 10.4s.35-5.45-6.3-5.45c-6.5 0-7.1 5.45-7.1 5.45h13.4zm19.868-.15c4 .5 10 1.2 10.3 7.35.15 2.85-1 4.7-2 5.65-2.55 2.6-6.55 2.75-9.35 2.65-5.5-.15-10.2-2.45-10.45-2.55l2.15-4.5c.05.05 3.9 2 8.2 2.35 6.5.5 6.55-2.3 6.5-3.35-.1-1.4-1.35-1.9-5.95-2.45-4.05-.45-10.25-1.15-10.35-7.65-.15-5.4 4.8-7.9 10.2-7.75 5.2.15 9.7 1.55 9.9 1.6l-1.6 4.95s-4-1.5-8.45-1.65c-2.35-.1-4.95.85-4.95 2.75.05 1.5.85 2.05 5.85 2.6zm25.219 0c4 .5 10 1.2 10.3 7.35.15 2.85-1 4.7-2 5.65-2.55 2.6-6.55 2.75-9.35 2.65-5.5-.15-10.2-2.45-10.45-2.55l2.15-4.5c.05.05 3.9 2 8.2 2.35 6.5.5 6.55-2.3 6.5-3.35-.1-1.4-1.35-1.9-5.95-2.45-4.05-.45-10.25-1.15-10.35-7.65-.15-5.4 4.8-7.9 10.2-7.75 5.2.15 9.7 1.55 9.9 1.6l-1.6 4.95s-4-1.5-8.45-1.65c-2.35-.1-4.95.85-4.95 2.75.05 1.5.85 2.05 5.85 2.6zm148.131-9.3h4.5v-2.9c0-3.1 1.55-7.6 7.35-7.6h6.15v5.25h-5.75c-2.6 0-2.4 1.95-2.4 3.75v1.5h7.15v4.95h-7.15V73h-5.35V53.45h-4.5V48.5zm28.869 4.35c0-.75 1.15-4.85 5.65-4.85h7.95v5.25h-8.7c-2.25 0-4.5 2.35-4.5 4.1V73h-5.6V48h4.9l.3 4.85zM457.038 73h-4.8l-.35-3.45s-2.5 3.75-8.15 3.75c-6.85 0-9.8-4.7-9.8-8.45 0-3.7 3.25-7.55 9.1-7.55 4.5 0 8.05-.05 8.85-.05 0 0 .5-4.75-5.1-4.75-4.7 0-8.95 1.4-8.95 1.4l-1.5-4.85s6.15-1.55 9.8-1.55c6.65 0 10.9 3.45 10.9 11.05V73zm-12.65-4.4c5 0 7.65-3.15 7.65-3.15V61.8s-3.2-.05-8-.05c-3.4 0-4.65 1.25-4.65 3.1 0 2.05 1.6 3.75 5 3.75zm35.268-16.85c.002-.007.955-3.95 6.35-3.95 4.4 0 6.55 3.65 6.55 5.25V73h-5.35V56.45c0-2.2-.65-3.55-3.2-3.55-2.05 0-3.3 1.25-3.3 3.85V73h-5.15V56.25c0-2.2-1.4-3.35-3.2-3.35-1.9 0-3.4 1.15-3.6 3.3V73h-5.45V48h5.05l.2 3.05s1.75-3.3 5.35-3.3c4.746 0 5.749 3.993 5.75 4zm29.719-4.2c11.75 0 11.35 11.95 11.35 11.95v2.9h-18.5c0 3.05 2.55 6.25 7.6 6.25 3.95 0 8.25-1.7 8.25-1.7l1.3 4.45s-4.85 2-9.75 2c-11.45 0-12.75-9.65-12.75-13 0-3.55 1.9-12.85 12.5-12.85zm6.3 10.4s.35-5.45-6.3-5.45c-6.5 0-7.1 5.45-7.1 5.45h13.4zM548.344 48h5.3l-4.15 25h-6.75l-3.7-18.8-.05-.05-.05.05-3.7 18.8h-6.75l-4.15-25h5.3l2.4 18.9 3.85-18.8-.05-.1h6.3l-.05.1 3.85 18.8 2.4-18.9zm21.568-.45c7.8 0 12.7 4.8 12.7 12.85 0 7.65-4.9 13.05-12.7 13.05-8.25 0-13.25-5.4-13.25-13.05 0-8.05 5-12.85 13.25-12.85zm0 20.75c5.4 0 7.5-3.35 7.5-7.9 0-3.95-2.1-8.1-7.5-8.1-5.9 0-7.8 4.15-7.8 8.1 0 4.55 1.9 7.9 7.8 7.9zm22.62-15.45c0-.75 1.15-4.85 5.65-4.85h7.95v5.25h-8.7c-2.25 0-4.5 2.35-4.5 4.1V73h-5.6V48h4.9l.3 4.85zM635.9 73h-7.7l-10.9-12.55V73h-5.35V42.6h-5V38h10.35v19.15l9.55-9.15h7.1L622.6 58.65 635.9 73z"/><g stroke="#F15953" stroke-width="2.426"><path d="M339.147 38.646l12.86-20.544.178-15.935-.202-.167c-20.285 16.478-44.263 36.225-64.548 52.703.03.063.023 3.232-.02 9.509l23.977-3.736c-8.28 12.944-16.957 27.09-16.957 27.09l.053 16.105 59.252-50.905-.182-15.66s-10.685 1.125-14.41 1.54z"/><path d="M353.384 37.207L294.23 87.761a.016.016 0 0 1-.025-.02L317.85 50.01l-30.247 4.269a.016.016 0 0 1-.012-.029l64.213-51.87a.016.016 0 0 1 .024.021l-25.533 37.737 27.077-2.958a.016.016 0 0 1 .012.028z"/></g></g></svg>