<svg xmlns="http://www.w3.org/2000/svg" width="380" height="380" viewBox="0 0 380 380"><g fill="none" fill-rule="evenodd"><path stroke="#FD5750" stroke-dasharray="4 6" stroke-linejoin="round" stroke-width="2" d="M311 190c0 66.827-54.174 121-121 121S69 256.827 69 190 123.174 69 190 69s121 54.173 121 121z"/><path stroke="#FD5750" stroke-dasharray="4 6" stroke-linejoin="round" stroke-width="2" d="M247 190c0 31.48-25.52 57-57 57s-57-25.52-57-57 25.52-57 57-57 57 25.52 57 57z"/><path fill="#000" d="M188.92 92.986v63.853a5.99 5.99 0 0 1-5.984 5.986H115.62l-14.995 25.97-14.995-25.97h-6.455a5.99 5.99 0 0 1-5.986-5.986V92.986A5.99 5.99 0 0 1 79.175 87h103.76a5.99 5.99 0 0 1 5.986 5.986"/><path stroke="#FD5750" stroke-linejoin="round" stroke-width="2" d="M188.92 92.986v63.853a5.99 5.99 0 0 1-5.984 5.986H115.62l-14.995 25.97-14.995-25.97h-6.455a5.99 5.99 0 0 1-5.986-5.986V92.986A5.99 5.99 0 0 1 79.175 87h103.76a5.99 5.99 0 0 1 5.986 5.986zm-99.769 11.973h47.89m-47.89 11.972h60.86m-60.86 11.972h83.807m-83.807 11.972h41.903"/><path fill="#000" d="M190.08 212.19v63.854a5.99 5.99 0 0 0 5.984 5.986h67.316L278.375 308l14.995-25.97h6.455a5.99 5.99 0 0 0 5.986-5.986V212.19a5.99 5.99 0 0 0-5.986-5.986h-103.76a5.99 5.99 0 0 0-5.986 5.986"/><path stroke="#FD5750" stroke-linejoin="round" stroke-width="2" d="M190.08 212.19v63.854a5.99 5.99 0 0 0 5.984 5.986h67.316L278.375 308l14.995-25.97h6.455a5.99 5.99 0 0 0 5.986-5.986V212.19a5.99 5.99 0 0 0-5.986-5.986h-103.76a5.99 5.99 0 0 0-5.986 5.986zm99.769 11.974h-77.82m77.82 11.972h-81.812m81.812 11.972h-60.86m60.86 11.972h-29.931"/><path fill="#000" d="M197 372a7 7 0 1 1-14 0 7 7 0 0 1 14 0"/><path stroke="#FD5750" stroke-linejoin="round" stroke-width="2" d="M197 372a7 7 0 1 1-14 0 7 7 0 0 1 14 0z"/><path fill="#000" d="M8 197a7 7 0 1 1 0-14 7 7 0 0 1 0 14"/><path stroke="#FD5750" stroke-linejoin="round" stroke-width="2" d="M8 197a7 7 0 1 1 0-14 7 7 0 0 1 0 14z"/><path fill="#000" d="M183 8a7 7 0 1 1 14 0 7 7 0 0 1-14 0"/><path stroke="#FD5750" stroke-linejoin="round" stroke-width="2" d="M183 8a7 7 0 1 1 14 0 7 7 0 0 1-14 0z"/><path fill="#000" d="M372 183a7 7 0 1 1 0 14 7 7 0 0 1 0-14"/><path stroke="#FD5750" stroke-linejoin="round" stroke-width="2" d="M372 183a7 7 0 1 1 0 14 7 7 0 0 1 0-14z"/><path fill="#000" d="M66.256 323.643a6.999 6.999 0 0 1-9.9 0 6.999 6.999 0 0 1 0-9.899 6.999 6.999 0 0 1 9.9 0 6.999 6.999 0 0 1 0 9.9"/><path stroke="#FD5750" stroke-linejoin="round" stroke-width="2" d="M66.256 323.643a6.999 6.999 0 0 1-9.9 0 6.999 6.999 0 0 1 0-9.899 6.999 6.999 0 0 1 9.9 0 6.999 6.999 0 0 1 0 9.9z"/><path fill="#000" d="M56.356 66.256a7 7 0 1 1 9.902-9.899 7 7 0 0 1-9.902 9.9"/><path stroke="#FD5750" stroke-linejoin="round" stroke-width="2" d="M56.356 66.256a7 7 0 1 1 9.902-9.899 7 7 0 0 1-9.902 9.9z"/><path fill="#000" d="M313.744 56.357a6.999 6.999 0 0 1 9.9 0 6.999 6.999 0 0 1 0 9.899 6.999 6.999 0 0 1-9.9 0 6.999 6.999 0 0 1 0-9.9"/><path stroke="#FD5750" stroke-linejoin="round" stroke-width="2" d="M313.744 56.357a6.999 6.999 0 0 1 9.9 0 6.999 6.999 0 0 1 0 9.899 6.999 6.999 0 0 1-9.9 0 6.999 6.999 0 0 1 0-9.9z"/><path fill="#000" d="M323.644 313.744a7 7 0 1 1-9.902 9.899 7 7 0 0 1 9.902-9.9"/><path stroke="#FD5750" stroke-linejoin="round" stroke-width="2" d="M323.644 313.744a7 7 0 1 1-9.902 9.899 7 7 0 0 1 9.902-9.9z"/><path stroke="#FD5750" stroke-linejoin="round" stroke-width="2" d="M372 190c0 100.516-81.484 182-182 182S8 290.516 8 190 89.484 8 190 8s182 81.484 182 182z"/><path fill="#000" d="M197 372a7 7 0 1 1-14 0 7 7 0 0 1 14 0"/><path stroke="#FD5750" stroke-linejoin="round" stroke-width="2" d="M197 372a7 7 0 1 1-14 0 7 7 0 0 1 14 0z"/><path fill="#000" d="M8 197a7 7 0 1 1 0-14 7 7 0 0 1 0 14"/><path stroke="#FD5750" stroke-linejoin="round" stroke-width="2" d="M8 197a7 7 0 1 1 0-14 7 7 0 0 1 0 14z"/><path fill="#000" d="M183 8a7 7 0 1 1 14 0 7 7 0 0 1-14 0"/><path stroke="#FD5750" stroke-linejoin="round" stroke-width="2" d="M183 8a7 7 0 1 1 14 0 7 7 0 0 1-14 0z"/><path fill="#000" d="M372 183a7 7 0 1 1 0 14 7 7 0 0 1 0-14"/><path stroke="#FD5750" stroke-linejoin="round" stroke-width="2" d="M372 183a7 7 0 1 1 0 14 7 7 0 0 1 0-14z"/><path fill="#000" d="M66.256 323.643a6.999 6.999 0 0 1-9.9 0 6.999 6.999 0 0 1 0-9.899 6.999 6.999 0 0 1 9.9 0 6.999 6.999 0 0 1 0 9.9"/><path stroke="#FD5750" stroke-linejoin="round" stroke-width="2" d="M66.256 323.643a6.999 6.999 0 0 1-9.9 0 6.999 6.999 0 0 1 0-9.899 6.999 6.999 0 0 1 9.9 0 6.999 6.999 0 0 1 0 9.9z"/><path fill="#000" d="M56.356 66.256a7 7 0 1 1 9.902-9.899 7 7 0 0 1-9.902 9.9"/><path stroke="#FD5750" stroke-linejoin="round" stroke-width="2" d="M56.356 66.256a7 7 0 1 1 9.902-9.899 7 7 0 0 1-9.902 9.9z"/><path fill="#000" d="M313.744 56.357a6.999 6.999 0 0 1 9.9 0 6.999 6.999 0 0 1 0 9.899 6.999 6.999 0 0 1-9.9 0 6.999 6.999 0 0 1 0-9.9"/><path stroke="#FD5750" stroke-linejoin="round" stroke-width="2" d="M313.744 56.357a6.999 6.999 0 0 1 9.9 0 6.999 6.999 0 0 1 0 9.899 6.999 6.999 0 0 1-9.9 0 6.999 6.999 0 0 1 0-9.9z"/><path fill="#000" d="M323.644 313.744a7 7 0 1 1-9.902 9.899 7 7 0 0 1 9.902-9.9"/><path stroke="#FD5750" stroke-linejoin="round" stroke-width="2" d="M323.644 313.744a7 7 0 1 1-9.902 9.899 7 7 0 0 1 9.902-9.9z"/></g></svg>