<?xml version="1.0" encoding="utf-8"?>
<!-- Generator: Adobe Illustrator 16.0.0, SVG Export Plug-In . SVG Version: 6.00 Build 0)  -->
<!DOCTYPE svg PUBLIC "-//W3C//DTD SVG 1.1//EN" "http://www.w3.org/Graphics/SVG/1.1/DTD/svg11.dtd">
<svg version="1.1" id="图层_1" xmlns="http://www.w3.org/2000/svg" xmlns:xlink="http://www.w3.org/1999/xlink" x="0px" y="0px"
	 width="16px" height="13px" viewBox="0 0 16 13" enable-background="new 0 0 16 13" xml:space="preserve">
<path fill="#8C8C8C" fill-rule="evenodd" d="M14.21,1.722c-1.378-1.323-3.401-1.138-3.401-1.138c-0.249,0.005-0.451,0.211-0.451,0.462V1.27
	c0,0.25,0.201,0.441,0.458,0.437c0,0,1.94-0.206,2.769,1c0.825,1.205,0.469,2.718,0.469,2.718c-0.038,0.247,0.133,0.447,0.386,0.447
	h0.192c0.252,0,0.483-0.2,0.512-0.449C15.143,5.422,15.588,3.046,14.21,1.722L14.21,1.722z"/>
<path fill="#8C8C8C" fill-rule="evenodd" d="M12.605,5.337h0.273c0.167,0,0.329-0.131,0.357-0.299c0,0,0.321-1.253-0.431-1.941
	c-0.752-0.687-1.733-0.436-1.733-0.436c-0.165,0.025-0.299,0.181-0.299,0.347v0.119c0,0.167,0.134,0.292,0.306,0.287
	c0,0,0.824-0.112,1.227,0.372c0.399,0.483,0.086,1.265,0.086,1.265C12.344,5.208,12.441,5.337,12.605,5.337L12.605,5.337z"/>
<path fill="#8C8C8C" fill-rule="evenodd" d="M6.185,6.573c-1.353,0.263-2.27,1.405-2.047,2.55s1.5,1.861,2.854,1.597c1.353-0.262,2.27-1.404,2.047-2.55
	C8.816,7.024,7.538,6.31,6.185,6.573L6.185,6.573z M6.074,9.585C5.658,9.779,5.2,9.68,5.052,9.362
	C4.905,9.044,5.123,8.63,5.539,8.437C5.956,8.241,6.412,8.342,6.56,8.659C6.708,8.977,6.491,9.392,6.074,9.585L6.074,9.585z
	 M7.03,8.621c-0.231,0-0.417-0.188-0.417-0.423c0-0.232,0.186-0.422,0.417-0.422c0.23,0,0.416,0.189,0.416,0.422
	C7.445,8.433,7.26,8.621,7.03,8.621L7.03,8.621z"/>
<path fill="#8C8C8C" fill-rule="evenodd" d="M11.227,6.1c0-0.128,1.21-1.272,0-1.985S7.803,4.486,7.869,4.37c0.954-1.664-0.408-2.189-1.102-2.189
	c-1.654,0-5.978,3.685-5.978,6.018c0,2.334,2.888,4.226,6.448,4.226c3.562,0,6.42-1.892,6.42-4.226
	C13.657,6.228,11.227,6.228,11.227,6.1L11.227,6.1z M7.412,11.129c-2.275,0.319-4.292-0.638-4.503-2.14
	C2.698,7.487,4.372,6.01,6.647,5.69c2.275-0.32,4.291,0.638,4.502,2.141C11.36,9.332,9.688,10.809,7.412,11.129L7.412,11.129z"/>
</svg>
