<?xml version="1.0" encoding="utf-8"?>
<!-- Generator: Adobe Illustrator 16.0.0, SVG Export Plug-In . SVG Version: 6.00 Build 0)  -->
<!DOCTYPE svg PUBLIC "-//W3C//DTD SVG 1.1//EN" "http://www.w3.org/Graphics/SVG/1.1/DTD/svg11.dtd">
<svg version="1.1" id="图层_1" xmlns="http://www.w3.org/2000/svg" xmlns:xlink="http://www.w3.org/1999/xlink" x="0px" y="0px"
	 width="16px" height="13px" viewBox="0 0 16 13" enable-background="new 0 0 16 13" xml:space="preserve">
<path fill="#8C8C8C" fill-rule="evenodd" d="M8.927,7.254c0,0,0-0.983-0.479-1.034c-0.479-0.05-1.964,0-1.964,0V3.198H8.7c0,0-0.025-1.008-0.454-1.008
	H4.646l0.604-1.611c0,0-0.907,0.05-1.234,0.629C3.688,1.787,2.656,4.684,2.656,4.684s0.353,0.151,0.932-0.277
	c0.579-0.428,0.781-1.183,0.781-1.183l1.057-0.05l0.026,3.072c0,0-1.839-0.025-2.216,0C2.856,6.271,2.656,7.278,2.656,7.278h2.795
	c0,0-0.252,1.712-0.957,2.946c-0.731,1.234-2.091,2.217-2.091,2.217s0.982,0.403,1.939-0.15c0.958-0.58,1.662-3.073,1.662-3.073
	l2.242,2.796c0,0,0.201-1.335-0.025-1.713C7.969,9.922,6.66,8.411,6.66,8.411L6.081,8.915l0.403-1.661H8.927L8.927,7.254z
	 M9.506,2.115L9.48,11.207h0.908l0.326,1.134l1.586-1.134h2.242V2.115H9.506L9.506,2.115z M13.535,10.2h-1.057l-1.336,1.032
	L10.842,10.2h-0.277V3.147h2.971V10.2L13.535,10.2z"/>
</svg>
