<?xml version="1.0" encoding="UTF-8"?>
<svg width="24px" height="25px" viewBox="0 0 24 25" version="1.1" xmlns="http://www.w3.org/2000/svg" xmlns:xlink="http://www.w3.org/1999/xlink">
    <!-- Generator: Sketch 53.2 (72643) - https://sketchapp.com -->
    <title>video</title>
    <desc>Created with Sketch.</desc>
    <g id="WIP-Pages" stroke="none" stroke-width="1" fill="none" fill-rule="evenodd">
        <g id="/learn/tutorial/getting-setup-with-aws/" transform="translate(-1023.000000, -117.000000)" fill="#8C8C8C" fill-rule="nonzero">
            <g id="video" transform="translate(1023.000000, 117.000000)">
                <path d="M23,15 L2,15 L2,2 L23,2 L23,15 Z M2.80769231,14.1333333 L22.1923077,14.1333333 L22.1923077,2.86666667 L2.80769231,2.86666667 L2.80769231,14.1333333 Z" id="Shape"></path>
                <polygon id="Path" points="6 16 22 16 22 17 6 17"></polygon>
                <polygon id="Path" points="5 16 6 16 6 18 5 18"></polygon>
                <polygon id="Path" points="2 16 4 16 4 17 2 17"></polygon>
                <path d="M9,13 L9,4 L17,8.5 L9,13 Z M9.83178068,5.51416383 L9.83178068,11.4858362 L15.1402716,8.5 L9.83178068,5.51416383 Z" id="Shape"></path>
                <path d="M22.8,0 L1.2,0 C0.5373047,0 0,0.599670424 0,1.33928571 L0,18.3035714 C0,19.0431867 0.5373047,19.6428571 1.2,19.6428571 L8.4,19.6428571 L8.4,22.3214286 L4.4,22.3214286 L4.4,25 L19.6,25 L19.6,22.3214286 L15.6,22.3214286 L15.6,19.6428571 L22.8,19.6428571 C23.4626953,19.6428571 24,19.0431867 24,18.3035714 L24,1.33928571 C24,0.599670424 23.4626953,0 22.8,0 Z M18.8,23.2142857 L18.8,24.1071429 L5.2,24.1071429 L5.2,23.2142857 L18.8,23.2142857 Z M14.8,22.3214286 L9.2,22.3214286 L9.2,19.6428571 L14.8,19.6428571 L14.8,22.3214286 Z M23.2,18.3035714 C23.2,18.5501099 23.0208985,18.75 22.8,18.75 L1.2,18.75 C0.97910155,18.75 0.8,18.5501099 0.8,18.3035714 L0.8,1.33928571 C0.8,1.09274727 0.97910155,0.892857143 1.2,0.892857143 L22.8,0.892857143 C23.0208985,0.892857143 23.2,1.09274727 23.2,1.33928571 L23.2,18.3035714 Z" id="Shape"></path>
            </g>
        </g>
    </g>
</svg>