<svg xmlns="http://www.w3.org/2000/svg" width="14" height="14" viewBox="0 0 14 14">
    <g fill="#FFF" fill-rule="nonzero">
        <path d="M2.98 8.829a1.46 1.46 0 0 1-1.456 1.456A1.46 1.46 0 0 1 .068 8.83a1.46 1.46 0 0 1 1.456-1.456h1.457v1.456zM3.715 8.829A1.46 1.46 0 0 1 5.17 7.373a1.46 1.46 0 0 1 1.456 1.456v3.647a1.46 1.46 0 0 1-1.456 1.456 1.46 1.46 0 0 1-1.456-1.456V8.829zM5.171 2.98a1.46 1.46 0 0 1-1.456-1.456A1.46 1.46 0 0 1 5.17.068a1.46 1.46 0 0 1 1.456 1.456v1.457H5.171zM5.171 3.715A1.46 1.46 0 0 1 6.627 5.17a1.46 1.46 0 0 1-1.456 1.456H1.524A1.46 1.46 0 0 1 .068 5.171a1.46 1.46 0 0 1 1.456-1.456h3.647zM11.02 5.171a1.46 1.46 0 0 1 1.456-1.456 1.46 1.46 0 0 1 1.456 1.456 1.46 1.46 0 0 1-1.456 1.456h-1.457V5.171zM10.285 5.171A1.46 1.46 0 0 1 8.83 6.627a1.46 1.46 0 0 1-1.456-1.456V1.524A1.46 1.46 0 0 1 8.829.068a1.46 1.46 0 0 1 1.456 1.456v3.647zM8.829 11.02a1.46 1.46 0 0 1 1.456 1.456 1.46 1.46 0 0 1-1.456 1.456 1.46 1.46 0 0 1-1.456-1.456v-1.457h1.456zM8.829 10.285A1.46 1.46 0 0 1 7.373 8.83a1.46 1.46 0 0 1 1.456-1.456h3.647a1.46 1.46 0 0 1 1.456 1.456 1.46 1.46 0 0 1-1.456 1.456H8.829z"/>
    </g>
</svg>
