<svg xmlns="http://www.w3.org/2000/svg" width="14" height="14" viewBox="0 0 14 14"><path fill="#FFF" d="M2.98 8.829a1.46 1.46 0 0 1-1.456 1.456A1.46 1.46 0 0 1 .068 8.83a1.46 1.46 0 0 1 1.456-1.456h1.457V8.83zm.735 0A1.46 1.46 0 0 1 5.17 7.373a1.46 1.46 0 0 1 1.456 1.456v3.647a1.46 1.46 0 0 1-1.456 1.456 1.46 1.46 0 0 1-1.456-1.456V8.829zM5.171 2.98a1.46 1.46 0 0 1-1.456-1.456A1.46 1.46 0 0 1 5.17.068a1.46 1.46 0 0 1 1.456 1.456v1.457H5.171zm0 .735A1.46 1.46 0 0 1 6.627 5.17a1.46 1.46 0 0 1-1.456 1.456H1.524A1.46 1.46 0 0 1 .068 5.171a1.46 1.46 0 0 1 1.456-1.456h3.647zm5.849 1.456a1.46 1.46 0 0 1 1.456-1.456 1.46 1.46 0 0 1 1.456 1.456 1.46 1.46 0 0 1-1.456 1.456h-1.457V5.171zm-.735 0A1.46 1.46 0 0 1 8.83 6.627a1.46 1.46 0 0 1-1.456-1.456V1.524A1.46 1.46 0 0 1 8.829.068a1.46 1.46 0 0 1 1.456 1.456v3.647zM8.829 11.02a1.46 1.46 0 0 1 1.456 1.456 1.46 1.46 0 0 1-1.456 1.456 1.46 1.46 0 0 1-1.456-1.456v-1.457h1.456zm0-.735A1.46 1.46 0 0 1 7.373 8.83a1.46 1.46 0 0 1 1.456-1.456h3.647a1.46 1.46 0 0 1 1.456 1.456 1.46 1.46 0 0 1-1.456 1.456H8.829z"/></svg>