<svg xmlns="http://www.w3.org/2000/svg" width="19" height="16" viewBox="0 0 19 16"><path fill="#FFF" fill-rule="evenodd" d="M19 1.894a7.553 7.553 0 0 1-2.238.636A4.024 4.024 0 0 0 18.476.296a7.63 7.63 0 0 1-2.477.979A3.826 3.826 0 0 0 13.154 0c-2.151 0-3.897 1.809-3.897 4.039 0 .317.034.624.1.92C6.119 4.79 3.248 3.184 1.324.737A4.146 4.146 0 0 0 .795 2.77c0 1.4.688 2.637 1.734 3.362a3.797 3.797 0 0 1-1.766-.504v.05c0 1.957 1.344 3.59 3.128 3.96a3.68 3.68 0 0 1-1.027.142c-.251 0-.496-.024-.734-.071.496 1.604 1.935 2.772 3.641 2.803A7.648 7.648 0 0 1 0 14.187 10.772 10.772 0 0 0 5.975 16c7.171 0 11.091-6.154 11.091-11.492 0-.175-.003-.351-.01-.523A8.05 8.05 0 0 0 19 1.895"/></svg>