<?xml version="1.0" encoding="utf-8"?>
<!-- Generator: Adobe Illustrator 23.0.2, SVG Export Plug-In . SVG Version: 6.00 Build 0)  -->
<svg version="1.1" id="Layer_1" xmlns="http://www.w3.org/2000/svg" xmlns:xlink="http://www.w3.org/1999/xlink" x="0px" y="0px"
	 viewBox="0 0 287 31" style="enable-background:new 0 0 287 31;" xml:space="preserve">
<style type="text/css">
	.st0{fill-rule:evenodd;clip-rule:evenodd;fill:#FD5750;}
	.st1{fill-rule:evenodd;clip-rule:evenodd;}
	.st2{enable-background:new    ;}
	.st3{fill:#9B9B9B;}
</style>
<g>
	<path class="st0" d="M0,24h6.6l-2,6.2H0V24z M0,12.3h10.5l-2,6.2H0V12.3z M0,0.6h14.4l-2,6.2H0V0.6z M20.9,0.6h16.4v6.2H18.8
		L20.9,0.6z M14.9,18.5l2-6.2h20.3v6.2H14.9z M13.1,24h24.2v6.2H11.1L13.1,24L13.1,24z"/>
	<path class="st1" d="M94.3,18.9l3.2-9.7c0.9,0,1.8,0,2.7,0l-4.3,12.4h-3.4l-4-12.4h2.8C91.3,9.1,94.3,18.9,94.3,18.9z M131.8,2.9
		v16.3h3.8v2.4h-6.4V5.1h-2.7V2.9L131.8,2.9L131.8,2.9z M119,11.4c0.1-0.2,0.6-2.4,2.8-2.4h3.7v2.7h-4.1c-1,0-2.2,0.9-2.2,2.3l0,7.6
		h-2.7V9.1l2.5,0L119,11.4L119,11.4z M157.5,14c2,0.2,5,0.6,5.2,3.7c0.1,1.5-0.5,2.4-1,2.9c-1.3,1.3-3.3,1.4-4.7,1.3
		c-2.8-0.1-5.1-1.2-5.2-1.3l1.1-2.3c0,0,1.9,1,4,1.2c3.3,0.2,3.3-1,3.3-1.6c0-0.7-0.7-1-3-1.2c-2.1-0.2-5.2-0.6-5.2-3.9
		c0-1,0.3-1.9,1-2.6c0.9-0.9,2.4-1.4,4.1-1.3c2.6,0.1,4.9,0.8,5,0.8l-0.8,2.5c0,0-2-0.6-4.3-0.7c-0.9,0-1.8,0.2-2.2,0.6
		c-0.2,0.2-0.3,0.4-0.2,0.7C154.6,13.4,155,13.7,157.5,14L157.5,14z M176,17.7c0.1,1.5-0.5,2.4-1,2.9c-1.3,1.3-3.3,1.4-4.7,1.3
		c-2.8-0.1-5.1-1.2-5.2-1.3l1.1-2.2c0,0,1.9,0.8,4.1,1c3.3,0.2,3.3-1,3.3-1.6c0-0.7-0.7-1-3-1.2c-2.1-0.2-5.2-0.6-5.2-3.9
		c0-1,0.3-1.9,1-2.6c0.9-0.9,2.4-1.4,4.1-1.3c2.6,0.1,4.9,0.8,5,0.8l-0.8,2.5c0,0-2-0.7-4.3-0.7c-2,0-2.5,0.6-2.5,1.3
		c0,0.8,0.4,1,2.9,1.3C172.8,14.2,175.8,14.6,176,17.7L176,17.7z M54.9,14c2,0.2,5,0.6,5.2,3.7c0.1,1.5-0.5,2.4-1,2.9
		c-1.3,1.3-3.3,1.4-4.7,1.3c-2.8-0.1-5.1-1.2-5.2-1.3l1.2-2.3c0,0,1.9,1,4,1.2c3.3,0.2,3.3-1,3.3-1.6c0-0.7-0.7-1-3-1.2
		c-2.1-0.2-5.2-0.6-5.2-3.9c0-1,0.3-1.9,1-2.6c0.9-0.9,2.4-1.4,4.1-1.3c2.6,0.1,4.9,0.8,5,0.8l-0.8,2.5c0,0-2-0.6-4.3-0.7
		c-1,0-1.8,0.2-2.2,0.6C52,12.2,52,12.4,52,12.7C52,13.4,52.4,13.7,54.9,14L54.9,14z M143.4,8.8c5.9,0,5.9,6,5.9,6v1.6H140
		c0,1.5,1.3,3.2,3.8,3.2c2.1,0,4.2-0.8,4.2-0.8l0.7,2.1c0,0-2.6,1-5.1,1c-5.9,0-6.3-5.2-6.3-6.6C137.2,13.8,138.2,8.8,143.4,8.8z
		 M146.8,14.1c0,0,0.1-3-3.3-3c-3.1,0-3.5,3-3.5,3S146.8,14.1,146.8,14.1z M107.8,8.8c5.9,0,5.9,6,5.9,6v1.6h-9.3
		c0,1.5,1.3,3.2,3.8,3.2c2.1,0,4.2-0.8,4.2-0.8l0.7,2.1c0,0-2.6,1-5.1,1c-5.9,0-6.3-5.2-6.3-6.6C101.6,13.8,102.6,8.8,107.8,8.8z
		 M111.1,14.1c0,0,0.1-3-3.3-3c-3.1,0-3.5,3-3.5,3S111.1,14.1,111.1,14.1z M68.3,8.8c5.9,0,5.9,6,5.9,6v1.6h-9.3
		c0,1.5,1.3,3.2,3.8,3.2c2.1,0,4.2-0.8,4.2-0.8l0.7,2.1c0,0-2.6,1-5.1,1c-5.9,0-6.3-5.2-6.3-6.6C62.1,13.8,63.1,8.8,68.3,8.8z
		 M71.7,14.1c0,0,0.1-3-3.3-3c-3.1,0-3.5,3-3.5,3S71.7,14.1,71.7,14.1z M79.5,11.4c0.1-0.2,0.6-2.4,2.8-2.4h3.7v2.7h-4.1
		c-1,0-2.2,0.9-2.2,2.3l0,7.6h-2.7V9.1l2.5,0C79.5,9.1,79.5,11.4,79.5,11.4z"/>
	<g class="st2">
		<path class="st3" d="M191.7,25.7h-4.4V1h4.4v1.2h-3v22.3h3V25.7z"/>
		<path class="st3" d="M204.7,20.1c-0.5,0.6-1.8,2.2-5.2,2.2s-6.3-2.8-6.3-6.7c0-3.9,3-6.6,6.4-6.6c3.4,0,4.8,1.8,5,2.2l-0.9,1
			c-0.6-0.6-1.7-1.9-4.2-1.9c-2.6,0-4.8,2.1-4.8,5.2s2,5.5,4.9,5.5c2.9,0,4.3-1.9,4.3-1.9L204.7,20.1z"/>
		<path class="st3" d="M212.9,10.6c-0.3-0.1-0.7-0.2-1.4-0.2c-1.2,0-2,0.9-2.2,1.2s-0.9,1.4-0.9,3.6V22H207V9.2h1.4v2.4
			c0.5-1.7,1.9-2.6,3.3-2.6c0.8,0,1.4,0.2,1.4,0.2L212.9,10.6z"/>
		<path class="st3" d="M220.7,22.3c-3.6,0-6.5-2.8-6.5-6.6c0-3.9,2.9-6.7,6.5-6.7c3.7,0,6.6,2.8,6.6,6.7
			C227.3,19.5,224.4,22.3,220.7,22.3z M220.7,10.2c-3.1,0-5,2.4-5,5.4c0,3,1.9,5.4,5,5.4c3.1,0,5-2.4,5-5.4
			C225.7,12.6,223.8,10.2,220.7,10.2z"/>
		<path class="st3" d="M240.4,22h-1.5v-7.6c0-2.1-0.4-4.2-3.1-4.2s-4.1,2.4-4.1,5.4V22h-1.4V9.2h1.4v2.4c0.6-1.5,2.3-2.6,4.1-2.6
			c3.7,0,4.5,2.3,4.5,5.4V22z"/>
		<path class="st3" d="M248,25.7h-4.4v-1.2h3V2.2h-3V1h4.4V25.7z"/>
		<path class="st3" d="M251.9,5.8c-0.7,0-1.2-0.5-1.2-1.2s0.5-1.2,1.2-1.2s1.2,0.5,1.2,1.2S252.5,5.8,251.9,5.8z M252.6,22h-1.4V9.2
			h1.4V22z"/>
		<path class="st3" d="M267.3,20.1c-0.5,0.6-1.8,2.2-5.2,2.2s-6.3-2.8-6.3-6.7c0-3.9,3-6.6,6.4-6.6c3.4,0,4.8,1.8,5,2.2l-0.9,1
			c-0.6-0.6-1.7-1.9-4.2-1.9c-2.6,0-4.8,2.1-4.8,5.2s2,5.5,4.9,5.5s4.3-1.9,4.3-1.9L267.3,20.1z"/>
		<path class="st3" d="M271.1,22h-1.4V3h1.4V22z"/>
		<path class="st3" d="M286.2,15.9h-10.4c0.1,3,1.8,5,4.7,5s4.5-1.7,4.5-1.7l0.7,1c0,0-1.6,1.9-5.3,1.9s-6.1-2.8-6.1-6.7
			c0-3.9,2.8-6.6,6.2-6.6c3.4,0,5.8,2.5,5.8,6C286.3,15.4,286.2,15.9,286.2,15.9z M284.8,14.7c0-1.7-1.2-4.5-4.4-4.5
			s-4.5,2.7-4.6,4.5H284.8z"/>
	</g>
</g>
</svg>
