<svg xmlns="http://www.w3.org/2000/svg" id="Layer_1" x="0" y="0" version="1.1" viewBox="0 0 287 31" xml:space="preserve"><style>.st0{fill:#fd5750}.st0,.st1{fill-rule:evenodd;clip-rule:evenodd}.st2{enable-background:new}.st3{fill:#9b9b9b}</style><path d="M0 24h6.6l-2 6.2H0V24zm0-11.7h10.5l-2 6.2H0v-6.2zM0 .6h14.4l-2 6.2H0V.6zm20.9 0h16.4v6.2H18.8L20.9.6zm-6 17.9l2-6.2h20.3v6.2H14.9zM13.1 24h24.2v6.2H11.1l2-6.2z" class="st0"/><path d="M94.3 18.9l3.2-9.7h2.7l-4.3 12.4h-3.4l-4-12.4h2.8c0-.1 3 9.7 3 9.7zm37.5-16v16.3h3.8v2.4h-6.4V5.1h-2.7V2.9h5.3zM119 11.4c.1-.2.6-2.4 2.8-2.4h3.7v2.7h-4.1c-1 0-2.2.9-2.2 2.3v7.6h-2.7V9.1h2.5v2.3zm38.5 2.6c2 .2 5 .6 5.2 3.7.1 1.5-.5 2.4-1 2.9-1.3 1.3-3.3 1.4-4.7 1.3-2.8-.1-5.1-1.2-5.2-1.3l1.1-2.3s1.9 1 4 1.2c3.3.2 3.3-1 3.3-1.6 0-.7-.7-1-3-1.2-2.1-.2-5.2-.6-5.2-3.9 0-1 .3-1.9 1-2.6.9-.9 2.4-1.4 4.1-1.3 2.6.1 4.9.8 5 .8l-.8 2.5s-2-.6-4.3-.7c-.9 0-1.8.2-2.2.6-.2.2-.3.4-.2.7 0 .6.4.9 2.9 1.2zm18.5 3.7c.1 1.5-.5 2.4-1 2.9-1.3 1.3-3.3 1.4-4.7 1.3-2.8-.1-5.1-1.2-5.2-1.3l1.1-2.2s1.9.8 4.1 1c3.3.2 3.3-1 3.3-1.6 0-.7-.7-1-3-1.2-2.1-.2-5.2-.6-5.2-3.9 0-1 .3-1.9 1-2.6.9-.9 2.4-1.4 4.1-1.3 2.6.1 4.9.8 5 .8l-.8 2.5s-2-.7-4.3-.7c-2 0-2.5.6-2.5 1.3 0 .8.4 1 2.9 1.3 2 .2 5 .6 5.2 3.7zM54.9 14c2 .2 5 .6 5.2 3.7.1 1.5-.5 2.4-1 2.9-1.3 1.3-3.3 1.4-4.7 1.3-2.8-.1-5.1-1.2-5.2-1.3l1.2-2.3s1.9 1 4 1.2c3.3.2 3.3-1 3.3-1.6 0-.7-.7-1-3-1.2-2.1-.2-5.2-.6-5.2-3.9 0-1 .3-1.9 1-2.6.9-.9 2.4-1.4 4.1-1.3 2.6.1 4.9.8 5 .8l-.8 2.5s-2-.6-4.3-.7c-1 0-1.8.2-2.2.6-.3.1-.3.3-.3.6 0 .7.4 1 2.9 1.3zm88.5-5.2c5.9 0 5.9 6 5.9 6v1.6H140c0 1.5 1.3 3.2 3.8 3.2 2.1 0 4.2-.8 4.2-.8l.7 2.1s-2.6 1-5.1 1c-5.9 0-6.3-5.2-6.3-6.6-.1-1.5.9-6.5 6.1-6.5zm3.4 5.3s.1-3-3.3-3c-3.1 0-3.5 3-3.5 3h6.8zm-39-5.3c5.9 0 5.9 6 5.9 6v1.6h-9.3c0 1.5 1.3 3.2 3.8 3.2 2.1 0 4.2-.8 4.2-.8l.7 2.1s-2.6 1-5.1 1c-5.9 0-6.3-5.2-6.3-6.6-.1-1.5.9-6.5 6.1-6.5zm3.3 5.3s.1-3-3.3-3c-3.1 0-3.5 3-3.5 3h6.8zM68.3 8.8c5.9 0 5.9 6 5.9 6v1.6h-9.3c0 1.5 1.3 3.2 3.8 3.2 2.1 0 4.2-.8 4.2-.8l.7 2.1s-2.6 1-5.1 1c-5.9 0-6.3-5.2-6.3-6.6-.1-1.5.9-6.5 6.1-6.5zm3.4 5.3s.1-3-3.3-3c-3.1 0-3.5 3-3.5 3h6.8zm7.8-2.7c.1-.2.6-2.4 2.8-2.4H86v2.7h-4.1c-1 0-2.2.9-2.2 2.3v7.6H77V9.1h2.5v2.3z" class="st1"/><g class="st2"><path d="M191.7 25.7h-4.4V1h4.4v1.2h-3v22.3h3v1.2zM204.7 20.1c-.5.6-1.8 2.2-5.2 2.2s-6.3-2.8-6.3-6.7c0-3.9 3-6.6 6.4-6.6 3.4 0 4.8 1.8 5 2.2l-.9 1c-.6-.6-1.7-1.9-4.2-1.9-2.6 0-4.8 2.1-4.8 5.2s2 5.5 4.9 5.5c2.9 0 4.3-1.9 4.3-1.9l.8 1zM212.9 10.6c-.3-.1-.7-.2-1.4-.2-1.2 0-2 .9-2.2 1.2s-.9 1.4-.9 3.6V22H207V9.2h1.4v2.4c.5-1.7 1.9-2.6 3.3-2.6.8 0 1.4.2 1.4.2l-.2 1.4zM220.7 22.3c-3.6 0-6.5-2.8-6.5-6.6 0-3.9 2.9-6.7 6.5-6.7 3.7 0 6.6 2.8 6.6 6.7 0 3.8-2.9 6.6-6.6 6.6zm0-12.1c-3.1 0-5 2.4-5 5.4 0 3 1.9 5.4 5 5.4s5-2.4 5-5.4c0-3-1.9-5.4-5-5.4zM240.4 22h-1.5v-7.6c0-2.1-.4-4.2-3.1-4.2s-4.1 2.4-4.1 5.4V22h-1.4V9.2h1.4v2.4c.6-1.5 2.3-2.6 4.1-2.6 3.7 0 4.5 2.3 4.5 5.4V22zM248 25.7h-4.4v-1.2h3V2.2h-3V1h4.4v24.7zM251.9 5.8c-.7 0-1.2-.5-1.2-1.2s.5-1.2 1.2-1.2 1.2.5 1.2 1.2-.6 1.2-1.2 1.2zm.7 16.2h-1.4V9.2h1.4V22zM267.3 20.1c-.5.6-1.8 2.2-5.2 2.2s-6.3-2.8-6.3-6.7c0-3.9 3-6.6 6.4-6.6 3.4 0 4.8 1.8 5 2.2l-.9 1c-.6-.6-1.7-1.9-4.2-1.9-2.6 0-4.8 2.1-4.8 5.2s2 5.5 4.9 5.5 4.3-1.9 4.3-1.9l.8 1zM271.1 22h-1.4V3h1.4v19zM286.2 15.9h-10.4c.1 3 1.8 5 4.7 5s4.5-1.7 4.5-1.7l.7 1s-1.6 1.9-5.3 1.9-6.1-2.8-6.1-6.7c0-3.9 2.8-6.6 6.2-6.6 3.4 0 5.8 2.5 5.8 6 0 .6-.1 1.1-.1 1.1zm-1.4-1.2c0-1.7-1.2-4.5-4.4-4.5s-4.5 2.7-4.6 4.5h9z" class="st3"/></g></svg>