<svg xmlns="http://www.w3.org/2000/svg" width="386" height="52" viewBox="0 0 386 52">
    <g fill="none" fill-rule="evenodd">
        <path stroke="#FFF" d="M1 1h384v50H1z"/>
        <g fill="#FFF">
            <path d="M62.4 25.371c.458.286 1.144.515 2 .686.858.229 1.773.286 2.687.286.915 0 1.715-.115 2.458-.343a6.887 6.887 0 0 0 1.944-.972c.514-.4.972-.914 1.257-1.542a4.74 4.74 0 0 0 .457-2.057c0-.915-.285-1.715-.8-2.458-.514-.685-1.429-1.257-2.686-1.657l-2.458-.8c-.915-.285-1.6-.628-1.943-.971a1.68 1.68 0 0 1-.515-1.257c0-.686.286-1.257.8-1.543.572-.343 1.315-.514 2.344-.514 1.257 0 2.343.228 3.372.685.286.115.515.229.686.229.286 0 .4-.172.4-.572v-.685c0-.229-.057-.457-.171-.572a1.343 1.343 0 0 0-.515-.457 2.242 2.242 0 0 0-.743-.285c-.285-.115-.629-.172-.972-.286-.343-.057-.742-.172-1.143-.172-.4-.114-.8-.114-1.2-.114-.8 0-1.486.114-2.172.286-.686.228-1.314.514-1.83.914A5.04 5.04 0 0 0 62.4 12.63c-.343.571-.456 1.2-.456 1.942 0 .915.285 1.772.856 2.515.572.8 1.487 1.371 2.802 1.771l2.514.8c.858.286 1.43.572 1.772.914.343.343.457.743.457 1.2 0 .686-.285 1.258-.914 1.658-.629.4-1.429.57-2.572.57a8.414 8.414 0 0 1-2.058-.228c-.686-.114-1.315-.342-1.943-.628-.172-.057-.343-.114-.458-.172-.114-.057-.228-.057-.343-.057-.285 0-.4.172-.4.572v.857c0 .171.057.343.115.514.172.229.343.343.628.514M34.85 20c0 .571-.057 1.086-.17 1.486-.115.4-.287.8-.572 1.085-.458.515-1.03.915-1.658 1.086a5.423 5.423 0 0 1-1.83.343c-.8 0-1.428-.229-1.828-.629-.4-.4-.629-1.028-.629-1.828 0-.857.286-1.543.857-2 .572-.457 1.43-.686 2.573-.686.514 0 1.086.057 1.657.114s1.086.172 1.6.286V20zm-2-3.086c-.629-.114-1.257-.114-1.829-.114-1.772 0-3.2.457-4.287 1.371-1.086.915-1.6 2.115-1.6 3.6 0 1.429.4 2.515 1.257 3.372.858.857 2 1.257 3.487 1.257 2.058 0 3.772-.8 5.144-2.4.172.4.343.743.514 1.028.172.286.4.572.63.8a.698.698 0 0 0 .513.229c.115 0 .286-.057.458-.171l1.086-.743c.229-.172.343-.343.343-.515 0-.114-.057-.228-.114-.4-.23-.457-.458-.857-.572-1.257-.114-.4-.172-.914-.172-1.543v-5.714c0-1.885-.457-3.314-1.428-4.285C35.308 10.457 33.82 10 31.707 10c-.972 0-1.886.114-2.744.343-.8.228-1.543.457-2.172.8-.228.114-.4.228-.457.343-.114.114-.114.343-.114.628v.857c0 .343.114.572.343.572.057 0 .171 0 .285-.057.115-.057.343-.115.629-.229.629-.228 1.258-.457 1.886-.571a7.102 7.102 0 0 1 1.887-.229c1.371 0 2.286.286 2.858.8.571.514.8 1.486.8 2.8v1.257a32.405 32.405 0 0 0-2.058-.4zM43.653 25.086c.114.342.229.571.343.685.114.115.343.172.686.172h1.486c.343 0 .572-.057.686-.172.114-.114.228-.343.343-.685l2.686-11.257 2.743 11.257c.058.342.172.571.343.685.115.115.4.172.686.172h1.487c.285 0 .514-.057.685-.172.115-.114.286-.343.343-.685L60.4 11.6c.057-.171.115-.343.115-.4 0-.114.056-.171.056-.286 0-.285-.114-.4-.4-.4h-1.6c-.343 0-.571.057-.686.172-.114.114-.228.343-.343.685l-3.029 11.715-2.801-11.772c-.057-.343-.172-.571-.343-.685-.114-.115-.4-.172-.685-.172h-1.43c-.343 0-.571.057-.686.172-.114.114-.228.342-.343.685l-2.743 11.543-2.915-11.543c-.114-.343-.229-.571-.343-.685-.114-.115-.343-.172-.686-.172h-1.715c-.286 0-.4.114-.4.4 0 .114.057.343.172.686l4.058 13.543zM69.545 33.543C63.143 36.286 56.113 37.6 49.77 37.6c-9.431 0-18.576-2.572-25.95-6.914-.629-.4-1.143.285-.571.8 6.858 6.17 15.89 9.885 25.949 9.885 7.145 0 15.49-2.228 21.263-6.514.857-.686.057-1.714-.915-1.314"/>
            <path d="M65.944 31.143c-.514.343-.4.857.114.8 1.83-.229 6.002-.743 6.688.228.743.915-.8 4.8-1.486 6.572-.229.514.229.743.743.343 3.086-2.572 3.886-8 3.258-8.743-.629-.857-6.059-1.486-9.317.8"/>
        </g>
        <text fill="#FFF" font-family="SoleilBk, Soleil" font-size="18" font-weight="300" letter-spacing="-.281" transform="translate(1 1)">
            <tspan x="97" y="29">Advanced Technology Partner</tspan>
        </text>
    </g>
</svg>
