<svg xmlns="http://www.w3.org/2000/svg" width="39" height="39" viewBox="0 0 39 39"><g fill="none" fill-rule="evenodd"><path fill="#8C8C8C" d="M0 0h39v39H0z"/><g fill="#FFF"><g transform="translate(4 15)"><path d="M5 7.368a5 5 0 0 1 5 5V14H0v-1.632a5 5 0 0 1 5-5z"/><ellipse cx="5" cy="3.316" rx="3.462" ry="3.316"/></g><g transform="translate(26 15)"><path d="M5 7.368a5 5 0 0 1 5 5V14H0v-1.632a5 5 0 0 1 5-5z"/><ellipse cx="5" cy="3.316" rx="3.462" ry="3.316"/></g><g transform="translate(13 10)"><path stroke="#8C8C8C" stroke-width="2" d="M6.5 9a7.5 7.5 0 0 1 7.5 7.5V20H-1v-3.5A7.5 7.5 0 0 1 6.5 9z"/><circle cx="6.5" cy="4.5" r="4.5"/></g></g></g></svg>