<svg xmlns="http://www.w3.org/2000/svg" width="75" height="92" viewBox="0 0 75 92"><g fill="none" fill-rule="evenodd" stroke="#FD5750" stroke-width="2"><path d="M58.346 73.715a35.003 35.003 0 0 1-21.19 7.1 35.11 35.11 0 0 1-9.48-1.297l9.219-8.382h.003c.217.003.436.003.656-.003.075 0 .149-.003.223-.006.158-.003.318-.006.479-.015.125-.006.249-.012.374-.02.039 0 .077-.004.116-.007.024 0 .047 0 .068-.003.015-.003.027-.003.039-.003.015 0 .03-.003.044-.003.072-.006.143-.009.215-.017.083-.006.169-.012.252-.02.098-.007.193-.016.29-.028h.01c.072-.009.14-.012.21-.024l.03-.003a8.227 8.227 0 0 0 .437-.05l.093-.012A25.317 25.317 0 0 0 51.41 66.78l6.936 6.935zM11.681 46.184v-.003a25.381 25.381 0 0 1 4.356-14.774 25.544 25.544 0 0 1 6.864-6.876l-6.932-6.933A34.998 34.998 0 0 1 37.156 10.5a35.005 35.005 0 0 1 14.961 3.334m-36.76 45.021c.009.015.018.033.03.047a34.416 34.416 0 0 0 .332.535c.096.146.19.292.289.437.246.366.502.722.764 1.076.1.134.205.267.306.398.006.003.006.006.008.009.104.134.21.267.318.398.02.027.045.054.069.083.024.03.047.06.074.09.062.074.125.15.19.225l.146.17c.009.009.017.02.027.029a27.046 27.046 0 0 0 .606.674l.006.01c.002 0 .008.006.012.009.017.02.035.038.053.056a24.16 24.16 0 0 0 1.346 1.331c.113.1.223.203.339.3.065.06.134.119.202.179a22.232 22.232 0 0 0 .517.437c.018.015.039.029.056.044.063.05.125.1.187.152.04.032.08.062.12.095.04.029.083.062.124.095.03.024.06.05.092.07.012.013.027.022.039.03.03.028.057.049.086.072a.53.53 0 0 0 .066.048c.05.04.1.077.154.116.068.05.137.104.205.15.036.03.074.058.113.082.044.035.092.068.14.1a.85.85 0 0 0 .068.05"/><path d="M36.895 71.136h.002a16.021 16.021 0 0 0 .88-.009c.157-.003.317-.006.478-.015.125-.006.25-.012.374-.02.04 0 .078-.004.117-.007.023 0 .046 0 .067-.003.003 0 .006 0 .01-.003h.03l.044-.003c.072-.005.144-.008.215-.017.082-.006.169-.012.252-.02.098-.007.193-.016.29-.028h.01c.072-.009.14-.012.21-.024l.03-.003a7.052 7.052 0 0 0 .437-.05l.093-.012A25.328 25.328 0 0 0 51.41 66.78a25.374 25.374 0 0 0 6.864-6.876l6.94 6.941a35 35 0 0 0 7.1-21.19c0-9.464-3.739-18.055-9.825-24.375M11.681 46.184v-.003a25.381 25.381 0 0 1 4.356-14.774 25.544 25.544 0 0 1 6.864-6.876 25.353 25.353 0 0 1 9.777-3.955 25.41 25.41 0 0 1 10.587.338"/><path d="M15.357 58.855c.009.015.018.033.03.048.098.16.196.32.297.478a.616.616 0 0 1 .035.057c.096.145.19.29.289.436.246.366.502.722.764 1.076.1.134.205.268.306.398.006.003.006.006.008.009.104.134.21.268.318.398.02.027.045.054.069.083.024.03.047.06.074.09l.19.226.146.169.027.03a32.975 32.975 0 0 0 .606.674l.006.009c.02.02.04.045.062.065h.003c.24.259.49.512.743.76.08.078.163.159.244.233.118.116.237.226.359.339.113.1.223.202.339.3a22.248 22.248 0 0 0 .719.615l.056.044c.063.05.125.1.187.152.04.033.08.062.12.095.04.03.083.062.124.095.03.024.06.05.092.07.012.013.027.022.039.03.05.04.1.082.152.12.05.042.1.077.154.116.068.05.137.104.205.15.036.03.074.058.113.082.044.035.092.068.14.1a.85.85 0 0 0 .068.05l-4.538 8.625A35.327 35.327 0 0 1 5.108 60.136s-.757-1.817-.844-2.047A35.002 35.002 0 0 1 2 45.656a34.998 34.998 0 0 1 7.099-21.187l6.939 6.938a25.383 25.383 0 0 0-4.357 14.775v.003m45.402-16.409a25.092 25.092 0 0 1 3.432 5.696c.187.425.36.856.523 1.293a25.538 25.538 0 0 1 1.2 4.413 25.406 25.406 0 0 1-3.964 18.726 25.345 25.345 0 0 1-6.864 6.876"/><path d="M5.108 60.135l10.25-1.28 11.861-1.483h.003M4.53 58.769v-6.864l7.154-5.725 31.583-25.264 8.836-7.07.012-.011L66.81 2.08v12.407l-4.322 6.79-.012.026-5.398 8.473-4.02 6.319"/><path d="M60.515 35.472l-7.452.621-8.341.695 7.455-11.713 5.203-8.178 9.432-14.819m-4.265 45.738l-25.65 23.32h-.003l-9.218 8.383h-.003l-10.685 9.717V76.815l.915-1.738 4.538-8.624 4.778-9.081h.003l4.677-8.89-19.665 2.457-7.703.963"/><path d="M61.038 36.765L26.046 68.58h-.003l-7.554 6.87-1.5 1.364"/></g></svg>