<svg xmlns="http://www.w3.org/2000/svg" width="237" height="239" viewBox="0 0 237 239">
    <g fill="none" fill-rule="evenodd" stroke="#FD5750" stroke-width="2">
        <path d="M50.518 121.603l-18.845 15.165V155C27.365 144.248 25 132.504 25 120.2c0-21.101 6.963-40.57 18.711-56.2L62 82.405c-7.59 11.31-11.795 24.923-11.482 39.19v.008zM78.818 175.007c.055.048.12.095.182.135L66.958 198C52.195 188.336 40.35 174.598 33 158.396L60.2 155c.023.04.047.087.078.126.26.426.52.852.789 1.269.03.047.063.094.095.15.252.385.504.771.764 1.158a80.405 80.405 0 0 0 2.027 2.85c.268.355.544.71.812 1.057.016.006.016.015.024.024.276.353.56.708.844 1.055.055.07.118.14.181.22.063.079.126.157.198.236.165.197.33.402.504.599.127.15.26.299.387.448.023.025.047.056.07.08.19.22.379.433.568.645.347.386.694.765 1.041 1.142.008.009.008.009.016.024.055.055.11.118.166.174h.007c.64.685 1.301 1.354 1.972 2.016.213.205.434.418.647.615.315.307.63.598.954.897.3.268.591.536.899.796a70.918 70.918 0 0 0 1.649 1.418c.086.063.172.133.26.212.046.04.102.08.149.119l.497.401c.102.086.213.165.316.252.11.08.22.165.33.252.08.063.159.134.246.19.03.031.07.054.102.079.134.102.268.212.402.314.134.11.268.205.41.307.181.134.363.276.544.402.094.079.197.15.3.213.118.095.244.181.37.267zM175 194.284C159.245 206.035 139.62 213 118.344 213c-8.787 0-17.28-1.19-25.344-3.416l24.645-22.1h.008c.58.009 1.168.009 1.756-.008.199 0 .397-.007.596-.015.421-.009.85-.016 1.28-.04.333-.016.667-.031 1-.054.103 0 .206-.008.31-.016.064 0 .127 0 .183-.008.04-.008.072-.008.103-.008.04 0 .08-.007.12-.007.19-.016.381-.023.571-.047.223-.016.454-.032.676-.055.261-.016.516-.04.778-.07h.024c.19-.024.374-.032.564-.064.024 0 .056-.007.08-.007.055 0 .102-.008.15-.016.342-.031.676-.07 1.018-.118.08-.007.166-.023.246-.03a65.243 65.243 0 0 0 3.217-.486c9.67-1.7 18.489-5.336 26.131-10.435L175 194.284z"/>
        <path d="M51.017 121v-.008C50.7 106.673 54.96 93.012 62.65 81.66a68.06 68.06 0 0 1 18.33-18.306L62.467 44.9C78.202 33.033 97.803 26 119.047 26c14.29 0 27.828 3.18 39.953 8.876M60 155c.023.04.048.086.08.126.263.421.525.844.797 1.259.031.047.063.093.096.148.255.384.51.766.772 1.15a78.996 78.996 0 0 0 2.049 2.83c.27.353.55.705.82 1.05.016.007.016.015.025.023.278.352.565.704.852 1.048.056.07.12.14.184.22.063.077.127.155.198.233.168.196.335.4.51.595.128.149.263.297.391.446.024.023.048.054.072.077.191.22.383.43.574.643.35.383.701.758 1.052 1.133.007.008.007.008.015.023.008 0 .025.017.033.024.047.055.095.102.143.149.646.68 1.315 1.346 1.992 2.002.215.203.439.415.654.61.319.305.637.595.964.892.303.266.598.532.909.79.174.157.358.313.542.47.366.312.74.625 1.124.937.087.064.174.134.262.212.048.04.104.079.152.117l.502.4c.103.085.215.164.319.249.111.079.223.165.334.251.08.062.16.132.247.187.032.032.072.056.104.079.08.07.15.125.231.187.056.047.111.087.176.126.135.11.27.203.414.305.183.133.366.274.55.398.095.078.199.149.302.212.12.093.247.18.375.266.056.047.12.094.184.133M118 186.995h.008c.576.008 1.16.008 1.743-.008.197 0 .394-.008.591-.016.418-.008.844-.016 1.27-.039.331-.016.662-.032.993-.056.103 0 .205-.007.308-.015.063 0 .126 0 .181-.008.008 0 .016 0 .025-.007h.078c.04 0 .079-.01.118-.01.19-.015.378-.022.568-.045.221-.017.45-.032.67-.056.26-.016.513-.04.774-.07h.023c.19-.025.37-.032.56-.063.023 0 .055-.01.078-.01a.893.893 0 0 0 .15-.014c.34-.031.67-.07 1.01-.118.078-.008.165-.024.244-.032a64.06 64.06 0 0 0 3.194-.488c9.597-1.707 18.35-5.357 25.937-10.478a67.223 67.223 0 0 0 18.216-18.206l18.422 18.378c11.828-15.6 18.839-35.032 18.839-56.1 0-25.057-9.92-47.8-26.07-64.534"/>
        <path d="M51.016 121v-.008c-.315-14.269 3.927-27.883 11.584-39.194a67.795 67.795 0 0 1 18.252-18.242c7.602-5.124 16.38-8.782 25.996-10.492 9.663-1.719 19.208-1.31 28.152.899M171.156 78a66.272 66.272 0 0 1 9.17 15.086c.5 1.126.96 2.267 1.398 3.424a67.288 67.288 0 0 1 3.207 11.685 66.772 66.772 0 0 1 .826 17.581c-.985 11.632-5.01 22.618-11.417 32.014A67.447 67.447 0 0 1 156 176M33 158l27.343-3.245L91.993 151H92"/>
        <path d="M161.354 94.592l10.716-16.825 14.415-22.626L198 37.057V4l-39.165 31.308-23.595 18.86-84.184 67.293v.008L32 136.696V155"/>
        <path d="M181.182 92.511l-19.905 1.647L139 96l19.912-31.047 13.897-21.675L198 4M186 126l-68.087 61.933h-.007l-24.468 22.262h-.009L65.066 236v-32.986l2.429-4.616 12.044-22.902 12.684-24.116h.008l12.415-23.612-52.201 6.526L32 136.852"/>
        <path d="M182 96l-92.943 84.207h-.008L68.986 198.39 65 202"/>
    </g>
</svg>
