<svg xmlns="http://www.w3.org/2000/svg" xmlns:xlink="http://www.w3.org/1999/xlink" width="416" height="150" viewBox="0 0 416 150"><defs><path id="a" d="M0 .228h71.887v112.14H0z"/><path id="c" d="M0 149.483h416v-148H0z"/></defs><g fill="none" fill-rule="evenodd"><path fill="#FFF" d="M82.338 140.531l-.027-1.107-1.278.002v5.907h1.382l.006-3.597c0-.665.606-1.073 1.122-1.073h2.09v-1.275h-1.886c-1.1 0-1.382 1.043-1.41 1.143zm-5.639-.127c-1.576 0-1.76 1.4-1.76 1.4h3.443s.06-1.4-1.683-1.4zm2.962 1.709v.758h-4.706c0 .72.67 1.495 1.91 1.495 1.036 0 2.11-.394 2.11-.394l.343 1.014s-1.32.496-2.564.496c-2.963 0-3.184-2.476-3.184-3.146 0-.67.5-3.056 3.13-3.056 2.961 0 2.961 2.833 2.961 2.833zm16.918-1.71c-1.577 0-1.76 1.4-1.76 1.4h3.442s.06-1.4-1.682-1.4zm2.961 1.71v.758h-4.706c0 .72.67 1.495 1.91 1.495 1.036 0 2.11-.394 2.11-.394l.343 1.014s-1.32.496-2.564.496c-2.962 0-3.183-2.476-3.183-3.146 0-.67.5-3.056 3.128-3.056 2.962 0 2.962 2.833 2.962 2.833zm15.037-1.71c-1.576 0-1.76 1.4-1.76 1.4h3.443s.06-1.4-1.683-1.4zm2.962 1.71v.758h-4.706c0 .72.669 1.495 1.909 1.495 1.036 0 2.11-.394 2.11-.394l.344 1.014s-1.321.496-2.564.496c-2.963 0-3.184-2.476-3.184-3.146 0-.67.5-3.056 3.13-3.056 2.96 0 2.96 2.833 2.96 2.833zm-47.63-.368c-1.273-.141-1.468-.267-1.477-.627a.38.38 0 0 1 .125-.313c.2-.187.64-.296 1.119-.28a9.892 9.892 0 0 1 2.155.33l.391-1.18a11.146 11.146 0 0 0-2.5-.386c-.863-.029-1.624.204-2.09.636a1.568 1.568 0 0 0-.515 1.22c.038 1.54 1.603 1.712 2.638 1.828 1.163.128 1.492.237 1.512.58.015.258.002.869-1.647.752-1.101-.078-2.031-.548-2.04-.552l-.58 1.109c.05.023 1.247.57 2.64.616.714.023 1.738-.017 2.382-.634.25-.24.54-.669.501-1.356-.081-1.463-1.605-1.632-2.615-1.743zm61.087 1.743c-.081-1.463-1.605-1.632-2.615-1.743-1.272-.141-1.476-.267-1.476-.627 0-.293.243-.594 1.245-.594 1.135 0 2.144.328 2.154.33l.391-1.18a11.146 11.146 0 0 0-2.5-.385c-.862-.029-1.624.204-2.09.636a1.568 1.568 0 0 0-.515 1.22c.038 1.54 1.603 1.712 2.638 1.828 1.163.128 1.492.237 1.513.58.014.258 0 .869-1.648.752a7.87 7.87 0 0 1-2.084-.467l-.536 1.024c.05.023 1.247.57 2.64.616.714.023 1.738-.017 2.382-.634.25-.24.54-.669.501-1.356zm-9.34-1.743c-1.272-.141-1.466-.267-1.475-.627a.38.38 0 0 1 .124-.313c.2-.187.64-.296 1.12-.28a9.88 9.88 0 0 1 2.155.33l.39-1.18a11.146 11.146 0 0 0-2.5-.386c-.862-.029-1.624.204-2.09.636a1.568 1.568 0 0 0-.514 1.22c.037 1.54 1.602 1.712 2.637 1.828 1.164.128 1.493.237 1.513.58.014.258.001.869-1.648.752-1.1-.078-2.031-.548-2.04-.552l-.58 1.109c.05.023 1.248.57 2.641.616.713.023 1.737-.017 2.382-.634.25-.24.54-.669.5-1.356-.08-1.463-1.605-1.632-2.614-1.743zm-19.388-1.214l-.027-1.107-1.278.002v5.907h1.382l.006-3.597c0-.665.606-1.073 1.123-1.073h2.09v-1.275h-1.887c-1.099 0-1.382 1.043-1.41 1.143zm6.427-4.048h-2.681v1.065h1.338v7.785h3.239v-1.145h-1.896v-7.705zm-18.93 7.574l-1.492-4.616h-1.425l2.041 5.892h1.708l2.164-5.888c-.44 0-.894-.004-1.373-.004l-1.624 4.616z"/><path fill="#FD5750" d="M47.635 148.483H61v-3.124H48.678l-1.043 3.124zm1.981-5.939H61v-3.123H50.658l-1.042 3.123zm3.023-9.061l-1.042 3.123H61v-3.123h-8.361zm-3.315 0H42v3.123h6.282l1.042-3.123zm-1.98 5.938H42v3.123h4.302l1.041-3.123zm-3.023 9.062H42v-3.124h3.362l-1.041 3.124z"/><path fill="#FFF" d="M24.172 142.144c0 1.105.575 2.044 1.748 2.044 1.264 0 1.747-.838 1.747-2.044 0-.99-.437-1.992-1.656-1.992-1.287 0-1.839 1.079-1.839 1.992m.047 2.361l-.047.864H23v-8.886h1.172v3.415s.621-.952 1.863-.952c2.207 0 2.965 1.548 2.965 3.147 0 1.714-.885 3.39-2.954 3.39-1.195 0-1.827-.978-1.827-.978m10.445-6.022H36l-2.78 9h-2.517v-1.376l1.6.012.226-.72L30 138.484h1.432l1.73 5.117z"/><g transform="translate(0 .483)"><mask id="b" fill="#fff"><use xlink:href="#a"/></mask><path fill="#FFF" d="M38.79 95.547h33.097v16.82h-50.29v-97.4H0V.228h38.79z" mask="url(#b)"/></g><path fill="#FFF" d="M113.353 47.376c-20.983 0-22.92 17.5-22.92 17.5h43.259s1.13-17.5-20.339-17.5m36.642 22.476v9.312H90.272c0 9.792 8.231 20.067 24.534 20.067 12.752 0 26.633-5.458 26.633-5.458l4.197 14.288s-15.656 6.422-31.475 6.422C77.197 114.483 73 83.499 73 72.74c0-11.398 6.133-41.258 40.353-41.258 37.933 0 36.642 38.369 36.642 38.369m61.988 18.377V76.487s-10.252-.162-25.628-.162c-10.891 0-14.896 4.022-14.896 9.973 0 6.596 5.126 12.064 16.017 12.064 16.017 0 24.507-10.134 24.507-10.134zm.64 24.289l-1.12-11.1s-8.01 12.066-26.108 12.066C163.45 113.483 154 98.362 154 86.298c0-11.903 10.41-24.288 29.152-24.288 14.415 0 25.788-.16 28.35-.16 0 0 1.602-15.282-16.338-15.282-15.056 0-28.67 4.503-28.67 4.503l-4.805-15.602s19.7-4.986 31.393-4.986C214.386 30.483 228 41.582 228 66.03v46.486h-15.377zm61.581-80.034H300v16.8h-28.229c-7.3 0-14.6 7.52-14.6 13.12v50.08H239v-80h15.898l.974 15.52c0-2.4 3.731-15.52 18.332-15.52M382 68.269v45.214h-16.578c-.158-18.312 0-39.055 0-46.024 0-10.21-1.895-19.77-16.895-19.77-12.316 0-21.474 11.506-21.474 25.119v40.675H310V32.456h15.79l.947 13.288s6.948-14.261 24.947-14.261c21.632 0 30.316 10.534 30.316 36.786"/><mask id="d" fill="#fff"><use xlink:href="#c"/></mask><path fill="#FD5750" d="M394 113.483h21v-21h-21z" mask="url(#d)"/></g></svg>