<svg xmlns="http://www.w3.org/2000/svg" width="170" height="161" viewBox="0 0 170 161">
    <g fill="none" fill-rule="evenodd">
        <g opacity=".503">
            <path stroke="#DCDCDC" d="M3.091 160.277H166.91V2.712H3.09z"/>
            <path stroke="#E0E0E0" d="M2.743 160.277h164.514V2.364H2.743z"/>
            <path stroke="#E8E8E8" d="M2.394 160.277h165.212V2.017H2.394z"/>
            <path stroke="#F4F4F4" d="M2.046 160.277h165.908V1.668H2.046z"/>
            <path stroke="#FFF" d="M1.697 160.277h166.606V1.321H1.697v158.956zm-.348 0H168.65V.973H1.35v159.304zm-.349 0h168V.625H1v159.652z"/>
        </g>
        <path stroke="#DCDCDC" d="M3.091 158.19H166.91"/>
        <path stroke="#DDD" d="M3.091 158.538H166.91"/>
        <path stroke="#DFDFDF" d="M3.091 158.886H166.91"/>
        <path stroke="#E2E2E2" d="M3.091 159.234H166.91"/>
        <path stroke="#E6E6E6" d="M3.091 159.582H166.91"/>
        <path stroke="#EBEBEB" d="M3.091 159.93H166.91"/>
        <path stroke="#F1F1F1" d="M3.091 160.277H166.91"/>
        <path fill="#242F3D" d="M3.091 5.147H166.91V.625H3.09z"/>
        <path fill="#FFF" d="M3.091 157.842H166.91V5.147H3.09z"/>
        <path fill="#252F3E" d="M52.446 36.879c.39.243.976.438 1.708.584.731.195 1.512.244 2.293.244.78 0 1.464-.098 2.098-.292a5.877 5.877 0 0 0 1.66-.828c.438-.341.829-.78 1.073-1.315.244-.536.39-1.071.39-1.753 0-.78-.244-1.461-.683-2.094-.44-.584-1.22-1.071-2.293-1.412l-2.099-.682c-.78-.243-1.366-.536-1.659-.828a1.43 1.43 0 0 1-.439-1.071c0-.584.244-1.071.683-1.315.488-.292 1.123-.438 2-.438 1.074 0 2.002.195 2.88.584.244.098.44.195.585.195.244 0 .342-.146.342-.487v-.584c0-.195-.049-.39-.146-.487a1.151 1.151 0 0 0-.44-.39 1.916 1.916 0 0 0-.634-.243c-.244-.098-.537-.146-.83-.244-.292-.048-.634-.146-.975-.146-.342-.097-.683-.097-1.025-.097-.683 0-1.269.097-1.854.243-.586.195-1.123.439-1.562.78-.439.34-.78.73-1.073 1.217-.293.487-.39 1.022-.39 1.655 0 .78.243 1.51.731 2.143.488.682 1.269 1.169 2.391 1.51l2.147.681c.732.244 1.22.487 1.513.78.293.292.39.633.39 1.022 0 .584-.244 1.071-.78 1.412-.537.341-1.22.487-2.196.487a7.198 7.198 0 0 1-1.757-.195c-.585-.097-1.122-.292-1.659-.535a3.366 3.366 0 0 1-.39-.146c-.098-.049-.196-.049-.293-.049-.244 0-.342.146-.342.487v.73c0 .146.05.293.098.439.146.194.293.292.537.438M27.218 29.672c-.537-.097-1.074-.097-1.562-.097-1.512 0-2.732.39-3.66 1.168-.927.78-1.366 1.802-1.366 3.068 0 1.217.342 2.143 1.074 2.873.732.73 1.708 1.071 2.976 1.071 1.757 0 3.22-.681 4.392-2.045.146.341.293.633.44.877.146.243.34.487.536.681a.597.597 0 0 0 .44.195.78.78 0 0 0 .39-.146l.927-.633c.195-.146.292-.292.292-.438 0-.098-.048-.195-.097-.341-.195-.39-.39-.73-.488-1.071-.098-.341-.147-.78-.147-1.315v-4.87c0-1.607-.39-2.824-1.22-3.652-.829-.828-2.098-1.217-3.903-1.217-.83 0-1.61.097-2.342.292-.684.195-1.318.39-1.855.682-.195.097-.341.194-.39.292-.098.097-.098.292-.098.536v.73c0 .292.098.487.293.487.049 0 .147 0 .244-.049.098-.048.293-.097.537-.195.537-.194 1.073-.39 1.61-.487a6.074 6.074 0 0 1 1.61-.194c1.172 0 1.952.243 2.44.681.488.439.683 1.267.683 2.387v1.07a27.709 27.709 0 0 0-1.756-.34zm1.708 2.63c0 .486-.05.925-.147 1.266-.097.34-.244.681-.488.925-.39.438-.878.779-1.415.925a4.637 4.637 0 0 1-1.561.292c-.683 0-1.22-.195-1.562-.535-.341-.341-.537-.877-.537-1.559 0-.73.244-1.314.732-1.704.488-.39 1.22-.584 2.196-.584.44 0 .927.048 1.415.097s.927.146 1.367.243v.634zM36.44 36.635c.098.293.196.487.293.585.098.097.293.146.586.146h1.268c.293 0 .488-.049.586-.146.098-.098.195-.292.293-.585l2.293-9.593 2.342 9.593c.05.293.147.487.293.585.098.097.342.146.586.146h1.268c.244 0 .44-.049.586-.146a1.08 1.08 0 0 0 .293-.585l3.61-11.492c.05-.146.098-.292.098-.34 0-.098.05-.147.05-.244 0-.244-.098-.341-.342-.341h-1.367c-.293 0-.488.049-.585.146-.098.098-.195.292-.293.584l-2.586 9.983L43.32 24.9c-.05-.292-.147-.487-.293-.585-.098-.097-.342-.146-.586-.146h-1.22c-.292 0-.488.049-.585.146-.098.098-.195.293-.293.585l-2.342 9.836-2.489-9.836c-.097-.292-.195-.487-.293-.585-.097-.097-.292-.146-.585-.146H33.17c-.244 0-.342.098-.342.341 0 .098.05.292.147.585l3.464 11.54"/>
        <path fill="#F90" d="M58.545 43.842C53.08 46.18 47.078 47.3 41.662 47.3c-8.052 0-15.86-2.192-22.154-5.892-.537-.341-.976.243-.488.681 5.856 5.26 13.565 8.425 22.154 8.425 6.1 0 13.224-1.9 18.152-5.552.732-.584.049-1.46-.78-1.12"/>
        <path fill="#F90" d="M55.471 41.797c-.44.292-.342.73.098.682 1.561-.195 5.123-.633 5.709.195.634.779-.683 4.09-1.269 5.6-.195.438.195.633.634.292 2.636-2.191 3.319-6.818 2.782-7.45-.537-.731-5.173-1.267-7.954.681"/>
        <path fill="#252F3E" d="M75.185 34.298c-.098 0-.195-.049-.195-.195v-8.035c0-.097.049-.194.195-.194h.244c.146 0 .195.048.195.194l.049.487c.341-.292.732-.487 1.073-.633.342-.146.684-.194 1.074-.194.78 0 1.366.292 1.805.827.44.536.684 1.315.684 2.24 0 .974-.244 1.753-.684 2.338-.488.584-1.073.876-1.903.876-.732 0-1.366-.292-2-.827v2.921c0 .098-.05.195-.196.195h-.341zm2.44-2.922c.634 0 1.122-.194 1.464-.633.341-.438.488-1.071.488-1.899 0-1.656-.635-2.483-1.903-2.483-.635 0-1.318.243-1.952.779v3.457c.341.292.634.487.927.633.293.049.634.146.976.146zM83.188 31.96c-.537 0-.976-.145-1.318-.486-.342-.292-.488-.73-.488-1.266 0-.585.195-1.023.586-1.364.39-.34.927-.487 1.61-.487.537 0 1.073.098 1.708.292v-.974c0-.487-.098-.827-.342-1.022-.244-.195-.585-.292-1.122-.292-.537 0-1.122.097-1.708.292-.049 0-.146.049-.195.049-.098 0-.098-.05-.098-.147v-.243c0-.049 0-.097.049-.146l.098-.098a5.421 5.421 0 0 1 2-.39c.683 0 1.22.147 1.562.44.341.291.488.73.488 1.314v4.188c0 .097-.049.195-.195.195h-.244c-.098 0-.196-.05-.196-.195l-.048-.487c-.684.584-1.415.828-2.147.828zm.097-.584c.293 0 .635-.048.976-.194a7.331 7.331 0 0 0 1.074-.536v-1.461a5.72 5.72 0 0 0-1.562-.195c-1.122 0-1.659.438-1.659 1.266 0 .341.098.633.293.828.195.195.488.292.878.292zM88.018 31.863c-.097 0-.195-.048-.195-.195v-5.6c0-.097.049-.194.195-.194h.244c.147 0 .196.048.196.194l.048.682c.293-.34.586-.584.879-.682.293-.146.634-.194.976-.194h.292c.098 0 .196.048.196.194v.293c0 .048 0 .048-.05.097 0 .049-.048.049-.097.049h-.439c-.342 0-.683.048-.976.195-.293.146-.537.34-.83.633v4.333c0 .098-.048.195-.195.195h-.244M93.972 31.912c-.488 0-.83-.146-1.074-.39-.244-.243-.39-.584-.39-1.07v-3.945h-.927c-.098 0-.196-.049-.196-.195v-.097c0-.05 0-.098.05-.147 0-.048.048-.048.146-.048l.976-.098.097-1.558c0-.049.049-.097.049-.146.049-.049.049-.049.146-.049h.195c.098 0 .196.049.196.195v1.558h1.708c.097 0 .195.05.195.195v.244c0 .097-.05.194-.195.194H93.24V30.5c0 .34.048.535.195.682.146.146.39.194.683.194.244 0 .44 0 .586-.048.097 0 .146-.05.195-.05h.097c.098 0 .147.05.147.147v.195c0 .146-.05.195-.147.243-.292 0-.634.049-1.024.049M96.607 31.863c-.098 0-.196-.048-.196-.195v-5.6c0-.097.05-.194.196-.194h.244c.146 0 .195.048.195.194l.049.487c.39-.292.78-.487 1.22-.633.439-.146.83-.243 1.22-.243.585 0 1.024.146 1.317.438.293.292.44.73.44 1.364v4.139c0 .097-.05.195-.196.195h-.342c-.097 0-.195-.05-.195-.195v-3.798c0-.536-.097-.877-.293-1.12-.195-.244-.536-.341-.927-.341-.78 0-1.561.243-2.293.779v4.577c0 .098-.049.195-.195.195h-.244M105.683 32.01c-.927 0-1.66-.244-2.098-.78-.488-.535-.732-1.315-.732-2.386 0-.974.244-1.753.732-2.289.488-.535 1.17-.827 2-.827.732 0 1.269.194 1.66.633.39.39.585.974.585 1.753 0 .292 0 .535-.049.73 0 .098-.098.195-.195.195h-4.001c0 .828.195 1.46.536 1.85.342.39.927.585 1.66.585.585 0 1.122-.098 1.61-.292.097-.05.195-.05.195-.05.049 0 .049 0 .097.05 0 .048.05.048.05.097v.195c0 .146-.05.194-.147.243-.634.146-1.22.292-1.903.292zm1.464-3.555v-.39c0-.584-.147-.974-.39-1.266-.293-.292-.684-.438-1.22-.438-1.27 0-1.904.681-2.001 2.094h3.61zM109.44 31.863c-.097 0-.195-.048-.195-.195v-5.6c0-.097.049-.194.195-.194h.244c.147 0 .195.048.195.194l.05.682c.292-.34.585-.584.877-.682.293-.146.635-.194.976-.194h.293c.098 0 .195.048.195.194v.293c0 .048 0 .048-.048.097 0 .049-.05.049-.098.049h-.439c-.342 0-.683.048-.976.195-.293.146-.537.34-.83.633v4.333c0 .098-.048.195-.195.195h-.244M75.185 44.962c-.098 0-.195-.048-.195-.194v-5.552c0-.097.049-.194.195-.194h.244c.146 0 .195.048.195.194l.049.487c.39-.292.78-.487 1.22-.633.439-.146.83-.243 1.22-.243.585 0 1.024.146 1.317.438.293.292.44.73.44 1.363v4.14c0 .097-.05.194-.196.194h-.341c-.098 0-.196-.048-.196-.194V40.92c0-.536-.097-.877-.292-1.12-.196-.244-.537-.341-.927-.341-.781 0-1.562.243-2.294.779v4.577c0 .098-.049.195-.195.195h-.244M84.261 45.157c-.927 0-1.659-.243-2.098-.779-.488-.536-.732-1.315-.732-2.386 0-.974.244-1.753.732-2.289.488-.535 1.17-.828 2-.828.732 0 1.27.195 1.66.633.39.39.585.974.585 1.754 0 .292 0 .535-.049.73 0 .097-.097.195-.195.195h-4.001c0 .828.195 1.46.537 1.85.341.39.927.585 1.659.585.585 0 1.122-.098 1.61-.293.098-.048.195-.048.195-.048.049 0 .049 0 .098.048 0 .049.049.049.049.098v.195c0 .146-.05.194-.147.243-.585.146-1.22.292-1.903.292zm1.464-3.603v-.39c0-.584-.146-.974-.39-1.266-.293-.292-.684-.438-1.22-.438-1.269 0-1.903.682-2.001 2.094h3.611zM89.726 45.06c-.488 0-.83-.146-1.073-.39-.244-.243-.39-.584-.39-1.071v-3.993h-.928c-.097 0-.195-.049-.195-.195v-.097c0-.049 0-.098.049-.146 0-.05.049-.05.146-.05l.976-.096.098-1.559c0-.048.049-.097.049-.146.048-.049.048-.049.146-.049h.195c.098 0 .195.05.195.195v1.559h1.708c.098 0 .195.048.195.194v.244c0 .097-.048.195-.195.195h-1.708v3.944c0 .34.05.536.196.682.146.146.39.194.683.194.244 0 .439 0 .585-.048.098 0 .147-.049.195-.049h.098c.098 0 .146.049.146.146v.195c0 .146-.048.195-.146.243a6.103 6.103 0 0 1-1.025.098M93.581 44.962a.268.268 0 0 1-.244-.146l-1.854-5.502c-.049-.098-.049-.146-.049-.195 0-.049.049-.097.147-.097h.39c.098 0 .146.048.195.146l1.61 5.015 1.416-5.015c.048-.098.097-.146.244-.146h.439c.097 0 .195.048.244.146l1.415 5.015 1.659-5.064c.049-.097.097-.146.195-.146h.342c.097 0 .146.049.146.097 0 .049 0 .098-.049.195l-1.952 5.503c-.048.097-.097.146-.244.146h-.39a.268.268 0 0 1-.244-.146l-1.415-5.016-1.415 5.016c-.049.097-.098.146-.244.146h-.342M103.39 45.157c-.879 0-1.562-.292-2.05-.828-.488-.535-.732-1.314-.732-2.337 0-.974.244-1.753.732-2.337.488-.536 1.171-.828 2.05-.828.878 0 1.56.292 2.049.828.488.535.732 1.314.732 2.337 0 .974-.244 1.753-.732 2.337-.488.536-1.171.828-2.05.828zm0-.633c1.366 0 2.049-.828 2.049-2.532 0-1.704-.683-2.532-2.05-2.532-1.366 0-2.05.828-2.05 2.532 0 1.704.684 2.532 2.05 2.532zM107.879 44.962c-.098 0-.196-.048-.196-.194v-5.552c0-.097.05-.194.196-.194h.244c.146 0 .195.048.195.194l.049.682c.292-.34.585-.584.878-.682.293-.146.634-.194.976-.194h.293c.097 0 .195.048.195.194v.292c0 .05 0 .05-.049.098-.049.049-.049.049-.098.049h-.439c-.341 0-.683.048-.976.194-.292.146-.536.341-.83.633v4.334c0 .098-.048.195-.194.195h-.244M111.929 44.962c-.098 0-.195-.048-.195-.194v-8.376c0-.097.048-.195.195-.195h.341c.098 0 .196.049.196.195v5.26l2.83-2.533c.097-.097.195-.097.293-.097h.439c.097 0 .146.048.146.097s-.049.097-.146.195l-2.88 2.532 3.124 2.873c.048.049.097.097.097.146 0 .097-.049.097-.146.097h-.488a.373.373 0 0 1-.244-.097l-3.025-2.824v2.727c0 .097-.05.194-.196.194h-.341"/>
        <path fill="#535B64" d="M24.31 85.842l-.55-1.76h-2.642l-.523 1.76h-1.754l2.723-7.712h1.841l2.723 7.712H24.31zm-2.833-2.962h1.94l-.981-3.228-.959 3.228zm9.345 2.962l-.136-.5a2.364 2.364 0 0 1-1.64.625c-.468 0-.88-.117-1.235-.35-.356-.234-.633-.574-.831-1.02-.198-.445-.297-.969-.297-1.57 0-.92.22-1.657.66-2.209.438-.553 1.018-.829 1.736-.829.589 0 1.099.167 1.53.5v-2.886h1.63v8.24h-1.417zm-1.236-1.103c.356 0 .697-.103 1.024-.31v-2.94a2.17 2.17 0 0 0-1.106-.277c-.392 0-.685.147-.88.44-.194.294-.29.738-.29 1.332 0 .594.102 1.035.307 1.323.205.288.52.432.945.432zm5.644 1.103l-2.167-5.69h1.731l1.215 4.234 1.236-4.234h1.683l-2.151 5.69H35.23zm7.791 0l-.13-.5a2.77 2.77 0 0 1-.8.495 2.294 2.294 0 0 1-.872.185c-.552 0-.993-.156-1.324-.468-.33-.311-.495-.728-.495-1.25 0-.355.089-.667.266-.937.179-.27.434-.483.769-.639.334-.156.727-.233 1.181-.233.36 0 .754.047 1.182.14v-.554c0-.34-.07-.574-.21-.7-.14-.127-.4-.19-.781-.19-.61 0-1.282.113-2.015.341v-1.075a3.99 3.99 0 0 1 1.035-.34c.417-.085.84-.128 1.269-.128.766 0 1.326.154 1.68.462.354.308.53.792.53 1.451v3.94h-1.285zm-1.345-.913c.185 0 .376-.04.572-.122.196-.081.38-.193.55-.334v-.968a5.77 5.77 0 0 0-.877-.075c-.65 0-.975.258-.975.777 0 .228.064.405.191.532s.307.19.54.19zm7.828.913v-3.728c0-.304-.068-.527-.202-.668-.134-.142-.338-.212-.61-.212-.41 0-.817.127-1.22.38v4.228h-1.628v-5.69h1.34l.157.614c.668-.518 1.382-.777 2.14-.777.527 0 .934.142 1.22.427.287.284.43.69.43 1.22v4.206h-1.627zm7.283-.244c-.2.12-.441.211-.724.274a4.033 4.033 0 0 1-.883.095c-.907 0-1.6-.252-2.08-.758-.48-.505-.72-1.233-.72-2.182 0-.942.254-1.676.76-2.204.507-.527 1.209-.79 2.106-.79.544 0 1.047.117 1.508.353v1.081c-.44-.127-.84-.19-1.203-.19-.523 0-.907.132-1.152.397-.245.264-.368.681-.368 1.25v.157c0 .566.12.98.362 1.242.242.263.617.395 1.125.395.363 0 .786-.068 1.269-.202v1.082zm2.378-2.207c.03.493.177.848.444 1.066.267.217.687.326 1.26.326.498 0 1.077-.093 1.738-.278v1.082a3.574 3.574 0 0 1-.928.312 5.534 5.534 0 0 1-1.12.112c-.947 0-1.668-.257-2.162-.77-.493-.512-.74-1.26-.74-2.247 0-.949.245-1.687.735-2.214.49-.527 1.17-.79 2.042-.79.737 0 1.304.201 1.702.605.398.404.596.981.596 1.731 0 .163-.01.349-.032.557a3.74 3.74 0 0 1-.082.508h-3.453zm1.215-2.277c-.367 0-.656.109-.866.326-.211.218-.33.535-.36.951h2.184v-.19c0-.725-.32-1.087-.958-1.087zm7.45 4.728l-.136-.5a2.364 2.364 0 0 1-1.64.625c-.468 0-.88-.117-1.236-.35-.356-.234-.633-.574-.83-1.02-.199-.445-.297-.969-.297-1.57 0-.92.22-1.657.659-2.209.44-.553 1.018-.829 1.737-.829.588 0 1.098.167 1.53.5v-2.886h1.629v8.24H67.83zm-1.236-1.103c.355 0 .697-.103 1.023-.31v-2.94a2.17 2.17 0 0 0-1.105-.277c-.392 0-.686.147-.88.44-.194.294-.291.738-.291 1.332 0 .594.102 1.035.308 1.323.205.288.52.432.945.432zM25.012 110.19c-.24 0-.36-.118-.36-.353V95.054H19.56c-.24 0-.36-.12-.36-.358v-.544c0-.235.12-.353.36-.353h11.59c.235 0 .354.118.354.353v.544c0 .239-.119.358-.355.358h-5.097v14.783c0 .235-.118.353-.354.353h-.686zm13.813.354c-1.877 0-3.29-.532-4.24-1.596-.95-1.063-1.424-2.644-1.424-4.741 0-1.986.478-3.527 1.435-4.623.957-1.096 2.295-1.644 4.016-1.644 1.438 0 2.54.41 3.306 1.228.766.82 1.15 1.993 1.15 3.522 0 .63-.031 1.105-.093 1.424-.047.236-.182.353-.403.353h-8.033c.014 1.656.377 2.878 1.089 3.666.712.788 1.81 1.182 3.295 1.182a8.964 8.964 0 0 0 3.246-.592c.207-.08.348-.12.425-.12.065 0 .121.028.168.085.048.056.071.123.071.203v.353c0 .254-.087.419-.261.495-1.137.536-2.385.805-3.747.805zm2.919-7.164c.014-.22.022-.482.022-.782 0-1.134-.277-1.993-.83-2.576-.555-.583-1.367-.875-2.438-.875-2.498 0-3.817 1.41-3.96 4.233h7.206zm9.287 7.071c-1.83 0-3.22-.524-4.169-1.573-.95-1.05-1.424-2.59-1.424-4.623 0-2.018.482-3.56 1.446-4.624.964-1.066 2.363-1.598 4.196-1.598.868 0 1.698.15 2.489.45.189.062.283.227.283.495v.332c0 .206-.094.31-.283.31a.811.811 0 0 1-.177-.025c-.07-.016-.186-.04-.346-.073a7.887 7.887 0 0 0-1.895-.234c-1.5 0-2.585.382-3.257 1.147-.671.764-1.007 1.99-1.007 3.679v.283c0 1.637.34 2.847 1.018 3.627.68.781 1.745 1.172 3.197 1.172.617 0 1.305-.102 2.064-.305.174-.047.297-.079.368-.095a.811.811 0 0 1 .177-.024c.188 0 .283.101.283.304v.332c0 .253-.086.42-.256.5a6.983 6.983 0 0 1-2.707.543zm6.071-.26c-.24 0-.36-.119-.36-.354V93.043c0-.235.12-.353.36-.353h.637c.24 0 .36.118.36.353v6.598a10.255 10.255 0 0 1 2.426-1.253A7.391 7.391 0 0 1 63 97.94c1.155 0 2.036.304 2.644.91.609.607.913 1.502.913 2.682v8.305c0 .235-.118.353-.354.353h-.643c-.236 0-.354-.118-.354-.353v-7.734c0-1.025-.197-1.77-.59-2.236-.395-.466-1.027-.699-1.899-.699-1.58 0-3.118.504-4.618 1.511v9.158c0 .235-.12.353-.36.353h-.637zm13.463 0c-.24 0-.36-.119-.36-.354v-11.19c0-.236.12-.353.36-.353h.474c.25 0 .384.117.402.353l.093 1.016a9.76 9.76 0 0 1 2.44-1.275c.853-.298 1.683-.448 2.489-.448 1.154 0 2.036.304 2.644.91.608.607.912 1.502.912 2.682v8.305c0 .235-.118.353-.354.353h-.643c-.236 0-.354-.118-.354-.353v-7.734c0-1.025-.197-1.77-.59-2.236-.394-.466-1.027-.699-1.898-.699-1.58 0-3.12.504-4.619 1.511v9.158c0 .235-.12.353-.36.353h-.636zm17.988.353c-1.74 0-3.09-.556-4.055-1.666-.964-1.11-1.446-2.66-1.446-4.65 0-1.985.482-3.53 1.446-4.633.964-1.103 2.315-1.655 4.055-1.655 1.739 0 3.09.552 4.054 1.655.964 1.103 1.446 2.648 1.446 4.633 0 1.99-.482 3.54-1.446 4.65-.964 1.11-2.315 1.666-4.054 1.666zm0-1.229c2.733 0 4.1-1.696 4.1-5.087 0-3.373-1.367-5.06-4.1-5.06-2.734 0-4.101 1.687-4.101 5.06 0 3.391 1.367 5.087 4.1 5.087zm10.592.946c-.632 0-1.126-.185-1.482-.555-.355-.369-.533-.886-.533-1.548V93.043c0-.235.12-.353.36-.353h.636c.24 0 .36.118.36.353v15.087c0 .348.067.593.201.734.135.142.374.212.72.212.094 0 .2-.007.32-.022.12-.014.218-.021.295-.021.221 0 .332.11.332.331v.446c0 .192-.102.311-.305.358a3.86 3.86 0 0 1-.904.093zm8.795.283c-1.739 0-3.09-.556-4.054-1.666-.964-1.11-1.446-2.66-1.446-4.65 0-1.985.482-3.53 1.446-4.633.964-1.103 2.315-1.655 4.054-1.655 1.74 0 3.09.552 4.055 1.655.964 1.103 1.446 2.648 1.446 4.633 0 1.99-.482 3.54-1.446 4.65-.964 1.11-2.316 1.666-4.055 1.666zm0-1.229c2.734 0 4.101-1.696 4.101-5.087 0-3.373-1.367-5.06-4.1-5.06-2.735 0-4.102 1.687-4.102 5.06 0 3.391 1.367 5.087 4.101 5.087zm12.776 6.033a9.35 9.35 0 0 1-1.944-.201 6.867 6.867 0 0 1-1.661-.56c-.174-.076-.261-.241-.261-.495v-.331c0-.203.087-.304.261-.304.047 0 .099.007.155.021.057.015.156.045.297.093 1.122.362 2.15.543 3.083.543 1.466 0 2.544-.362 3.232-1.087.688-.724 1.032-1.868 1.032-3.43v-1.157a7.14 7.14 0 0 1-1.944 1.16c-.712.285-1.39.427-2.037.427-1.518 0-2.735-.54-3.652-1.622-.916-1.082-1.375-2.512-1.375-4.291 0-1.91.455-3.416 1.364-4.519.91-1.103 2.147-1.655 3.712-1.655 1.485 0 2.803.527 3.954 1.582l.098-.875c.032-.236.167-.353.403-.353h.474c.236 0 .353.117.353.353v11c0 1.858-.473 3.273-1.421 4.244-.948.971-2.322 1.457-4.123 1.457zm.523-6.555c1.184 0 2.407-.503 3.67-1.51v-6.577c-.645-.536-1.269-.926-1.87-1.17a5.044 5.044 0 0 0-1.92-.368c-1.263 0-2.215.41-2.856 1.232-.641.82-.961 2.033-.961 3.638 0 1.547.336 2.726 1.007 3.538.672.812 1.649 1.217 2.93 1.217zm9.147 6.555c-.38 0-.744-.056-1.089-.169-.24-.061-.36-.219-.36-.473v-.331c0-.203.097-.304.29-.304.094 0 .18.007.258.021.078.015.18.027.308.036.127.009.292.013.495.013.523 0 .939-.134 1.247-.402.31-.268.605-.75.888-1.445l.806-1.984-4.667-11.451c-.065-.156-.098-.258-.098-.305 0-.174.096-.26.288-.26h.758c.203 0 .337.103.402.31l3.96 10.168 4.003-10.169c.061-.206.196-.31.403-.31h.713c.189 0 .283.087.283.261 0 .047-.032.149-.098.305l-5.593 13.837c-.392.963-.833 1.646-1.323 2.049-.49.402-1.115.603-1.874.603zM21.216 134.538c-.236 0-.354-.118-.354-.353V118.5c0-.235.118-.353.354-.353h5.31c1.503 0 2.7.44 3.591 1.323.892.882 1.337 2.066 1.337 3.552 0 1.464-.445 2.637-1.337 3.522-.89.883-2.088 1.326-3.591 1.326h-4.314v6.315c0 .235-.118.353-.354.353h-.642zm5.26-7.924c2.339 0 3.508-1.197 3.508-3.592 0-2.413-1.17-3.62-3.507-3.62h-4.265v7.212h4.265zM37.24 134.8c-1.089 0-1.954-.312-2.595-.935-.64-.623-.961-1.455-.961-2.494 0-1.153.395-2.06 1.184-2.72.79-.662 1.866-.992 3.227-.992 1.057 0 2.186.18 3.388.543v-1.99c0-.96-.229-1.649-.687-2.067-.457-.418-1.216-.628-2.276-.628-1.075 0-2.227.198-3.458.593a1.22 1.22 0 0 1-.36.07c-.156 0-.234-.103-.234-.31v-.374c0-.127.024-.226.071-.297a.52.52 0 0 1 .234-.176 10.754 10.754 0 0 1 3.96-.734c1.39 0 2.421.292 3.093.875.671.583 1.007 1.465 1.007 2.647v8.375c0 .235-.118.353-.354.353h-.5c-.237 0-.362-.118-.376-.353l-.098-1.016c-1.358 1.086-2.78 1.63-4.265 1.63zm.19-1.228c.6 0 1.247-.123 1.942-.367a10.81 10.81 0 0 0 2.11-1.03v-2.957a11.807 11.807 0 0 0-3.082-.429c-2.21 0-3.316.852-3.316 2.555 0 .728.197 1.281.593 1.66.396.378.98.568 1.754.568zm9.41.967c-.239 0-.359-.118-.359-.353v-11.19c0-.236.12-.354.36-.354h.446c.255 0 .389.118.403.353l.12 1.376c.603-.664 1.192-1.133 1.767-1.408.576-.275 1.227-.413 1.953-.413.254 0 .46.007.62.022.237.014.355.141.355.38v.587a.268.268 0 0 1-.071.18.24.24 0 0 1-.19.08c-.128 0-.247-.003-.357-.01a8.241 8.241 0 0 0-.499-.011c-.726 0-1.37.134-1.93.402-.561.269-1.102.701-1.62 1.3v8.706c0 .235-.12.353-.36.353h-.637zm11.47.141c-.932 0-1.644-.248-2.134-.744s-.736-1.217-.736-2.163v-7.946h-1.868c-.239 0-.359-.12-.359-.359v-.233c0-.127.024-.222.07-.286.048-.063.144-.102.29-.116l1.916-.17.17-3.118c.014-.127.048-.218.103-.272.054-.055.138-.082.25-.082h.425c.236 0 .354.118.354.354v3.097h3.442c.236 0 .354.118.354.353v.473c0 .24-.118.359-.354.359H56.79v7.875c0 .645.139 1.101.417 1.37.278.268.74.402 1.386.402.457 0 .86-.04 1.209-.12.174-.029.313-.055.416-.079.104-.023.18-.035.226-.035.175 0 .262.094.262.283v.353c0 .268-.087.435-.262.5-.617.203-1.329.304-2.134.304zm5.264-.141c-.24 0-.36-.118-.36-.353v-11.19c0-.236.12-.354.36-.354h.474c.25 0 .385.118.403.353l.092 1.017a9.76 9.76 0 0 1 2.44-1.275c.853-.298 1.683-.448 2.489-.448 1.155 0 2.036.304 2.644.91.608.607.912 1.501.912 2.682v8.305c0 .235-.118.353-.354.353h-.642c-.236 0-.355-.118-.355-.353v-7.734c0-1.025-.197-1.77-.59-2.236-.394-.466-1.027-.699-1.898-.699-1.58 0-3.119.504-4.618 1.511v9.158c0 .235-.12.353-.36.353h-.637zm18.151.353c-1.877 0-3.29-.531-4.24-1.595-.95-1.063-1.424-2.644-1.424-4.742 0-1.985.479-3.526 1.435-4.622.957-1.096 2.296-1.644 4.017-1.644 1.437 0 2.54.41 3.305 1.228.766.82 1.15 1.993 1.15 3.522 0 .63-.031 1.105-.093 1.424-.047.235-.181.353-.403.353h-8.033c.015 1.656.378 2.878 1.09 3.666.71.788 1.81 1.182 3.294 1.182a8.964 8.964 0 0 0 3.246-.592c.207-.08.349-.12.425-.12.065 0 .121.028.169.084.047.056.07.124.07.204v.353c0 .254-.087.419-.261.495-1.136.536-2.385.804-3.747.804zm2.92-7.163c.014-.22.021-.482.021-.782 0-1.135-.277-1.993-.83-2.576-.554-.584-1.367-.875-2.438-.875-2.498 0-3.817 1.41-3.959 4.233h7.205zm4.668 6.81c-.24 0-.36-.118-.36-.353v-11.19c0-.236.12-.354.36-.354h.447c.254 0 .388.118.403.353l.12 1.376c.603-.664 1.192-1.133 1.767-1.408.575-.275 1.226-.413 1.952-.413.255 0 .461.007.621.022.236.014.354.141.354.38v.587a.268.268 0 0 1-.07.18.24.24 0 0 1-.191.08c-.127 0-.246-.003-.357-.01a8.241 8.241 0 0 0-.498-.011c-.726 0-1.37.134-1.93.402-.562.269-1.102.701-1.62 1.3v8.706c0 .235-.12.353-.36.353h-.638z"/>
    </g>
</svg>
