<svg xmlns="http://www.w3.org/2000/svg" xmlns:xlink="http://www.w3.org/1999/xlink" width="153" height="50" viewBox="0 0 153 50">
    <defs>
        <path id="a" d="M0 .335h67.598V49H0z"/>
    </defs>
    <g fill="none" fill-rule="evenodd">
        <g transform="translate(1 1)">
            <mask id="b" fill="#fff">
                <use xlink:href="#a"/>
            </mask>
            <path fill="#8C8C8C" d="M4.447 20.392C8.82 12.424 16.379 3.732 25.304.83c1.833-.45 4.27-.956 5.895.277 1.446 1.056 1.64 2.859 1.313 4.483-.43 1.92-1.766 4.352-4.001 4.661-.402 0-.745-.14-1.005-.419-.582-.557-.539-1.37-.415-2.102.368-1.524 1.802-3.143 3.453-3.355.282-.179.163-.515.083-.753-.22-.338-.48-.596-.884-.676-1.789-.205-3.141.9-4.514 1.826-5.206 4.123-8.988 9.42-12.166 14.699-2.592 4.746-4.803 9.651-5.447 15.197-.316 4.02.979 7.967 4.614 9.902 3.937 2.054 9.034.664 12.982-.392l3.626-1.098 6.97-2.036c6.608-1.899 14.88-2.326 21.332.192 3.898 1.598 7.916 3.791 10.458 7.564 0 .099 0 .218-.122.198-5.529-1.486-12.728-2.956-18.211-.38l-.262-.06c-1.661-2.62-4.473-4.077-7.348-4.641-9.295-.884-16.937 3.448-25.675 4.529-4.43.4-9.178.266-12.265-3.073-4.874-4.792-4.3-13.25-1.986-19.026.752-2.038 1.684-4.016 2.718-5.955" mask="url(#b)"/>
        </g>
        <path fill="#8C8C8C" d="M55.135 28.735c-.303 1.012-.767 2.104-.45 3.22.099.223.337.386.556.447.9.023 1.501-.805 2.082-1.452 2.63-3.698 4.64-7.681 6.45-11.727.303-.85.784-1.637.768-2.59-.02-.203-.219-.345-.378-.448-.399-.183-.78.1-1.1.26-3.542 2.763-5.453 6.728-7.223 10.49l-.705 1.8zM28.09 19.3c.075 1.216 1.19 2.274 2.246 2.683.26.082.679.286.9-.038.401-.768.644-1.618.846-2.469.203-1.113.368-2.61-.687-3.344a1.485 1.485 0 0 0-1.278-.045c-1.2.603-2.063 1.836-2.027 3.213zm-3.432 4.688c-1.126 2.306-2.271 4.631-2.32 7.366.118.507.415 1.096.973 1.24.599.164 1.1-.159 1.56-.46 2.202-1.877 3.73-4.444 4.975-6.912.1-.242.282-.545.143-.81-1.316-.53-2.591-1.447-3.606-2.605l-.22-.041c-.199.039-.28.242-.42.383l-1.085 1.84zm-6.11.202c2.291-4.266 5.803-9.48 10.66-11.044 1.3-.3 2.696-.173 3.692.702 2.09 2.114 1.278 5.738.57 8.227 0 .141.12.304.26.324 1.857-.053 3.357-.94 4.7-2.232 2.886-3.27 5.976-7.555 10.666-7.053.879.146 1.736.654 2.192 1.487 1.19 2.395.023 5.045-1.6 6.882-.622.606-1.402 1.07-2.3.782-.359-.123-.657-.488-.796-.853-.334-1.682.63-3.24 1.97-4.126.382-.384 1.54-.117 1.223-.988-.239-.346-.598-.388-.977-.39-2.28.966-3.766 3.33-5.09 5.311-1.667 2.649-3.015 5.459-3.903 8.434-.243 1.074-.547 2.47.068 3.465.457.629 1.215.895 1.995.695 2.259-.903 4.243-2.74 5.966-4.638 3.95-4.807 6.047-10.757 11.332-14.668 1.64-1.149 3.96-2.032 5.934-.972.319.123.577.55.977.389.32-.323.542-1.012 1.18-.847 1.459.026 3.136-.05 4.633.098l.099.142-.422 1.03-8.205 16.909c-.08.181-.101.425-.062.627.139.244.439.224.658.145 1.18-.685 2.103-1.958 2.926-3.029a20.404 20.404 0 0 0 1.888-3.174c.22-.324.481-.727.92-.665.46.062 1.039-.138 1.378.187-.524 1.416-1.347 2.71-2.07 4.044-2.23 3.477-5.138 7.519-9.235 8.557-.68.08-1.518.137-2.035-.371-.798-.61-.834-1.583-1.05-2.455-.08-.102-.22-.123-.34-.083-1.743 1.595-3.545 3.189-6 2.877-.758-.165-1.475-.755-1.812-1.486-.635-1.238-.33-2.837-.365-4.215-.06-.162-.26-.102-.34-.041-2.664 2.665-5.548 5.065-9.084 5.742-1.639.197-3.054-.295-4.149-1.474-2.644-3.514-.55-8.125.839-11.545.06-.161.04-.384-.16-.426-.958.078-1.877.237-2.795.376l-.322.363c-2.15 4.044-4.48 8.331-8.345 11.336-1.6 1.17-3.98 1.972-5.854.891-1.952-1.364-2.123-3.796-1.876-6.043.468-2.552 1.375-4.919 2.46-7.204zM72.094 18.335c.767-1.62 1.417-3.304 2.38-4.841.39-.457.996-.434 1.524-.494l3.846.055.156.168a55.755 55.755 0 0 1-2.164 4.842c-.197.415-.608.81-1.058.87-1.561.036-3.222.134-4.705-.017-.156-.166-.019-.395.021-.583M97.176 17.333c.059.543.276 1.127.835 1.33 1.078.305 1.94-.496 2.74-1.116 2.889-3.065 4.639-6.618 5.093-10.697.002-.603.205-1.366-.133-1.89-.24-.041-.5.059-.7.198-1.943 1.3-3.768 3.203-5.093 5.128-1.386 2.147-2.653 4.354-2.742 7.047zM75.57 25.641c2.736-5.7 6.032-11.197 10.703-16.045 4.533-4.547 9.44-8.23 15.378-9.354 1.619-.236 3.437-.089 4.671 1.021.24.202.519.404.86.285 4.26-1.715 10.177-2.318 14.445-.172 2.473 1.216 4.826 2.771 7.198 4.267.3.162.158.483-.002.664-1.364 1.523-2.509 3.087-3.733 4.67-.14.141-.36.08-.499-.001l-6.279-4.344c-2.93-2-6.302-3.4-10.12-2.77-.42.22-.223.744-.284 1.146.086 3.94-1.304 7.373-3.193 10.502-1.507 2.186-3.251 4.471-5.812 5.207-1.12.237-2.197-.109-2.874-1.016-1.868-2.861-.218-6.353 1.15-8.901 1.567-2.769 3.994-5.374 6.619-7.375.06-.1.18-.2.1-.32-.258-.263-.699-.104-1.018-.045-4.261 1.433-7.67 5.22-10.82 8.807-5.618 6.956-9.88 14.5-12.305 22.795-.75 3.112-1.766 7.894 1.383 10.075 2.772 1.498 5.436-.423 7.52-2.225 3.168-3.246 5.3-6.997 6.173-11.236.144-1.265.489-2.993-.666-3.862-1.038-.466-1.9.395-2.601 1.117-1.626 1.964-2.312 4.314-2.601 6.846-.721.6-1.582.98-2.344 1.56-1.442 1-2.864 2.342-4.008 3.685-.14.039-.16-.122-.2-.202-.163-4.664 1.488-8.66 4.038-12.249 2.027-2.365 4.631-4.386 7.785-3.63 1.378.365 2.291 1.836 2.548 3.143.503 4.385-1.328 8.219-3.299 11.79-3.174 5.014-8.185 10.082-14.537 9.477-2.438-.149-4.71-1.846-5.74-4.1-2.401-4.813-.741-11 .873-15.658l1.49-3.552z"/>
        <path fill="#8C8C8C" d="M129.883 41.597c-.043.574-.186 1.286.255 1.723.24.238.622.26.924.162 1.189-.61 1.957-1.854 2.684-2.881 2.425-3.713 4.208-7.685 5.87-11.717.062-.357.165-.851-.176-1.09-.984-.458-1.751.608-2.477 1.12-3.207 3.136-4.91 6.93-6.512 10.745l-.568 1.938zm-22.157-10.566c.075 1.208 1.057 2.34 2.181 2.74.221.08.623.18.784-.097.69-1.541 1.34-3.301.984-5.083-.14-.417-.5-.833-.942-.974-.442-.12-.905.017-1.287.194-1.129.729-1.676 1.934-1.72 3.22zm-5.829 11.105c.037.673.377 1.366 1.08 1.587.462.16.965-.037 1.368-.234 2.318-1.693 3.694-4.302 4.949-6.673.12-.237.223-.612-.098-.792-1.204-.598-2.367-1.532-3.328-2.584a.431.431 0 0 0-.482-.06c-.869 1.144-1.436 2.409-2.044 3.673-.69 1.601-1.438 3.182-1.445 5.083zm-.646-10.75c2.323-3.02 5.41-6.316 9.312-6.56.983.023 1.847.422 2.447 1.236 1.66 2.42.262 5.523-.35 7.975-.06.218.1.376.26.436.804.122 1.73.007 2.434-.347l.303-.376c2.802-7.868 6.969-15.177 11.918-22.147 3.09-4.028 7.045-8.19 11.636-10.135 1.087-.372 2.656-.822 3.699-.026 1.162.933.835 2.556.529 3.802-.124 1.108-1.371 1.221-2.196 1.477-.04-.02-.081 0-.121-.04.023-.713.407-1.345.55-2.037.042-.377.103-.693-.057-1.05-.2-.356-.642-.239-.944-.141-1.55.746-2.801 2.108-3.993 3.43-4.44 5.071-7.656 10.702-10.611 16.392-.971 1.976-1.985 3.932-2.775 5.988-.021.12.02.198.12.278.683-.018 1.088-.71 1.612-1.063 3.912-3.49 7.082-7.497 10.01-11.565.626-.296 1.349-.292 2.073-.35l.14.04c-.041.555-.525.989-.788 1.482-3.274 4.64-6.988 9.081-11.505 13.124l-3.267 2.641c-.685.592-.708 1.502-1.053 2.253-.63 2.036-1.261 4.112-1.349 6.35.02.375.159.731.48.93.863.38 1.548-.43 2.153-.981 4.421-5.033 6.373-11.202 11.776-15.716 1.774-1.379 4.11-2.56 6.398-1.522.402.14.701.656 1.185.42.343-.237.364-.77.847-.75 1.588-.014 3.277-.067 4.804.057.14.119.04.316-.002.455l-1.093 2.173-6.761 13.437c-.304.612-.708 1.264-.67 1.957.1.297.42.318.682.26 1.27-.69 2.197-1.834 3.026-2.999.828-1.145 1.496-2.35 2.284-3.515.423-.196 1.006-.115 1.468-.054.28.257-.083.593-.144.89-1.985 4.05-4.754 8.475-9.084 10.717-1.007.491-2.395.941-3.499.344-.882-.597-.798-1.685-1.197-2.518-.08-.119-.282-.1-.382-.041-1.795 1.577-3.73 3.352-6.241 2.67-1.566-.717-1.741-2.5-1.857-4.024-.08-.06-.039-.177-.139-.237l-.201.078c-1.756 2.072-3.977 4.658-6.931 4.41-1.126-.083-2.107-1.155-2.446-2.146-1.033-3.23.065-6.769.8-9.874 0-.178-.201-.357-.36-.378l-2.474.031-.404.455c-1.822 3.516-3.824 6.914-6.97 9.853-1.654 1.44-3.688 2.64-5.958 1.979-1.886-.799-2.382-2.82-2.375-4.72.399-4.787 2.584-8.838 5.25-12.709z"/>
        <path fill="#8C8C8C" d="M134.895 11.905l2.17-2.695.328-.273C143.674 8.822 148.581 5.235 153 1c-.022.568-.29 1.095-.495 1.604-2.899 6.55-9.934 12.303-17.54 12.396l-1.794-.026c-.326-.079-.1-.392-.018-.548l1.742-2.52zM143.588 46.857v-.714h.47c.24 0 .496.052.496.339 0 .354-.261.375-.554.375h-.412zm0 .296h.396l.601 1h.387l-.648-1.015c.334-.042.59-.223.59-.635 0-.455-.267-.656-.804-.656h-.866v2.306h.344v-1zm.418 1.847A1.984 1.984 0 0 0 146 46.995c0-1.148-.92-1.995-1.994-1.995-1.086 0-2.006.847-2.006 1.995 0 1.158.92 2.005 2.006 2.005zm-1.61-2.005c0-.947.706-1.662 1.61-1.662.893 0 1.597.715 1.597 1.662 0 .963-.704 1.671-1.597 1.671-.904 0-1.61-.708-1.61-1.671z"/>
    </g>
</svg>
