<svg xmlns="http://www.w3.org/2000/svg" width="592" height="741" viewBox="0 0 592 741">
    <g fill="none" fill-rule="evenodd" stroke="#FD5750" stroke-linejoin="round" stroke-width="2">
        <path d="M684.538 370.327c0 173.533-140.678 314.21-314.21 314.21-173.536 0-314.212-140.677-314.212-314.21s140.676-314.21 314.211-314.21c173.533 0 314.211 140.677 314.211 314.21z"/>
        <path d="M648.636 370.327c0 153.705-124.604 278.31-278.31 278.31-153.704 0-278.307-124.605-278.307-278.31 0-153.705 124.603-278.31 278.308-278.31 153.705 0 278.31 124.605 278.31 278.31zM370.327 648.636v35.902M370.327 56.116v35.901M648.636 370.327h35.902M56.116 370.327h35.903M173.532 567.121l-25.386 25.387M592.508 148.146l-25.387 25.387M567.121 567.121l25.387 25.387M148.146 148.146l25.387 25.387M476.831 627.451l13.739 33.17M250.084 80.034l13.738 33.17M627.451 263.823l33.17-13.739M80.034 490.57l33.169-13.738M263.823 627.451l-13.739 33.17M490.57 80.034l-13.738 33.17M627.451 476.831l33.17 13.739M80.034 250.084l33.169 13.738"/>
        <path stroke-dasharray="4,6" d="M739.654 370.327c0 203.973-165.353 369.326-369.326 369.326C166.353 739.653 1 574.3 1 370.327 1 166.353 166.353 1 370.328 1 574.3 1 739.654 166.353 739.654 370.327zM150.146 340.39c13.298-98.77 91.499-176.938 190.251-190.235M400.26 590.503c98.77-13.298 176.954-91.482 190.251-190.235M400.26 150.155c98.77 13.297 176.954 91.466 190.251 190.235M150.146 400.268c13.298 98.753 91.499 176.938 190.251 190.235"/>
        <path d="M407.386 604.755l-14.25-14.253 14.25-14.25M333.268 604.755l14.252-14.253-14.252-14.25M407.386 164.406l-14.25-14.252 14.25-14.25M333.268 164.406l14.252-14.252-14.252-14.25M135.902 407.387l14.25-14.25 14.252 14.25M135.902 333.27l14.25 14.252 14.252-14.252M576.25 407.387l14.25-14.25 14.253 14.25M576.25 333.27l14.25 14.252 14.253-14.252"/>
    </g>
</svg>
