<svg xmlns="http://www.w3.org/2000/svg" width="591" height="741" viewBox="0 0 591 741">
    <g fill="none" fill-rule="evenodd" stroke="#FD5750" stroke-linejoin="round" stroke-width="2">
        <path d="M534.538 370.327c0 173.533-140.678 314.21-314.21 314.21-173.536 0-314.212-140.677-314.212-314.21S46.792 56.117 220.327 56.117c173.533 0 314.211 140.677 314.211 314.21z"/>
        <path d="M498.636 370.327c0 153.705-124.604 278.31-278.31 278.31-153.704 0-278.307-124.605-278.307-278.31 0-153.705 124.603-278.31 278.308-278.31 153.705 0 278.31 124.605 278.31 278.31zM220.327 648.636v35.902M220.327 56.116v35.901M498.636 370.327h35.902M-93.884 370.327h35.903M23.532 567.121l-25.386 25.387M442.508 148.146l-25.387 25.387M417.121 567.121l25.387 25.387M-1.854 148.146l25.387 25.387M326.831 627.451l13.739 33.17M100.084 80.034l13.738 33.17M477.451 263.823l33.17-13.739M-69.966 490.57l33.169-13.738M113.823 627.451l-13.739 33.17M340.57 80.034l-13.738 33.17M477.451 476.831l33.17 13.739M-69.966 250.084l33.169 13.738"/>
        <path stroke-dasharray="4,6" d="M589.654 370.327c0 203.973-165.353 369.326-369.326 369.326C16.353 739.653-149 574.3-149 370.327-149 166.353 16.353 1 220.328 1 424.3 1 589.654 166.353 589.654 370.327zM.146 340.39c13.298-98.77 91.499-176.938 190.251-190.235M250.26 590.503c98.77-13.298 176.954-91.482 190.251-190.235M250.26 150.155c98.77 13.297 176.954 91.466 190.251 190.235M.146 400.268c13.298 98.753 91.499 176.938 190.251 190.235"/>
        <path d="M257.386 604.755l-14.25-14.253 14.25-14.25M183.268 604.755l14.252-14.253-14.252-14.25M257.386 164.406l-14.25-14.252 14.25-14.25M183.268 164.406l14.252-14.252-14.252-14.25M-14.098 407.387l14.25-14.25 14.252 14.25M-14.098 333.27l14.25 14.252 14.252-14.252M426.25 407.387l14.25-14.25 14.253 14.25M426.25 333.27l14.25 14.252 14.253-14.252"/>
    </g>
</svg>
