<svg xmlns="http://www.w3.org/2000/svg" xmlns:xlink="http://www.w3.org/1999/xlink" width="1604" height="972" viewBox="0 0 1604 972">
    <defs>
        <path id="a" d="M.354.223H182.89v243.98H.354z"/>
        <path id="c" d="M.354.415h49.617V339.69H.354z"/>
        <path id="e" d="M.354.598h519.251v339.274H.354z"/>
        <path id="g" d="M.354.505h352.747V339.78H.353z"/>
        <path id="i" d="M.354.445h485.654v339.274H.354z"/>
        <path id="k" d="M.354.706h238.087v184.18H.354z"/>
        <path id="m" d="M.43.095h308.956v155.038H.431z"/>
        <path id="o" d="M.177.095h587.641v173.928H.178z"/>
        <path id="q" d="M.385.095h485.433v132.264H.385z"/>
        <path id="s" d="M.812.095h276.574v253.11H.812z"/>
        <path id="u" d="M.94.838h505.446V376.16H.941z"/>
        <path id="w" d="M.69.837h479.696v390.416H.69z"/>
        <path id="y" d="M.17.022h117.216v291.73H.17z"/>
        <path id="A" d="M.02.095h473.366v133.072H.02z"/>
    </defs>
    <g fill="none" fill-rule="evenodd">
        <path stroke="#F05952" stroke-width="2" d="M347.94 350.973l-98.76 57.02"/>
        <g transform="translate(0 446.04)">
            <mask id="b" fill="#fff">
                <use xlink:href="#a"/>
            </mask>
            <path stroke="#F05952" stroke-width="2" d="M182.89.223l-422.59 243.98" mask="url(#b)"/>
        </g>
        <g transform="translate(0 289.04)">
            <mask id="d" fill="#fff">
                <use xlink:href="#c"/>
            </mask>
            <path stroke="#F05952" stroke-width="2" d="M-537.67 339.69L49.97.416" mask="url(#d)"/>
        </g>
        <g transform="translate(0 368.04)">
            <mask id="f" fill="#fff">
                <use xlink:href="#e"/>
            </mask>
            <path stroke="#F05952" stroke-dasharray="4,4" stroke-linejoin="round" stroke-width="2" d="M-68.036 339.872L519.605.598" mask="url(#f)"/>
        </g>
        <g transform="translate(0 581.04)">
            <mask id="h" fill="#fff">
                <use xlink:href="#g"/>
            </mask>
            <path stroke="#F05952" stroke-width="2" d="M-234.54 339.78L353.1.504" mask="url(#h)"/>
        </g>
        <g transform="translate(0 154.04)">
            <mask id="j" fill="#fff">
                <use xlink:href="#i"/>
            </mask>
            <path stroke="#F05952" stroke-dasharray="4,4" stroke-linejoin="round" stroke-width="2" d="M-101.632 339.719L486.008.445" mask="url(#j)"/>
        </g>
        <path fill="#FEFEFE" d="M60.756 283.228h-14.38l7.19 12.454z"/>
        <path stroke="#F05952" stroke-linejoin="round" stroke-width="2" d="M60.756 283.228h-14.38l7.19 12.454z"/>
        <path fill="#FEFEFE" d="M496.08 148.669h-14.381l7.19 12.455z"/>
        <path stroke="#F05952" stroke-linejoin="round" stroke-width="2" d="M496.08 148.669h-14.381l7.19 12.455z"/>
        <path fill="#FEFEFE" d="M358.39 344.94h-14.38l7.19 12.454z"/>
        <path stroke="#F05952" stroke-linejoin="round" stroke-width="2" d="M358.39 344.94h-14.38l7.19 12.454z"/>
        <path fill="#FEFEFE" d="M524.999 365.524h-14.383l7.192 12.455z"/>
        <path stroke="#F05952" stroke-linejoin="round" stroke-width="2" d="M524.999 365.524h-14.383l7.192 12.455z"/>
        <path fill="#FEFEFE" d="M363.886 575.317h-14.38l7.19 12.454z"/>
        <path stroke="#F05952" stroke-linejoin="round" stroke-width="2" d="M363.886 575.317h-14.38l7.19 12.454z"/>
        <g transform="translate(0 280.04)">
            <mask id="l" fill="#fff">
                <use xlink:href="#k"/>
            </mask>
            <path stroke="#F05952" stroke-width="2" d="M-101.632 184.887L213.472 2.96c11.098-6.407 24.969 1.602 24.969 14.416" mask="url(#l)"/>
        </g>
        <g transform="translate(1294 .04)">
            <mask id="n" fill="#fff">
                <use xlink:href="#m"/>
            </mask>
            <path stroke="#F05952" stroke-width="2" d="M448.79-103.737L.43 155.133" mask="url(#n)"/>
        </g>
        <path stroke="#F05952" stroke-width="2" d="M1269.42 169.613l-114.27 65.97"/>
        <g transform="translate(857 .04)">
            <mask id="p" fill="#fff">
                <use xlink:href="#o"/>
            </mask>
            <path stroke="#F05952" stroke-width="2" d="M.177 174.023l587.641-339.274" mask="url(#p)"/>
        </g>
        <g transform="translate(959 .04)">
            <mask id="r" fill="#fff">
                <use xlink:href="#q"/>
            </mask>
            <path stroke="#F05952" stroke-dasharray="4,4" stroke-linejoin="round" stroke-width="2" d="M485.818-135.252L26.366 130.013c-11.547 6.666-25.981-1.667-25.981-15" mask="url(#r)"/>
        </g>
        <g transform="translate(1326 .04)">
            <mask id="t" fill="#fff">
                <use xlink:href="#s"/>
            </mask>
            <path stroke="#F05952" stroke-dasharray="4,4" stroke-linejoin="round" stroke-width="2" d="M.812 253.205L588.453-86.07" mask="url(#t)"/>
        </g>
        <g transform="translate(1097 126.04)">
            <mask id="v" fill="#fff">
                <use xlink:href="#u"/>
            </mask>
            <path stroke="#F05952" stroke-width="2" d="M.94 376.16L650.949.839" mask="url(#v)"/>
        </g>
        <g transform="translate(1123 96.04)">
            <mask id="x" fill="#fff">
                <use xlink:href="#w"/>
            </mask>
            <path stroke="#F05952" stroke-dasharray="4,4" stroke-linejoin="round" stroke-width="2" d="M624.948.837L26.67 346.253a51.962 51.962 0 0 0-25.981 45" mask="url(#x)"/>
        </g>
        <g transform="translate(1486 103.04)">
            <mask id="z" fill="#fff">
                <use xlink:href="#y"/>
            </mask>
            <path stroke="#F05952" stroke-dasharray="4,4" stroke-linejoin="round" stroke-width="2" d="M505.46.022L.17 291.752" mask="url(#z)"/>
        </g>
        <path stroke="#F05952" stroke-dasharray="4,4" stroke-linejoin="round" stroke-width="2" d="M1419.9 433.053l-182.25 105.22"/>
        <g transform="translate(1130 .04)">
            <mask id="B" fill="#fff">
                <use xlink:href="#A"/>
            </mask>
            <path stroke="#F05952" stroke-dasharray="4,4" stroke-linejoin="round" stroke-width="2" d="M.02 133.167l750.835-433.39" mask="url(#B)"/>
        </g>
        <path fill="#FEFEFE" d="M863.504 174.247a6.338 6.338 0 0 1-6.512 6.143 6.337 6.337 0 0 1-6.142-6.512 6.336 6.336 0 0 1 6.511-6.143 6.337 6.337 0 0 1 6.143 6.512"/>
        <path stroke="#F05952" stroke-linejoin="round" stroke-width="2" d="M863.504 174.247a6.338 6.338 0 0 1-6.512 6.143 6.337 6.337 0 0 1-6.142-6.512 6.336 6.336 0 0 1 6.511-6.143 6.337 6.337 0 0 1 6.143 6.512z"/>
        <path fill="#FEFEFE" d="M1161.476 235.764a6.337 6.337 0 0 1-6.512 6.143 6.338 6.338 0 0 1-6.142-6.513 6.337 6.337 0 0 1 6.512-6.142 6.336 6.336 0 0 1 6.142 6.512"/>
        <path stroke="#F05952" stroke-linejoin="round" stroke-width="2" d="M1161.476 235.764a6.337 6.337 0 0 1-6.512 6.143 6.338 6.338 0 0 1-6.142-6.513 6.337 6.337 0 0 1 6.512-6.142 6.336 6.336 0 0 1 6.142 6.512z"/>
        <path fill="#FEFEFE" d="M1136.347 133.392a6.338 6.338 0 0 1-6.512 6.143 6.337 6.337 0 0 1-6.142-6.512 6.336 6.336 0 0 1 6.511-6.143 6.337 6.337 0 0 1 6.143 6.512"/>
        <path stroke="#F05952" stroke-linejoin="round" stroke-width="2" d="M1136.347 133.392a6.338 6.338 0 0 1-6.512 6.143 6.337 6.337 0 0 1-6.142-6.512 6.336 6.336 0 0 1 6.511-6.143 6.337 6.337 0 0 1 6.143 6.512z"/>
        <path fill="#FEFEFE" d="M1333.14 253.43a6.337 6.337 0 0 1-6.513 6.142 6.336 6.336 0 0 1-6.142-6.512 6.336 6.336 0 0 1 6.511-6.142 6.337 6.337 0 0 1 6.143 6.512"/>
        <path stroke="#F05952" stroke-linejoin="round" stroke-width="2" d="M1333.14 253.43a6.337 6.337 0 0 1-6.513 6.142 6.336 6.336 0 0 1-6.142-6.512 6.336 6.336 0 0 1 6.511-6.142 6.337 6.337 0 0 1 6.143 6.512z"/>
        <path fill="#FEFEFE" d="M1104.268 502.385a6.338 6.338 0 0 1-6.512 6.143 6.336 6.336 0 0 1-6.142-6.512 6.337 6.337 0 0 1 6.511-6.143 6.337 6.337 0 0 1 6.143 6.512"/>
        <path stroke="#F05952" stroke-linejoin="round" stroke-width="2" d="M1104.268 502.385a6.338 6.338 0 0 1-6.512 6.143 6.336 6.336 0 0 1-6.142-6.512 6.337 6.337 0 0 1 6.511-6.143 6.337 6.337 0 0 1 6.143 6.512z"/>
        <path fill="#FEFEFE" d="M1243.976 538.459a6.337 6.337 0 0 1-6.512 6.143 6.336 6.336 0 0 1-6.142-6.512 6.337 6.337 0 0 1 6.511-6.143 6.339 6.339 0 0 1 6.143 6.512"/>
        <path stroke="#F05952" stroke-linejoin="round" stroke-width="2" d="M1243.976 538.459a6.337 6.337 0 0 1-6.512 6.143 6.336 6.336 0 0 1-6.142-6.512 6.337 6.337 0 0 1 6.511-6.143 6.339 6.339 0 0 1 6.143 6.512z"/>
        <path stroke="#F05952" stroke-dasharray="4,4" stroke-linejoin="round" stroke-width="2" d="M282.67 427.126c0 36.8-29.832 66.632-66.632 66.632-36.8 0-66.632-29.832-66.632-66.632 0-36.8 29.832-66.632 66.632-66.632 36.8 0 66.632 29.832 66.632 66.632z"/>
        <path stroke="#F05952" stroke-width="2" d="M254.305 427.126c0 21.134-17.133 38.267-38.267 38.267-21.133 0-38.266-17.133-38.266-38.267 0-21.134 17.133-38.267 38.266-38.267 21.134 0 38.267 17.133 38.267 38.267zM1519.188 413.094c0 36.8-29.832 66.632-66.632 66.632-36.8 0-66.632-29.832-66.632-66.632 0-36.8 29.832-66.632 66.632-66.632 36.8 0 66.632 29.832 66.632 66.632z"/>
        <path stroke="#F05952" stroke-dasharray="4,4" stroke-linejoin="round" stroke-width="2" d="M1490.823 413.094c0 21.134-17.133 38.267-38.267 38.267-21.133 0-38.266-17.133-38.266-38.267 0-21.134 17.133-38.267 38.266-38.267 21.134 0 38.267 17.133 38.267 38.267z"/>
        <path stroke="#F05952" stroke-width="2" d="M66.381 730.798c0-15.578 12.628-28.206 28.205-28.206 15.578 0 28.206 12.628 28.206 28.206 0 15.577-12.628 28.205-28.206 28.205-15.577 0-28.205-12.628-28.205-28.205zM94.586 698.558v-9.477M89.452 698.969l-1.51-9.355M84.448 700.193l-2.98-8.996M79.703 702.2l-4.376-8.407M75.337 704.934l-5.658-7.601M71.463 708.331l-6.797-6.604M68.18 712.3l-7.762-5.436M65.57 716.743l-8.527-4.13M63.703 721.545l-9.077-2.72M62.623 726.582l-9.395-1.239M62.36 731.726l-9.473.274"/>
        <path stroke="#F05952" stroke-dasharray="4,4" stroke-linejoin="round" stroke-width="2" d="M1315.092 162.387c0 18.319-14.85 33.17-33.17 33.17-18.319 0-33.17-14.851-33.17-33.17 0-18.32 14.851-33.17 33.17-33.17 18.32 0 33.17 14.85 33.17 33.17z"/>
        <path stroke="#F05952" stroke-width="2" d="M1296.362 162.387c0 7.975-6.465 14.439-14.44 14.439-7.974 0-14.44-6.464-14.44-14.44 0-7.974 6.466-14.438 14.44-14.438 7.975 0 14.44 6.464 14.44 14.439z"/>
        <path fill="#FEFEFE" d="M172.938 214.308h-14.381l7.191 12.455z"/>
        <path stroke="#F05952" stroke-linejoin="round" stroke-width="2" d="M172.938 214.308h-14.381l7.191 12.455z"/>
        <path fill="#FEFEFE" d="M196.569 200.665h-14.381l7.19 12.454z"/>
        <path stroke="#F05952" stroke-linejoin="round" stroke-width="2" d="M196.569 200.665h-14.381l7.19 12.454z"/>
        <path fill="#FEFEFE" d="M220.2 187.021h-14.381l7.19 12.455z"/>
        <path stroke="#F05952" stroke-linejoin="round" stroke-width="2" d="M220.2 187.021h-14.381l7.19 12.455z"/>
        <path fill="#FEFEFE" d="M243.83 173.378h-14.38l7.19 12.455z"/>
        <path stroke="#F05952" stroke-linejoin="round" stroke-width="2" d="M243.83 173.378h-14.38l7.19 12.455z"/>
        <path fill="#FEFEFE" d="M267.461 159.735h-14.38l7.19 12.455z"/>
        <path stroke="#F05952" stroke-linejoin="round" stroke-width="2" d="M267.461 159.735h-14.38l7.19 12.455z"/>
        <path fill="#FEFEFE" d="M1446.1 559.332h-14.383l7.191 12.455z"/>
        <path stroke="#F05952" stroke-linejoin="round" stroke-width="2" d="M1446.1 559.332h-14.383l7.191 12.455z"/>
        <path fill="#FEFEFE" d="M1469.73 545.688h-14.382l7.191 12.455z"/>
        <path stroke="#F05952" stroke-linejoin="round" stroke-width="2" d="M1469.73 545.688h-14.382l7.191 12.455z"/>
        <path fill="#FEFEFE" d="M1493.36 532.046h-14.381l7.19 12.454z"/>
        <path stroke="#F05952" stroke-linejoin="round" stroke-width="2" d="M1493.36 532.046h-14.381l7.19 12.454z"/>
        <path fill="#FEFEFE" d="M1516.992 518.402h-14.382l7.192 12.454z"/>
        <path stroke="#F05952" stroke-linejoin="round" stroke-width="2" d="M1516.992 518.402h-14.382l7.192 12.454z"/>
        <path fill="#FEFEFE" d="M1540.623 504.759h-14.382l7.192 12.455z"/>
        <path stroke="#F05952" stroke-linejoin="round" stroke-width="2" d="M1540.623 504.759h-14.382l7.192 12.455z"/>
        <path fill="#FEFEFE" d="M761.798 169.006h-14.38l7.19 12.455z"/>
        <path stroke="#F05952" stroke-linejoin="round" stroke-width="2" d="M761.798 169.006h-14.38l7.19 12.455z"/>
        <path fill="#FEFEFE" d="M785.43 155.363h-14.382l7.191 12.455z"/>
        <path stroke="#F05952" stroke-linejoin="round" stroke-width="2" d="M785.43 155.363h-14.382l7.191 12.455z"/>
        <path fill="#FEFEFE" d="M809.061 141.72h-14.382l7.191 12.455z"/>
        <path stroke="#F05952" stroke-linejoin="round" stroke-width="2" d="M809.061 141.72h-14.382l7.191 12.455z"/>
        <path fill="#FEFEFE" d="M832.692 128.077H818.31l7.19 12.455z"/>
        <path stroke="#F05952" stroke-linejoin="round" stroke-width="2" d="M832.692 128.077H818.31l7.19 12.455z"/>
        <path fill="#FEFEFE" d="M856.323 114.433H841.94l7.19 12.455z"/>
        <path stroke="#F05952" stroke-linejoin="round" stroke-width="2" d="M856.323 114.433H841.94l7.19 12.455z"/>
    </g>
</svg>
