<svg xmlns="http://www.w3.org/2000/svg" width="95" height="95" viewBox="0 0 95 95"><g fill="none" fill-rule="evenodd" stroke="#FD5750" stroke-width="2"><path d="M29.1 61.91l-.814-.814m41.059-25.801L81.12 47.069 47.69 80.5 32.385 65.198m-6.352-6.354L14.26 47.069l33.43-33.434 13.86 13.86"/><path d="M29.685 74.662L47.69 92.664l18.003-18.002M29.688 19.476L47.691 1.47l18.002 18.003m9.59 9.59L93.286 47.07 75.283 65.071m-55.189 0L2.092 47.07l18.006-18.002m21.806 12.455V27.496h27.441v19.577h-3.063v7.386l-7.386-7.386h-5.422"/><path d="M53.476 41.522v19.575H36.484L29.1 68.483v-7.386h-3.066V41.522z"/></g></svg>