<svg xmlns="http://www.w3.org/2000/svg" xmlns:xlink="http://www.w3.org/1999/xlink" width="609" height="476" viewBox="0 0 609 476">
    <defs>
        <path id="a" d="M0 420h503.167V.087H0z"/>
    </defs>
    <g fill="none" fill-rule="evenodd">
        <path fill="#000" fill-rule="nonzero" d="M0 0h609v476H0z"/>
        <path stroke="#F05952" stroke-width="2" d="M152 322h202V173H152z"/>
        <g transform="translate(48 28)">
            <path stroke="#F05952" stroke-width="2" d="M104.399 169.899v-70.84c0-53.913 43.742-97.619 97.701-97.619h6.264c53.96 0 97.703 43.706 97.703 97.62v70.839"/>
            <path stroke="#F05952" stroke-width="2" d="M60.183 173.964h68.603V99.06c0-40.392 32.89-73.253 73.315-73.253h6.263c40.426 0 73.315 32.86 73.315 73.253v46.472"/>
            <mask id="b" fill="#fff">
                <use xlink:href="#a"/>
            </mask>
            <path stroke="#F05952" stroke-width="2" d="M3.27 202.396h56.913v-56.864H3.271zM3.27 294.272h56.913V237.41zM380.617 294.272c0-41.139-33.378-74.487-74.55-74.487-41.174 0-74.552 33.348-74.552 74.487 0 41.14 33.378 74.487 74.552 74.487 41.172 0 74.55-33.348 74.55-74.487z" mask="url(#b)"/>
            <path stroke="#F05952" stroke-width="2" d="M181.588 294.272c0 68.69 55.731 124.374 124.478 124.374 68.748 0 124.479-55.683 124.479-124.374M487.599 1.44H343.386v144.092zM343.385 99.348l97.99-97.907M493.24 107.95L359.123 241.951M253.702 347.283l-55.724 55.678M199.93 408.156a5.498 5.498 0 0 1-6.73 3.892 5.495 5.495 0 0 1-3.896-6.724 5.502 5.502 0 0 1 6.73-3.893 5.493 5.493 0 0 1 3.896 6.725zM501.625 106.259a5.499 5.499 0 0 1-10.626-2.833 5.5 5.5 0 0 1 6.73-3.892 5.493 5.493 0 0 1 3.896 6.725z" mask="url(#b)"/>
            <path stroke="#F05952" stroke-width="2" d="M435.858 290.193a5.499 5.499 0 0 1-6.73 3.892 5.493 5.493 0 1 1 2.835-10.617 5.495 5.495 0 0 1 3.895 6.725zM411.623 225.36l-18.268 4.881 13.365 13.368zM433.033 203.967l-18.268 4.882 13.367 13.367zM454.445 182.575l-18.27 4.881 13.367 13.368zM475.855 161.182l-18.269 4.882 13.366 13.367zM205.233 1.44v24.367M193.039 257.237h24.387v-74.904h-24.387zM343.385 22.242h77.172M343.385 41.664h57.733M343.385 61.087h38.295M343.385 80.51h18.854M59.995 104.928a5.498 5.498 0 0 1-6.73 3.892 5.495 5.495 0 0 1-3.896-6.724 5.5 5.5 0 0 1 6.73-3.893 5.493 5.493 0 0 1 3.896 6.725zM61.585 81.838a5.501 5.501 0 0 1-7.263 2.773 5.492 5.492 0 0 1-2.776-7.258 5.501 5.501 0 0 1 7.263-2.774 5.493 5.493 0 0 1 2.776 7.259zM66.829 59.293a5.5 5.5 0 0 1-7.613 1.584 5.491 5.491 0 0 1-1.585-7.606 5.5 5.5 0 0 1 7.613-1.584 5.49 5.49 0 0 1 1.585 7.606zM75.594 37.87a5.502 5.502 0 0 1-7.768.354 5.49 5.49 0 0 1-.355-7.762 5.502 5.502 0 0 1 7.767-.355 5.49 5.49 0 0 1 .356 7.762zM87.655 18.11a5.5 5.5 0 0 1-7.725-.884 5.49 5.49 0 0 1 .885-7.719 5.5 5.5 0 0 1 7.725.883 5.49 5.49 0 0 1-.885 7.72zM14.14 191.897v-17.792M22.934 191.897v-29.503M31.727 191.897v-22.271M40.52 191.897V156.03M49.312 191.897v-24.874" mask="url(#b)"/>
            <path stroke="#F05952" stroke-dasharray="3.009,4.513" stroke-linejoin="round" stroke-width="2" d="M349.874 294.272c0 24.175-19.614 43.77-43.808 43.77-24.193 0-43.807-19.595-43.807-43.77 0-24.173 19.614-43.77 43.807-43.77 24.194 0 43.808 19.597 43.808 43.77z" mask="url(#b)"/>
        </g>
    </g>
</svg>
