<svg xmlns="http://www.w3.org/2000/svg" xmlns:xlink="http://www.w3.org/1999/xlink" width="784" height="699" viewBox="0 0 784 699">
    <defs>
        <path id="a" d="M0 0h784v699H0z"/>
        <path id="c" d="M0 1177h1097.902V.785H0z"/>
    </defs>
    <g fill="none" fill-rule="evenodd">
        <mask id="b" fill="#fff">
            <use xlink:href="#a"/>
        </mask>
        <g mask="url(#b)">
            <path fill="#F1F1F1" d="M562.529 97.307h41.19v-41.19h-41.19zM342.923 235.133h67.94v-67.94h-67.94zM628.845 280.353h67.94v-67.94h-67.94zM566.908 529.923h41.19v-41.19h-41.19zM120.495 514.7h67.94v-67.94h-67.94zM546.712 408.961h22.646v-67.94h-22.646zM524.064 408.961h22.647v-67.94h-22.647zM501.417 408.961h22.647v-67.94h-22.647zM35.323 320.842h67.94v-67.94h-67.94zM718.997 117.904h41.19v-41.19h-41.19zM196.938 304.48h41.19v-13.729h-41.19z"/>
            <path fill="#F1F1F1" d="M196.938 318.21h41.19v-13.73h-41.19zM196.938 331.94h41.19v-13.729h-41.19zM122.947 132.521h41.19v-41.19h-41.19zM353.926 97.31h41.19V56.12h-41.19zM698.402 395.674h41.19v-41.19h-41.19zM356.298 422.424h41.19v-41.19h-41.19z"/>
            <path stroke="#FD5750" stroke-linejoin="round" stroke-width="2" d="M516.701 129.361h28.356l176.948 176.94h47.041M161.381-1.624l130.985 130.985h151.412"/>
            <path stroke="#FD5750" stroke-dasharray="4,6" stroke-linejoin="round" stroke-width="2" d="M245.916 364.866v26.961l286.478 286.477M128.241-1.632l117.674 117.675v178.964M529.71 70.597h105.287l127.48 127.487M205.513-1.632l72.229 72.23h182.595"/>
            <path stroke="#FD5750" stroke-linejoin="round" stroke-width="2" d="M146.645 590.458V367.081M106.316-1.624l106.889 106.896v80.158l-66.56 66.559v45.824M140.968 590.459h11.353M528.38 682.318l8.027-8.028M769.046 311.979v-11.354M759.058 202.058l8.028-8.028"/>
            <g transform="translate(-324 -487.79)">
                <path stroke="#FD5750" stroke-linejoin="round" stroke-width="2" d="M707.34 708.116c-49.84 49.84-118.695 80.66-194.74 80.66-76.047 0-144.903-30.82-194.74-80.66-49.839-49.838-80.668-118.687-80.668-194.739 0-76.054 30.83-144.902 80.667-194.74 49.838-49.839 118.694-80.66 194.74-80.66s144.901 30.821 194.74 80.66C757.17 368.475 788 437.323 788 513.377c0 76.052-30.829 144.901-80.66 194.74zm48.531-438.01c-62.263-62.264-148.268-100.77-243.272-100.77-95.004 0-181.016 38.506-243.272 100.77-62.263 62.254-100.769 148.267-100.769 243.271 0 95.004 38.506 181.015 100.77 243.271 62.255 62.256 148.267 100.762 243.271 100.762 95.004 0 181.01-38.506 243.272-100.762 62.255-62.256 100.762-148.267 100.762-243.27 0-95.005-38.507-181.018-100.762-243.273zM856.633 513.377h-68.634M755.87 756.648l-48.531-48.532"/>
                <path stroke="#FD5750" stroke-dasharray="4,6" stroke-linejoin="round" stroke-width="2" d="M731.605 732.383c56.047-56.047 90.708-133.481 90.708-219.006s-34.661-162.96-90.708-219.006"/>
                <path stroke="#FD5750" stroke-linejoin="round" stroke-width="2" d="M512.595 799.133v47.92M522.07 798.976l1.588 47.894M531.533 798.505l3.176 47.815M540.976 797.72l4.76 47.684M550.387 796.622l6.338 47.5M559.758 795.214l7.909 47.264M569.076 793.495l9.472 46.976M578.332 791.468l11.024 46.636M587.516 789.136l12.564 46.244M596.617 786.5l14.09 45.803M605.627 783.564l15.6 45.31M614.533 780.331l17.095 44.768M623.328 776.805l18.57 44.177M632.001 772.988l20.024 43.536M640.543 768.887L662 811.736M648.943 764.504l22.866 42.114M657.194 759.845l24.25 41.333M665.287 754.915l25.606 40.506M673.21 749.72l26.936 39.635M680.958 744.265l28.234 38.72M688.52 738.556l29.503 37.763M695.89 732.599l30.738 36.764M703.057 726.401l31.94 35.725M503.121 798.976l-1.589 47.894M493.657 798.505l-3.176 47.815M484.214 797.72l-4.759 47.684M474.803 796.622l-6.338 47.5M465.433 795.214l-7.91 47.264M456.114 793.495l-9.472 46.976M446.859 791.468l-11.024 46.636M437.675 789.136L425.11 835.38M428.573 786.5l-14.09 45.803M419.564 783.564l-15.602 45.31M410.657 780.331l-17.095 44.768M401.863 776.805l-18.57 44.177M393.19 772.988l-20.024 43.536M384.648 768.887l-21.457 42.849M376.247 764.504l-22.865 42.114M367.996 759.845l-24.25 41.333M359.904 754.915l-25.606 40.506M351.98 749.72l-26.935 39.635M344.232 744.265l-28.234 38.72M336.67 738.556l-29.502 37.763M329.3 732.599l-30.738 36.764"/>
                <path stroke="#FD5750" stroke-dasharray="3.996,5.995" stroke-linejoin="round" stroke-width="2" d="M755.87 513.377c0 134.359-108.92 243.279-243.278 243.279-134.36 0-243.28-108.92-243.28-243.28 0-134.358 108.92-243.278 243.28-243.278 134.359 0 243.279 108.92 243.279 243.279z"/>
                <path stroke="#FD5750" stroke-dasharray="3.997,5.996" stroke-linejoin="round" stroke-width="2" d="M1016.713 513.377c0 278.418-225.703 504.12-504.122 504.12-278.418 0-504.12-225.702-504.12-504.12 0-278.42 225.702-504.121 504.12-504.121 278.42 0 504.122 225.702 504.122 504.12z"/>
                <path fill="#FFF" d="M1024.183 513.377a7.47 7.47 0 1 1-14.941-.002 7.47 7.47 0 0 1 14.941.002"/>
                <path stroke="#FD5750" stroke-linejoin="round" stroke-width="2" d="M1024.183 513.377a7.47 7.47 0 1 1-14.941-.002 7.47 7.47 0 0 1 14.941.002z"/>
                <path fill="#FFF" d="M874.341 875.127a7.47 7.47 0 1 1-10.563-10.565 7.47 7.47 0 0 1 10.563 10.565"/>
                <path stroke="#FD5750" stroke-linejoin="round" stroke-width="2" d="M874.341 875.127a7.47 7.47 0 1 1-10.563-10.565 7.47 7.47 0 0 1 10.563 10.565z"/>
                <path fill="#FFF" d="M512.591 1024.968a7.47 7.47 0 1 1 0-14.94 7.47 7.47 0 1 1 0 14.94"/>
                <path stroke="#FD5750" stroke-linejoin="round" stroke-width="2" d="M512.591 1024.968a7.47 7.47 0 1 1 0-14.94 7.47 7.47 0 1 1 0 14.94z"/>
                <path fill="#FFF" d="M985.594 708.297a7.47 7.47 0 1 1-13.814-5.693 7.47 7.47 0 0 1 13.814 5.693"/>
                <path stroke="#FD5750" stroke-linejoin="round" stroke-width="2" d="M985.594 708.297a7.47 7.47 0 1 1-13.814-5.693 7.47 7.47 0 0 1 13.814 5.693z"/>
                <path fill="#FFF" d="M709.226 985.67a7.47 7.47 0 1 1-5.743-13.792 7.47 7.47 0 0 1 5.743 13.792"/>
                <path stroke="#FD5750" stroke-linejoin="round" stroke-width="2" d="M709.226 985.67a7.47 7.47 0 1 1-5.743-13.792 7.47 7.47 0 0 1 5.743 13.792z"/>
                <path fill="#FFF" d="M317.671 986.38a7.47 7.47 0 1 1 5.692-13.813 7.47 7.47 0 0 1-5.692 13.813"/>
                <path stroke="#FD5750" stroke-linejoin="round" stroke-width="2" d="M317.671 986.38a7.47 7.47 0 1 1 5.692-13.813 7.47 7.47 0 0 1-5.692 13.813z"/>
                <mask id="d" fill="#fff">
                    <use xlink:href="#c"/>
                </mask>
                <path fill="#FFF" d="M876.529 575.097h41.19v-41.19h-41.19z" mask="url(#d)"/>
                <path stroke="#FD5750" stroke-linejoin="round" stroke-width="2" d="M876.529 575.097h41.19v-41.19h-41.19z" mask="url(#d)"/>
                <path fill="#FFF" d="M884.552 567.074h25.145v-25.145h-25.145z" mask="url(#d)"/>
                <path stroke="#FD5750" stroke-linejoin="round" stroke-width="2" d="M884.552 567.074h25.145v-25.145h-25.145z" mask="url(#d)"/>
                <path fill="#FFF" d="M892.574 559.052h9.1v-9.1h-9.1z" mask="url(#d)"/>
                <path stroke="#FD5750" stroke-linejoin="round" stroke-width="2" d="M892.574 559.052h9.1v-9.1h-9.1z" mask="url(#d)"/>
                <path fill="#FFF" d="M656.923 712.923h67.94v-67.94h-67.94z" mask="url(#d)"/>
                <path stroke="#FD5750" stroke-linejoin="round" stroke-width="2" d="M656.923 712.923h67.94v-67.94h-67.94z" mask="url(#d)"/>
                <path fill="#F1F1F1" d="M703.513 657.094h-25.24l-12.622 21.859 12.621 21.86h25.241l12.621-21.86z" mask="url(#d)"/>
                <path fill="#FFF" d="M942.845 758.143h67.94v-67.94h-67.94z" mask="url(#d)"/>
                <path stroke="#FD5750" stroke-linejoin="round" stroke-width="2" d="M942.845 758.143h67.94v-67.94h-67.94z" mask="url(#d)"/>
                <path fill="#FFF" d="M963.39 707.574a4.394 4.394 0 1 1-8.788 0 4.394 4.394 0 0 1 8.788 0" mask="url(#d)"/>
                <path stroke="#FD5750" stroke-linejoin="round" stroke-width="2" d="M963.39 707.574a4.394 4.394 0 1 1-8.788 0 4.394 4.394 0 0 1 8.788 0z" mask="url(#d)"/>
                <g mask="url(#d)">
                    <path fill="#FFF" d="M969.004 707.574h30.023"/>
                    <path stroke="#FD5750" stroke-linejoin="round" stroke-width="2" d="M969.004 707.574h30.023"/>
                </g>
                <path fill="#FFF" d="M963.39 724.173a4.394 4.394 0 1 1-8.789 0 4.394 4.394 0 0 1 8.789 0" mask="url(#d)"/>
                <path stroke="#FD5750" stroke-linejoin="round" stroke-width="2" d="M963.39 724.173a4.394 4.394 0 1 1-8.789 0 4.394 4.394 0 0 1 8.789 0z" mask="url(#d)"/>
                <g mask="url(#d)">
                    <path fill="#FFF" d="M969.004 724.173h30.023"/>
                    <path stroke="#FD5750" stroke-linejoin="round" stroke-width="2" d="M969.004 724.173h30.023"/>
                </g>
                <path fill="#FFF" d="M963.39 740.77a4.394 4.394 0 1 1-8.788.001 4.394 4.394 0 0 1 8.788 0" mask="url(#d)"/>
                <path stroke="#FD5750" stroke-linejoin="round" stroke-width="2" d="M963.39 740.77a4.394 4.394 0 1 1-8.788.001 4.394 4.394 0 0 1 8.788 0z" mask="url(#d)"/>
                <g mask="url(#d)">
                    <path fill="#FFF" d="M969.004 740.77h30.023"/>
                    <path stroke="#FD5750" stroke-linejoin="round" stroke-width="2" d="M969.004 740.77h30.023"/>
                </g>
                <path fill="#FFF" d="M880.908 1007.713h41.19v-41.19h-41.19z" mask="url(#d)"/>
                <path stroke="#FD5750" stroke-linejoin="round" stroke-width="2" d="M880.908 1007.713h41.19v-41.19h-41.19zM886.548 987.117h29.91" mask="url(#d)"/>
                <path stroke="#FD5750" stroke-linejoin="round" stroke-width="2" d="M916.457 987.117c0 8.26-6.695 14.955-14.955 14.955-8.259 0-14.955-6.695-14.955-14.955 0-8.259 6.696-14.955 14.955-14.955 8.26 0 14.955 6.696 14.955 14.955z" mask="url(#d)"/>
                <path fill="#FFF" d="M434.495 992.49h67.94v-67.94h-67.94z" mask="url(#d)"/>
                <path stroke="#FD5750" stroke-linejoin="round" stroke-width="2" d="M434.495 992.49h67.94v-67.94h-67.94z" mask="url(#d)"/>
                <path fill="#F1F1F1" d="M468.465 935.787l-25.244 43.724h50.488z" mask="url(#d)"/>
                <path fill="#FFF" d="M860.712 886.751h22.646v-67.94h-22.646z" mask="url(#d)"/>
                <path stroke="#FD5750" stroke-linejoin="round" stroke-width="2" d="M860.712 886.751h22.646v-67.94h-22.646z" mask="url(#d)"/>
                <path fill="#FFF" d="M838.064 886.751h22.647v-67.94h-22.647z" mask="url(#d)"/>
                <path stroke="#FD5750" stroke-linejoin="round" stroke-width="2" d="M838.064 886.751h22.647v-67.94h-22.647z" mask="url(#d)"/>
                <path fill="#FFF" d="M815.417 886.751h22.647v-67.94h-22.647z" mask="url(#d)"/>
                <path stroke="#FD5750" stroke-linejoin="round" stroke-width="2" d="M815.417 886.751h22.647v-67.94h-22.647z" mask="url(#d)"/>
                <path fill="#FFF" d="M349.323 798.632h67.94v-67.94h-67.94z" mask="url(#d)"/>
                <path stroke="#FD5750" stroke-linejoin="round" stroke-width="2" d="M349.323 798.632h67.94v-67.94h-67.94z" mask="url(#d)"/>
                <path fill="#F1F1F1" d="M383.293 784.644l-19.983-19.982 19.983-19.984 19.983 19.984z" mask="url(#d)"/>
                <path fill="#FFF" d="M1032.997 595.694h41.19v-41.19h-41.19z" mask="url(#d)"/>
                <path stroke="#FD5750" stroke-linejoin="round" stroke-width="2" d="M1032.997 595.694h41.19v-41.19h-41.19z" mask="url(#d)"/>
                <g mask="url(#d)">
                    <path fill="#FFF" d="M1042.894 587.675v-15.016"/>
                    <path stroke="#FD5750" stroke-linejoin="round" stroke-width="2" d="M1042.894 587.675v-15.016"/>
                </g>
                <g mask="url(#d)">
                    <path fill="#FFF" d="M1050.026 587.675v-20.271"/>
                    <path stroke="#FD5750" stroke-linejoin="round" stroke-width="2" d="M1050.026 587.675v-20.271"/>
                </g>
                <g mask="url(#d)">
                    <path fill="#FFF" d="M1057.158 587.675v-25.15"/>
                    <path stroke="#FD5750" stroke-linejoin="round" stroke-width="2" d="M1057.158 587.675v-25.15"/>
                </g>
                <g mask="url(#d)">
                    <path fill="#FFF" d="M1064.29 587.675v-10.136"/>
                    <path stroke="#FD5750" stroke-linejoin="round" stroke-width="2" d="M1064.29 587.675v-10.136"/>
                </g>
                <path fill="#FFF" d="M510.938 782.27h41.19v-13.729h-41.19z" mask="url(#d)"/>
                <path stroke="#FD5750" stroke-linejoin="round" stroke-width="2" d="M510.938 782.27h41.19v-13.729h-41.19z" mask="url(#d)"/>
                <path fill="#FFF" d="M510.938 796h41.19v-13.73h-41.19z" mask="url(#d)"/>
                <path stroke="#FD5750" stroke-linejoin="round" stroke-width="2" d="M510.938 796h41.19v-13.73h-41.19z" mask="url(#d)"/>
                <path fill="#FFF" d="M510.938 809.73h41.19v-13.729h-41.19z" mask="url(#d)"/>
                <path stroke="#FD5750" stroke-linejoin="round" stroke-width="2" d="M510.938 809.73h41.19v-13.729h-41.19z" mask="url(#d)"/>
                <path fill="#FFF" d="M436.947 610.311h41.19v-41.19h-41.19z" mask="url(#d)"/>
                <path stroke="#FD5750" stroke-linejoin="round" stroke-width="2" d="M436.947 610.311h41.19v-41.19h-41.19z" mask="url(#d)"/>
                <path stroke="#FD5750" stroke-linejoin="round" stroke-width="2" d="M441.976 601.72l7.387-8.356 5.013 3.08 6.332-10.288 6.068 7.782 6.332-16.226" mask="url(#d)"/>
                <path fill="#FFF" d="M667.926 575.1h41.19v-41.19h-41.19z" mask="url(#d)"/>
                <path stroke="#FD5750" stroke-linejoin="round" stroke-width="2" d="M667.926 575.1h41.19v-41.19h-41.19zM709.116 554.504h-41.19" mask="url(#d)"/>
                <path stroke="#FD5750" stroke-linejoin="round" stroke-width="2" d="M708.645 575.098c.011-.147.011-.307.011-.465 0-11.12-9.022-20.131-20.13-20.131-11.12 0-20.13 9.01-20.13 20.13 0 .159 0 .319.01.466M668.406 554.502c-.011-.147-.011-.307-.011-.465 0-11.12 9.01-20.131 20.13-20.131 11.109 0 20.13 9.01 20.13 20.13 0 .159 0 .319-.01.466" mask="url(#d)"/>
                <path fill="#FFF" d="M1012.402 873.464h41.19v-41.19h-41.19z" mask="url(#d)"/>
                <path stroke="#FD5750" stroke-linejoin="round" stroke-width="2" d="M1012.402 873.464h41.19v-41.19h-41.19z" mask="url(#d)"/>
                <path fill="#F1F1F1" d="M1045.338 853.902c0 6.816-5.525 12.342-12.341 12.342-6.816 0-12.341-5.526-12.341-12.342 0-6.815 5.525-12.34 12.341-12.34 6.816 0 12.341 5.525 12.341 12.34" mask="url(#d)"/>
                <path fill="#FFF" d="M1046.139 845.321a4.284 4.284 0 1 1-8.568-.001 4.284 4.284 0 0 1 8.568.001" mask="url(#d)"/>
                <path stroke="#FD5750" stroke-linejoin="round" stroke-width="2" d="M1046.139 845.321a4.284 4.284 0 1 1-8.568-.001 4.284 4.284 0 0 1 8.568.001z" mask="url(#d)"/>
                <path fill="#FFF" d="M670.298 900.214h41.19v-41.19h-41.19z" mask="url(#d)"/>
                <path stroke="#FD5750" stroke-linejoin="round" stroke-width="2" d="M670.298 900.214h41.19v-41.19h-41.19zM690.887 894.688v-9.385M690.887 873.934v-9.385M685.208 879.613h-9.385M705.963 879.613h-9.385" mask="url(#d)"/>
                <path stroke="#FD5750" stroke-width="2" d="M1088.21 1167.308l7.76 2.079-5.68 5.682zM1076.226 1155.323l7.76 2.08-5.68 5.681zM1064.241 1143.339l7.761 2.08-5.68 5.68zM1052.257 1131.355l7.76 2.08-5.68 5.68zM1040.273 1119.371l7.761 2.079-5.68 5.682zM624.045 1119.371l7.76 2.079-5.681 5.682zM612.06 1107.387l7.761 2.079-5.68 5.682zM600.076 1095.402l7.76 2.08-5.68 5.681zM588.092 1083.418l7.761 2.08-5.681 5.68zM576.108 1071.435l7.76 2.079-5.68 5.68zM991.304 918.367l7.76 2.08-5.68 5.681zM979.32 906.384l7.76 2.079-5.68 5.68zM967.336 894.4l7.76 2.078-5.681 5.682zM955.351 882.415l7.761 2.079-5.68 5.682zM943.367 870.43l7.76 2.08-5.68 5.682zM636.63 965.7l7.76 2.08-5.682 5.68zM624.645 953.715l7.76 2.08-5.68 5.68zM612.66 941.731l7.761 2.08-5.68 5.681zM600.677 929.747l7.76 2.079-5.68 5.682zM588.692 917.763l7.761 2.079-5.68 5.682zM814.869 1143.94l7.76 2.078-5.68 5.682zM802.885 1131.955l7.76 2.08-5.681 5.681zM790.9 1119.97l7.762 2.08-5.681 5.682zM778.916 1107.987l7.761 2.08-5.68 5.681zM766.932 1096.003l7.761 2.079-5.68 5.682zM937.808 669.577l7.76 2.08-5.681 5.681zM925.823 657.594l7.761 2.079-5.68 5.68zM913.84 645.61l7.76 2.078-5.68 5.682zM901.855 633.625l7.761 2.079-5.68 5.682zM889.87 621.64l7.762 2.08-5.681 5.682z" mask="url(#d)"/>
            </g>
        </g>
    </g>
</svg>
