<svg xmlns="http://www.w3.org/2000/svg" width="48" height="74" viewBox="0 0 48 74">
    <g fill="none" fill-rule="evenodd" stroke="#F15953">
        <path d="M37.2 26.777l9-14.45.124-11.21-.14-.117C31.987 12.591 15.208 26.481 1.013 38.072c.021.044.017 2.274-.014 6.688l16.778-2.628C11.984 51.237 5.912 61.188 5.912 61.188l.037 11.328L47.412 36.71l-.127-11.015s-7.477.791-10.084 1.083z"/>
        <path d="M47.165 25.764L5.766 61.328a.01.01 0 0 1-.016-.014l16.547-26.543L1.13 37.774a.01.01 0 0 1-.008-.02l44.94-36.49a.01.01 0 0 1 .016.014l-17.87 26.548 18.95-2.08a.01.01 0 0 1 .008.018z"/>
    </g>
</svg>
