<?xml version="1.0" encoding="utf-8"?>
<!-- Generator: Adobe Illustrator 22.1.0, SVG Export Plug-In . SVG Version: 6.00 Build 0)  -->
<svg version="1.1" id="Layer_1" xmlns="http://www.w3.org/2000/svg" xmlns:xlink="http://www.w3.org/1999/xlink" x="0px" y="0px"
	 viewBox="0 0 488.8 600" style="enable-background:new 0 0 488.8 600;" xml:space="preserve">
<style type="text/css">
	.st0{fill:none;stroke:#FD5750;stroke-width:1.6485;stroke-linejoin:round;}
	.st1{fill:none;stroke:#FD5750;stroke-width:1.6485;stroke-linejoin:round;stroke-dasharray:3.2969,4.9454;}
</style>
<title>homepage-hero</title>
<g id="Layer_1_1_">
	<path class="st0" d="M292.9,3.4h185c4.5,0,8.1,3.6,8.1,8.1v185c0,4.5-3.6,8.1-8.1,8.1h-185c-4.5,0-8.1-3.6-8.1-8.1v-185
		C284.8,7,288.4,3.4,292.9,3.4z"/>
	<line class="st1" x1="284.8" y1="49.6" x2="172.7" y2="49.6"/>
	<circle class="st1" cx="385.4" cy="103.9" r="85.7"/>
	<path class="st0" d="M292.9,314.9H430c4.5,0,8.1,3.6,8.1,8.1v137.2c0,4.5-3.6,8.1-8.1,8.1H292.9c-4.5,0-8.1-3.6-8.1-8.1V323
		C284.8,318.6,288.4,314.9,292.9,314.9z"/>
	<polygon class="st1" points="394.7,333.8 327.8,333.8 294.3,391.8 327.8,449.8 394.7,449.8 428.2,391.8 	"/>
	<path class="st0" d="M11,328.1h137.2c4.5,0,8.1,3.6,8.1,8.1v75.3c0,4.5-3.6,8.1-8.1,8.1H11c-4.5,0-8.1-3.6-8.1-8.1v-75.3
		C2.9,331.7,6.5,328.1,11,328.1z"/>
	<line class="st0" x1="54" y1="328.1" x2="54" y2="419.6"/>
	<line class="st0" x1="105.1" y1="328.1" x2="105.1" y2="419.6"/>
	<path class="st1" d="M40,583.6V455.7c0-4.5,3.6-8.1,8.1-8.1H177c4.5,0,8.1-3.6,8.1-8.1V236.6"/>
	<path class="st1" d="M428.2,204.5v58.1c0,2.1-0.9,4.2-2.4,5.7l-46.7,46.7"/>
	<line class="st1" x1="284.8" y1="409.3" x2="194.5" y2="499.6"/>
	<circle class="st0" cx="40.3" cy="589.7" r="6.9"/>
	<circle class="st0" cx="192" cy="506.4" r="6.9"/>
	<circle class="st0" cx="166.4" cy="49.8" r="6.9"/>
	<circle class="st0" cx="185.4" cy="233.6" r="6.9"/>
</g>
</svg>
