<svg xmlns="http://www.w3.org/2000/svg" xmlns:xlink="http://www.w3.org/1999/xlink" width="609" height="476" viewBox="0 0 609 476">
    <defs>
        <path id="a" d="M0 0h609v476H0z"/>
    </defs>
    <g fill="none" fill-rule="evenodd">
        <mask id="b" fill="#fff">
            <use xlink:href="#a"/>
        </mask>
        <use fill="#000" fill-rule="nonzero" xlink:href="#a"/>
        <g mask="url(#b)">
            <path stroke="#F05952" stroke-width="2" d="M508.336 441.912c-112.837 112.836-295.448 112.836-408.285 0l51.03-51.03c42.31 42.308 97.706 63.464 153.113 63.464 55.395 0 110.791-21.156 153.112-63.464l51.03 51.03zM592.954 238.731h-72.185M508.336 33.627l-51.03 51.03C372.676.027 235.71.038 151.08 84.657l-51.03-51.03c112.837-112.836 295.448-112.836 408.285 0z"/>
            <path stroke="#F05952" stroke-width="2" d="M304.193 382.161v72.185c-55.407 0-110.802-21.156-153.112-63.464-42.31-42.31-63.464-97.706-63.464-153.112 0-55.396 21.155-110.792 63.464-153.113l51.041 51.042c-56.423 56.423-56.423 147.729 0 204.142 28.207 28.217 65.133 42.32 102.071 42.32z"/>
            <path stroke="#F05952" stroke-width="2" d="M457.306 84.657l-51.041 51.041c-28.207-28.217-65.134-42.32-102.071-42.32-36.927 0-73.854 14.103-102.072 42.32L151.08 84.657c84.631-84.619 221.596-84.63 306.226 0zM151.08 84.657c84.63-84.619 221.595-84.63 306.226 0"/>
            <path stroke="#F05952" stroke-width="2" d="M447.097 94.866c-39.493-39.496-91.199-59.24-142.905-59.24-51.704.002-103.407 19.749-142.903 59.24"/>
            <path stroke="#F05952" stroke-width="2" d="M436.89 105.074c-36.672-36.676-84.683-55.01-132.698-55.01-48.009.002-96.018 18.337-132.694 55.01"/>
            <path stroke="#F05952" stroke-width="2" d="M426.68 115.282c-33.85-33.857-78.165-50.78-122.487-50.78-44.315 0-88.631 16.925-122.487 50.78"/>
            <path stroke="#F05952" stroke-width="2" d="M416.472 125.49c-31.028-31.037-71.65-46.55-112.279-46.55-40.62 0-81.242 15.514-112.28 46.55"/>
            <path stroke="#F05952" stroke-width="2" d="M406.264 135.698c-28.206-28.217-65.133-42.32-102.07-42.32-36.927 0-73.854 14.103-102.072 42.32M376.378 238.731c-.232 18.148-7.284 36.22-21.144 50.08-28.217 28.206-73.864 28.206-102.082 0-28.206-28.218-28.206-73.865 0-102.083 14.103-14.103 32.572-21.154 51.041-21.154 18.47 0 36.938 7.051 51.041 21.154 14.347 14.358 21.398 33.214 21.144 52.003zM592.965 238.731h-.01M355.234 288.81l-.01-.01M253.163 186.74l-.01-.012M253.163 288.8l-.01.01"/>
            <path stroke="#F05952" stroke-width="2" d="M448.574 238.731c-.232 36.606-14.336 73.135-42.31 101.11-28.217 28.217-65.144 42.32-102.07 42.32-36.939 0-73.866-14.103-102.072-42.32l51.03-51.03c28.217 28.206 73.865 28.206 102.082 0 13.86-13.86 20.912-31.932 21.144-50.08h72.196zM304.193 365.582v-39.038M298.976 326.39l-2.299 38.971M293.185 325.87l-4.841 38.74M286.775 324.83l-7.66 38.298M279.789 323.162l-10.721 37.546M272.306 320.664l-14.014 36.44M264.47 317.205l-17.452 34.915M256.523 312.684l-20.955 32.926M248.787 307.025l-24.294 30.373M431.055 253.63l-38.817-4.852M429.541 262.837l-38.286-7.648M427.132 272.894l-37.557-10.732M423.517 283.66l-36.44-14.015M418.533 294.945l-34.915-17.464M412.023 306.384l-32.915-20.945M403.965 317.592l-30.45-24.371M394.538 328.114l-27.588-27.577M384.016 337.541l-24.371-30.46M372.808 345.599l-20.945-32.926M361.369 352.12l-17.464-34.915M350.095 357.105l-14.015-36.44M339.308 360.697l-10.722-37.535M329.272 363.128l-7.66-38.286M320.043 364.62l-4.842-38.75M311.687 365.36l-2.288-38.97M278.86 418.86c-3.821 13.412-17.79 21.188-31.2 17.367-13.413-3.82-21.188-17.79-17.368-31.2 3.821-13.412 17.79-21.188 31.202-17.367 13.411 3.82 21.187 17.79 17.366 31.2z"/>
            <path stroke="#F05952" stroke-width="2" d="M239.922 408.957c-6.657 12.253-21.988 16.79-34.241 10.132-12.253-6.656-16.79-21.987-10.132-34.24 6.656-12.253 21.987-16.79 34.24-10.133 12.253 6.657 16.79 21.988 10.133 34.241z"/>
            <path stroke="#F05952" stroke-width="2" d="M204.086 390.788c-9.173 10.504-25.123 11.582-35.627 2.411-10.503-9.173-11.582-25.124-2.41-35.627 9.172-10.505 25.123-11.583 35.626-2.41 10.505 9.172 11.584 25.123 2.411 35.626z"/>
            <path stroke="#F05952" stroke-width="2" d="M173.084 365.232c-11.245 8.246-27.046 5.817-35.294-5.43-8.247-11.244-5.816-27.045 5.43-35.292 11.244-8.247 27.046-5.816 35.293 5.429 8.247 11.245 5.815 27.047-5.43 35.293z"/>
            <path stroke="#F05952" stroke-width="2" d="M148.412 333.521c-12.776 5.593-27.664-.23-33.257-13.005-5.591-12.775.231-27.664 13.006-33.255 12.775-5.593 27.665.23 33.256 13.005 5.592 12.775-.23 27.664-13.005 33.255z"/>
            <path stroke="#F05952" stroke-width="2" d="M131.26 297.189c-13.688 2.667-26.945-6.267-29.612-19.955-2.668-13.687 6.266-26.946 19.954-29.613 13.688-2.667 26.945 6.267 29.612 19.955 2.667 13.687-6.266 26.946-19.954 29.613z"/>
            <path stroke="#F05952" stroke-width="2" d="M122.457 257.986c-13.94-.387-24.926-12-24.54-25.94.387-13.94 12.001-24.926 25.94-24.54 13.94.388 24.928 12.002 24.54 25.94-.386 13.94-12 24.927-25.94 24.54z"/>
            <path stroke="#F05952" stroke-width="2" d="M122.43 217.808c-13.52-3.422-21.705-17.154-18.283-30.673 3.422-13.518 17.155-21.704 30.673-18.282 13.519 3.422 21.704 17.155 18.282 30.673-3.421 13.519-17.154 21.704-30.673 18.282z"/>
            <path stroke="#F05952" stroke-width="2" d="M131.176 178.594c-12.445-6.291-17.433-21.48-11.142-33.926 6.292-12.445 21.481-17.433 33.926-11.141 12.446 6.291 17.434 21.48 11.142 33.925-6.292 12.445-21.48 17.433-33.926 11.142zM592.954 238.731c-.232 73.544-28.45 147.011-84.619 203.18l-51.029-51.03c42.065-42.077 63.22-97.075 63.463-152.15h72.185zM590.565 274.848l-71.617-9.03M583.081 312.64l-69.778-18.484M570.632 349.098l-66.697-27.608M553.441 383.576l-62.427-36.24M531.814 415.458l-57.048-44.229M556.094 238.731c-.254 69.178-28.394 131.792-73.776 177.163"/>
            <path stroke="#F05952" stroke-width="2" d="M520.77 238.731c-.243 55.075-21.398 110.073-63.464 152.15l-51.041-51.04c27.974-27.975 42.077-64.504 42.309-101.11.254-37.258-13.849-74.583-42.31-103.033l51.042-51.04c42.563 42.563 63.707 98.346 63.464 154.073z"/>
            <path stroke="#F05952" stroke-width="2" d="M446.855 334.306l9.276-12.802 12.802 9.276-9.275 12.803zM467.813 291.622l5.422-14.85 14.851 5.42-5.421 14.851zM476.302 244.834l1.155-15.767 15.768 1.155-1.155 15.767zM468.477 182.025l15.482-3.2 3.2 15.483-15.482 3.2zM446.975 139.232l14.018-7.311 7.312 14.017-14.019 7.311zM151.08 390.881l-51.03 51.03C43.639 385.5 15.42 311.634 15.42 237.77h72.197c0 55.407 21.154 110.803 63.464 153.112z"/>
            <path stroke="#F05952" stroke-width="2" d="M100.608 388.653l3.494 19.139 14.828-12.595zM81.345 358.397l.756 19.44 16.458-10.373zM66.545 325.726l-1.996 19.353 17.759-7.948zM56.507 291.291L51.8 310.168l18.702-5.36zM51.432 255.785l-7.327 18.023 19.272-2.665zM151.08 84.657c-42.309 42.32-63.463 97.716-63.463 153.112H15.42c0-73.865 28.217-147.73 84.63-204.142l51.03 51.03zM124.953 58.529c-45.869 45.88-74.24 109.244-74.24 179.24"/>
            <path fill="#231F20" d="M60.29 210.94a7.936 7.936 0 1 0-15.868-.352 7.936 7.936 0 0 0 15.868.353"/>
            <path stroke="#F05952" stroke-width="2" d="M60.29 210.94a7.936 7.936 0 1 0-15.868-.352 7.936 7.936 0 0 0 15.868.353z"/>
            <path fill="#231F20" d="M66.625 176.368a7.936 7.936 0 1 0-15.655-2.616 7.936 7.936 0 0 0 15.655 2.616"/>
            <path stroke="#F05952" stroke-width="2" d="M66.625 176.368a7.936 7.936 0 1 0-15.655-2.616 7.936 7.936 0 0 0 15.655 2.616z"/>
            <path fill="#231F20" d="M77.836 143.056a7.935 7.935 0 0 0-5.148-9.973 7.934 7.934 0 0 0-9.972 5.146 7.936 7.936 0 0 0 15.12 4.827"/>
            <path stroke="#F05952" stroke-width="2" d="M77.836 143.056a7.935 7.935 0 0 0-5.148-9.973 7.934 7.934 0 0 0-9.972 5.146 7.936 7.936 0 0 0 15.12 4.827z"/>
            <path fill="#231F20" d="M93.69 111.686a7.936 7.936 0 0 0-3.67-10.606 7.935 7.935 0 0 0-10.605 3.668 7.937 7.937 0 0 0 14.276 6.938"/>
            <path stroke="#F05952" stroke-width="2" d="M93.69 111.686a7.936 7.936 0 0 0-3.67-10.606 7.935 7.935 0 0 0-10.605 3.668 7.937 7.937 0 0 0 14.276 6.938z"/>
            <path fill="#231F20" d="M113.864 82.904A7.936 7.936 0 1 0 100.724 74a7.936 7.936 0 0 0 13.14 8.905"/>
            <path stroke="#F05952" stroke-width="2" d="M113.864 82.904A7.936 7.936 0 1 0 100.724 74a7.936 7.936 0 0 0 13.14 8.905zM361.369 237.77c0 31.577-25.598 57.175-57.176 57.175-31.577 0-57.175-25.598-57.175-57.176 0-31.577 25.598-57.175 57.175-57.175 31.578 0 57.176 25.598 57.176 57.175z"/>
            <path stroke="#F05952" stroke-width="2" d="M448.574 238.731h-72.196c.254-18.79-6.797-37.645-21.144-52.003-14.103-14.103-32.572-21.154-51.04-21.154V93.378c36.937 0 73.864 14.103 102.07 42.32 28.46 28.45 42.564 65.775 42.31 103.033z"/>
            <path stroke="#F05952" stroke-width="2" d="M431.476 238.731l2.453-.962-43.669-17.142 33.821-32.528-46.918.94 18.767-43.006-43.006 18.767.94-46.918-32.528 33.82-17.143-43.668M304.193 93.378v72.195c-18.469 0-36.938 7.052-51.04 21.155-28.207 28.218-28.207 73.865 0 102.082l-51.03 51.03c-56.424-56.412-56.424-147.718 0-204.142 28.217-28.217 65.143-42.32 102.07-42.32z"/>
            <path stroke="#F05952" stroke-dasharray="3.052,4.578" stroke-linejoin="round" stroke-width="2" d="M231.999 309.964s-53.837-15.287-60-50.952c-6.161-35.664 32.27-45.786 38.319-65.681 6.048-19.895-10.973-50.705 14.175-66.11 25.148-15.405 46.772 8.673 58.452 8.958 11.679.285 21.244-13.122 21.246-27.961"/>
            <path stroke="#F05952" stroke-dasharray="3.052,4.578" stroke-linejoin="round" stroke-width="2" d="M304.192 119.689c-1.313 11.871-10.28 22.685-20.893 22.903-11.336.232-30.525-17.945-52.293-4.196-2.918 1.855-5.244 3.934-7.096 6.19-12.052 14.72-3.448 36.89-8.35 52.592-5.791 18.47-36.737 29.338-31.262 60.515 5.48 31.197 49.86 45.969 51.931 48.04"/>
            <path stroke="#F05952" stroke-dasharray="3.052,4.578" stroke-linejoin="round" stroke-width="2" d="M304.192 131.16c-2.625 8.904-10.996 17.166-20.54 17.845-10.998.781-27.782-11.578-46.134.567-2.526 1.672-4.592 3.54-6.298 5.551-10.933 12.933-5.865 31.77-10.419 45.9-5.53 17.048-28.994 28.66-24.204 55.351 4.798 26.731 39.722 40.986 43.863 45.128"/>
            <path stroke="#F05952" stroke-dasharray="3.052,4.578" stroke-linejoin="round" stroke-width="2" d="M304.192 142.631c-3.936 5.937-11.713 11.692-20.186 12.785-10.664 1.377-25.011-5.165-39.974 5.33a31.34 31.34 0 0 0-5.501 4.911c-9.814 11.15-8.283 26.653-12.488 39.214-5.272 15.623-21.252 27.979-17.148 50.183 4.116 22.264 29.584 36.003 35.796 42.218"/>
            <path stroke="#F05952" stroke-dasharray="3.052,4.578" stroke-linejoin="round" stroke-width="2" d="M304.193 154.102c-5.248 2.97-12.426 6.266-19.833 7.727-10.32 2.035-22.226 1.267-33.816 10.094a37.328 37.328 0 0 0-4.703 4.27c-8.695 9.364-10.7 21.535-14.555 32.525-5.014 14.2-13.51 27.3-10.092 45.017 3.434 17.797 19.445 31.02 27.728 39.307"/>
            <path stroke="#F05952" stroke-dasharray="3.052,4.578" stroke-linejoin="round" stroke-width="2" d="M304.193 165.574c-18.469 0-36.938 7.051-51.04 21.155-28.207 28.217-28.207 73.864 0 102.082"/>
            <path stroke="#F05952" stroke-width="2" d="M592.954 238.731h-72.185c.243-55.727-20.9-111.51-63.463-154.074l51.03-51.03c56.666 56.667 84.872 130.919 84.618 205.104z"/>
            <path stroke="#F05952" stroke-width="2" d="M520.714 232.862l21.343-8.621 12.6-89.593-71.29-55.716-22.702 9.174M571.393 128.278l-66.704 27.592M457.306 390.881c-42.32 42.31-97.717 63.464-153.112 63.464v-72.184c36.926 0 73.853-14.103 102.07-42.32l51.042 51.04z"/>
            <path stroke="#F05952" stroke-width="2" d="M328.2 453.009c-6.897-27.533 7.505-56.579 34.606-67.322 27.1-10.743 57.484.553 71.311 25.333M8.82 158.962a4.485 4.485 0 1 1-8.668-2.314 4.486 4.486 0 1 1 8.669 2.313zM15.015 138.616a4.485 4.485 0 1 1-8.486-2.91 4.486 4.486 0 0 1 8.486 2.91zM22.609 118.751a4.487 4.487 0 1 1-8.265-3.495 4.487 4.487 0 0 1 8.265 3.495zM31.565 99.462a4.486 4.486 0 1 1-8.002-4.06 4.486 4.486 0 0 1 8.002 4.06zM41.84 80.842a4.485 4.485 0 1 1-7.698-4.605 4.485 4.485 0 0 1 7.698 4.605zM599.566 316.577a4.485 4.485 0 1 1 8.668 2.313 4.486 4.486 0 1 1-8.669-2.313zM593.372 336.923a4.485 4.485 0 1 1 8.486 2.91 4.486 4.486 0 0 1-8.486-2.91zM585.778 356.788a4.487 4.487 0 1 1 8.265 3.495 4.487 4.487 0 0 1-8.265-3.495zM576.822 376.077a4.486 4.486 0 1 1 8.001 4.06 4.486 4.486 0 0 1-8.001-4.06zM566.547 394.697a4.485 4.485 0 1 1 7.698 4.605 4.485 4.485 0 0 1-7.698-4.605z"/>
        </g>
    </g>
</svg>
