<svg xmlns="http://www.w3.org/2000/svg" width="1148" height="1148" viewBox="0 0 1148 1148">
    <g fill="none" fill-rule="evenodd" stroke="#5B5B5B" stroke-dasharray="4,4" stroke-width="2">
        <path stroke-opacity=".35" d="M574 700c69.588 0 126-56.412 126-126s-56.412-126-126-126-126 56.412-126 126 56.412 126 126 126z"/>
        <path stroke-opacity=".2" d="M574 841c147.46 0 267-119.54 267-267 0-147.46-119.54-267-267-267-147.46 0-267 119.54-267 267 0 147.46 119.54 267 267 267z"/>
        <path stroke-opacity=".15" d="M574 996c233.064 0 422-188.936 422-422S807.064 152 574 152 152 340.936 152 574s188.936 422 422 422z"/>
        <path stroke-opacity=".1" d="M574 1147c316.46 0 573-256.54 573-573S890.46 1 574 1 1 257.54 1 574s256.54 573 573 573z"/>
    </g>
</svg>
