<?xml version="1.0" encoding="utf-8"?>
<!-- Generator: Adobe Illustrator 22.1.0, SVG Export Plug-In . SVG Version: 6.00 Build 0)  -->
<svg version="1.1" xmlns="http://www.w3.org/2000/svg" xmlns:xlink="http://www.w3.org/1999/xlink" x="0px" y="0px"
	 viewBox="0 0 552.3 455" style="enable-background:new 0 0 552.3 455;" xml:space="preserve">
<style type="text/css">
	.st0{fill:#FFFFFF;stroke:#FD5750;stroke-width:2;stroke-linejoin:round;}
	.st1{fill:#FD5750;}
	.st2{fill:none;stroke:#FD5750;stroke-width:2;stroke-linejoin:round;}
	.st3{fill:none;stroke:#FD5750;stroke-width:2;stroke-linejoin:round;stroke-dasharray:4,6;}
	.st4{enable-background:new    ;}
	.st5{fill:#FFFFFF;}
	.st6{fill:#BE413C;}
	.st7{fill:#FE9A96;}
</style>
<g id="base">
	<title>homepage-the rise of serverless</title>
	<rect x="214.3" y="346.7" class="st0" width="106" height="106"/>
	<path class="st1" d="M248.2,419.9H242v-8.4h9L248.2,419.9z M256.2,395.5H242v8.4h11.5L256.2,395.5z M261.5,379.5H242v8.4h16.8
		L261.5,379.5z M270.4,379.5l-2.8,8.4h25.1v-8.4H270.4z M262.3,403.9h30.4v-8.4h-27.6L262.3,403.9z M257,419.9h35.7v-8.4h-32.9
		L257,419.9z"/>
	<path class="st2" d="M214.3,399.7h-30.7c-5.4,0-9.8-4.4-9.8-9.8V265.5c0-5.4-4.4-9.8-9.8-9.8l0,0h-27.3"/>
	<path class="st2" d="M320.3,399.7h25.1c2.6,0,5.1-1,6.9-2.9l48.1-48.1c1.8-1.8,4.3-2.9,6.9-2.9h7.6"/>
	<path class="st2" d="M292.7,346.2V242.7c0-5.4,4.4-9.8,9.8-9.8h21.1c2.6,0,5.1-1,6.9-2.9l56-55.9c1.8-1.8,2.9-4.3,2.9-6.9v-59.2"/>
	<path class="st2" d="M242,346.2l-37.4-37.4c-1.8-1.8-2.9-4.3-2.9-6.9V178.3c0-5.4-4.4-9.8-9.8-9.8l0,0h-25.4
		c-5.4,0-9.8-4.4-9.8-9.8l0,0V55.2"/>
	<path class="st3" d="M267.6,346.7V238.6c0-2.6-1-5.1-2.9-6.9l-12.9-12.9c-3.8-3.8-3.8-10,0-13.9c0,0,0,0,0,0l12.6-12.6
		c1.8-1.8,2.9-4.3,2.9-6.9v-77.3"/>
	<path class="st3" d="M320.3,346.7h23.1c5.4,0,9.8-4.4,9.8-9.8v-58.3c0-2.6,1-5.1,2.9-6.9l67.2-67.2c1.8-1.8,4.3-2.9,6.9-2.9h39"/>
	<path class="st3" d="M214.3,346.7h-14.2c-5.4,0-9.8-4.4-9.8-9.8v-89.4c0-2.6-1-5.1-2.9-6.9l-77.3-77.3c-1.8-1.8-4.3-2.9-6.9-2.9
		H61.2"/>
	<rect x="52.2" y="151.4" class="st0" width="17.9" height="17.9"/>
	<rect x="258.7" y="95.8" class="st0" width="17.9" height="17.9"/>
	<rect x="468.7" y="192.7" class="st0" width="17.9" height="17.9"/>
	<line class="st2" x1="56.4" y1="165.2" x2="65.9" y2="155.6"/>
	<polygon class="st0" points="267.6,101.5 263.2,109.1 272,109.1 	"/>
	<path class="st2" d="M472.5,201.6h10.2 M477.6,196.5v10.2"/>
	<circle class="st0" cx="214.8" cy="319.1" r="3.9"/>
	<circle class="st0" cx="352.1" cy="207.7" r="3.9"/>
	<circle class="st0" cx="366.4" cy="193.4" r="3.9"/>
	<circle class="st0" cx="178" cy="168.5" r="3.9"/>
	<circle class="st0" cx="410.1" cy="218.4" r="3.9"/>
	<circle class="st0" cx="230.1" cy="334.3" r="3.9"/>
	<circle class="st0" cx="267.3" cy="154.1" r="3.9"/>
	<circle class="st0" cx="382.1" cy="366.1" r="3.9"/>
	<circle class="st0" cx="267.3" cy="178.4" r="3.9"/>
	<circle class="st0" cx="267.3" cy="323" r="3.9"/>
	<circle class="st0" cx="174.1" cy="383.7" r="3.9"/>
	<circle class="st0" cx="174.1" cy="277.8" r="3.9"/>
</g>
<g id="logo_lines">
	<line class="st2" x1="415.5" y1="319.7" x2="550.7" y2="319.7"/>
	<line class="st2" x1="550.7" y1="372.6" x2="415.5" y2="372.6"/>
	<line class="st2" x1="1.6" y1="228.7" x2="136.8" y2="228.7"/>
	<line class="st2" x1="136.8" y1="281.6" x2="1.6" y2="281.6"/>
	<line class="st2" x1="82.3" y1="2.3" x2="230.1" y2="2.3"/>
	<line class="st2" x1="230.1" y1="55.2" x2="82.3" y2="55.2"/>
	<line class="st2" x1="329.7" y1="63" x2="450.4" y2="63"/>
	<line class="st2" x1="450.4" y1="107.9" x2="329.7" y2="107.9"/>
</g>
<g id="lambda">
	<g>
		<path class="st1" d="M446.4,329.6c9.1,0,16.6,7.4,16.6,16.5c0,9.1-7.4,16.6-16.6,16.6c-9.1,0-16.6-7.4-16.6-16.5c0,0,0,0,0,0
			C429.8,337,437.2,329.6,446.4,329.6C446.3,329.6,446.3,329.6,446.4,329.6z M446.4,359.5c7.4,0,13.3-6,13.3-13.3s-6-13.3-13.3-13.3
			s-13.3,6-13.3,13.3c0,0,0,0,0,0C433.1,353.5,439,359.5,446.4,359.5L446.4,359.5z"/>
		<path class="st1" d="M455,350.5c0,0.1,0.1,0.3,0.1,0.4l0.7,2.3c0,0.1,0,0.1-0.1,0.1l-5.3,1.5h-0.1l-3.7-9.4l-0.1,0.1l-5.2,8.3
			c-0.1,0.2-0.3,0.3-0.5,0.2c-1,0-2,0-3,0h-0.1c0,0,0-0.1,0-0.1l5.6-9.1c0.6-1,1.3-2,1.9-3.1c0-0.1,0-0.1,0-0.2l-0.8-2.3
			c0-0.1-0.1-0.1-0.1-0.1h-2.8c-0.1,0-0.1,0-0.1-0.1v-2.6c0-0.1,0-0.1,0.1-0.1h4.8c0.1,0,0.1,0,0.1,0.1l4.6,11.6l1.2,3
			c0,0.1,0.1,0.1,0.1,0.1l2.4-0.8L455,350.5z"/>
		<g class="st4">
			<path class="st1" d="M481,349.6h-2.7l-0.3-1.1h-2.2l-0.3,1.1h-2.6l2.6-7.6h2.8L481,349.6z M477.5,346.6l-0.6-2l-0.6,2H477.5z"/>
		</g>
		<g class="st4">
			<path class="st1" d="M491.2,342l-2.1,7.6h-2.5l-1-4.3l-1,4.3H482l-2.1-7.6h2.6l0.9,4.2l0.9-4.2h2.5l0.9,4.2l0.9-4.2H491.2z"/>
		</g>
		<g class="st4">
			<path class="st1" d="M495.7,349.1c-0.6,0.5-1.4,0.6-2.2,0.6c-0.9,0-1.9-0.2-2.9-1l1.1-1.9c0.7,0.6,1.7,0.8,2,0.8s0.6-0.1,0.6-0.3
				c0-0.2-0.3-0.3-0.6-0.4c-0.3-0.1-0.9-0.3-1.1-0.4c-0.2-0.1-0.7-0.2-1-0.6c-0.4-0.3-0.7-0.8-0.7-1.6s0.4-1.5,0.9-1.8
				c0.5-0.4,1.2-0.7,2.2-0.7s2,0.4,2.7,0.9l-0.9,1.8c-0.6-0.5-1.4-0.7-1.8-0.7c-0.4,0-0.6,0.1-0.6,0.3c0,0.2,0.4,0.3,0.5,0.4
				c0.2,0.1,0.6,0.2,0.9,0.3c0.3,0.1,0.9,0.3,1.3,0.6s0.7,0.8,0.7,1.7C496.7,347.9,496.3,348.6,495.7,349.1z"/>
		</g>
		<g class="st4">
			<path class="st1" d="M503.4,349.6h-3.7V342h1.1v6.7h2.7V349.6z"/>
			<path class="st1" d="M508.3,349.6h-1l0-0.7c-0.2,0.2-0.7,0.8-1.7,0.8c-1,0-1.8-0.6-1.8-1.6c0-1,0.8-1.5,2-1.6l1.4-0.1v-0.2
				c0-0.8-0.5-1.2-1.3-1.2s-1.4,0.3-1.6,0.5l-0.3-0.7c0.4-0.2,1.1-0.5,2-0.5s1.4,0.2,1.7,0.6c0.4,0.4,0.6,0.8,0.6,1.7V349.6z
				 M507.2,347.1l-1.2,0.1c-0.8,0-1.2,0.4-1.2,0.9s0.4,0.9,1.1,0.9c0.7,0,1.1-0.5,1.3-0.8V347.1z"/>
			<path class="st1" d="M517.2,349.6h-1v-3c0-0.6-0.1-1.4-1-1.4c-0.8,0-1.3,0.8-1.3,1.7v2.7h-1.1v-3c0-0.8-0.2-1.4-0.9-1.4
				c-0.8,0-1.3,0.8-1.3,1.7v2.7h-1.1v-5.2h1.1l0,0.8h0c0.2-0.5,0.8-0.9,1.5-0.9c0.8,0,1.3,0.4,1.6,1c0.4-0.7,0.9-1,1.7-1
				c1.4,0,1.8,1,1.8,2.2V349.6z"/>
			<path class="st1" d="M521.5,349.7c-0.8,0-1.4-0.3-1.8-0.9h0v0.8h-1V342h1v3.2h0c0.4-0.6,1-0.9,1.8-0.9c1.5,0,2.5,1.2,2.5,2.7
				C524,348.5,523.1,349.7,521.5,349.7z M521.3,345.1c-1,0-1.7,0.8-1.7,1.8c0,1,0.6,1.8,1.7,1.8c1,0,1.7-0.8,1.7-1.8
				C523,345.9,522.4,345.1,521.3,345.1z"/>
			<path class="st1" d="M530.2,349.6h-1v-0.8h0c-0.4,0.6-1.1,1-1.8,1c-1.6,0-2.5-1.2-2.5-2.7c0-1.5,1-2.7,2.5-2.7
				c0.8,0,1.5,0.4,1.8,0.9h0V342h1V349.6z M527.5,345.1c-1,0-1.7,0.8-1.7,1.8c0,1,0.6,1.8,1.7,1.8s1.7-0.8,1.7-1.8
				C529.2,345.9,528.6,345.1,527.5,345.1z"/>
			<path class="st1" d="M535.8,349.6h-1l0-0.7c-0.2,0.2-0.7,0.8-1.7,0.8c-1,0-1.8-0.6-1.8-1.6c0-1,0.8-1.5,2-1.6l1.4-0.1v-0.2
				c0-0.8-0.5-1.2-1.3-1.2s-1.4,0.3-1.6,0.5l-0.3-0.7c0.4-0.2,1.1-0.5,2-0.5s1.4,0.2,1.7,0.6c0.4,0.4,0.6,0.8,0.6,1.7V349.6z
				 M534.7,347.1l-1.2,0.1c-0.8,0-1.2,0.4-1.2,0.9s0.4,0.9,1.1,0.9c0.7,0,1.1-0.5,1.3-0.8V347.1z"/>
		</g>
	</g>
</g>
<g id="twilio">
	<g>
		<path class="st1" d="M394,88.6l-0.9,2.9c-0.2,0.6-0.4,1.2-0.6,1.8c-0.1,0.2-0.2,0.3-0.4,0.3c-1.1,0-2.2,0-3.4,0
			c-0.4,0-0.4-0.2-0.5-0.5c-0.6-2-1.2-4-1.8-5.9c-0.4-1.4-0.9-2.9-1.3-4.3c0-0.1-0.1-0.3-0.2-0.3v2.1c0,0.7,0,0.7-0.7,0.7
			s-1.2,0-1.8,0c-0.3,0-0.4,0.1-0.4,0.4c0,0.9,0,1.9,0,2.8c-0.1,0.5,0.3,1.1,0.8,1.1c0.1,0,0.2,0,0.3,0c0.4,0,0.8-0.1,1.2-0.2
			c0.3-0.1,0.4-0.1,0.4,0.3c0,1,0,2,0,3c0,0.2-0.1,0.3-0.2,0.4c-1.7,0.8-3.6,0.8-5.4,0.1c-1.1-0.4-1.9-1.5-1.9-2.7
			c-0.1-1.5-0.1-2.9-0.1-4.4c0-0.2,0-0.5,0-0.8c-0.4,0-0.7,0-1,0s-0.4-0.1-0.4-0.4c0-1,0-2,0-3.1c0-0.3,0.1-0.4,0.4-0.4h1
			c0-0.7,0-1.4,0-2.2c0-0.3,0.1-0.5,0.4-0.6c0,0,0,0,0,0c1.3-0.4,2.7-0.8,4-1.3c0.5-0.2,0.6-0.1,0.6,0.4c0,1,0,1.9,0,2.9
			c0,0.4,0.1,0.6,0.5,0.6c2,0,4.1,0,6.1,0c0.5,0,0.7,0.2,0.8,0.6c0.3,1.2,0.6,2.5,0.9,3.7c0,0.2,0.1,0.3,0.2,0.5
			c0.1-0.1,0.1-0.3,0.2-0.4c0.4-1.3,0.8-2.7,1.2-4c0-0.2,0.3-0.4,0.5-0.4c0,0,0,0,0,0c1,0,2,0,2.9,0c0.3-0.1,0.7,0.2,0.7,0.5
			c0,0,0,0,0,0c0.4,1.3,0.8,2.6,1.1,3.8c0,0.2,0.1,0.3,0.2,0.4c0-0.2,0.1-0.3,0.1-0.5c0.3-1.3,0.7-2.6,1-3.9
			c0.1-0.3,0.2-0.5,0.6-0.5c2.8,0,5.6,0,8.4,0c0.4,0,0.5,0.1,0.5,0.5c0,3.8,0,7.5,0,11.3c0,0.4-0.1,0.5-0.5,0.5c-1.3,0-2.7,0-4,0
			c-0.4,0-0.5-0.1-0.5-0.5c0-3.4,0-6.8,0-10.2v-0.5h-0.1l-0.1,0.4c-1,3.4-2.1,6.9-3.1,10.3c-0.1,0.4-0.3,0.5-0.7,0.5c-1,0-2,0-3,0
			c-0.5,0-0.6-0.2-0.7-0.6c-0.4-1.4-0.8-2.7-1.2-4C394.2,88.9,394.1,88.8,394,88.6L394,88.6z"/>
		<path class="st1" d="M359.2,98.7c-7.3,0-13.2-6-13.2-13.3s6-13.2,13.3-13.2c7.3,0,13.2,6,13.2,13.3c0,0.1,0,0.2,0,0.3
			C372.3,93,366.4,98.7,359.2,98.7z M369,85.4c0-5.4-4.4-9.8-9.7-9.8c-5.4,0-9.8,4.4-9.8,9.7c0,5.4,4.3,9.7,9.7,9.8
			C364.6,95.2,369,90.9,369,85.4C369,85.5,369,85.5,369,85.4z"/>
		<path class="st1" d="M427.2,93.7c-2,0-3.8-0.8-5.1-2.3c-2.2-2.5-2-6.3,0.5-8.5c0.1-0.1,0.1-0.1,0.2-0.2c2.8-2.2,6.8-2.1,9.5,0.4
			c2.4,2.4,2.4,6.2,0,8.6c-0.6,0.6-1.4,1.1-2.2,1.4C429.2,93.5,428.2,93.6,427.2,93.7z M429.4,87.5c0.1-1.1-0.7-2.1-1.9-2.1
			c0,0,0,0,0,0c-1.1,0-2,0.8-2.1,1.9c0,0.1,0,0.1,0,0.2c0,1.1,0.9,2.1,2,2.2C428.6,89.6,429.4,88.7,429.4,87.5
			C429.4,87.5,429.4,87.5,429.4,87.5z"/>
		<path class="st1" d="M409.2,85.5c0-2.5,0-5,0-7.5c0-0.4,0.1-0.6,0.5-0.5c1.3,0,2.7,0,4,0c0.3,0,0.5,0.1,0.5,0.4
			c0,5.1,0,10.1,0,15.2c0,0.4-0.1,0.5-0.5,0.5c-1.3,0-2.6,0-3.9,0c-0.4,0-0.6-0.1-0.6-0.6C409.2,90.5,409.2,88,409.2,85.5z"/>
		<path class="st1" d="M415.1,87.4c0-1.8,0-3.7,0-5.5c0-0.4,0.1-0.5,0.5-0.5c1.4,0,2.7,0,4,0c0.4,0,0.5,0.1,0.5,0.5
			c0,3.7,0,7.4,0,11.1c0,0.4-0.1,0.5-0.5,0.5c-1.4,0-2.7,0-4.1,0c-0.4,0-0.5-0.1-0.5-0.5C415.1,91.1,415.1,89.3,415.1,87.4z"/>
		<path class="st1" d="M417.7,77.4c0.7,0,1.4,0,2.1,0c0.3,0,0.5,0.1,0.4,0.4c0,0.8,0,1.6,0,2.3c0,0.3-0.1,0.5-0.5,0.5
			c-1.4,0-2.9,0-4.3,0c-0.3,0-0.5-0.1-0.4-0.4c0-0.8,0-1.6,0-2.4c0-0.3,0.1-0.4,0.4-0.4C416.2,77.4,417,77.4,417.7,77.4z"/>
		<path class="st1" d="M405.8,80.6c-0.7,0-1.4,0-2.1,0c-0.3,0-0.4-0.1-0.4-0.4c0-0.8,0-1.6,0-2.3c0-0.3,0.1-0.4,0.4-0.4
			c1.4,0,2.9,0,4.3,0c0.3,0,0.5,0.1,0.5,0.5c0,0.8,0,1.5,0,2.3c0,0.3-0.1,0.5-0.5,0.5C407.2,80.6,406.5,80.6,405.8,80.6z"/>
		<path class="st1" d="M355.9,79.4c1.5,0,2.7,1.2,2.7,2.7s-1.2,2.7-2.7,2.7c-1.5,0-2.7-1.2-2.7-2.7
			C353.2,80.7,354.4,79.5,355.9,79.4C355.9,79.4,355.9,79.4,355.9,79.4z"/>
		<path class="st1" d="M362.5,84.9c-1.5,0-2.7-1.2-2.7-2.7c0-1.5,1.2-2.7,2.7-2.7c1.5,0,2.7,1.2,2.7,2.7
			C365.2,83.7,364,84.9,362.5,84.9z"/>
		<path class="st1" d="M356,86c1.5,0,2.7,1.2,2.7,2.7c0,1.5-1.2,2.7-2.7,2.7s-2.7-1.2-2.7-2.7c0,0,0,0,0,0
			C353.3,87.2,354.5,86,356,86z"/>
		<path class="st1" d="M365.2,88.7c0,1.5-1.2,2.7-2.7,2.7c-1.5,0-2.7-1.2-2.7-2.7c0-1.5,1.2-2.7,2.7-2.7
			C364,86,365.2,87.2,365.2,88.7z"/>
	</g>
</g>
<g id="google_vision">
	<g>
		<path class="st1" d="M117,13.9h-12.2c-1.6,0-3,0.8-3.8,2.2l-6,10.5c-0.8,1.4-0.8,3.1,0,4.4l6,10.5c0.8,1.4,2.2,2.2,3.8,2.2H117
			c1.6,0,3-0.8,3.8-2.2l6.1-10.5c0.8-1.4,0.8-3,0-4.4l-6.1-10.5C120,14.7,118.6,13.9,117,13.9z"/>
		<path class="st5" d="M111,22.9l-7.8,5.8l7.8,5.9l7.8-5.8L111,22.9z M106.2,28.7l4.8-3.6l4.8,3.6l-4.8,3.6L106.2,28.7z"/>
		<circle class="st5" cx="110.9" cy="28.8" r="1.6"/>
		<g class="st4">
			<path class="st1" d="M142.6,31.4c-0.3,0.3-1,1-2.7,1c-2.3,0-4.1-1.4-4.1-3.9s1.8-3.9,4.1-3.9c1.7,0,2.5,0.7,2.5,0.7l-0.7,2.1
				c0,0-0.8-0.7-1.7-0.7s-1.7,0.5-1.7,1.7c0,1.2,0.9,1.7,1.7,1.7c0.9,0,1.5-0.4,1.8-0.7L142.6,31.4z"/>
			<path class="st1" d="M145.5,32.2H143v-7.6h2.5V32.2z"/>
			<path class="st1" d="M149.4,32.3c-1.9,0-3.2-1.1-3.2-2.9c0-1.9,1.4-2.9,3.2-2.9c1.9,0,3.2,1.1,3.2,2.9
				C152.6,31.3,151.2,32.3,149.4,32.3z M149.4,28.4c-0.5,0-0.8,0.4-0.8,1c0,0.6,0.3,1,0.8,1s0.8-0.4,0.8-1
				C150.1,28.8,149.9,28.4,149.4,28.4z"/>
			<path class="st1" d="M159.2,32.2h-2.4l0-0.5c-0.2,0.2-0.7,0.6-1.5,0.6c-0.8,0-1.4-0.3-1.7-0.7c-0.3-0.4-0.4-0.8-0.4-1.7v-3.4h2.5
				v3c0,0.6,0.2,0.7,0.5,0.7s0.5-0.2,0.5-0.7v-3h2.5V32.2z"/>
			<path class="st1" d="M166.4,32.2h-2.3l0-0.6c-0.4,0.5-1,0.7-1.8,0.7c-1.6,0-2.6-1.3-2.6-2.9c0-1.7,1-2.9,2.6-2.9
				c1.2,0,1.6,0.6,1.6,0.6s0-0.4,0-0.9v-1.6h2.5V32.2z M163.2,28.4c-0.5,0-0.9,0.3-0.9,1c0,0.6,0.4,1,0.9,1c0.5,0,0.9-0.3,0.9-1
				C164,28.7,163.6,28.4,163.2,28.4z"/>
		</g>
		<g class="st4">
			<path class="st1" d="M175.8,24.6l-2.9,7.6h-2.4l-2.9-7.6h2.6l1.4,4.4l1.4-4.4H175.8z"/>
		</g>
		<g class="st4">
			<path class="st1" d="M176.5,26.4c-0.8,0-1.3-0.5-1.3-1.2c0-0.7,0.5-1.2,1.3-1.2c0.8,0,1.3,0.5,1.3,1.2
				C177.8,25.9,177.3,26.4,176.5,26.4z M177.7,32.2h-2.5v-5.6h2.5V32.2z"/>
			<path class="st1" d="M182.6,31.8c-0.4,0.3-1,0.5-1.8,0.5s-1.8-0.1-2.6-0.8l0.8-1.5c0.8,0.5,1.7,0.6,1.8,0.6c0.2,0,0.3,0,0.3-0.2
				c0-0.2-0.7-0.4-0.9-0.4c-0.2-0.1-0.4-0.1-0.7-0.2c-0.2-0.1-1-0.4-1-1.5s1-1.9,2.4-1.9c1.3,0,2.1,0.5,2.4,0.6l-0.7,1.4
				c-0.6-0.4-1.2-0.5-1.6-0.5c-0.2,0-0.3,0.1-0.3,0.2c0,0.1,0.3,0.2,0.6,0.3c0.3,0.1,0.5,0.1,0.8,0.3c0.3,0.1,0.6,0.3,0.8,0.5
				c0.2,0.2,0.5,0.6,0.5,1.2C183.3,31,183,31.5,182.6,31.8z"/>
			<path class="st1" d="M185.2,26.4c-0.8,0-1.3-0.5-1.3-1.2c0-0.7,0.5-1.2,1.3-1.2c0.8,0,1.3,0.5,1.3,1.2
				C186.5,25.9,186,26.4,185.2,26.4z M186.4,32.2h-2.5v-5.6h2.5V32.2z"/>
			<path class="st1" d="M190.3,32.3c-1.9,0-3.2-1.1-3.2-2.9c0-1.9,1.4-2.9,3.2-2.9c1.9,0,3.2,1.1,3.2,2.9
				C193.5,31.3,192.1,32.3,190.3,32.3z M190.3,28.4c-0.5,0-0.8,0.4-0.8,1c0,0.6,0.3,1,0.8,1s0.8-0.4,0.8-1
				C191,28.8,190.8,28.4,190.3,28.4z"/>
			<path class="st1" d="M200.2,32.2h-2.5v-2.8c0-0.6-0.1-1-0.6-1c-0.5,0-0.6,0.4-0.6,1v2.8h-2.5v-5.6h2.5l0,0.7
				c0.3-0.4,0.7-0.8,1.6-0.8c1.7,0,2.1,1,2.1,2.4V32.2z"/>
			<path class="st1" d="M210.7,32.2H208l-0.3-1.1h-2.2l-0.3,1.1h-2.6l2.6-7.6h2.8L210.7,32.2z M207.2,29.2l-0.6-2l-0.6,2H207.2z"/>
			<path class="st1" d="M216.5,29.2c-0.5,0.4-1.3,0.6-2.1,0.6h-0.8v2.4h-2.5v-7.6h3.3c0.8,0,1.6,0.2,2.1,0.6c0.6,0.4,0.9,1.1,0.9,2
				C217.4,28.1,217.1,28.8,216.5,29.2z M214.6,26.6c-0.2-0.1-0.3-0.1-0.6-0.1h-0.4V28h0.4c0.3,0,0.4,0,0.6-0.1
				c0.2-0.1,0.3-0.3,0.3-0.6C214.9,26.9,214.8,26.7,214.6,26.6z"/>
			<path class="st1" d="M220.5,32.2H218v-7.6h2.5V32.2z"/>
		</g>
	</g>
</g>
<g id="fargate">
	<g>
		<polygon class="st6" points="28,265.1 26.9,265.8 26.9,269.8 24.3,268.6 24.3,265.1 		"/>
		<polygon class="st1" points="29.5,265.1 29.5,268.6 26.9,269.8 26.9,265.8 28,265.1 		"/>
		<polygon class="st7" points="26.9,266.4 24.3,265.1 26.9,264 29.5,265.1 		"/>
		<g>
			<polygon class="st6" points="22.9,261.7 21.7,262.3 21.7,266.4 19.1,265.1 19.1,261.7 			"/>
			<polygon class="st1" points="24.3,261.7 24.3,265.1 21.7,266.4 21.7,262.3 22.9,261.7 			"/>
			<polygon class="st7" points="21.7,262.9 19.1,261.7 21.7,260.5 24.3,261.7 			"/>
			<polygon class="st6" points="33.2,261.7 32,262.3 32,266.4 29.5,265.1 29.5,261.7 			"/>
			<polygon class="st1" points="34.6,261.7 34.6,265.1 32,266.4 32,262.3 33.2,261.7 			"/>
			<polygon class="st7" points="32,262.9 29.5,261.7 32,260.5 34.6,261.7 			"/>
			<path class="st1" d="M26.9,247.9c-7.2,0-13.1,2.6-13.1,5.9s5.9,5.9,13.1,5.9s13.1-2.7,13.1-5.9S34.1,247.9,26.9,247.9z
				 M26.9,257.8c-6.3,0-11.5-2-11.5-4.5s5.1-4.5,11.5-4.5s11.5,2,11.5,4.5S33.2,257.8,26.9,257.8z"/>
			<path class="st6" d="M30.4,244.2l-3.5,1.9v10.2c-4.4,0-7.9-1.3-7.9-3v-9.1L30.4,244.2z"/>
			<path class="st1" d="M34.8,244.2v9.2c-0.1,1.6-3.6,2.9-7.9,2.9v-10.2l3.5-1.9H34.8z"/>
			<polygon class="st7" points="26.9,247.9 18.9,244.2 26.9,240.5 34.8,244.2 			"/>
			<g class="st4">
				<path class="st1" d="M56.1,260.2h-3.5l-0.4-1.4h-2.8l-0.4,1.4h-3.3l3.4-9.8h3.6L56.1,260.2z M51.6,256.3l-0.7-2.6l-0.7,2.6H51.6
					z"/>
			</g>
			<g class="st4">
				<path class="st1" d="M69.4,250.4l-2.8,9.8h-3.3l-1.3-5.5l-1.3,5.5h-3.3l-2.8-9.8H58l1.2,5.5l1.2-5.5h3.2l1.2,5.5l1.2-5.5H69.4z"
					/>
			</g>
			<g class="st4">
				<path class="st1" d="M75.2,259.5c-0.8,0.6-1.8,0.8-2.9,0.8s-2.4-0.3-3.8-1.3l1.4-2.4c0.9,0.8,2.2,1.1,2.6,1.1
					c0.4,0,0.7-0.1,0.7-0.4s-0.4-0.4-0.7-0.5c-0.4-0.1-1.1-0.4-1.4-0.5c-0.3-0.1-0.9-0.3-1.4-0.7c-0.5-0.4-0.9-1-0.9-2.1
					c0-1.1,0.6-1.9,1.1-2.4c0.6-0.5,1.6-0.9,2.9-0.9c1.3,0,2.6,0.5,3.5,1.2l-1.2,2.3c-0.7-0.7-1.8-0.9-2.3-0.9
					c-0.5,0-0.8,0.1-0.8,0.4c0,0.3,0.5,0.4,0.7,0.5s0.8,0.2,1.2,0.4c0.3,0.1,1.1,0.4,1.6,0.8s0.9,1.1,0.9,2.1
					C76.5,258,76,258.9,75.2,259.5z"/>
			</g>
			<g class="st4">
				<path class="st1" d="M85.6,251.5h-4.1v3.3h3.8v1.2h-3.8v4.2h-1.4v-9.8h5.4V251.5z"/>
			</g>
			<g class="st4">
				<path class="st1" d="M92,260.2h-1.3l0-0.9c-0.3,0.3-0.9,1-2.1,1c-1.3,0-2.3-0.8-2.3-2.1c0-1.3,1.1-2,2.6-2.1l1.8-0.1v-0.3
					c0-1-0.7-1.5-1.7-1.5c-1,0-1.8,0.4-2,0.6l-0.4-0.9c0.5-0.3,1.4-0.7,2.5-0.7s1.8,0.3,2.2,0.8c0.5,0.5,0.7,1,0.7,2.2V260.2z
					 M90.6,256.9L89,257c-1.1,0.1-1.5,0.5-1.5,1.2c0,0.6,0.5,1.2,1.4,1.2c0.9,0,1.5-0.6,1.7-1V256.9z"/>
			</g>
			<g class="st4">
				<path class="st1" d="M97.4,254.7L97.4,254.7c-0.2-0.1-0.4-0.1-0.8-0.1c-0.6,0-1,0.4-1.1,0.6c-0.1,0.2-0.4,0.7-0.4,1.7v3.4h-1.4
					v-6.8h1.4l0,1h0c0.3-0.8,0.9-1.2,1.7-1.2c0.5,0,0.7,0.1,0.7,0.1L97.4,254.7z"/>
			</g>
			<g class="st4">
				<path class="st1" d="M104.8,258.8c0,1.5-0.2,2.3-0.7,2.9c-0.5,0.6-1.3,1.3-3,1.3c-1.7,0-2.8-0.9-3-1l0.6-1
					c0.4,0.3,1.4,0.9,2.4,0.9s1.6-0.4,1.8-0.7c0.3-0.3,0.5-1,0.5-1.9v-0.3h0c-0.5,0.7-1.2,1.2-2.4,1.2c-1.7,0-3.3-1.3-3.3-3.4
					s1.5-3.4,3.3-3.4c1.2,0,2,0.6,2.4,1.2h0l0-1.1h1.4V258.8z M101.4,254.4c-1.4,0-2.1,1-2.1,2.3c0,1.3,0.8,2.3,2.1,2.3
					c1.4,0,2.1-1,2.1-2.3C103.5,255.4,102.8,254.4,101.4,254.4z"/>
				<path class="st1" d="M112,260.2h-1.3l0-0.9c-0.3,0.3-0.9,1-2.1,1c-1.3,0-2.3-0.8-2.3-2.1c0-1.3,1.1-2,2.6-2.1l1.8-0.1v-0.3
					c0-1-0.7-1.5-1.7-1.5c-1,0-1.8,0.4-2,0.6l-0.4-0.9c0.5-0.3,1.4-0.7,2.5-0.7c1.1,0,1.8,0.3,2.2,0.8c0.5,0.5,0.7,1,0.7,2.2V260.2z
					 M110.6,256.9L109,257c-1.1,0.1-1.5,0.5-1.5,1.2c0,0.6,0.5,1.2,1.4,1.2c0.9,0,1.5-0.6,1.7-1V256.9z"/>
			</g>
			<g class="st4">
				<path class="st1" d="M117,260.1c0,0-0.5,0.2-1.2,0.2s-1.2-0.3-1.4-0.7c-0.3-0.4-0.3-1-0.3-2v-3.1h-1v-1.1h1v-2h1.4v2h1.6v1.1
					h-1.6v3.1c0,0.6,0,1,0.2,1.2c0.1,0.2,0.3,0.3,0.7,0.3c0.4,0,0.7-0.2,0.7-0.2L117,260.1z"/>
			</g>
			<g class="st4">
				<path class="st1" d="M124.1,257.1h-5.2c0.1,1.3,0.9,2.1,2.2,2.1c1.3,0,2.1-0.7,2.2-0.8l0.6,0.8c-0.1,0.1-1,1.1-3,1.1
					c-2,0-3.4-1.4-3.4-3.5c0-2.1,1.6-3.5,3.4-3.5c1.9,0,3.2,1.3,3.2,3.2C124.2,256.8,124.1,257.1,124.1,257.1z M122.9,256.2
					c0-0.8-0.6-1.9-1.9-1.9c-1.4,0-1.9,1.1-2,1.9H122.9z"/>
			</g>
		</g>
	</g>
</g>
</svg>
