<?xml version="1.0" encoding="utf-8"?>
<!-- Generator: Adobe Illustrator 23.0.4, SVG Export Plug-In . SVG Version: 6.00 Build 0)  -->
<svg version="1.1" id="Layer_1" xmlns="http://www.w3.org/2000/svg" xmlns:xlink="http://www.w3.org/1999/xlink" x="0px" y="0px"
	 viewBox="0 0 57 87" style="enable-background:new 0 0 57 87;" xml:space="preserve">
<style type="text/css">
	.st0{fill:#F15953;}
</style>
<path class="st0" d="M56.3,29.2l-10.2,1.1l8.4-13V0.7l-54,43.9v9.2l17.7-2.7L9.2,65c-1.8,2.9-2.7,4.2-3,4.9l-0.2,0.3l0.1,16
	l50.3-42.5L56.3,29.2z M6.9,43l39.5-32L29.7,34.9l20.8-2.2c-7.9,6.7-27,22.6-37.1,31.1l13.8-21.5l1.6-2.6L6.9,43z M42.7,30.7
	l-7.3,0.8L51.7,8v8.5L42.7,30.7z M3.2,50.6v-4.3l20-3.1L20.2,48L3.2,50.6z M8.8,80.4v-9.3c1-0.8,3-2.4,7.1-5.8l37.6-31.6l0.1,8.9
	L8.8,80.4z"/>
</svg>
