<svg xmlns="http://www.w3.org/2000/svg" width="219" height="37" viewBox="0 0 219 37">
    <g fill="none" fill-rule="evenodd">
        <path fill="#FFF" fill-rule="nonzero" d="M8.28 12.92c-.612-.558-1.638-1.026-2.628-1.026-1.224 0-2.106.576-2.106 1.62 0 1.062 1.17 1.44 2.466 1.89 1.782.612 3.888 1.422 3.888 3.888 0 2.808-2.52 3.924-4.5 3.924-1.872 0-3.276-.612-4.626-1.944l1.35-1.278c1.134 1.134 2.016 1.512 3.294 1.512 1.224 0 2.43-.594 2.43-2.034 0-1.314-1.314-1.782-2.718-2.268-1.71-.612-3.51-1.458-3.51-3.528 0-2.376 1.8-3.492 3.852-3.492 1.548 0 2.808.45 3.978 1.35L8.28 12.92zm4.993 5.994c.126 1.494 1.134 2.736 2.754 2.736 1.206 0 2.088-.45 2.646-1.44l1.296.846c-.936 1.476-2.16 2.16-4.032 2.16-2.862 0-4.536-2.07-4.536-4.752 0-2.718 1.98-4.788 4.536-4.788 2.448 0 4.23 1.8 4.23 4.23 0 .324-.036.738-.09 1.008h-6.804zm4.968-1.422c-.072-1.242-.99-2.268-2.268-2.268-1.404 0-2.268.99-2.592 2.268h4.86zm5.569-3.6l.053 1.422c.54-.954 1.35-1.638 2.305-1.638.396 0 .701.036 1.044.126l-.378 1.872c-.27-.144-.523-.198-.864-.198-.883 0-1.566.522-2.07 1.404V23h-1.854v-9.108h1.764zm10.14 0h1.998L32.348 23h-1.584l-3.456-9.108h2.052l2.286 6.75h.036l2.268-6.75zm4.399 5.022c.126 1.494 1.134 2.736 2.754 2.736 1.206 0 2.088-.45 2.646-1.44l1.296.846c-.936 1.476-2.16 2.16-4.032 2.16-2.862 0-4.536-2.07-4.536-4.752 0-2.718 1.98-4.788 4.536-4.788 2.448 0 4.23 1.8 4.23 4.23 0 .324-.036.738-.09 1.008h-6.804zm4.968-1.422c-.072-1.242-.99-2.268-2.268-2.268-1.404 0-2.268.99-2.592 2.268h4.86zm5.569-3.6l.054 1.422c.54-.954 1.35-1.638 2.304-1.638.396 0 .702.036 1.044.126l-.378 1.872c-.27-.144-.522-.198-.864-.198-.882 0-1.566.522-2.07 1.404V23h-1.854v-9.108h1.764zM55.192 9.5V23H53.34V9.5h1.854zm3.751 9.414c.126 1.494 1.134 2.736 2.754 2.736 1.206 0 2.088-.45 2.646-1.44l1.296.846c-.936 1.476-2.16 2.16-4.032 2.16-2.862 0-4.536-2.07-4.536-4.752 0-2.718 1.98-4.788 4.536-4.788 2.448 0 4.23 1.8 4.23 4.23 0 .324-.036.738-.09 1.008h-6.804zm4.968-1.422c-.072-1.242-.99-2.268-2.268-2.268-1.404 0-2.268.99-2.592 2.268h4.86zm9.457-2.772l-1.08 1.17c-.414-.378-1.152-.702-1.8-.702-.738 0-1.242.432-1.242 1.08 0 .666.828.99 1.674 1.332 1.188.468 2.664 1.116 2.664 2.736 0 2.034-1.62 2.88-3.348 2.88-1.296 0-2.484-.504-3.276-1.458l1.224-1.062c.63.648 1.26.99 2.034.99.792 0 1.512-.396 1.512-1.242 0-.702-.828-1.026-1.728-1.386-1.188-.486-2.538-1.026-2.538-2.646 0-1.854 1.458-2.736 3.024-2.736 1.08 0 2.124.36 2.88 1.044zm7.963 0l-1.08 1.17c-.414-.378-1.152-.702-1.8-.702-.738 0-1.242.432-1.242 1.08 0 .666.828.99 1.674 1.332 1.188.468 2.664 1.116 2.664 2.736 0 2.034-1.62 2.88-3.348 2.88-1.296 0-2.484-.504-3.276-1.458l1.224-1.062c.63.648 1.26.99 2.034.99.792 0 1.512-.396 1.512-1.242 0-.702-.828-1.026-1.728-1.386-1.188-.486-2.538-1.026-2.538-2.646 0-1.854 1.458-2.736 3.024-2.736 1.08 0 2.124.36 2.88 1.044zM137.172 17.69h-4.608V23h-1.926V10.4h6.534v1.692h-4.608v3.906h4.608v1.692zm3.697-3.798l.054 1.422c.54-.954 1.35-1.638 2.304-1.638.396 0 .702.036 1.044.126l-.378 1.872c-.27-.144-.522-.198-.864-.198-.882 0-1.566.522-2.07 1.404V23h-1.854v-9.108h1.764zM152.486 23h-1.71l-.055-.918c-.702.81-1.548 1.134-2.663 1.134-1.692 0-3.24-.864-3.24-2.808 0-2.286 2.051-3.006 4.031-3.006.469 0 1.044.054 1.782.198v-.27c0-1.332-.612-2.106-2.07-2.106-1.043 0-2.106.396-2.862.81l-.522-1.494c.99-.468 2.394-.864 3.673-.864 2.61 0 3.636 1.44 3.636 3.798V23zm-1.855-2.268v-1.836a7.532 7.532 0 0 0-1.548-.162c-1.061 0-2.447.288-2.447 1.584 0 1.026.792 1.422 1.691 1.422.882 0 1.62-.432 2.304-1.008zM168.801 23h-1.855v-4.572c0-.828-.018-1.746-.396-2.376-.27-.432-.756-.702-1.476-.702-.828 0-1.728.558-2.34 1.386.054.468.09.99.09 1.53V23h-1.854v-4.572c0-.828-.018-1.818-.45-2.448-.252-.396-.684-.63-1.332-.63-.864 0-1.782.72-2.34 1.476V23h-1.854v-9.108h1.764l.036 1.314c.702-.954 1.818-1.53 2.826-1.53 1.026 0 1.944.396 2.502 1.242.09.126.162.27.216.396a3.745 3.745 0 0 1 3.132-1.638c1.17 0 1.962.414 2.484 1.098.666.864.846 2.106.846 3.492V23zm3.66-4.086c.126 1.494 1.134 2.736 2.754 2.736 1.206 0 2.088-.45 2.646-1.44l1.296.846c-.936 1.476-2.16 2.16-4.032 2.16-2.862 0-4.536-2.07-4.536-4.752 0-2.718 1.98-4.788 4.536-4.788 2.448 0 4.23 1.8 4.23 4.23 0 .324-.036.738-.09 1.008h-6.804zm4.968-1.422c-.072-1.242-.99-2.268-2.268-2.268-1.404 0-2.268.99-2.592 2.268h4.86zm10.05-3.6l1.765 6.714h.054l1.746-6.714h1.908L190.306 23h-1.962l-1.836-6.624h-.036L184.6 23h-2.034l-2.52-9.108h1.998l1.62 6.714h.036l1.908-6.714h1.872zm10.843-.216c2.683 0 4.68 2.106 4.68 4.77 0 2.664-1.998 4.77-4.68 4.77-2.7 0-4.68-2.106-4.68-4.77 0-2.664 1.98-4.77 4.68-4.77zm2.79 4.77c0-1.71-1.17-3.096-2.79-3.096s-2.79 1.386-2.79 3.096c0 1.692 1.17 3.096 2.79 3.096s2.79-1.404 2.79-3.096zm5.533-4.554l.054 1.422c.54-.954 1.35-1.638 2.304-1.638.396 0 .702.036 1.044.126l-.378 1.872c-.27-.144-.522-.198-.864-.198-.882 0-1.566.522-2.07 1.404V23h-1.854v-9.108h1.764zm6.307-4.392v8.748l.036.018 3.51-4.374h2.232l-3.222 3.744L219 23h-2.232l-2.484-3.924-1.332 1.548V23h-1.854V9.5h1.854z"/>
        <g stroke="#F15953" stroke-width="1.5">
            <path d="M111.945 13.173l4.212-6.825.059-5.293L116.15 1c-6.645 5.474-14.499 12.033-21.143 17.506.01.021.007 1.074-.007 3.159l7.854-1.241c-2.712 4.3-5.555 8.998-5.555 8.998l.018 5.35 19.408-16.91-.06-5.2s-3.5.373-4.72.51z"/>
            <path d="M116.597 12.704L97.255 29.467a.01.01 0 0 1-.015-.013l7.729-12.507-9.891 1.416a.01.01 0 0 1-.008-.018l20.997-17.2a.01.01 0 0 1 .014.014l-8.346 12.509 8.855-.981a.01.01 0 0 1 .007.017z"/>
        </g>
    </g>
</svg>
