<svg xmlns="http://www.w3.org/2000/svg" width="316" height="53" viewBox="0 0 316 53">
    <g fill="none" fill-rule="evenodd">
        <g fill="#000" fill-rule="nonzero">
            <path d="M5.797 28.566c1.986.248 4.966.597 5.115 3.657.075 1.418-.496 2.338-.993 2.81-1.267 1.295-3.253 1.37-4.644 1.32-2.732-.075-5.066-1.22-5.19-1.27l1.068-2.238c.024.025 1.937.995 4.072 1.169 3.229.249 3.254-1.144 3.229-1.667-.05-.696-.67-.945-2.955-1.219-2.012-.224-5.091-.572-5.141-3.806-.075-2.687 2.384-3.931 5.066-3.856 2.583.074 4.818.77 4.917.796l-.795 2.463s-1.986-.747-4.196-.821c-1.168-.05-2.46.423-2.46 1.368.026.746.423 1.02 2.907 1.294zm13.047-5.1c5.836 0 5.637 5.946 5.637 5.946v1.442h-9.189c0 1.518 1.267 3.11 3.775 3.11 1.962 0 4.098-.846 4.098-.846l.646 2.214s-2.41.996-4.843.996c-5.687 0-6.333-4.802-6.333-6.469 0-1.766.944-6.393 6.209-6.393zm3.129 5.174s.174-2.711-3.13-2.711c-3.228 0-3.526 2.711-3.526 2.711h6.656zm7.757-2.537c0-.373.572-2.413 2.807-2.413h3.948v2.612h-4.32c-1.118 0-2.236 1.169-2.236 2.04v7.787h-2.781v-12.44h2.433l.15 2.414zm14.314 7.612l3.278-10.025h2.658L46.03 36.129h-3.949l-3.774-12.44h2.806l2.93 10.026zm13.37-10.25c5.836 0 5.638 5.947 5.638 5.947v1.442h-9.189c0 1.518 1.267 3.11 3.775 3.11 1.962 0 4.097-.846 4.097-.846l.646 2.214s-2.409.996-4.843.996c-5.687 0-6.332-4.802-6.332-6.469 0-1.766.943-6.393 6.208-6.393zm3.13 5.175s.173-2.711-3.13-2.711c-3.228 0-3.526 2.711-3.526 2.711h6.655zm7.757-2.537c0-.373.571-2.413 2.806-2.413h3.949v2.612h-4.321c-1.118 0-2.235 1.169-2.235 2.04v7.787h-2.782v-12.44h2.434l.149 2.414zm13.171-7.39v14.803h5.116v2.613h-7.773V21.003h-3.973v-2.29h6.63zm12.774 4.753c5.837 0 5.638 5.946 5.638 5.946v1.442h-9.189c0 1.518 1.267 3.11 3.775 3.11 1.962 0 4.098-.846 4.098-.846l.645 2.214s-2.409.996-4.842.996c-5.687 0-6.333-4.802-6.333-6.469 0-1.766.944-6.393 6.208-6.393zm3.13 5.174s.173-2.711-3.13-2.711c-3.228 0-3.526 2.711-3.526 2.711h6.656zm9.868-.074c1.987.248 4.967.597 5.116 3.657.074 1.418-.497 2.338-.993 2.81-1.267 1.295-3.254 1.37-4.644 1.32-2.732-.075-5.067-1.22-5.19-1.27l1.067-2.238c.025.025 1.937.995 4.073 1.169 3.228.249 3.253-1.144 3.228-1.667-.05-.696-.67-.945-2.955-1.219-2.012-.224-5.09-.572-5.14-3.806-.075-2.687 2.383-3.931 5.066-3.856 2.582.074 4.817.77 4.917.796l-.795 2.463s-1.987-.747-4.197-.821c-1.167-.05-2.459.423-2.459 1.368.025.746.423 1.02 2.906 1.294zm12.526 0c1.987.248 4.967.597 5.116 3.657.074 1.418-.497 2.338-.994 2.81-1.266 1.295-3.253 1.37-4.644 1.32-2.731-.075-5.066-1.22-5.19-1.27l1.068-2.238c.025.025 1.937.995 4.073 1.169 3.228.249 3.253-1.144 3.228-1.667-.05-.696-.67-.945-2.955-1.219-2.012-.224-5.091-.572-5.14-3.806-.075-2.687 2.383-3.931 5.065-3.856 2.583.074 4.818.77 4.917.796l-.794 2.463s-1.987-.747-4.197-.821c-1.167-.05-2.459.423-2.459 1.368.025.746.422 1.02 2.906 1.294zM193.344 23.938h2.235v-1.443c0-1.542.77-3.781 3.65-3.781h3.055v2.612h-2.856c-1.29 0-1.192.97-1.192 1.866v.746h3.552v2.463h-3.552v9.728h-2.657V26.4h-2.235v-2.463zm14.339 2.165c0-.373.57-2.413 2.806-2.413h3.949v2.612h-4.322c-1.117 0-2.235 1.169-2.235 2.04v7.787H205.1v-12.44h2.434l.149 2.414zm19.43 10.026h-2.385l-.174-1.717s-1.241 1.866-4.048 1.866c-3.402 0-4.867-2.339-4.867-4.205 0-1.84 1.614-3.756 4.52-3.756 2.235 0 3.998-.025 4.395-.025 0 0 .249-2.363-2.533-2.363-2.334 0-4.445.696-4.445.696l-.745-2.413s3.055-.771 4.867-.771c3.303 0 5.414 1.716 5.414 5.498v7.19zm-6.284-2.19c2.484 0 3.8-1.567 3.8-1.567v-1.816s-1.59-.025-3.974-.025c-1.688 0-2.31.622-2.31 1.542 0 1.02.796 1.866 2.484 1.866zm17.518-8.384c0-.003.474-1.965 3.154-1.965 2.185 0 3.253 1.816 3.253 2.612v9.927h-2.657v-8.235c0-1.095-.323-1.766-1.59-1.766-1.018 0-1.639.622-1.639 1.915v8.086h-2.558v-8.335c0-1.094-.695-1.666-1.59-1.666-.943 0-1.688.572-1.787 1.642v8.359h-2.707v-12.44h2.508l.1 1.518s.869-1.642 2.657-1.642c2.357 0 2.855 1.987 2.856 1.99zm14.76-2.09c5.837 0 5.638 5.947 5.638 5.947v1.442h-9.189c0 1.518 1.267 3.11 3.775 3.11 1.962 0 4.098-.846 4.098-.846l.645 2.214s-2.409.996-4.842.996c-5.687 0-6.333-4.802-6.333-6.469 0-1.766.944-6.393 6.208-6.393zm3.13 5.175s.173-2.711-3.13-2.711c-3.228 0-3.526 2.711-3.526 2.711h6.656zm16.226-4.95h2.632l-2.061 12.439h-3.353l-1.838-9.355-.024-.024-.025.024-1.838 9.355h-3.353l-2.06-12.44h2.632l1.192 9.404 1.912-9.354-.025-.05h3.13l-.026.05 1.913 9.354 1.192-9.403zm10.712-.224c3.875 0 6.308 2.388 6.308 6.393 0 3.807-2.433 6.493-6.308 6.493-4.097 0-6.58-2.686-6.58-6.493 0-4.005 2.483-6.393 6.58-6.393zm0 10.324c2.683 0 3.726-1.667 3.726-3.93 0-1.966-1.043-4.03-3.726-4.03-2.93 0-3.874 2.064-3.874 4.03 0 2.263.944 3.93 3.874 3.93zm11.235-7.687c0-.373.571-2.413 2.806-2.413h3.949v2.612h-4.321c-1.118 0-2.236 1.169-2.236 2.04v7.787h-2.78v-12.44h2.433l.149 2.414zm21.54 10.026h-3.824l-5.414-6.245v6.245h-2.657V21.003h-2.484v-2.29h5.141v9.53l4.743-4.553h3.527l-5.638 5.299 6.606 7.14z"/>
        </g>
        <g stroke="#F15953" stroke-width="1.518">
            <path d="M167.825 19.152l6.254-10.008.086-7.764c-.056-.047-.04-.034-.098-.08-9.864 8.027-21.524 17.647-31.388 25.675.015.03.012 1.574-.01 4.632l11.66-1.82a958.483 958.483 0 0 0-8.246 13.198l.026 7.845 28.813-24.799-.089-7.629s-5.196.548-7.008.75z"/>
            <path d="M174.743 18.456L145.994 43.07a.01.01 0 0 1-.015-.013l11.49-18.369-14.7 2.079a.01.01 0 0 1-.008-.018l31.208-25.256a.01.01 0 0 1 .014.014l-12.407 18.372 13.16-1.44a.01.01 0 0 1 .007.017z"/>
        </g>
    </g>
</svg>
