<svg xmlns="http://www.w3.org/2000/svg" width="316" height="260" viewBox="0 0 316 260">
    <g fill="none" fill-rule="evenodd" stroke="#000" stroke-linejoin="round" stroke-width="2" transform="translate(-143 -199)">
        <circle cx="228.58" cy="228.58" r="194.47"/>
        <circle cx="228.58" cy="228.58" r="172.25"/>
        <path d="M228.58 400.83v22.22M228.58 34.11v22.22M400.83 228.58h22.22M34.11 228.58h22.22M106.78 350.38L91.07 366.1M366.1 91.07l-15.72 15.71M350.38 350.38l15.72 15.72M91.07 91.07l15.71 15.71M294.5 387.72l8.5 20.53M154.16 48.92l8.51 20.52M387.72 162.67l20.53-8.51M48.92 303l20.52-8.5M162.67 387.72l-8.51 20.53M303 48.92l-8.5 20.52M387.72 294.5l20.53 8.5M48.92 154.16l20.52 8.51"/>
        <path stroke-dasharray="4" d="M228.58 457.16c126.241 0 228.58-102.339 228.58-228.58C457.16 102.339 354.821 0 228.58 0 102.339 0 0 102.339 0 228.58c0 126.241 102.339 228.58 228.58 228.58zM92.31 210.05c8.347-61.24 56.509-109.398 117.75-117.74M247.11 364.85c61.241-8.342 109.403-56.5 117.75-117.74M247.11 92.31c61.243 8.339 109.406 56.498 117.75 117.74M92.31 247.11c8.35 61.239 56.51 109.395 117.75 117.74"/>
        <path d="M251.52 373.68l-8.82-8.82 8.82-8.83M205.65 373.68l8.82-8.82-8.82-8.83M251.52 101.14l-8.82-8.83 8.82-8.82M205.65 101.14l8.82-8.83-8.82-8.82M83.49 251.52l8.82-8.82 8.82 8.82M83.49 205.65l8.82 8.82 8.82-8.82M356.03 251.52l8.82-8.82 8.82 8.82M356.03 205.65l8.82 8.82 8.82-8.82"/>
    </g>
</svg>
