<svg xmlns="http://www.w3.org/2000/svg" xmlns:xlink="http://www.w3.org/1999/xlink" width="132" height="132" viewBox="0 0 132 132">
    <defs>
        <path id="a" d="M0 0h132v132H0z"/>
        <path id="c" d="M0 132h132V0H0z"/>
    </defs>
    <g fill="none" fill-rule="evenodd">
        <path fill="#FD5750" d="M67.928 17.816A49.362 49.362 0 0 0 66 17.778l-.031-2h.03c.674 0 1.344.013 2.009.04l-.08 1.998zm-5.873.12l-.162-1.993a50.343 50.343 0 0 1 2.034-.124l.084 1.998c-.655.028-1.308.067-1.956.12zm9.777.192a44.586 44.586 0 0 0-1.948-.196l.158-1.994c.68.054 1.358.122 2.03.203l-.24 1.987zm-13.665.283l-.324-1.975a49.615 49.615 0 0 1 2.02-.287l.243 1.984a47.35 47.35 0 0 0-1.94.278zm17.532.342c-.638-.13-1.28-.248-1.926-.352l.318-1.975c.674.109 1.343.232 2.008.368l-.4 1.959zM54.33 19.2l-.482-1.942a52.093 52.093 0 0 1 1.988-.451l.404 1.959c-.641.132-1.278.277-1.91.434zm25.167.494a44.92 44.92 0 0 0-1.89-.51l.48-1.941c.663.163 1.32.34 1.973.53l-.563 1.92zm-28.925.604l-.641-1.894a46.88 46.88 0 0 1 1.948-.613l.56 1.92c-.628.183-1.251.379-1.867.587zm32.643.644a44.48 44.48 0 0 0-1.847-.663l.637-1.897c.649.218 1.29.449 1.927.693l-.717 1.867zm-36.295.756l-.791-1.836c.622-.27 1.25-.525 1.886-.768l.715 1.868c-.611.233-1.213.479-1.81.736zm39.903.796a49.714 49.714 0 0 0-1.79-.814l.792-1.836c.627.27 1.248.552 1.86.845l-.862 1.805zm-43.425.897l-.938-1.765a50.594 50.594 0 0 1 1.816-.92l.869 1.8c-.59.286-1.171.58-1.747.885zm46.889.942a46.874 46.874 0 0 0-1.714-.956l.939-1.766c.6.319 1.195.65 1.783.993l-1.008 1.729zm-50.264 1.032l-1.078-1.684c.57-.366 1.149-.72 1.737-1.064l1.01 1.726c-.565.33-1.12.67-1.67 1.022zm53.567 1.08a49.79 49.79 0 0 0-1.631-1.091l1.078-1.684c.575.368 1.14.747 1.698 1.135l-1.145 1.64zm-56.773 1.162l-1.213-1.59a51.43 51.43 0 0 1 1.648-1.203l1.145 1.64c-.535.374-1.063.758-1.58 1.153zM96.71 28.82a49.166 49.166 0 0 0-1.536-1.22l1.21-1.591c.543.412 1.075.836 1.6 1.268L96.71 28.82zM33.8 30.103l-1.335-1.488a50.123 50.123 0 0 1 1.545-1.331l1.275 1.539c-.503.418-.998.844-1.484 1.28zm65.825 1.333a50.16 50.16 0 0 0-1.43-1.338l1.336-1.488c.506.454 1.003.919 1.49 1.394l-1.396 1.432zm-68.632 1.399l-1.451-1.375a46.75 46.75 0 0 1 1.433-1.453l1.394 1.434a51.67 51.67 0 0 0-1.376 1.394zm71.328 1.445a53.52 53.52 0 0 0-1.32-1.45l1.45-1.375c.469.492.926.995 1.373 1.507l-1.503 1.318zm-73.905 1.507l-1.558-1.254c.426-.53.864-1.052 1.313-1.565l1.504 1.319c-.43.49-.85.99-1.26 1.5zm76.36 1.54a46.25 46.25 0 0 0-1.197-1.548l1.557-1.256c.427.529.843 1.068 1.247 1.615l-1.607 1.19zm-78.693 1.61l-1.654-1.125c.383-.562.776-1.118 1.182-1.665l1.607 1.19c-.39.527-.768 1.059-1.135 1.6zm80.893 1.626a47.027 47.027 0 0 0-1.07-1.64l1.656-1.125c.38.56.752 1.13 1.11 1.708l-1.696 1.057zm-82.963 1.704l-1.74-.986c.336-.593.683-1.18 1.044-1.757l1.697 1.057a46.717 46.717 0 0 0-1.001 1.686zm84.89 1.696a47.355 47.355 0 0 0-.93-1.72l1.74-.986c.336.59.658 1.187.97 1.792l-1.78.914zM22.22 45.757l-1.814-.841c.287-.62.585-1.23.896-1.836l1.779.914a47.058 47.058 0 0 0-.861 1.763zm88.33 1.752a53.912 53.912 0 0 0-.787-1.79l1.814-.841c.286.614.558 1.234.82 1.862l-1.846.769zm-89.832 1.873l-1.877-.69a49.41 49.41 0 0 1 .744-1.904l1.848.765a47.748 47.748 0 0 0-.715 1.829zm91.182 1.794a49.261 49.261 0 0 0-.64-1.851l1.878-.69c.234.636.456 1.279.666 1.928l-1.904.613zm-92.381 1.94l-1.928-.533c.182-.657.376-1.31.584-1.956l1.904.613c-.2.62-.386 1.245-.56 1.876zm93.43 1.836a47.977 47.977 0 0 0-.486-1.9l1.928-.534c.18.653.35 1.312.506 1.975l-1.948.459zm-94.32 1.978l-1.964-.375c.128-.67.269-1.335.423-1.996l1.947.455a47.19 47.19 0 0 0-.405 1.916zm95.058 1.865a47.03 47.03 0 0 0-.33-1.93l1.966-.376c.126.666.242 1.337.342 2.012l-1.978.294zm-95.632 2.009l-1.988-.213a50.16 50.16 0 0 1 .258-2.024l1.979.295a47.672 47.672 0 0 0-.25 1.942zm96.056 1.887a52.389 52.389 0 0 0-.172-1.952l1.988-.215c.073.673.133 1.35.18 2.03l-1.996.137zm-96.315 2.02l-2-.051c.019-.683.05-1.362.095-2.037l1.996.132a48.742 48.742 0 0 0-.091 1.957zm98.385 3.329l-1.998-.08a50.96 50.96 0 0 0 .02-3.313l2-.055a51.11 51.11 0 0 1-.022 3.448zm-100.33.697a54.978 54.978 0 0 1-.068-2.037l2-.03c.01.658.032 1.31.067 1.96l-1.998.107zm100.002 3.369l-1.985-.244c.08-.646.144-1.295.197-1.947l1.994.16a48.467 48.467 0 0 1-.206 2.03zm-99.618.69a51.352 51.352 0 0 1-.233-2.024l1.99-.19c.063.653.138 1.302.225 1.948l-1.982.267zm98.964 3.334l-1.958-.402c.13-.637.249-1.28.353-1.925l1.975.32a50.657 50.657 0 0 1-.37 2.007zm-98.252.686a48.852 48.852 0 0 1-.398-2.002l1.969-.35c.115.646.242 1.287.382 1.922l-1.953.43zm97.27 3.274l-1.92-.56a46.21 46.21 0 0 0 .51-1.892l1.942.483a51.856 51.856 0 0 1-.532 1.969zm-96.234.67c-.2-.648-.386-1.301-.56-1.962l1.935-.507c.167.632.345 1.26.537 1.882l-1.912.588zm94.93 3.202l-1.866-.714c.234-.611.455-1.227.665-1.85l1.895.64c-.218.647-.45 1.289-.693 1.924zm-93.574.647a50.896 50.896 0 0 1-.718-1.91l1.885-.666c.219.617.448 1.228.69 1.834l-1.857.742zm91.958 3.107l-1.803-.866a47.12 47.12 0 0 0 .814-1.785l1.836.79c-.27.628-.552 1.248-.847 1.86zM21 88.324a49.157 49.157 0 0 1-.87-1.843l1.827-.814c.266.595.544 1.184.834 1.766l-1.791.89zm88.377 3.002l-1.724-1.012c.33-.564.648-1.135.956-1.713l1.765.94a46.59 46.59 0 0 1-.997 1.785zm-86.418.567a52.007 52.007 0 0 1-1.015-1.764l1.752-.964c.315.573.64 1.138.976 1.697l-1.713 1.03zm84.215 2.87l-1.637-1.148c.374-.534.738-1.077 1.09-1.628l1.685 1.078a46.075 46.075 0 0 1-1.138 1.698zm-81.971.532a48.462 48.462 0 0 1-1.156-1.68l1.67-1.1a49.42 49.42 0 0 0 1.109 1.612l-1.623 1.168zm79.499 2.714l-1.541-1.275a50.04 50.04 0 0 0 1.22-1.535l1.59 1.213a49.894 49.894 0 0 1-1.27 1.597zm-76.988.495c-.44-.517-.87-1.044-1.29-1.58L28 95.692c.404.515.816 1.02 1.239 1.519l-1.524 1.294zm74.26 2.54l-1.43-1.398c.456-.466.902-.943 1.337-1.43l1.488 1.337a50.42 50.42 0 0 1-1.395 1.492zm-71.497.458c-.48-.481-.951-.971-1.412-1.471l1.47-1.356c.444.48.896.952 1.358 1.414l-1.416 1.413zm68.537 2.346l-1.315-1.508c.493-.43.976-.868 1.45-1.316l1.375 1.45c-.493.469-.996.927-1.51 1.374zm-65.537.42a49.005 49.005 0 0 1-1.528-1.351l1.356-1.471c.48.443.97.877 1.467 1.3l-1.295 1.523zm62.358 2.135l-1.187-1.61a48.734 48.734 0 0 0 1.55-1.195l1.253 1.559c-.53.426-1.067.84-1.616 1.246zm-59.146.383a48.67 48.67 0 0 1-1.634-1.227l1.234-1.574c.515.403 1.036.796 1.568 1.178l-1.168 1.623zm55.779 1.904l-1.06-1.697a49.652 49.652 0 0 0 1.644-1.068l1.123 1.655c-.561.382-1.131.75-1.707 1.11zm-52.37.346a48.388 48.388 0 0 1-1.73-1.092l1.104-1.668c.545.36 1.098.709 1.657 1.047l-1.031 1.713zm48.826 1.66l-.916-1.776c.58-.3 1.154-.61 1.722-.93l.984 1.74c-.59.334-1.186.656-1.79.967zm-45.247.306c-.61-.304-1.214-.62-1.811-.947l.96-1.754c.575.314 1.155.618 1.742.91l-.891 1.79zm41.553 1.407l-.766-1.848a48.36 48.36 0 0 0 1.788-.785l.842 1.814c-.615.286-1.236.559-1.864.819zm-37.82.26a50.344 50.344 0 0 1-1.883-.795l.816-1.827c.597.267 1.199.522 1.809.765l-.741 1.858zm33.99 1.148l-.613-1.904a47.553 47.553 0 0 0 1.853-.638l.689 1.877c-.636.234-1.28.455-1.928.665zm-30.131.21c-.653-.2-1.302-.413-1.945-.64l.665-1.886c.617.216 1.238.42 1.866.614l-.586 1.912zm26.2.88l-.454-1.947a47.44 47.44 0 0 0 1.897-.486l.536 1.928c-.655.18-1.313.35-1.978.505zm-22.253.154a48.205 48.205 0 0 1-1.985-.477l.508-1.934c.628.165 1.263.318 1.903.458l-.426 1.953zm18.246.61l-.295-1.977a46.834 46.834 0 0 0 1.93-.328l.378 1.965a49.12 49.12 0 0 1-2.013.34zm-14.23.099a47.863 47.863 0 0 1-2.017-.314l.35-1.97c.64.114 1.284.215 1.933.302l-.265 1.982zm10.175.339l-.134-1.996a50.165 50.165 0 0 0 1.952-.17l.215 1.988c-.674.073-1.351.132-2.033.178zm-6.113.042a48.935 48.935 0 0 1-2.035-.15l.188-1.991c.647.06 1.298.109 1.953.143l-.106 1.998zm2.708.07l-.672-.003.028-2 .642.004c.44-.001.879-.007 1.318-.018l.052 2c-.454.01-.911.017-1.368.018zM65.009 35.405l-.062-1.998a32.905 32.905 0 0 1 2.06-.003l-.061 2c-.641-.02-1.29-.02-1.937 0zm5.79.358a31.78 31.78 0 0 0-1.92-.24l.188-1.992c.687.064 1.369.15 2.044.256l-.311 1.976zm-9.643.007l-.314-1.974a31.389 31.389 0 0 1 2.048-.26l.185 1.992c-.645.06-1.285.142-1.92.242zm13.42.836c-.617-.18-1.242-.34-1.875-.48l.436-1.953c.674.15 1.34.322 1.998.513l-.56 1.92zm-17.194.013l-.562-1.92a32.842 32.842 0 0 1 1.998-.516l.437 1.95c-.632.143-1.257.305-1.873.486zm20.833 1.305a28.66 28.66 0 0 0-1.8-.717l.68-1.881c.65.234 1.296.492 1.92.766l-.8 1.832zm-24.466.014l-.801-1.832a32.67 32.67 0 0 1 1.912-.764l.685 1.878c-.607.222-1.207.46-1.796.718zm27.91 1.755a30.548 30.548 0 0 0-1.692-.938l.914-1.78c.614.316 1.217.65 1.805 1l-1.026 1.718zm-31.346.017l-1.026-1.717a32.488 32.488 0 0 1 1.8-1l.916 1.777c-.574.296-1.138.61-1.69.94zm34.54 2.174a30.361 30.361 0 0 0-1.56-1.146l1.13-1.648a32.26 32.26 0 0 1 1.665 1.219l-1.234 1.575zm-37.727.015l-1.236-1.572a31.978 31.978 0 0 1 1.663-1.222l1.13 1.65a29.65 29.65 0 0 0-1.557 1.144zm40.622 2.559a31.003 31.003 0 0 0-1.405-1.332l1.33-1.494c.514.457 1.014.93 1.497 1.419l-1.422 1.407zm-43.511.017l-1.422-1.406c.483-.488.98-.962 1.495-1.42l1.332 1.492c-.483.43-.951.875-1.405 1.334zm46.056 2.898a29.795 29.795 0 0 0-1.226-1.496l1.505-1.317c.453.519.889 1.05 1.307 1.596l-1.586 1.217zm-48.6.02l-1.586-1.217c.419-.545.853-1.08 1.304-1.596l1.508 1.314c-.424.487-.833.987-1.226 1.499zm50.756 3.19a30.017 30.017 0 0 0-1.027-1.64l1.66-1.114c.383.569.749 1.15 1.096 1.746l-1.73 1.008zm-52.914.025l-1.728-1.006a32.87 32.87 0 0 1 1.096-1.75l1.66 1.116c-.36.535-.702 1.082-1.028 1.64zm54.648 3.427a30.237 30.237 0 0 0-.811-1.753l1.787-.897c.308.613.597 1.237.866 1.87l-1.842.78zm-56.382.037l-1.842-.78c.269-.635.558-1.261.864-1.873l1.79.894a30.525 30.525 0 0 0-.812 1.759zm57.666 3.61a29.474 29.474 0 0 0-.583-1.843l1.887-.664c.227.647.437 1.309.622 1.967l-1.926.54zm-58.946.045l-1.926-.54c.186-.664.393-1.32.618-1.966l1.889.66a30.653 30.653 0 0 0-.581 1.846zm59.756 3.739a30.675 30.675 0 0 0-.344-1.904l1.955-.418c.143.669.267 1.347.367 2.03l-1.978.292zm-60.56.045l-1.98-.291c.102-.683.224-1.36.365-2.028l1.957.414a31.183 31.183 0 0 0-.342 1.905zm60.886 3.812a30.98 30.98 0 0 0-.102-1.934l1.992-.168c.058.68.094 1.368.11 2.059l-2 .043zm-61.206.046l-2-.041c.014-.692.05-1.38.106-2.058l1.992.166a30.758 30.758 0 0 0-.098 1.933zm63.15 2.69l-1.996-.124c.04-.64.06-1.284.06-1.934h2c0 .69-.022 1.379-.064 2.058zM33.57 69.445a30.948 30.948 0 0 1-.151-2.057l1.998-.082c.027.649.074 1.292.14 1.93l-1.987.209zm64.462 2.702l-1.964-.371c.119-.631.22-1.268.3-1.913l1.986.25a33.657 33.657 0 0 1-.322 2.034zm-63.773 1.362a31.336 31.336 0 0 1-.408-2.022l1.972-.33c.107.638.236 1.269.383 1.894l-1.947.458zm62.743 2.632l-1.9-.621c.199-.61.38-1.23.542-1.857l1.937.5A32.81 32.81 0 0 1 97 76.14zm-61.545 1.314a33.193 33.193 0 0 1-.662-1.953l1.912-.584c.19.62.397 1.23.623 1.834l-1.873.703zm60.015 2.522l-1.807-.857a30.58 30.58 0 0 0 .776-1.777l1.857.743c-.256.64-.532 1.27-.826 1.89zM37.148 81.21a32.344 32.344 0 0 1-.905-1.852l1.825-.82c.264.589.546 1.168.847 1.736l-1.767.936zm56.32 2.375l-1.684-1.08c.348-.543.68-1.097.995-1.663l1.748.97a31.868 31.868 0 0 1-1.06 1.773zm-54.17 1.138a32.123 32.123 0 0 1-1.132-1.722l1.705-1.045c.338.552.692 1.09 1.062 1.617l-1.635 1.15zm51.728 2.186l-1.536-1.283c.415-.494.814-1.003 1.197-1.524l1.61 1.184a33.525 33.525 0 0 1-1.271 1.623zm-49.154 1.03a33.319 33.319 0 0 1-1.338-1.568l1.56-1.25c.405.504.824.995 1.259 1.472l-1.481 1.346zm46.316 1.96l-1.362-1.467c.474-.438.932-.892 1.376-1.36l1.452 1.377c-.474.499-.963.982-1.466 1.45zm-43.355.909a33.333 33.333 0 0 1-1.524-1.386l1.39-1.438c.464.448.942.884 1.433 1.303l-1.3 1.52zm40.164 1.7l-1.166-1.625a30.627 30.627 0 0 0 1.536-1.178l1.266 1.549c-.531.434-1.077.852-1.636 1.254zm-36.864.776a32.338 32.338 0 0 1-1.69-1.186l1.202-1.6c.514.387 1.044.76 1.584 1.114l-1.096 1.672zm33.372 1.41l-.951-1.76a30.817 30.817 0 0 0 1.67-.972l1.06 1.695a32.4 32.4 0 0 1-1.78 1.038zm-29.787.63a32.059 32.059 0 0 1-1.826-.964l.99-1.738c.56.32 1.132.62 1.713.905l-.877 1.797zm26.05 1.097l-.72-1.866a29.329 29.329 0 0 0 1.778-.754l.838 1.817c-.621.287-1.254.555-1.895.803zm-22.231.474a32.66 32.66 0 0 1-1.934-.724l.76-1.85c.595.245 1.2.472 1.815.68l-.641 1.894zm18.299.768l-.476-1.944a28.862 28.862 0 0 0 1.86-.521l.603 1.906c-.66.209-1.327.397-1.987.559zm-14.317.304a33.06 33.06 0 0 1-2.006-.472l.517-1.932c.622.166 1.25.315 1.885.443l-.396 1.96zm10.26.426l-.23-1.986c.645-.075 1.283-.17 1.915-.283l.354 1.968c-.673.122-1.353.222-2.038.3zm-6.176.13c-.69-.05-1.373-.121-2.05-.213l.27-1.982a31.94 31.94 0 0 0 1.926.2l-.146 1.995zM66 98.61l-.336-.002.018-2 .318.002c.544 0 1.084-.015 1.62-.043l.106 1.998c-.571.03-1.147.045-1.726.045z"/>
        <mask id="b" fill="#fff">
            <use xlink:href="#a"/>
        </mask>
        <path fill="#FD5750" d="M66 0C29.55 0 0 29.55 0 66s29.55 66 66 66c36.451 0 66-29.55 66-66S102.451 0 66 0m0 2c35.29 0 64 28.71 64 64s-28.71 64-64 64S2 101.29 2 66 30.71 2 66 2" mask="url(#b)"/>
        <path fill="#FFF" d="M113.112 84.323H18.257a9 9 0 0 1-9-9V56.68a9 9 0 0 1 9-9h94.855a9 9 0 0 1 9 9v18.643a9 9 0 0 1-9 9"/>
        <path fill="#FD5750" d="M18.257 48.68c-4.411 0-8 3.59-8 8v18.643c0 4.411 3.589 8 8 8h94.855c4.412 0 8-3.589 8-8V56.68c0-4.41-3.588-8-8-8H18.257zm94.855 36.643H18.257c-5.514 0-10-4.487-10-10V56.68c0-5.514 4.486-10 10-10h94.855c5.514 0 10 4.486 10 10v18.643c0 5.513-4.486 10-10 10z"/>
        <mask id="d" fill="#fff">
            <use xlink:href="#c"/>
        </mask>
        <path fill="#FD5750" d="M65 84.323h2V47.68h-2zM79.975 67.082c0 2.772-2.307 4.363-5.345 4.363-1.644 0-3.61-.822-3.61-.822l.446-1.913s1.734.84 3.164.84c1.644 0 3.307-.626 3.307-2.343 0-1.66-1.61-2.036-2.538-2.036-1.215 0-2.073.732-2.073.732l-.84-1.448 4.27-3.7H71.2v-1.93h8.185v2.11l-3.306 2.733c2.037.197 3.897 1.11 3.897 3.414M88.756 65.082c0-1.288-.25-2.324-.626-3.058l-3.539 7.4c.339.125.697.197 1.09.197 1.949 0 3.075-1.52 3.075-4.54M83.412 68.3l3.521-7.49c-.359-.177-.769-.268-1.252-.268-1.895 0-2.948 1.537-2.948 4.54 0 1.412.267 2.484.679 3.218m7.327-3.218c0 3.647-1.68 6.453-5.058 6.453-3.486 0-4.898-2.806-4.898-6.453 0-3.806 1.412-6.436 4.898-6.436 3.378 0 5.058 2.63 5.058 6.437M93.588 73.357h-1.823l.696-4.13h1.842zM98.2 61.864c0 1 .947 1.59 1.948 1.59 1.18 0 1.948-.59 1.948-1.59 0-.77-.428-1.591-1.966-1.591-1.359 0-1.93.822-1.93 1.59m4.88 5.434c0-1.304-.984-2.234-2.86-2.234-1.877 0-2.949.93-2.949 2.234 0 1.234.715 2.395 2.95 2.395 2.09 0 2.86-1.18 2.86-2.395m1.947.054c0 3.056-2.557 4.148-4.808 4.148-2.61 0-4.988-1.056-4.988-4.112 0-2.52 2.378-3.2 2.378-3.2s-1.377-.732-1.377-2.323c0-2.091 1.645-3.218 3.987-3.218 2.484 0 3.825 1.127 3.825 3.218 0 1.59-1.34 2.323-1.34 2.323s2.323.662 2.323 3.164M113.167 71.336l-3.897-4.486v4.486h-1.913V60.47h-1.788v-1.645h3.701v6.847l3.414-3.272h2.538l-4.058 3.807 4.755 5.13zM38.066 56.96l2.33 5.341 6.021.511a.477.477 0 0 1 .26.847l-4.57 3.697 1.409 5.7a.477.477 0 0 1-.71.524l-5.176-3.099-5.18 3.1a.477.477 0 0 1-.709-.525l1.41-5.7-4.57-3.697a.478.478 0 0 1 .259-.847l6.02-.51 2.33-5.343a.478.478 0 0 1 .877 0" mask="url(#d)"/>
    </g>
</svg>
