<svg xmlns="http://www.w3.org/2000/svg" xmlns:xlink="http://www.w3.org/1999/xlink" width="132" height="132" viewBox="0 0 132 132">
    <defs>
        <path id="a" d="M0 132h132V0H0z"/>
    </defs>
    <g fill="none" fill-rule="evenodd">
        <path fill="#FFF" d="M116.498 106.812H29.504c-5.26 0-9.52-4.26-9.52-9.51v-62.6c0-5.26 4.26-9.51 9.52-9.51h86.994"/>
        <path fill="#FD5750" d="M116.498 107.812H29.504c-5.801 0-10.52-4.715-10.52-10.51v-62.6c0-5.795 4.719-10.51 10.52-10.51h86.994v2H29.504c-4.697 0-8.52 3.817-8.52 8.51v62.6c0 4.693 3.823 8.51 8.52 8.51h86.994v2z"/>
        <path fill="#FD5750" d="M29.868 33.584a1.007 1.007 0 1 0 1.005 1.006c0-.555-.45-1.006-1.005-1.006m0 4.011a3.01 3.01 0 0 1-3.006-3.005 3.01 3.01 0 0 1 3.006-3.006 3.01 3.01 0 0 1 3.005 3.006 3.008 3.008 0 0 1-3.005 3.005M39.17 33.584a1.007 1.007 0 0 0 0 2.011 1.006 1.006 0 0 0 0-2.01m0 4.01a3.008 3.008 0 0 1-3.004-3.005 3.01 3.01 0 0 1 3.005-3.006 3.01 3.01 0 0 1 3.005 3.006 3.008 3.008 0 0 1-3.005 3.005M48.475 33.584a1.007 1.007 0 1 0 1.005 1.006c0-.555-.451-1.006-1.005-1.006m0 4.011a3.01 3.01 0 0 1-3.006-3.005 3.01 3.01 0 0 1 3.006-3.006 3.01 3.01 0 0 1 3.005 3.006 3.008 3.008 0 0 1-3.005 3.005"/>
        <mask id="b" fill="#fff">
            <use xlink:href="#a"/>
        </mask>
        <path fill="#FD5750" d="M26.278 73.77h10.484v-2.093H26.278zM46.23 66.538c0-.809-.953-1.16-2.197-1.492v3.73c1.408-.145 2.218-.705 2.197-2.238m-4.063-4.435V58.56c-1.305.166-2.03.725-2.03 2.031 0 .766.87 1.16 2.03 1.512m1.866 8.89v1.657h-1.866v-1.657c-2.547-.269-4.662-1.513-4.662-1.513l.87-2.009s1.928.994 3.792 1.284V64.57c-2.134-.559-4.33-1.429-4.33-3.978 0-2.446 1.7-3.958 4.33-4.269v-1.596h1.866v1.555c2.404.145 4.373 1.035 4.373 1.035l-.746 2.156s-1.596-.788-3.627-.954v4.062c2.197.58 4.517 1.39 4.517 3.751.02 2.176-1.201 4.31-4.517 4.662M57.954 65.585c0 1.782.58 3.46 3.108 3.46 2.321 0 3.17-1.844 3.17-3.294 0-1.575-.787-3.295-3.108-3.295-2.072 0-3.17 1.264-3.17 3.13m-2.279 0c0-2.529 1.947-5.16 5.325-5.16 2.237 0 3.232 1.346 3.232 1.346v-5.367h2.114V70.91h-2.114l-.083-1.409s-1.16 1.596-3.315 1.596c-3.543 0-5.159-2.632-5.159-5.512M73.161 62.414c-2.693 0-2.942 2.26-2.942 2.26h5.553s.145-2.26-2.61-2.26m4.703 2.901v1.203h-7.667c0 1.263 1.057 2.59 3.15 2.59 1.637 0 3.418-.705 3.418-.705l.54 1.844s-2.01.83-4.04.83c-4.747 0-5.285-4-5.285-5.389 0-1.47.787-5.325 5.18-5.325 4.87 0 4.704 4.952 4.704 4.952M87.664 65.565c0-1.782-.87-3.295-3.108-3.295-2.052 0-3.15 1.989-3.15 3.44 0 1.575.787 3.398 3.108 3.398 2.114 0 3.15-1.68 3.15-3.543m2.237 0c0 2.527-1.429 5.512-5.22 5.512-2.115 0-3.275-1.596-3.275-1.596v5.574h-2.114V60.55h2.114l.082 1.617s.975-1.803 3.4-1.803c3.584 0 5.013 2.32 5.013 5.2M94.293 68.735h4.269v2.176h-6.487v-12.6H88.76v-1.905h5.533zM107.885 65.689c0-1.637-.871-3.357-3.108-3.357-2.446 0-3.233 1.72-3.233 3.357 0 1.886.787 3.273 3.233 3.273 2.237 0 3.108-1.387 3.108-3.273m2.154 0c0 3.17-2.03 5.408-5.262 5.408-3.42 0-5.492-2.238-5.492-5.408 0-3.336 2.073-5.325 5.492-5.325 3.232 0 5.262 1.989 5.262 5.325M118.18 60.55h2.322l-4.828 14.505h-4.372v-2.218l2.776.022.394-1.162-4.393-11.147h2.487l3.005 8.247z" mask="url(#b)"/>
        <path fill="#FD5750" d="M66 0C29.549 0 0 29.55 0 66s29.549 66 66 66 66-29.55 66-66S102.451 0 66 0m0 2c35.29 0 64 28.71 64 64s-28.71 64-64 64S2 101.29 2 66 30.71 2 66 2" mask="url(#b)"/>
        <path fill="#FD5750" d="M26.583 15.038h1v-2h-1zM29.552 15.038h1.97v-2h-1.97v2zm3.941 0h1.97v-2h-1.97v2zm3.94 0h1.97v-2h-1.97v2zm3.94 0h1.971v-2h-1.971v2zm3.94 0h1.971v-2h-1.971v2zm3.941 0h1.97v-2h-1.97v2zm3.94 0h1.97v-2h-1.97v2zm3.94 0h1.97v-2h-1.97v2zm3.941 0h1.97v-2h-1.97v2zm3.939 0h1.971v-2h-1.971v2zm3.941 0h1.971v-2h-1.971v2zm3.94 0h1.97v-2h-1.97v2zm3.941 0h1.97v-2h-1.97v2zm3.94 0h1.97v-2h-1.97v2zm3.94 0h1.971v-2h-1.971v2zm3.94 0h1.971v-2h-1.971v2zm3.94 0h1.97v-2h-1.97v2zm3.941 0h1.97v-2h-1.97v2zm3.94 0h1.97v-2h-1.97v2zM104.417 15.038h1v-2h-1zM26.583 118.965h1v-2h-1zM29.552 118.965h1.97v-2h-1.97v2zm3.941 0h1.97v-2h-1.97v2zm3.94 0h1.97v-2h-1.97v2zm3.94 0h1.971v-2h-1.971v2zm3.94 0h1.971v-2h-1.971v2zm3.941 0h1.97v-2h-1.97v2zm3.94 0h1.97v-2h-1.97v2zm3.94 0h1.97v-2h-1.97v2zm3.941 0h1.97v-2h-1.97v2zm3.939 0h1.971v-2h-1.971v2zm3.941 0h1.971v-2h-1.971v2zm3.94 0h1.97v-2h-1.97v2zm3.941 0h1.97v-2h-1.97v2zm3.94 0h1.97v-2h-1.97v2zm3.94 0h1.971v-2h-1.971v2zm3.94 0h1.971v-2h-1.971v2zm3.94 0h1.97v-2h-1.97v2zm3.941 0h1.97v-2h-1.97v2zm3.94 0h1.97v-2h-1.97v2zM104.417 118.965h1v-2h-1zM3.962 84.322h1v-2h-1zM6.965 84.322h2.003v-2H6.965v2zm4.006 0h2.004v-2h-2.004v2zm4.006 0h2.003v-2h-2.003v2zM18.984 84.322h1v-2h-1zM3.962 49.681h1v-2h-1zM6.965 49.681h2.003v-2H6.965v2zm4.006 0h2.004v-2h-2.004v2zm4.006 0h2.003v-2h-2.003v2zM18.984 49.681h1v-2h-1z" mask="url(#b)"/>
    </g>
</svg>
