<svg xmlns="http://www.w3.org/2000/svg" xmlns:xlink="http://www.w3.org/1999/xlink" width="42" height="42" viewBox="0 0 42 42">
    <defs>
        <path id="a" d="M0 0h42v42H0z"/>
    </defs>
    <g fill="none" fill-rule="evenodd">
        <g>
            <mask id="b" fill="#fff">
                <use xlink:href="#a"/>
            </mask>
            <path fill="#FD5750" d="M21 0C9.402 0 0 9.401 0 21c0 11.598 9.402 21 21 21s21-9.402 21-21C42 9.401 32.598 0 21 0m0 2c10.477 0 19 8.523 19 19s-8.523 19-19 19S2 31.477 2 21 10.523 2 21 2" mask="url(#b)"/>
        </g>
        <path fill="#FD5750" d="M18.24 24.355v1.78l-6.037-3.266V20.42l6.037-3.546v1.812l-4.895 2.974zM20.67 26.663h-1.232l2.033-11.477h1.234zM23.756 18.687v-1.812l6.037 3.546v2.448l-6.037 3.267v-1.781l4.895-2.694z"/>
        <path fill="#FD5750" d="M32.14 10.647H9.86a3.732 3.732 0 0 0-3.732 3.732v13.243a3.732 3.732 0 0 0 3.732 3.73h22.28a3.731 3.731 0 0 0 3.732-3.73V14.379a3.731 3.731 0 0 0-3.731-3.732m0 2c.955 0 1.73.777 1.73 1.732v13.243c0 .955-.775 1.73-1.73 1.73H9.86a1.733 1.733 0 0 1-1.732-1.73V14.379c0-.955.777-1.732 1.732-1.732h22.28"/>
    </g>
</svg>
