<svg xmlns="http://www.w3.org/2000/svg" xmlns:xlink="http://www.w3.org/1999/xlink" width="42" height="42" viewBox="0 0 42 42">
    <defs>
        <path id="a" d="M0 0h42v42H0z"/>
        <path id="c" d="M0 42h42V0H0z"/>
    </defs>
    <g fill="none" fill-rule="evenodd">
        <mask id="b" fill="#fff">
            <use xlink:href="#a"/>
        </mask>
        <path fill="#FD5750" d="M21 0C9.402 0 0 9.401 0 21c0 11.598 9.402 21 21 21s21-9.402 21-21C42 9.401 32.598 0 21 0m0 2c10.477 0 19 8.523 19 19s-8.523 19-19 19S2 31.477 2 21 10.523 2 21 2" mask="url(#b)"/>
        <path fill="#FD5750" d="M29.05 39.79h-2V20h5.109L21 10.331 9.834 20h5.117v19.79h-2V22H4.468L21 7.685 37.523 22H29.05z"/>
        <mask id="d" fill="#fff">
            <use xlink:href="#c"/>
        </mask>
        <path fill="#FD5750" d="M20.001 10.009h2v-1h-2zM20.001 13.938h2v-1.965h-2v1.965zm0 3.928h2v-1.965h-2v1.965zm0 3.929h2V19.83h-2v1.965zm0 3.929h2v-1.965h-2v1.965zm0 3.928h2v-1.965h-2v1.965zm0 3.929h2v-1.965h-2v1.965zm0 3.929h2v-1.965h-2v1.965zM20.001 40.475h2v-1h-2z" mask="url(#d)"/>
    </g>
</svg>
