<svg xmlns="http://www.w3.org/2000/svg" xmlns:xlink="http://www.w3.org/1999/xlink" width="42" height="42" viewBox="0 0 42 42">
    <defs>
        <path id="a" d="M0 0h42v42H0z"/>
        <path id="c" d="M0 42h42V0H0z"/>
    </defs>
    <g fill="none" fill-rule="evenodd">
        <mask id="b" fill="#fff">
            <use xlink:href="#a"/>
        </mask>
        <path fill="#FD5750" d="M21 0C9.402 0 0 9.401 0 21c0 11.598 9.402 21 21 21s21-9.402 21-21C42 9.401 32.598 0 21 0m0 2c10.477 0 19 8.523 19 19s-8.523 19-19 19S2 31.477 2 21 10.523 2 21 2" mask="url(#b)"/>
        <path fill="#FD5750" d="M9.883 15.388C10.176 26.742 18.82 33.123 21 34.554c2.177-1.436 10.823-7.841 11.117-19.166L21 9.404 9.883 15.388zM21 36.883l-.494-.28c-.516-.292-12.63-7.331-12.63-21.808v-.597L21 7.132l13.124 7.066v.597c0 14.477-12.115 21.516-12.63 21.809l-.494.279z"/>
        <mask id="d" fill="#fff">
            <use xlink:href="#c"/>
        </mask>
        <path fill="#FD5750" d="M20 35.733h2v-1h-2zM20 13.185h2v-1.959h-2v1.959zm0 3.918h2v-1.959h-2v1.959zm0 3.918h2v-1.959h-2v1.959zm0 3.917h2v-1.959h-2v1.959zm0 3.918h2v-1.959h-2v1.959zm0 3.918h2v-1.959h-2v1.959zM20 9.268h2v-1h-2z" mask="url(#d)"/>
    </g>
</svg>
