<svg xmlns="http://www.w3.org/2000/svg" xmlns:xlink="http://www.w3.org/1999/xlink" width="42" height="42" viewBox="0 0 42 42">
    <defs>
        <path id="a" d="M0 0h42v42H0z"/>
    </defs>
    <g fill="none" fill-rule="evenodd">
        <g>
            <mask id="b" fill="#fff">
                <use xlink:href="#a"/>
            </mask>
            <path fill="#FD5750" d="M21 0C9.402 0 0 9.402 0 21s9.402 21 21 21 21-9.402 21-21S32.598 0 21 0m0 2c10.477 0 19 8.523 19 19s-8.523 19-19 19S2 31.477 2 21 10.523 2 21 2" mask="url(#b)"/>
        </g>
        <path fill="#FD5750" d="M32.14 10.647H9.86a3.731 3.731 0 0 0-3.732 3.732v13.243c0 2.06 1.67 3.73 3.731 3.73H32.14a3.73 3.73 0 0 0 3.731-3.73V14.379a3.73 3.73 0 0 0-3.73-3.732m0 2c.954 0 1.73.777 1.73 1.732v13.243c0 .955-.776 1.73-1.73 1.73H9.858a1.733 1.733 0 0 1-1.73-1.73V14.379c0-.955.776-1.732 1.73-1.732H32.14"/>
        <path fill="#FD5750" d="M13.743 27.043l-1.414-1.414 5.118-5.118 3.629 3.63 9.299-9.3 1.414 1.413-10.713 10.714-3.63-3.629z"/>
        <path fill="#FD5750" d="M32.082 21.107h-2v-4.56h-4.56v-2h6.56z"/>
    </g>
</svg>
