<svg xmlns="http://www.w3.org/2000/svg" xmlns:xlink="http://www.w3.org/1999/xlink" width="560" height="403" viewBox="0 0 560 403">
    <defs>
        <rect id="b" width="488" height="331" rx="8"/>
        <filter id="a" width="124.6%" height="136.3%" x="-12.3%" y="-14.5%" filterUnits="objectBoundingBox">
            <feOffset dy="12" in="SourceAlpha" result="shadowOffsetOuter1"/>
            <feGaussianBlur in="shadowOffsetOuter1" result="shadowBlurOuter1" stdDeviation="18"/>
            <feComposite in="shadowBlurOuter1" in2="SourceAlpha" operator="out" result="shadowBlurOuter1"/>
            <feColorMatrix in="shadowBlurOuter1" values="0 0 0 0 0 0 0 0 0 0 0 0 0 0 0 0 0 0 0.12 0"/>
        </filter>
    </defs>
    <g fill="none" fill-rule="evenodd">
        <g transform="translate(36 24)">
            <use fill="#000" filter="url(#a)" xlink:href="#b"/>
            <rect width="487" height="330" x=".5" y=".5" fill="#FFF" stroke="#EAEAEA" stroke-linejoin="square" stroke-opacity=".3" rx="8"/>
        </g>
        <path fill="#FD5750" d="M61 44.6c0 3.092-2.462 5.6-5.5 5.6-3.037 0-5.5-2.508-5.5-5.6 0-3.092 2.463-5.6 5.5-5.6 3.038 0 5.5 2.508 5.5 5.6"/>
        <path fill="#EAEAEA" d="M84 44.6c0 3.092-2.686 5.6-6 5.6-3.313 0-6-2.508-6-5.6 0-3.092 2.687-5.6 6-5.6 3.314 0 6 2.508 6 5.6M106 44.6c0 3.092-2.462 5.6-5.5 5.6S95 47.692 95 44.6c0-3.092 2.462-5.6 5.5-5.6s5.5 2.508 5.5 5.6"/>
    </g>
</svg>
