<svg xmlns="http://www.w3.org/2000/svg" xmlns:xlink="http://www.w3.org/1999/xlink" width="720" height="687" viewBox="0 0 720 687">
    <defs>
        <path id="a" d="M0 686.385h719.995V0H0z"/>
    </defs>
    <g fill="none" fill-rule="evenodd">
        <path stroke="#EAEAEA" stroke-dasharray="2.991,4.486" stroke-linejoin="round" stroke-width="2" d="M625.813 328.232c0 149.187-120.94 270.128-270.128 270.128-149.187 0-270.128-120.941-270.128-270.128 0-149.187 120.94-270.128 270.128-270.128s270.128 120.941 270.128 270.128z"/>
        <path fill="#EAEAEA" d="M640.715 397.22h-185.06c-6.629 0-12 5.371-12 12v264.165c0 6.627 5.371 12 12 12h185.06c6.628 0 12-5.373 12-12V409.22c0-6.628-5.372-12-12-12m0 2c5.515 0 10 4.485 10 10v264.166c0 5.514-4.485 10-10 10h-185.06c-5.515 0-10-4.486-10-10V409.22c0-5.515 4.485-10 10-10h185.06"/>
        <path fill="#FFF" d="M455.655 685.385h185.062c6.627 0 12-5.373 12-12V409.22c0-6.628-5.373-12-12-12H455.655c-6.628 0-12 5.372-12 12v264.166c0 6.627 5.372 12 12 12"/>
        <path stroke="#EAEAEA" stroke-width="2" d="M455.655 685.385h185.062c6.627 0 12-5.373 12-12V409.22c0-6.628-5.373-12-12-12H455.655c-6.628 0-12 5.372-12 12v264.166c0 6.627 5.372 12 12 12z"/>
        <path fill="#EAEAEA" d="M548.185 564.212c-27.978 0-50.657 22.68-50.657 50.657 0 27.977 22.679 50.658 50.657 50.658 27.978 0 50.657-22.68 50.657-50.659 0-27.976-22.679-50.657-50.657-50.657m0 2c26.83 0 48.657 21.828 48.657 48.658 0 26.83-21.827 48.658-48.657 48.658-26.83 0-48.657-21.829-48.657-48.659 0-26.829 21.827-48.657 48.657-48.657"/>
        <path fill="#EAEAEA" d="M548.185 490.644c-27.978 0-50.657 22.681-50.657 50.658s22.679 50.657 50.657 50.657c27.978 0 50.657-22.68 50.657-50.657 0-27.977-22.679-50.658-50.657-50.658m0 2c26.83 0 48.657 21.828 48.657 48.658 0 26.83-21.827 48.657-48.657 48.657-26.83 0-48.657-21.827-48.657-48.657 0-26.83 21.827-48.658 48.657-48.658"/>
        <path fill="#EAEAEA" d="M548.185 417.078c-27.978 0-50.657 22.68-50.657 50.657 0 27.978 22.679 50.657 50.657 50.657 27.978 0 50.657-22.68 50.657-50.657 0-27.977-22.679-50.657-50.657-50.657m0 2c26.83 0 48.657 21.828 48.657 48.657 0 26.83-21.827 48.657-48.657 48.657-26.83 0-48.657-21.827-48.657-48.657 0-26.83 21.827-48.657 48.657-48.657"/>
        <path fill="#FFF" d="M16.605 84.249h199.187c6.628 0 12 5.373 12 12V227.01c0 6.628-5.372 12-12 12H16.605c-6.627 0-12-5.372-12-12V96.249c0-6.627 5.373-12 12-12"/>
        <path stroke="#EAEAEA" stroke-width="2" d="M16.605 84.249h199.187c6.628 0 12 5.373 12 12V227.01c0 6.628-5.372 12-12 12H16.605c-6.627 0-12-5.372-12-12V96.249c0-6.627 5.373-12 12-12z"/>
        <mask id="b" fill="#fff">
            <use xlink:href="#a"/>
        </mask>
        <path stroke="#EAEAEA" stroke-width="2" d="M28.246 214.677H39.24v-40.434H28.246zM51.804 214.676h10.994v-53.463H51.804zM75.364 214.676h10.994v-71.105H75.364zM98.922 214.677h10.994v-59.978H98.922zM122.482 214.676h10.994v-43.047h-10.994zM146.041 214.676h10.994v-37.337h-10.994zM169.599 214.676h10.994v-86.951h-10.994zM193.159 214.677h10.994V102.039h-10.994z" mask="url(#b)"/>
        <path fill="#FFF" d="M274.756 565.24H93.064c-6.628 0-12-5.372-12-12V371.548c0-6.627 5.372-12 12-12h181.692c6.628 0 12 5.373 12 12V553.24c0 6.628-5.372 12-12 12" mask="url(#b)"/>
        <path stroke="#EAEAEA" stroke-width="2" d="M274.756 565.24H93.064c-6.628 0-12-5.372-12-12V371.548c0-6.627 5.372-12 12-12h181.692c6.628 0 12 5.373 12 12V553.24c0 6.628-5.372 12-12 12z" mask="url(#b)"/>
        <path stroke="#EAEAEA" stroke-dasharray="2.99,4.484" stroke-linejoin="round" stroke-width="2" d="M286.17 462.394c0 56.477-45.784 102.26-102.26 102.26-56.476 0-102.26-45.783-102.26-102.26 0-56.477 45.784-102.26 102.26-102.26 56.476 0 102.26 45.783 102.26 102.26z" mask="url(#b)"/>
        <path stroke="#EAEAEA" stroke-width="2" d="M183.91 564.654L81.65 462.394l102.26-102.26 102.26 102.26z" mask="url(#b)"/>
        <path fill="#FFF" d="M705.65 232.739H390.72c-6.628 0-12-5.373-12-12v-73.014c0-6.627 5.372-12 12-12H705.65c6.628 0 12 5.373 12 12v73.014c0 6.627-5.372 12-12 12" mask="url(#b)"/>
        <path stroke="#EAEAEA" stroke-width="2" d="M705.65 232.739H390.72c-6.628 0-12-5.373-12-12v-73.014c0-6.627 5.372-12 12-12H705.65c6.628 0 12 5.373 12 12v73.014c0 6.627-5.372 12-12 12z" mask="url(#b)"/>
        <path stroke="#EAEAEA" stroke-width="2" d="M378.72 193.153s18.567-31.523 48.795-31.523c30.227 0 39.267 40.47 70.013 40.47 30.745 0 37.004-45.571 69.16-45.571 32.154 0 37.153 56.318 71.16 56.318 34.005 0 34.031-66.51 78.415-66.51M274.756 647.527h-30.49c-6.628 0-12-5.373-12-12v-30.491c0-6.628 5.372-12 12-12h30.49c6.628 0 12 5.372 12 12v30.49c0 6.628-5.372 12-12 12zM706.995 312.503h-30.491c-6.627 0-12-5.371-12-12v-30.49c0-6.627 5.373-12 12-12h30.49c6.629 0 12 5.373 12 12v30.49c0 6.629-5.371 12-12 12z" mask="url(#b)"/>
        <path fill="#FFF" d="M434.036 67.96v30.492c0 6.627-5.373 12-12 12h-30.491c-6.628 0-12-5.373-12-12V67.96c0-6.627 5.372-12 12-12h30.49c6.628 0 12 5.373 12 12" mask="url(#b)"/>
        <path stroke="#EAEAEA" stroke-width="2" d="M434.036 67.96v30.492c0 6.627-5.373 12-12 12h-30.491c-6.628 0-12-5.373-12-12V67.96c0-6.627 5.372-12 12-12h30.49c6.628 0 12 5.373 12 12zM395.658 99.904V83.206M406.79 99.904V66.508M417.922 99.904V75.167M215.792 55.492h-30.49c-6.628 0-12-5.373-12-12V13c0-6.628 5.372-12 12-12h30.49c6.628 0 12 5.372 12 12v30.49c0 6.628-5.372 12-12 12z" mask="url(#b)"/>
        <path stroke="#EAEAEA" stroke-width="2" d="M200.547 13.5l-15.619 27.053h31.237zM43.492 412.23H13c-6.628 0-12-5.373-12-12v-30.491c0-6.628 5.372-12 12-12h30.49c6.628 0 12 5.372 12 12v30.491c0 6.627-5.372 12-12 12zM11.547 373.852h33.396M11.547 384.984h33.396M11.547 396.117h33.396M407.387 545.926h-30.49c-6.628 0-12-5.373-12-12v-30.49c0-6.628 5.372-12 12-12h30.49c6.628 0 12 5.372 12 12v30.49c0 6.627-5.372 12-12 12zM368.036 541.999l47.405-47.405M245.494 634.298l28.034-28.034M245.494 606.264l28.034 28.034M709.53 285.258c0 9.82-7.961 17.78-17.78 17.78-9.821 0-17.782-7.96-17.782-17.78s7.96-17.78 17.782-17.78c9.819 0 17.78 7.96 17.78 17.78z" mask="url(#b)"/>
        <path stroke="#EAEAEA" stroke-width="2" d="M691.75 267.477v17.781h17.78" mask="url(#b)"/>
    </g>
</svg>
