<svg xmlns="http://www.w3.org/2000/svg" xmlns:xlink="http://www.w3.org/1999/xlink" width="132" height="132" viewBox="0 0 132 132">
    <defs>
        <path id="a" d="M0 0h132v132H0z"/>
        <path id="c" d="M0 132h132V0H0z"/>
    </defs>
    <g fill="none" fill-rule="evenodd">
        <path stroke="#FD5750" stroke-linejoin="round" stroke-width="2" d="M117.833 87.655l-.707.707"/>
        <path stroke="#FD5750" stroke-dasharray="1.955,1.955" stroke-linejoin="round" stroke-width="2" d="M115.744 89.744l-21.422 21.422"/>
        <path stroke="#FD5750" stroke-linejoin="round" stroke-width="2" d="M93.63 111.857l-.707.707M18.607 39.906l-.707.707"/>
        <g stroke="#FD5750" stroke-linejoin="round" stroke-width="2">
            <path stroke-dasharray="2.032,2.032" d="M16.462 42.05L2.81 55.703"/>
            <path d="M2.091 56.422l-.708.707"/>
        </g>
        <path stroke="#FD5750" stroke-linejoin="round" stroke-width="2" d="M43.346 64.158l-.707.708"/>
        <path stroke="#FD5750" stroke-dasharray="1.978,1.978" stroke-linejoin="round" stroke-width="2" d="M41.24 66.264L16.763 90.741"/>
        <path stroke="#FD5750" stroke-linejoin="round" stroke-width="2" d="M16.064 91.44l-.707.707M98.37 9.133l-.707.709"/>
        <path stroke="#FD5750" stroke-dasharray="1.573,1.573" stroke-linejoin="round" stroke-width="2" d="M96.55 10.953l-1.667 1.669"/>
        <path stroke="#FD5750" stroke-linejoin="round" stroke-width="2" d="M94.327 13.178l-.707.706M122.84 33.655l-.707.707"/>
        <path stroke="#FD5750" stroke-dasharray="2.007,2.007" stroke-linejoin="round" stroke-width="2" d="M120.714 35.782l-7.807 7.807"/>
        <path stroke="#FD5750" stroke-linejoin="round" stroke-width="2" d="M112.197 44.299l-.707.707"/>
        <g>
            <mask id="b" fill="#fff">
                <use xlink:href="#a"/>
            </mask>
            <path fill="#FD5750" d="M66 0C29.549 0 0 29.55 0 66s29.549 66 66 66 66-29.55 66-66S102.451 0 66 0m0 2c35.29 0 64 28.71 64 64s-28.71 64-64 64S2 101.29 2 66 30.71 2 66 2" mask="url(#b)"/>
            <path fill="#FD5750" d="M101.095 66.59a9.525 9.525 0 0 1-2.213-.258c-.718-.173-1.279-.36-1.652-.575-.23-.13-.388-.272-.446-.402a1.022 1.022 0 0 1-.086-.403v-.732c0-.302.115-.445.331-.445.086 0 .172.013.258.043.086.028.216.085.36.143a7.81 7.81 0 0 0 1.58.503 8.627 8.627 0 0 0 1.71.173c.905 0 1.61-.158 2.097-.475.49-.316.748-.776.748-1.365 0-.402-.13-.732-.388-1.006-.259-.272-.747-.516-1.45-.747l-2.085-.646c-1.049-.33-1.825-.82-2.299-1.466-.474-.632-.718-1.336-.718-2.083 0-.604.13-1.135.388-1.595.26-.46.603-.862 1.034-1.18.431-.33.92-.573 1.495-.746a6.271 6.271 0 0 1 1.81-.244c.316 0 .647.015.963.058.33.043.632.1.934.158.287.072.56.144.818.229.26.087.46.173.604.259.201.115.345.23.431.36.086.115.13.273.13.474v.675c0 .302-.116.46-.33.46-.116 0-.303-.058-.547-.173-.819-.373-1.739-.56-2.759-.56-.819 0-1.466.129-1.91.402-.446.273-.676.69-.676 1.279 0 .403.143.747.431 1.02.288.273.82.547 1.581.79l2.04.647c1.034.33 1.781.79 2.227 1.379.445.59.661 1.265.661 2.012 0 .618-.13 1.179-.374 1.667a3.881 3.881 0 0 1-1.049 1.265c-.445.358-.977.617-1.595.803a6.834 6.834 0 0 1-2.054.302zm-18.463-.388c-.259 0-.432-.043-.546-.143-.115-.086-.216-.287-.302-.561l-3.376-11.106c-.087-.287-.13-.474-.13-.574 0-.231.115-.36.345-.36h1.408c.273 0 .46.043.561.144.114.086.201.287.287.56l2.414 9.512 2.241-9.512c.072-.288.158-.474.273-.56.115-.086.316-.144.575-.144h1.15c.272 0 .46.043.574.144.115.086.216.287.273.56l2.27 9.626 2.486-9.626c.086-.288.187-.474.287-.56.115-.086.302-.144.561-.144h1.336c.23 0 .36.115.36.36 0 .07-.015.143-.03.229a2.043 2.043 0 0 1-.1.359l-3.463 11.107c-.086.287-.187.474-.302.56-.115.086-.3.144-.546.144h-1.235c-.273 0-.46-.043-.575-.144-.115-.1-.216-.287-.273-.575l-2.227-9.267-2.213 9.254c-.072.287-.158.473-.273.574-.115.1-.316.143-.575.143h-1.235zM71.094 64.65c.474 0 .963-.086 1.48-.26a3.208 3.208 0 0 0 1.365-.918c.23-.274.402-.575.49-.92.085-.345.142-.762.142-1.25v-.604c-.416-.1-.862-.186-1.322-.244-.46-.057-.905-.086-1.35-.086-.963 0-1.667.187-2.14.575-.475.388-.705.934-.705 1.652 0 .676.172 1.179.531 1.523.345.36.848.532 1.51.532zm5.834-2.184c0 .53.057.963.158 1.278.114.317.258.66.46 1.035.071.115.1.23.1.33 0 .144-.086.288-.273.43l-.905.605a.684.684 0 0 1-.374.13c-.144 0-.287-.073-.43-.202a4.44 4.44 0 0 1-.518-.675 11.394 11.394 0 0 1-.446-.848c-1.12 1.322-2.528 1.983-4.224 1.983-1.207 0-2.169-.344-2.873-1.035-.704-.69-1.064-1.61-1.064-2.76 0-1.22.431-2.21 1.308-2.958.876-.748 2.04-1.121 3.52-1.121.49 0 .992.043 1.523.116.532.07 1.078.186 1.652.315v-1.05c0-1.091-.229-1.852-.675-2.298-.459-.445-1.235-.661-2.342-.661-.503 0-1.02.058-1.552.188-.53.129-1.048.287-1.55.488-.23.1-.404.158-.504.187a.866.866 0 0 1-.23.042c-.2 0-.302-.143-.302-.445v-.704c0-.23.03-.402.101-.503.071-.1.201-.201.402-.302.503-.257 1.106-.473 1.81-.646a8.713 8.713 0 0 1 2.242-.273c1.71 0 2.96.388 3.764 1.164.79.776 1.193 1.954 1.193 3.535v4.655h.03zM105.779 71.332c-.603-.776-3.994-.374-5.532-.187-.46.057-.531-.345-.114-.647 2.7-1.896 7.14-1.351 7.658-.718.517.647-.144 5.086-2.673 7.213-.388.33-.761.158-.59-.273.576-1.422 1.855-4.626 1.25-5.388m-1.967 2.24c-4.727 3.492-11.595 5.346-17.501 5.346-8.276 0-15.733-3.061-21.365-8.147-.445-.402-.043-.948.488-.631 6.093 3.534 13.607 5.674 21.38 5.674 5.245 0 11.006-1.091 16.308-3.333.79-.36 1.466.517.69 1.092M85.943 25.566c.61 0 1.083.188 1.423.565.345.377.52.905.525 1.581h-4.208c.096-.638.35-1.156.761-1.552a2.08 2.08 0 0 1 1.5-.594zm-18.28-.816v4.38c0 2.08.93 3.12 2.785 3.12 1.086 0 1.887-.444 2.405-1.33h.03v1.16h1.248v-7.33h-1.248v4.222c0 .683-.198 1.236-.593 1.66-.39.42-.89.63-1.499.63-1.258 0-1.888-.772-1.888-2.318V24.75h-1.24zm-7.888 0v1.002h4.177l-4.61 5.961v.366h6.398v-1.002h-4.565l4.611-5.99v-.337h-6.01zm20.616-.128c-.45 0-.86.145-1.225.436-.366.286-.637.687-.814 1.202h-.03v-1.51h-1.249v7.33h1.248v-3.738c0-.815.178-1.46.533-1.93.36-.474.806-.71 1.34-.71.41 0 .725.08.943.236v-1.217c-.173-.066-.422-.099-.746-.099zm5.575-.043c-1.02 0-1.875.36-2.565 1.08-.684.716-1.026 1.643-1.026 2.784 0 1.207.314 2.144.943 2.812.63.664 1.494.995 2.595.995 1.126 0 2.031-.234 2.716-.702v-1.1c-.735.543-1.542.814-2.419.814-.782 0-1.395-.22-1.842-.665-.446-.444-.68-1.074-.7-1.889h5.502v-.616c0-1.102-.28-1.964-.838-2.584-.557-.62-1.347-.929-2.366-.929zm-32.359-1.518h.03c.056.315.111.544.167.688l1.712 4.372h-3.78l1.695-4.372a3.59 3.59 0 0 0 .176-.688zm-.624-1.245L48.797 32.08h1.423l1.09-2.877h4.625l1.156 2.877h1.415l-4.2-10.263h-1.323zm-17.826-7.75l-8.75 7.322-6.495 10.96 5.53-.556 9.715-17.726zm.751 3.03l-3.81 7.676 6.71 7.777-12.455 1.413 19.325.203-9.77-17.069z"/>
            <path stroke="#FD5750" stroke-width="2" d="M93.62 7.376v23.08c0 5.22-4.23 9.45-9.45 9.45H6.7M6.7 92.086h77.47c5.22 0 9.45 4.24 9.45 9.46v23.08M127.763 86.996H52.37c-5.22 0-9.45-4.24-9.45-9.46v-23.07c0-5.23 4.23-9.46 9.45-9.46h75.393"/>
            <path fill="#FD5750" d="M68.625 111.688c-1.419 0-2.616-1.196-2.616-2.838 0-1.656 1.197-2.866 2.616-2.866 1.405 0 2.504 1.21 2.504 2.866.014 1.655-1.099 2.838-2.504 2.838zm2.365-7.263v.766h-.07c-.459-.557-1.349-1.058-2.476-1.058-2.351 0-4.508 2.06-4.508 4.717 0 2.63 2.157 4.69 4.508 4.69 1.127 0 2.017-.502 2.476-1.073h.07v.682c0 1.795-.96 2.755-2.504 2.755-1.266 0-2.046-.904-2.365-1.67l-1.795.751c.514 1.253 1.892 2.783 4.174 2.783 2.42 0 4.466-1.419 4.466-4.897v-8.446H70.99zm-12.633 7.263c-1.419 0-2.657-1.169-2.657-2.853 0-1.697 1.224-2.85 2.657-2.85s2.657 1.153 2.657 2.85c0 1.684-1.238 2.853-2.657 2.853zm0-7.54c-2.602 0-4.716 1.975-4.716 4.702 0 2.713 2.114 4.702 4.716 4.702 2.602 0 4.717-1.989 4.717-4.702 0-2.727-2.115-4.703-4.717-4.703zm-10.295 7.54c-1.42 0-2.658-1.169-2.658-2.853 0-1.697 1.224-2.85 2.658-2.85 1.418 0 2.657 1.153 2.657 2.85 0 1.684-1.239 2.853-2.657 2.853zm0-7.54c-2.603 0-4.717 1.975-4.717 4.702 0 2.713 2.114 4.702 4.717 4.702 2.601 0 4.716-1.989 4.716-4.702 0-2.727-2.115-4.703-4.716-4.703zm-19.66 2.1c0-4.035 3.381-7.304 7.416-7.304 2.226 0 3.812.876 5.009 2.016l-1.42 1.406c-.848-.807-2.003-1.433-3.589-1.433-2.936 0-5.232 2.365-5.232 5.301 0 2.935 2.296 5.301 5.232 5.301 1.906 0 2.991-.765 3.687-1.46.57-.572.946-1.392 1.085-2.505h-4.772v-1.989h6.72c.069.361.111.778.111 1.252 0 1.501-.403 3.352-1.725 4.66-1.294 1.336-2.936 2.046-5.106 2.046-4.035 0-7.416-3.27-7.416-7.29z"/>
            <mask id="d" fill="#fff">
                <use xlink:href="#c"/>
            </mask>
            <path fill="#FD5750" d="M74.385 113.26h2.059V99.445h-2.059zM81.954 105.956c.82 0 1.517.403 1.739 1.002l-4.202 1.739c-.055-1.808 1.405-2.741 2.463-2.741m.153 5.732c-1.057 0-1.795-.487-2.282-1.42l6.289-2.6-.21-.53c-.388-1.057-1.585-2.991-4.02-2.991-2.421 0-4.438 1.907-4.438 4.704 0 2.628 1.99 4.702 4.66 4.702 2.158 0 3.396-1.322 3.925-2.087l-1.6-1.072c-.543.78-1.267 1.294-2.324 1.294" mask="url(#d)"/>
        </g>
    </g>
</svg>
